<?xml version="1.0" standalone="no"?>
<!DOCTYPE svg PUBLIC "-//W3C//DTD SVG 1.1//EN" "http://www.w3.org/Graphics/SVG/1.1/DTD/svg11.dtd" >
<svg xmlns="http://www.w3.org/2000/svg" xmlns:xlink="http://www.w3.org/1999/xlink" version="1.1">
<metadata></metadata>
<defs>
<font id="core_sans_e55_medium" horiz-adv-x="1089" >
<font-face units-per-em="2048" ascent="1638" descent="-410" />
<missing-glyph horiz-adv-x="532" />
<glyph unicode="&#xfb00;" horiz-adv-x="1349" d="M61 831v193h146v115q0 170 83.5 239.5t284.5 69.5q77 0 142 -12v-181h-109q-99 0 -133.5 -27t-34.5 -100v-104h389v115q0 168 81 238.5t268 70.5q74 0 131 -8v-185h-99q-83 0 -115 -28.5t-32 -98.5v-104h246v-193h-246v-831h-234v831h-389v-831h-233v831h-146z" />
<glyph unicode="&#xfb01;" horiz-adv-x="1216" d="M61 831v193h146v115q0 169 81 239t267 70q74 0 131 -8v-185h-98q-84 0 -116 -28.5t-32 -98.5v-104h246v-193h-246v-831h-233v831h-146zM850 0v1024h233v-1024h-233zM850 1208v226h233v-226h-233z" />
<glyph unicode="&#xfb02;" horiz-adv-x="1216" d="M61 831v193h146v115q0 169 81 239t267 70q74 0 131 -8v-185h-98q-84 0 -116 -28.5t-32 -98.5v-104h246v-193h-246v-831h-233v831h-146zM850 0v1434h233v-1434h-233z" />
<glyph unicode="&#xfb03;" horiz-adv-x="1839" d="M61 831v193h146v115q0 170 83.5 239.5t284.5 69.5q77 0 142 -12v-181h-109q-99 0 -133.5 -27t-34.5 -100v-104h389v115q0 168 81 238.5t268 70.5q74 0 131 -8v-185h-99q-83 0 -115 -28.5t-32 -98.5v-104h246v-193h-246v-831h-234v831h-389v-831h-233v831h-146zM1473 0 v1024h233v-1024h-233zM1473 1208v226h233v-226h-233z" />
<glyph unicode="&#xfb04;" horiz-adv-x="1839" d="M61 831v193h146v115q0 170 83.5 239.5t284.5 69.5q77 0 142 -12v-181h-109q-99 0 -133.5 -27t-34.5 -100v-104h389v115q0 168 81 238.5t268 70.5q74 0 131 -8v-185h-99q-83 0 -115 -28.5t-32 -98.5v-104h246v-193h-246v-831h-234v831h-389v-831h-233v831h-146zM1473 0 v1434h233v-1434h-233z" />
<glyph horiz-adv-x="682" />
<glyph horiz-adv-x="0" />
<glyph horiz-adv-x="0" />
<glyph unicode="&#xd;" horiz-adv-x="485" />
<glyph unicode=" "  horiz-adv-x="532" />
<glyph unicode="&#x09;" horiz-adv-x="532" />
<glyph unicode="&#xa0;" horiz-adv-x="532" />
<glyph unicode="!" horiz-adv-x="643" d="M205 0v225h233v-225h-233zM205 1186v248h233v-248l-24 -795h-185z" />
<glyph unicode="&#x22;" horiz-adv-x="864" d="M164 1024v410h213v-410h-213zM487 1024v410h213v-410h-213z" />
<glyph unicode="#" horiz-adv-x="1368" d="M70 379v184h235l68 307h-234v185h273l84 379h213l-84 -379h262l84 379h213l-84 -379h198v-185h-237l-68 -307h236v-184h-275l-82 -379h-213l82 379h-262l-82 -379h-213l82 379h-196zM518 563h262l68 307h-262z" />
<glyph unicode="$" horiz-adv-x="1187" d="M102 406v24h246v-31q0 -75 43.5 -127.5t120.5 -72.5v438l-39 8q-175 36 -273 139t-98 269q0 160 107 272t303 129v158h168v-162q179 -25 276 -135.5t97 -261.5v-19h-246v19q0 63 -32.5 109t-94.5 67v-393l57 -13q177 -37 273 -143t96 -274q0 -176 -113.5 -291 t-312.5 -135v-158h-168v160q-193 22 -301.5 136t-108.5 288zM348 1053q0 -149 164 -191v377q-80 -15 -122 -64.5t-42 -121.5zM680 195q85 17 132.5 71t47.5 133q0 85 -41.5 135.5t-138.5 73.5v-413z" />
<glyph unicode="%" horiz-adv-x="1667" d="M113 1071q0 217 96 313q74 74 205 74q130 0 204 -74q97 -97 97 -313t-97 -313q-74 -74 -204 -74q-131 0 -205 74q-96 96 -96 313zM309 1071q0 -135 31 -182q24 -37 74 -37q49 0 73 37q31 47 31 182t-31 182q-24 37 -73 37q-50 0 -74 -37q-31 -47 -31 -182zM440 0 l588 1434h199l-588 -1434h-199zM952 362q0 217 97 314q74 74 204 74q131 0 205 -74q96 -96 96 -314q0 -217 -96 -313q-74 -74 -205 -74q-130 0 -204 74q-97 97 -97 313zM1149 362q0 -135 31 -182q24 -37 73 -37q50 0 74 37q31 47 31 182q0 136 -31 183q-24 37 -74 37 q-49 0 -73 -37q-31 -47 -31 -183z" />
<glyph unicode="&#x26;" horiz-adv-x="1337" d="M102 397q0 261 252 406q-77 93 -111 166.5t-34 158.5q0 151 106 240.5t275 89.5t275 -89.5t106 -240.5v-49h-238v41q0 62 -38 97.5t-105 35.5t-105.5 -35.5t-38.5 -97.5q0 -97 99 -207l393 -448q34 100 43 246h238q-12 -267 -107 -443l236 -268h-285l-92 104 q-141 -129 -387 -129q-221 0 -351.5 115t-130.5 307zM340 401q0 -108 69.5 -164.5t176.5 -56.5q151 0 239 88l-346 394q-139 -103 -139 -261z" />
<glyph unicode="'" horiz-adv-x="540" d="M164 1024v410h213v-410h-213z" />
<glyph unicode="(" horiz-adv-x="673" d="M164 709q0 231 20.5 395.5t56.5 267t96.5 162t129.5 81t166 21.5v-206q-52 0 -86 -13.5t-65 -56t-48 -121.5t-27 -209.5t-10 -320.5t10 -320.5t27 -209.5t48 -121.5t65 -56t86 -13.5v-207q-97 0 -166 21.5t-129.5 81t-96.5 162.5t-56.5 267.5t-20.5 395.5z" />
<glyph unicode=")" horiz-adv-x="673" d="M41 -12q43 0 72.5 9t58 35.5t46.5 76.5t32 129t20 195.5t6 275.5t-6 275.5t-20 195.5t-32 129t-46.5 76.5t-58 35.5t-72.5 9v206q97 0 166 -21.5t129.5 -81t96.5 -162t56.5 -267t20.5 -395.5t-20.5 -395.5t-56.5 -267.5t-96.5 -162.5t-129.5 -81t-166 -21.5v207z" />
<glyph unicode="*" horiz-adv-x="1052" d="M72 528l293 140l-293 139l106 184l266 -186l-24 325h213l-27 -325l268 186l107 -184l-295 -139l295 -140l-107 -184l-268 184l27 -323h-213l24 323l-266 -184z" />
<glyph unicode="+" horiz-adv-x="1105" d="M102 571v193h344v366h213v-366h345v-193h-345v-366h-213v366h-344z" />
<glyph unicode="," horiz-adv-x="577" d="M160 0v258h258v-258q0 -102 -68 -167t-190 -69v111q129 9 129 125h-129z" />
<glyph unicode="-" horiz-adv-x="843" d="M102 565v205h639v-205h-639z" />
<glyph unicode="." horiz-adv-x="577" d="M160 0v258h258v-258h-258z" />
<glyph unicode="/" horiz-adv-x="901" d="M0 -190l672 1794h229l-672 -1794h-229z" />
<glyph unicode="0" horiz-adv-x="1155" d="M96 717q0 239 38 383t118 231q118 127 326 127q207 0 325 -127q80 -87 118 -231t38 -383t-38 -383.5t-118 -231.5q-118 -127 -325 -127q-208 0 -326 127q-80 87 -118 231.5t-38 383.5zM334 717q0 -198 17.5 -302.5t60.5 -158.5q61 -76 166 -76q104 0 165 76 q43 54 60.5 158.5t17.5 302.5t-17.5 302.5t-60.5 158.5q-60 75 -165 75q-106 0 -166 -75q-43 -54 -60.5 -158.5t-17.5 -302.5z" />
<glyph unicode="1" horiz-adv-x="1155" d="M233 1040v230l363 164h203v-1434h-238v1184z" />
<glyph unicode="2" horiz-adv-x="1155" d="M131 985v41q0 187 120 309.5t327 122.5t326.5 -122.5t119.5 -309.5q0 -106 -29 -176t-108 -162l-420 -483h577v-205h-892v184l540 627q50 58 72 106.5t22 106.5q0 106 -56.5 167.5t-151.5 61.5q-96 0 -152.5 -62t-56.5 -167v-39h-238z" />
<glyph unicode="3" horiz-adv-x="1155" d="M104 406v26h240v-12q0 -113 64 -176.5t165 -63.5t165.5 64t64.5 176q0 113 -64.5 177.5t-165.5 64.5h-147v198h147q84 0 136.5 53.5t52.5 143.5t-52.5 143t-136.5 53t-136 -53t-52 -143v-10h-238v30q0 167 114 274t312 107t312 -107t114 -274q0 -107 -58.5 -194.5 t-154.5 -120.5q120 -34 188 -126.5t68 -229.5q0 -196 -130.5 -313.5t-338.5 -117.5t-338.5 117.5t-130.5 313.5z" />
<glyph unicode="4" horiz-adv-x="1155" d="M88 295v205l555 934h266v-934h156v-205h-156v-295h-237v295h-584zM332 500h340v573z" />
<glyph unicode="5" horiz-adv-x="1155" d="M129 389h238q10 -101 67.5 -155t149.5 -54q103 0 161 70t58 203t-58 202.5t-161 69.5q-112 0 -168 -90h-238l37 799h748v-205h-527l-20 -402q27 44 87.5 73.5t131.5 29.5q182 0 293.5 -123.5t111.5 -355.5q0 -224 -122 -350t-334 -126q-200 0 -321.5 110.5t-133.5 303.5z " />
<glyph unicode="6" horiz-adv-x="1155" d="M121 647q0 235 28 387.5t91 249.5q55 84 146.5 129t207.5 45q177 0 290.5 -92t139.5 -268h-244q-14 74 -61 114.5t-125 40.5q-119 0 -170.5 -109.5t-56.5 -344.5q30 60 96.5 95.5t159.5 35.5q192 0 311 -128.5t119 -348.5q0 -217 -131.5 -347.5t-333.5 -130.5 q-220 0 -348 162q-65 82 -92 205t-27 305zM360 453q0 -127 61.5 -200t166.5 -73t166 73t61 200t-61 199.5t-166 72.5t-166.5 -72.5t-61.5 -199.5z" />
<glyph unicode="7" horiz-adv-x="1155" d="M133 1229v205h891v-183l-469 -1251h-250l475 1229h-647z" />
<glyph unicode="8" horiz-adv-x="1155" d="M88 406q0 132 66 223t186 133q-95 37 -152 123t-57 192q0 167 120 274t327 107t326.5 -107t119.5 -274q0 -106 -57 -192t-152 -123q120 -42 186 -133t66 -223q0 -196 -135.5 -313.5t-353.5 -117.5t-354 117.5t-136 313.5zM328 420q0 -109 69.5 -174.5t180.5 -65.5 t180 65.5t69 174.5q0 110 -69 176t-180 66t-180.5 -66.5t-69.5 -175.5zM369 1057q0 -88 57 -142.5t152 -54.5t151.5 54.5t56.5 142.5t-56.5 142t-151.5 54t-152 -54t-57 -142z" />
<glyph unicode="9" horiz-adv-x="1155" d="M102 981q0 217 131.5 347t333.5 130q220 0 348 -162q65 -82 92 -205t27 -305q0 -234 -28 -386.5t-91 -249.5q-55 -85 -146.5 -130t-207.5 -45q-177 0 -290.5 92t-139.5 269h244q14 -74 61 -115t125 -41q119 0 170.5 110t56.5 345q-30 -60 -96.5 -95.5t-159.5 -35.5 q-192 0 -311 128.5t-119 348.5zM340 981q0 -127 61 -199.5t166 -72.5t166.5 72.5t61.5 199.5t-61.5 199.5t-166.5 72.5t-166 -72.5t-61 -199.5z" />
<glyph unicode=":" horiz-adv-x="577" d="M160 0v258h258v-258h-258zM160 766v258h258v-258h-258z" />
<glyph unicode=";" horiz-adv-x="577" d="M160 0v258h258v-258q0 -102 -68 -167t-190 -69v111q129 9 129 125h-129zM160 766v258h258v-258h-258z" />
<glyph unicode="&#x3c;" horiz-adv-x="1105" d="M119 573v189l868 375v-213l-622 -256l622 -256v-213z" />
<glyph unicode="=" horiz-adv-x="1105" d="M102 393v193h902v-193h-902zM102 750v192h902v-192h-902z" />
<glyph unicode="&#x3e;" horiz-adv-x="1105" d="M119 199v213l622 256l-622 256v213l868 -375v-189z" />
<glyph unicode="?" horiz-adv-x="1087" d="M113 1044v7q0 182 113.5 294.5t312.5 112.5t312.5 -112.5t113.5 -294.5q0 -120 -42.5 -203.5t-136.5 -165.5q-81 -72 -111 -126.5t-30 -135.5v-49h-233v65q0 115 38.5 191.5t143.5 169.5q79 70 108 121.5t29 125.5q0 100 -53 154.5t-139 54.5t-139.5 -54.5t-53.5 -154.5 h-233zM412 0v225h233v-225h-233z" />
<glyph unicode="@" horiz-adv-x="1548" d="M143 535q0 337 65.5 539t202.5 293t363 91t363 -91t202.5 -293t65.5 -539q0 -251 -111 -385t-315 -134t-309 127t-105 346q0 229 100.5 351.5t272.5 122.5q188 0 246 -129q-15 167 -64 264t-131.5 137.5t-214.5 40.5q-95 0 -160.5 -19.5t-118 -67t-82.5 -133 t-45.5 -212.5t-15.5 -309q0 -187 17.5 -318t49 -213.5t85.5 -128.5t116.5 -63t153.5 -17q132 0 227 53l64 -167q-133 -68 -291 -68q-87 0 -157.5 11.5t-137 40.5t-117.5 75.5t-93 117.5t-69 166.5t-42 224t-15 286.5zM786 489q0 -144 49 -212t156 -68t156 68t49 212 t-49.5 212.5t-155.5 68.5t-155.5 -68.5t-49.5 -212.5z" />
<glyph unicode="A" horiz-adv-x="1261" d="M20 0l465 1434h291l465 -1434h-254l-92 305h-530l-91 -305h-254zM428 518h403l-200 680z" />
<glyph unicode="B" horiz-adv-x="1245" d="M143 0v1434h537q446 0 446 -385q0 -114 -55.5 -191t-155.5 -110q118 -28 185 -119t67 -219q0 -201 -111 -305.5t-335 -104.5h-578zM389 213h277q133 0 194.5 48.5t61.5 160.5t-61.5 161.5t-194.5 49.5h-277v-420zM389 844h240q127 0 189.5 42.5t62.5 145.5t-62.5 146 t-189.5 43h-240v-377z" />
<glyph unicode="C" horiz-adv-x="1306" d="M102 717q0 167 26.5 301t98.5 237q143 203 439 203q247 0 393 -139t155 -365h-245q-5 136 -84.5 213.5t-218.5 77.5q-160 0 -238 -115q-42 -63 -61 -157t-19 -256t19 -256.5t61 -157.5q78 -115 238 -115q139 0 218.5 77.5t84.5 213.5h245q-9 -226 -155 -365t-393 -139 q-296 0 -439 203q-72 103 -98.5 237.5t-26.5 301.5z" />
<glyph unicode="D" horiz-adv-x="1318" d="M143 0v1434h523q301 0 430 -185q72 -103 96.5 -231.5t24.5 -300.5t-24.5 -301t-96.5 -232q-129 -184 -430 -184h-523zM389 213h252q175 0 244 98q44 62 65 155t21 251q0 157 -21 250t-65 155q-69 99 -244 99h-252v-1008z" />
<glyph unicode="E" horiz-adv-x="1107" d="M143 0v1434h863v-213h-617v-379h543v-213h-543v-416h627v-213h-873z" />
<glyph unicode="F" horiz-adv-x="1056" d="M143 0v1434h852v-213h-606v-400h543v-213h-543v-608h-246z" />
<glyph unicode="G" horiz-adv-x="1341" d="M102 717q0 167 26.5 301t98.5 237q143 203 439 203q247 0 393 -139t155 -365h-245q-5 136 -84.5 213.5t-218.5 77.5q-160 0 -238 -115q-42 -63 -61 -157t-19 -256t19 -256.5t61 -157.5q78 -115 238 -115q165 0 243 109q62 85 62 211v41h-295v205h536v-754h-176l-37 176 q-39 -91 -132 -146t-218 -55q-136 0 -245.5 54t-176.5 149q-72 103 -98.5 237.5t-26.5 301.5z" />
<glyph unicode="H" horiz-adv-x="1294" d="M143 0v1434h246v-592h516v592h246v-1434h-246v629h-516v-629h-246z" />
<glyph unicode="I" horiz-adv-x="532" d="M143 0v1434h246v-1434h-246z" />
<glyph unicode="J" horiz-adv-x="1101" d="M41 438v19h246q8 -269 217 -269q217 0 217 287v959h246v-996q0 -223 -123 -343t-342 -120q-216 0 -338.5 120t-122.5 343z" />
<glyph unicode="K" horiz-adv-x="1220" d="M143 0v1434h246v-592h141l369 592h268l-438 -699l502 -735h-275l-426 629h-141v-629h-246z" />
<glyph unicode="L" horiz-adv-x="1048" d="M143 0v1434h246v-1221h627v-213h-873z" />
<glyph unicode="M" horiz-adv-x="1724" d="M143 0v1434h271l448 -1168l449 1168h270v-1434h-242v956l-364 -956h-225l-365 956v-956h-242z" />
<glyph unicode="N" horiz-adv-x="1314" d="M143 0v1434h252l535 -1006v1006h241v-1434h-251l-535 1006v-1006h-242z" />
<glyph unicode="O" horiz-adv-x="1331" d="M102 717q0 167 26.5 301t98.5 237q143 203 439 203q295 0 438 -203q72 -103 98.5 -237t26.5 -301t-26.5 -301.5t-98.5 -237.5q-143 -203 -438 -203q-296 0 -439 203q-72 103 -98.5 237.5t-26.5 301.5zM348 717q0 -162 19 -256.5t61 -157.5q78 -115 238 -115 q159 0 237 115q42 63 61 157.5t19 256.5t-19 256t-61 157q-78 115 -237 115q-160 0 -238 -115q-42 -63 -61 -157t-19 -256z" />
<glyph unicode="P" horiz-adv-x="1226" d="M143 0v1434h570q213 0 333.5 -118.5t120.5 -334.5q0 -217 -120 -335t-334 -118h-324v-528h-246zM389 741h289q120 0 182 62.5t62 177.5q0 117 -62 178.5t-182 61.5h-289v-480z" />
<glyph unicode="Q" horiz-adv-x="1331" d="M102 717q0 167 26.5 301t98.5 237q143 203 439 203q295 0 438 -203q72 -103 98.5 -237t26.5 -301q0 -318 -94 -490l161 -137l-129 -145l-157 133q-131 -103 -344 -103q-296 0 -439 203q-72 103 -98.5 237.5t-26.5 301.5zM348 717q0 -162 19 -256.5t61 -157.5 q78 -115 238 -115q107 0 165 43l-174 150l129 145l160 -137q37 112 37 328q0 162 -19 256t-61 157q-78 115 -237 115q-160 0 -238 -115q-42 -63 -61 -157t-19 -256z" />
<glyph unicode="R" horiz-adv-x="1271" d="M143 0v1434h568q223 0 339.5 -113t116.5 -324q0 -283 -241 -360q106 -22 157 -93t60 -212l12 -201q6 -78 25 -131h-250q-18 57 -21 127l-10 186q-6 114 -62 164.5t-175 50.5h-273v-528h-246zM389 741h283q250 0 250 240q0 127 -64.5 183.5t-185.5 56.5h-283v-480z" />
<glyph unicode="S" horiz-adv-x="1187" d="M102 406v24h246v-31q0 -96 69 -153.5t187 -57.5t187 57.5t69 153.5q0 167 -203 211l-184 39q-176 36 -273.5 137.5t-97.5 266.5q0 173 125 289t351 116q115 0 206.5 -32.5t149.5 -88.5t88.5 -128.5t30.5 -155.5v-19h-246v19q0 87 -59.5 139.5t-169.5 52.5t-170 -52.5 t-60 -139.5q0 -82 49 -127.5t154 -67.5l184 -39q178 -37 274.5 -141.5t96.5 -271.5q0 -193 -134.5 -312t-367.5 -119t-367.5 119t-134.5 312z" />
<glyph unicode="T" horiz-adv-x="1093" d="M31 1221v213h1032v-213h-393v-1221h-246v1221h-393z" />
<glyph unicode="U" horiz-adv-x="1335" d="M133 528v906h246v-871q0 -188 70 -281.5t219 -93.5t218.5 93t69.5 282v871h246v-906q0 -255 -137 -404t-397 -149t-397.5 149t-137.5 404z" />
<glyph unicode="V" horiz-adv-x="1261" d="M20 1434h254l357 -1137l356 1137h254l-465 -1434h-291z" />
<glyph unicode="W" horiz-adv-x="1941" d="M31 1434h254l278 -1127l283 1127h250l282 -1127l279 1127h254l-373 -1434h-301l-266 1055l-266 -1055h-302z" />
<glyph unicode="X" horiz-adv-x="1245" d="M31 0l440 741l-410 693h271l291 -510l290 510h271l-412 -693l442 -741h-270l-321 557l-322 -557h-270z" />
<glyph unicode="Y" horiz-adv-x="1241" d="M31 1434h258l332 -652l331 652h258l-467 -869v-565h-245v565z" />
<glyph unicode="Z" horiz-adv-x="1110" d="M82 0v193l639 1028h-619v213h916v-193l-639 -1028h649v-213h-946z" />
<glyph unicode="[" horiz-adv-x="700" d="M164 -190v1794h454v-203h-221v-1389h221v-202h-454z" />
<glyph unicode="\" horiz-adv-x="901" d="M0 1604h229l672 -1794h-229z" />
<glyph unicode="]" horiz-adv-x="700" d="M82 12h221v1389h-221v203h455v-1794h-455v202z" />
<glyph unicode="^" horiz-adv-x="884" d="M41 958l299 476h205l299 -476h-230l-172 281l-172 -281h-229z" />
<glyph unicode="_" horiz-adv-x="1024" d="M0 -205h1024v-147h-1024v147z" />
<glyph unicode="`" horiz-adv-x="778" d="M160 1495h264l194 -330h-202z" />
<glyph unicode="a" d="M78 301q0 155 102 240.5t279 85.5q100 0 176 -36.5t102 -101.5v168q0 199 -196 199q-173 0 -191 -137h-235q11 153 120 241.5t306 88.5q213 0 321.5 -104t108.5 -286v-518q0 -81 24 -141h-239q-15 39 -19 115q-23 -62 -96 -101t-182 -39q-177 0 -279 85.5t-102 240.5z M311 301q0 -147 213 -147t213 147q0 148 -213 148t-213 -148z" />
<glyph unicode="b" horiz-adv-x="1126" d="M123 0v1434h233v-568q28 84 103 133.5t180 49.5q190 0 295.5 -132t105.5 -405t-105.5 -405t-295.5 -132q-105 0 -180 49.5t-103 133.5v-158h-233zM356 512q0 -168 51 -256t175 -88t174.5 88t50.5 256t-50.5 256t-174.5 88t-175 -88t-51 -256z" />
<glyph unicode="c" horiz-adv-x="1064" d="M86 512q0 260 116 398.5t343 138.5q194 0 309.5 -94.5t134.5 -268.5h-235q-8 79 -62.5 124.5t-146.5 45.5q-124 0 -175 -88t-51 -256t51 -256t175 -88q92 0 146.5 45.5t62.5 124.5h235q-19 -174 -134.5 -268.5t-309.5 -94.5q-227 0 -343 138.5t-116 398.5z" />
<glyph unicode="d" horiz-adv-x="1126" d="M86 512q0 273 105.5 405t295.5 132q105 0 180 -49.5t103 -133.5v568h234v-1434h-234v158q-28 -84 -103 -133.5t-180 -49.5q-190 0 -295.5 132t-105.5 405zM319 512q0 -168 51 -256t175 -88t174.5 88t50.5 256t-50.5 256t-174.5 88t-175 -88t-51 -256z" />
<glyph unicode="e" d="M86 512q0 260 116 398.5t343 138.5t343 -138.5t116 -398.5v-72h-682q13 -272 223 -272q82 0 135 37.5t65 105.5h238q-28 -162 -141 -249t-297 -87q-227 0 -343 138.5t-116 398.5zM324 612h442q-19 244 -221 244t-221 -244z" />
<glyph unicode="f" horiz-adv-x="727" d="M61 831v193h146v115q0 169 81 239t267 70q74 0 131 -8v-185h-98q-84 0 -116 -28.5t-32 -98.5v-104h246v-193h-246v-831h-233v831h-146z" />
<glyph unicode="g" horiz-adv-x="1126" d="M86 512q0 273 105.5 405t295.5 132q105 0 180 -49.5t103 -133.5v158h234v-1057q0 -97 -24.5 -175t-75.5 -139t-138 -94.5t-203 -33.5q-187 0 -297.5 82t-132.5 233h238q21 -135 192 -135q109 0 158 60.5t49 181.5v211q-28 -84 -103 -133.5t-180 -49.5q-190 0 -295.5 132 t-105.5 405zM319 512q0 -169 50.5 -256.5t175.5 -87.5t175 87.5t50 256.5t-50 256.5t-175 87.5t-175.5 -87.5t-50.5 -256.5z" />
<glyph unicode="h" horiz-adv-x="1118" d="M123 0v1434h233v-586q30 93 106.5 147t186.5 54q168 0 259 -105t91 -299v-645h-233v641q0 215 -172 215q-106 0 -172 -74.5t-66 -210.5v-571h-233z" />
<glyph unicode="i" horiz-adv-x="499" d="M133 0v1024h234v-1024h-234zM133 1208v226h234v-226h-234z" />
<glyph unicode="j" horiz-adv-x="499" d="M-72 -252h76q129 0 129 143v1133h234v-1159q0 -153 -87.5 -232t-254.5 -79q-62 0 -97 6v188zM133 1208v226h234v-226h-234z" />
<glyph unicode="k" horiz-adv-x="1015" d="M123 0v1434h233v-809h97l252 399h253l-317 -492l365 -532h-263l-292 444h-95v-444h-233z" />
<glyph unicode="l" horiz-adv-x="499" d="M133 0v1434h234v-1434h-234z" />
<glyph unicode="m" horiz-adv-x="1720" d="M123 0v1024h233v-176q30 94 102 147.5t181 53.5q114 0 194 -53.5t115 -153.5q93 207 314 207q164 0 252 -105t88 -299v-645h-234v657q0 199 -162 199q-105 0 -166 -74t-61 -211v-571h-234v657q0 101 -39.5 150t-121.5 49q-105 0 -166.5 -74t-61.5 -211v-571h-233z" />
<glyph unicode="n" horiz-adv-x="1118" d="M123 0v1024h233v-176q30 93 106.5 147t186.5 54q168 0 259 -105t91 -299v-645h-233v641q0 215 -172 215q-106 0 -172 -74.5t-66 -210.5v-571h-233z" />
<glyph unicode="o" d="M86 512q0 260 116 398.5t343 138.5t343 -138.5t116 -398.5t-116 -398.5t-343 -138.5t-343 138.5t-116 398.5zM319 512q0 -168 51 -256t175 -88t174.5 88t50.5 256t-50.5 256t-174.5 88t-175 -88t-51 -256z" />
<glyph unicode="p" horiz-adv-x="1126" d="M123 -446v1470h233v-158q28 84 103 133.5t180 49.5q190 0 295.5 -132t105.5 -405t-105.5 -405t-295.5 -132q-105 0 -180 49.5t-103 133.5v-604h-233zM356 512q0 -168 51 -256t175 -88t174.5 88t50.5 256t-50.5 256t-174.5 88t-175 -88t-51 -256z" />
<glyph unicode="q" horiz-adv-x="1126" d="M86 512q0 273 105.5 405t295.5 132q105 0 180 -49.5t103 -133.5v158h234v-1470h-234v604q-28 -84 -103 -133.5t-180 -49.5q-190 0 -295.5 132t-105.5 405zM319 512q0 -168 51 -256t175 -88t174.5 88t50.5 256t-50.5 256t-174.5 88t-175 -88t-51 -256z" />
<glyph unicode="r" horiz-adv-x="747" d="M123 0v1024h233v-180q28 105 94 155t183 50q49 0 84 -9l-4 -188q-32 4 -90 4q-129 0 -198 -82t-69 -239v-535h-233z" />
<glyph unicode="s" horiz-adv-x="997" d="M92 291v28h234v-28q0 -62 48.5 -96.5t129.5 -34.5q82 0 130 34.5t48 92.5q0 57 -31.5 87.5t-107.5 43.5l-107 18q-175 31 -256.5 104t-81.5 203q0 133 105.5 219.5t283.5 86.5q181 0 285.5 -83t104.5 -223v-20h-234v20q0 53 -40.5 87t-115.5 34q-74 0 -114.5 -32.5 t-40.5 -81.5q0 -53 34 -80t113 -41l107 -19q178 -30 253.5 -105.5t75.5 -213.5q0 -135 -112.5 -225.5t-298.5 -90.5q-188 0 -300 88.5t-112 227.5z" />
<glyph unicode="t" horiz-adv-x="768" d="M51 831v193h146v291h233v-291h266v-193h-266v-509q0 -87 33.5 -115.5t128.5 -28.5h104v-186q-46 -6 -145 -6q-191 0 -272.5 64t-81.5 226v555h-146z" />
<glyph unicode="u" horiz-adv-x="1118" d="M119 379v645h233v-641q0 -215 172 -215q106 0 172 74.5t66 210.5v571h233v-1024h-233v176q-30 -93 -106.5 -147t-186.5 -54q-168 0 -259 105t-91 299z" />
<glyph unicode="v" horiz-adv-x="1060" d="M31 1024h243l256 -795l256 795h244l-364 -1024h-271z" />
<glyph unicode="w" horiz-adv-x="1654" d="M31 1024h237l217 -764l228 764h229l227 -764l217 764h238l-326 -1024h-245l-226 782l-225 -782h-246z" />
<glyph unicode="x" horiz-adv-x="991" d="M20 0l336 526l-315 498h254l201 -340l200 340h254l-315 -498l336 -526h-254l-221 369l-222 -369h-254z" />
<glyph unicode="y" horiz-adv-x="1062" d="M31 1024h243l263 -737l251 737h244l-448 -1239q-50 -134 -126 -182.5t-204 -48.5q-69 0 -96 4v188h75q49 0 82.5 24.5t55.5 86.5l49 139z" />
<glyph unicode="z" horiz-adv-x="937" d="M74 0v172l485 659h-469v193h760v-172l-485 -659h499v-193h-790z" />
<glyph unicode="{" horiz-adv-x="724" d="M82 604v205h41q62 0 92.5 38t30.5 105v340q0 161 81 236.5t248 75.5h68v-203h-41q-61 0 -92 -37.5t-31 -106.5v-333q0 -173 -149 -217q149 -44 149 -218v-333q0 -69 31 -106.5t92 -37.5h41v-202h-68q-167 0 -248 75t-81 236v340q0 69 -31 106t-92 37h-41z" />
<glyph unicode="|" horiz-adv-x="643" d="M205 -190v1794h233v-1794h-233z" />
<glyph unicode="}" horiz-adv-x="724" d="M82 12h41q61 0 92 37.5t31 106.5v333q0 174 149 218q-149 44 -149 217v333q0 69 -31 106.5t-92 37.5h-41v203h68q167 0 248 -75.5t81 -236.5v-340q0 -67 30.5 -105t92.5 -38h41v-205h-41q-61 0 -92 -37t-31 -106v-340q0 -161 -81 -236t-248 -75h-68v202z" />
<glyph unicode="~" horiz-adv-x="1105" d="M117 524q2 134 70 217.5t196 83.5q60 0 109 -18t76 -40t59 -40t61 -18q79 0 82 104h217q-2 -134 -70 -217.5t-196 -83.5q-60 0 -109 18.5t-76 40t-59 40t-61 18.5q-79 0 -82 -105h-217z" />
<glyph unicode="&#xa1;" horiz-adv-x="643" d="M205 -162l24 795h185l24 -795v-248h-233v248zM205 799v225h233v-225h-233z" />
<glyph unicode="&#xa2;" horiz-adv-x="1064" d="M86 512q0 236 96 371.5t285 158.5v164h147v-162q163 -15 260.5 -107.5t114.5 -250.5h-235q-6 62 -42.5 104.5t-97.5 57.5v-674q61 15 97.5 58t42.5 106h235q-17 -159 -114 -251t-261 -107v-162h-147v164q-189 22 -285 157.5t-96 372.5zM319 512q0 -139 33.5 -223.5 t114.5 -110.5v666q-81 -25 -114.5 -109t-33.5 -223z" />
<glyph unicode="&#xa3;" horiz-adv-x="1095" d="M102 567v176h97q-49 142 -49 304q0 177 112 294t311 117t311.5 -117t112.5 -294v-41h-233v38q0 93 -49.5 147t-141.5 54t-141 -54t-49 -147q0 -159 49 -301h348v-176h-313q2 -12 2 -32q0 -203 -139 -326h684v-209h-905v188q127 149 127 347q0 14 -3 32h-131z" />
<glyph unicode="&#xa5;" horiz-adv-x="1241" d="M31 1434h270l320 -584l319 584h270l-397 -660h217v-139h-287v-107h287v-139h-287v-389h-245v389h-287v139h287v107h-287v139h217z" />
<glyph unicode="&#xa8;" horiz-adv-x="778" d="M80 1200v250h242v-250h-242zM457 1200v250h241v-250h-241z" />
<glyph unicode="&#xa9;" horiz-adv-x="1544" d="M92 717q0 368 178.5 554.5t501.5 186.5t501.5 -186.5t178.5 -554.5t-178.5 -555t-501.5 -187t-501.5 187t-178.5 555zM207 717q0 -315 142 -475t423 -160t423 160t142 475t-142 475t-423 160t-423 -160t-142 -475zM449 717q0 151 23 232.5t79 137.5q74 74 223 74t223 -74 q81 -81 97 -225h-174q-6 51 -29 92q-37 58 -117 58t-117 -58q-36 -59 -36 -237q0 -179 36 -238q37 -57 117 -57t117 57q23 41 29 92h174q-16 -144 -97 -225q-74 -74 -223 -74t-223 74q-56 56 -79 138t-23 233z" />
<glyph unicode="&#xab;" horiz-adv-x="1024" d="M82 565v148l426 258v-185l-250 -147l250 -147v-185zM516 565v148l426 258v-185l-250 -147l250 -147v-185z" />
<glyph unicode="&#xad;" horiz-adv-x="843" d="M102 565v205h639v-205h-639z" />
<glyph unicode="&#xae;" horiz-adv-x="1544" d="M92 717q0 368 178.5 554.5t501.5 186.5t501.5 -186.5t178.5 -554.5t-178.5 -555t-501.5 -187t-501.5 187t-178.5 555zM207 717q0 -315 142 -475t423 -160t423 160t142 475t-142 475t-423 160t-423 -160t-142 -475zM481 289v856h334q132 0 209.5 -70t77.5 -205 q0 -82 -40 -137t-110 -76q66 -7 97.5 -51t37.5 -131l9 -108q3 -51 14 -78h-178q-9 26 -12 76l-7 98q-5 69 -41 101t-112 32h-105v-307h-174zM655 735h136q137 0 137 135q0 138 -137 138h-136v-273z" />
<glyph unicode="&#xb4;" horiz-adv-x="778" d="M160 1165l194 330h264l-256 -330h-202z" />
<glyph unicode="&#xb8;" horiz-adv-x="778" d="M145 -414l68 129q64 -49 147 -49q93 0 93 62q0 65 -109 65q-50 0 -80 -10l-35 45l82 172h174l-45 -92q92 -9 142.5 -58.5t50.5 -128.5q0 -96 -69 -152t-187 -56q-135 0 -232 73z" />
<glyph unicode="&#xbb;" horiz-adv-x="1024" d="M82 307v185l250 147l-250 147v185l426 -258v-148zM516 307v185l250 147l-250 147v185l426 -258v-148z" />
<glyph unicode="&#xbf;" horiz-adv-x="1087" d="M123 -27q0 120 42.5 204t135.5 165q81 72 111 126.5t30 135.5v49h234v-65q0 -115 -38.5 -191.5t-143.5 -169.5q-79 -70 -108.5 -121.5t-29.5 -125.5q0 -100 53.5 -154.5t139.5 -54.5t139 54.5t53 154.5h234v-7q0 -182 -113.5 -294.5t-312.5 -112.5t-312.5 112.5 t-113.5 294.5zM442 799v225h234v-225h-234z" />
<glyph unicode="&#xc0;" horiz-adv-x="1261" d="M20 0l465 1434h291l465 -1434h-254l-92 305h-530l-91 -305h-254zM340 1892h264l195 -329h-203zM428 518h403l-200 680z" />
<glyph unicode="&#xc1;" horiz-adv-x="1261" d="M20 0l465 1434h291l465 -1434h-254l-92 305h-530l-91 -305h-254zM428 518h403l-200 680zM463 1563l194 329h265l-256 -329h-203z" />
<glyph unicode="&#xc2;" horiz-adv-x="1261" d="M20 0l465 1434h291l465 -1434h-254l-92 305h-530l-91 -305h-254zM293 1563l237 329h201l238 -329h-203l-135 163l-135 -163h-203zM428 518h403l-200 680z" />
<glyph unicode="&#xc4;" horiz-adv-x="1261" d="M20 0l465 1434h291l465 -1434h-254l-92 305h-530l-91 -305h-254zM322 1597v250h241v-250h-241zM428 518h403l-200 680zM698 1597v250h242v-250h-242z" />
<glyph unicode="&#xc5;" horiz-adv-x="1261" d="M20 0l465 1434h291l465 -1434h-254l-92 305h-530l-91 -305h-254zM410 1726q0 100 61.5 156.5t159.5 56.5t159.5 -56.5t61.5 -156.5t-61.5 -156.5t-159.5 -56.5t-159.5 56.5t-61.5 156.5zM428 518h403l-200 680zM557 1726q0 -38 19.5 -59.5t54.5 -21.5q34 0 54 21.5 t20 59.5t-20 60t-54 22q-35 0 -54.5 -22t-19.5 -60z" />
<glyph unicode="&#xc6;" horiz-adv-x="1804" d="M-31 0l725 1434h1008v-213h-617v-379h543v-213h-543v-416h627v-213h-872v305h-451l-149 -305h-271zM494 518h346v699z" />
<glyph unicode="&#xc7;" horiz-adv-x="1306" d="M102 717q0 167 26.5 301t98.5 237q143 203 439 203q247 0 393 -139t155 -365h-245q-5 136 -84.5 213.5t-218.5 77.5q-160 0 -238 -115q-42 -63 -61 -157t-19 -256t19 -256.5t61 -157.5q78 -115 238 -115q139 0 218.5 77.5t84.5 213.5h245q-9 -200 -124.5 -333 t-315.5 -162l-37 -76q92 -9 142.5 -58.5t50.5 -128.5q0 -96 -69 -152t-187 -56q-135 0 -232 73l68 129q64 -49 147 -49q93 0 93 62q0 65 -109 65q-50 0 -80 -10l-35 45l72 152q-246 20 -371 198q-72 103 -98.5 237.5t-26.5 301.5z" />
<glyph unicode="&#xc8;" horiz-adv-x="1107" d="M143 0v1434h863v-213h-617v-379h543v-213h-543v-416h627v-213h-873zM283 1892h264l194 -329h-202z" />
<glyph unicode="&#xc9;" horiz-adv-x="1107" d="M143 0v1434h863v-213h-617v-379h543v-213h-543v-416h627v-213h-873zM395 1563l195 329h264l-256 -329h-203z" />
<glyph unicode="&#xca;" horiz-adv-x="1107" d="M143 0v1434h863v-213h-617v-379h543v-213h-543v-416h627v-213h-873zM236 1563l237 329h201l237 -329h-202l-136 163l-135 -163h-202z" />
<glyph unicode="&#xcb;" horiz-adv-x="1107" d="M143 0v1434h863v-213h-617v-379h543v-213h-543v-416h627v-213h-873zM264 1597v250h242v-250h-242zM641 1597v250h242v-250h-242z" />
<glyph unicode="&#xcc;" horiz-adv-x="532" d="M-45 1892h264l195 -329h-203zM143 0v1434h246v-1434h-246z" />
<glyph unicode="&#xcd;" horiz-adv-x="532" d="M119 1563l194 329h265l-256 -329h-203zM143 0v1434h246v-1434h-246z" />
<glyph unicode="&#xce;" horiz-adv-x="532" d="M-72 1563l238 329h201l237 -329h-203l-135 163l-135 -163h-203zM143 0v1434h246v-1434h-246z" />
<glyph unicode="&#xcf;" horiz-adv-x="532" d="M-43 1597v250h242v-250h-242zM143 0v1434h246v-1434h-246zM334 1597v250h241v-250h-241z" />
<glyph unicode="&#xd1;" horiz-adv-x="1314" d="M143 0v1434h252l535 -1006v1006h241v-1434h-251l-535 1006v-1006h-242zM334 1604q0 254 194 254q42 0 77 -14t53.5 -31.5t38.5 -31.5t36 -14q49 0 49 74h201q0 -254 -195 -254q-42 0 -77 14t-53 31t-38 31t-36 14q-49 0 -49 -73h-201z" />
<glyph unicode="&#xd2;" horiz-adv-x="1331" d="M102 717q0 167 26.5 301t98.5 237q143 203 439 203q295 0 438 -203q72 -103 98.5 -237t26.5 -301t-26.5 -301.5t-98.5 -237.5q-143 -203 -438 -203q-296 0 -439 203q-72 103 -98.5 237.5t-26.5 301.5zM348 717q0 -162 19 -256.5t61 -157.5q78 -115 238 -115 q159 0 237 115q42 63 61 157.5t19 256.5t-19 256t-61 157q-78 115 -237 115q-160 0 -238 -115q-42 -63 -61 -157t-19 -256zM375 1892h264l195 -329h-203z" />
<glyph unicode="&#xd3;" horiz-adv-x="1331" d="M102 717q0 167 26.5 301t98.5 237q143 203 439 203q295 0 438 -203q72 -103 98.5 -237t26.5 -301t-26.5 -301.5t-98.5 -237.5q-143 -203 -438 -203q-296 0 -439 203q-72 103 -98.5 237.5t-26.5 301.5zM348 717q0 -162 19 -256.5t61 -157.5q78 -115 238 -115 q159 0 237 115q42 63 61 157.5t19 256.5t-19 256t-61 157q-78 115 -237 115q-160 0 -238 -115q-42 -63 -61 -157t-19 -256zM498 1563l194 329h264l-256 -329h-202z" />
<glyph unicode="&#xd4;" horiz-adv-x="1331" d="M102 717q0 167 26.5 301t98.5 237q143 203 439 203q295 0 438 -203q72 -103 98.5 -237t26.5 -301t-26.5 -301.5t-98.5 -237.5q-143 -203 -438 -203q-296 0 -439 203q-72 103 -98.5 237.5t-26.5 301.5zM328 1563l237 329h201l238 -329h-203l-135 163l-136 -163h-202z M348 717q0 -162 19 -256.5t61 -157.5q78 -115 238 -115q159 0 237 115q42 63 61 157.5t19 256.5t-19 256t-61 157q-78 115 -237 115q-160 0 -238 -115q-42 -63 -61 -157t-19 -256z" />
<glyph unicode="&#xd6;" horiz-adv-x="1331" d="M102 717q0 167 26.5 301t98.5 237q143 203 439 203q295 0 438 -203q72 -103 98.5 -237t26.5 -301t-26.5 -301.5t-98.5 -237.5q-143 -203 -438 -203q-296 0 -439 203q-72 103 -98.5 237.5t-26.5 301.5zM348 717q0 -162 19 -256.5t61 -157.5q78 -115 238 -115 q159 0 237 115q42 63 61 157.5t19 256.5t-19 256t-61 157q-78 115 -237 115q-160 0 -238 -115q-42 -63 -61 -157t-19 -256zM356 1597v250h242v-250h-242zM733 1597v250h242v-250h-242z" />
<glyph unicode="&#xd8;" horiz-adv-x="1331" d="M102 717q0 167 26.5 301t98.5 237q143 203 439 203q166 0 288 -67l62 108h178l-117 -209q4 -6 13.5 -17.5t13.5 -17.5q72 -103 98.5 -237t26.5 -301t-26.5 -301.5t-98.5 -237.5q-143 -203 -438 -203q-169 0 -289 68l-62 -109h-178l117 209q-11 11 -27 35 q-72 103 -98.5 237.5t-26.5 301.5zM348 717q0 -226 39 -336l457 811q-71 53 -178 53q-160 0 -238 -115q-42 -63 -61 -157t-19 -256zM487 240q71 -52 179 -52q159 0 237 115q42 63 61 157.5t19 256.5q0 229 -41 336z" />
<glyph unicode="&#xd9;" horiz-adv-x="1335" d="M133 528v906h246v-871q0 -188 70 -281.5t219 -93.5t218.5 93t69.5 282v871h246v-906q0 -255 -137 -404t-397 -149t-397.5 149t-137.5 404zM377 1892h264l195 -329h-203z" />
<glyph unicode="&#xda;" horiz-adv-x="1335" d="M133 528v906h246v-871q0 -188 70 -281.5t219 -93.5t218.5 93t69.5 282v871h246v-906q0 -255 -137 -404t-397 -149t-397.5 149t-137.5 404zM500 1563l194 329h264l-256 -329h-202z" />
<glyph unicode="&#xdb;" horiz-adv-x="1335" d="M133 528v906h246v-871q0 -188 70 -281.5t219 -93.5t218.5 93t69.5 282v871h246v-906q0 -255 -137 -404t-397 -149t-397.5 149t-137.5 404zM330 1563l237 329h201l238 -329h-203l-135 163l-136 -163h-202z" />
<glyph unicode="&#xdc;" horiz-adv-x="1335" d="M133 528v906h246v-871q0 -188 70 -281.5t219 -93.5t218.5 93t69.5 282v871h246v-906q0 -255 -137 -404t-397 -149t-397.5 149t-137.5 404zM358 1597v250h242v-250h-242zM735 1597v250h242v-250h-242z" />
<glyph unicode="&#xdd;" horiz-adv-x="1241" d="M31 1434h258l332 -652l331 652h258l-467 -869v-565h-245v565zM463 1563l194 329h265l-256 -329h-203z" />
<glyph unicode="&#xdf;" horiz-adv-x="1204" d="M123 0v1012q0 96 28.5 175.5t85 141t148 95.5t209.5 34q117 0 209.5 -35.5t148 -95t84.5 -133t29 -154.5q0 -115 -65 -201.5t-177 -115.5q137 -22 225.5 -114t88.5 -251q0 -183 -120 -283t-329 -100q-97 0 -186 21v213q82 -21 168 -21q106 0 163.5 48t57.5 135 q0 117 -84 183.5t-223 66.5h-37v204h55q110 0 163.5 56t53.5 153q0 91 -60.5 151t-164.5 60q-108 0 -166.5 -60.5t-58.5 -172.5v-1012h-246z" />
<glyph unicode="&#xe0;" d="M78 301q0 155 102 240.5t279 85.5q100 0 176 -36.5t102 -101.5v168q0 199 -196 199q-173 0 -191 -137h-235q11 153 120 241.5t306 88.5q213 0 321.5 -104t108.5 -286v-518q0 -81 24 -141h-239q-15 39 -19 115q-23 -62 -96 -101t-182 -39q-177 0 -279 85.5t-102 240.5z M274 1485h265l194 -330h-203zM311 301q0 -147 213 -147t213 147q0 148 -213 148t-213 -148z" />
<glyph unicode="&#xe1;" d="M78 301q0 155 102 240.5t279 85.5q100 0 176 -36.5t102 -101.5v168q0 199 -196 199q-173 0 -191 -137h-235q11 153 120 241.5t306 88.5q213 0 321.5 -104t108.5 -286v-518q0 -81 24 -141h-239q-15 39 -19 115q-23 -62 -96 -101t-182 -39q-177 0 -279 85.5t-102 240.5z M311 301q0 -147 213 -147t213 147q0 148 -213 148t-213 -148zM356 1155l195 330h264l-256 -330h-203z" />
<glyph unicode="&#xe2;" d="M78 301q0 155 102 240.5t279 85.5q100 0 176 -36.5t102 -101.5v168q0 199 -196 199q-173 0 -191 -137h-235q11 153 120 241.5t306 88.5q213 0 321.5 -104t108.5 -286v-518q0 -81 24 -141h-239q-15 39 -19 115q-23 -62 -96 -101t-182 -39q-177 0 -279 85.5t-102 240.5z M211 1155l238 330h200l238 -330h-203l-135 164l-135 -164h-203zM311 301q0 -147 213 -147t213 147q0 148 -213 148t-213 -148z" />
<glyph unicode="&#xe4;" d="M78 301q0 155 102 240.5t279 85.5q100 0 176 -36.5t102 -101.5v168q0 199 -196 199q-173 0 -191 -137h-235q11 153 120 241.5t306 88.5q213 0 321.5 -104t108.5 -286v-518q0 -81 24 -141h-239q-15 39 -19 115q-23 -62 -96 -101t-182 -39q-177 0 -279 85.5t-102 240.5z M240 1190v250h241v-250h-241zM311 301q0 -147 213 -147t213 147q0 148 -213 148t-213 -148zM616 1190v250h242v-250h-242z" />
<glyph unicode="&#xe5;" d="M78 301q0 155 102 240.5t279 85.5q100 0 176 -36.5t102 -101.5v168q0 199 -196 199q-173 0 -191 -137h-235q11 153 120 241.5t306 88.5q213 0 321.5 -104t108.5 -286v-518q0 -81 24 -141h-239q-15 39 -19 115q-23 -62 -96 -101t-182 -39q-177 0 -279 85.5t-102 240.5z M311 301q0 -147 213 -147t213 147q0 148 -213 148t-213 -148zM328 1319q0 100 61.5 156.5t159.5 56.5t159.5 -56.5t61.5 -156.5t-61.5 -156.5t-159.5 -56.5t-159.5 56.5t-61.5 156.5zM475 1319q0 -38 19.5 -60t54.5 -22q34 0 54 22t20 60t-20 60t-54 22q-35 0 -54.5 -22 t-19.5 -60z" />
<glyph unicode="&#xe6;" horiz-adv-x="1740" d="M78 301q0 155 102 240.5t279 85.5q100 0 176 -36.5t102 -101.5v168q0 199 -196 199q-173 0 -191 -137h-235q11 153 120 241.5t306 88.5q233 0 333 -160q104 160 322 160q227 0 343 -138.5t116 -398.5v-72h-682q13 -272 223 -272q83 0 136 37.5t65 105.5h237 q-28 -162 -141 -249t-297 -87q-235 0 -342 160q-41 -74 -139 -117t-226 -43q-199 0 -305 84.5t-106 241.5zM311 301q0 -147 213 -147t213 147q0 148 -213 148t-213 -148zM975 612h442q-19 244 -221 244t-221 -244z" />
<glyph unicode="&#xe7;" horiz-adv-x="1064" d="M86 512q0 260 116 398.5t343 138.5q194 0 309.5 -94.5t134.5 -268.5h-235q-8 79 -62.5 124.5t-146.5 45.5q-124 0 -175 -88t-51 -256t51 -256t175 -88q92 0 146.5 45.5t62.5 124.5h235q-17 -150 -104 -240.5t-234 -113.5l-37 -76q92 -9 142.5 -58.5t50.5 -128.5 q0 -96 -69 -152t-187 -56q-135 0 -232 73l68 129q64 -49 148 -49q92 0 92 62q0 65 -109 65q-50 0 -80 -10l-35 45l72 152q-193 20 -291 156t-98 376z" />
<glyph unicode="&#xe8;" d="M86 512q0 260 116 398.5t343 138.5t343 -138.5t116 -398.5v-72h-682q13 -272 223 -272q82 0 135 37.5t65 105.5h238q-28 -162 -141 -249t-297 -87q-227 0 -343 138.5t-116 398.5zM264 1485h264l195 -330h-203zM324 612h442q-19 244 -221 244t-221 -244z" />
<glyph unicode="&#xe9;" d="M86 512q0 260 116 398.5t343 138.5t343 -138.5t116 -398.5v-72h-682q13 -272 223 -272q82 0 135 37.5t65 105.5h238q-28 -162 -141 -249t-297 -87q-227 0 -343 138.5t-116 398.5zM324 612h442q-19 244 -221 244t-221 -244zM367 1155l194 330h264l-256 -330h-202z" />
<glyph unicode="&#xea;" d="M86 512q0 260 116 398.5t343 138.5t343 -138.5t116 -398.5v-72h-682q13 -272 223 -272q82 0 135 37.5t65 105.5h238q-28 -162 -141 -249t-297 -87q-227 0 -343 138.5t-116 398.5zM207 1155l237 330h201l238 -330h-203l-135 164l-135 -164h-203zM324 612h442 q-19 244 -221 244t-221 -244z" />
<glyph unicode="&#xeb;" d="M86 512q0 260 116 398.5t343 138.5t343 -138.5t116 -398.5v-72h-682q13 -272 223 -272q82 0 135 37.5t65 105.5h238q-28 -162 -141 -249t-297 -87q-227 0 -343 138.5t-116 398.5zM236 1190v250h241v-250h-241zM324 612h442q-19 244 -221 244t-221 -244zM612 1190v250h242 v-250h-242z" />
<glyph unicode="&#xec;" horiz-adv-x="499" d="M-61 1485h264l194 -330h-202zM133 0v1024h234v-1024h-234z" />
<glyph unicode="&#xed;" horiz-adv-x="499" d="M102 1155l195 330h264l-256 -330h-203zM133 0v1024h234v-1024h-234z" />
<glyph unicode="&#xee;" horiz-adv-x="499" d="M-88 1155l238 330h200l238 -330h-203l-135 164l-135 -164h-203zM133 0v1024h234v-1024h-234z" />
<glyph unicode="&#xef;" horiz-adv-x="499" d="M-59 1190v250h241v-250h-241zM133 0v1024h234v-1024h-234zM317 1190v250h242v-250h-242z" />
<glyph unicode="&#xf1;" horiz-adv-x="1118" d="M123 0v1024h233v-176q30 93 106.5 147t186.5 54q168 0 259 -105t91 -299v-645h-233v641q0 215 -172 215q-106 0 -172 -74.5t-66 -210.5v-571h-233zM236 1196q0 254 194 254q42 0 77 -14t53.5 -31t38.5 -31t36 -14q49 0 49 74h201q0 -254 -195 -254q-42 0 -77 14t-53.5 31 t-38.5 31t-36 14q-49 0 -49 -74h-200z" />
<glyph unicode="&#xf2;" d="M86 512q0 260 116 398.5t343 138.5t343 -138.5t116 -398.5t-116 -398.5t-343 -138.5t-343 138.5t-116 398.5zM264 1485h264l195 -330h-203zM319 512q0 -168 51 -256t175 -88t174.5 88t50.5 256t-50.5 256t-174.5 88t-175 -88t-51 -256z" />
<glyph unicode="&#xf3;" d="M86 512q0 260 116 398.5t343 138.5t343 -138.5t116 -398.5t-116 -398.5t-343 -138.5t-343 138.5t-116 398.5zM319 512q0 -168 51 -256t175 -88t174.5 88t50.5 256t-50.5 256t-174.5 88t-175 -88t-51 -256zM367 1155l194 330h264l-256 -330h-202z" />
<glyph unicode="&#xf4;" d="M86 512q0 260 116 398.5t343 138.5t343 -138.5t116 -398.5t-116 -398.5t-343 -138.5t-343 138.5t-116 398.5zM207 1155l237 330h201l238 -330h-203l-135 164l-135 -164h-203zM319 512q0 -168 51 -256t175 -88t174.5 88t50.5 256t-50.5 256t-174.5 88t-175 -88t-51 -256z " />
<glyph unicode="&#xf6;" d="M86 512q0 260 116 398.5t343 138.5t343 -138.5t116 -398.5t-116 -398.5t-343 -138.5t-343 138.5t-116 398.5zM236 1190v250h241v-250h-241zM319 512q0 -168 51 -256t175 -88t174.5 88t50.5 256t-50.5 256t-174.5 88t-175 -88t-51 -256zM612 1190v250h242v-250h-242z" />
<glyph unicode="&#xf8;" d="M86 512q0 260 116 398.5t343 138.5q112 0 196 -35l50 88h155l-88 -162q146 -137 146 -428q0 -260 -116 -398.5t-343 -138.5q-112 0 -199 35l-47 -88h-156l88 160q-145 133 -145 430zM319 512q0 -132 29 -215l297 539q-41 20 -100 20q-124 0 -175 -88t-51 -256zM444 186 q40 -18 101 -18q124 0 174.5 88t50.5 256q0 139 -31 213z" />
<glyph unicode="&#xf9;" horiz-adv-x="1118" d="M119 379v645h233v-641q0 -215 172 -215q106 0 172 74.5t66 210.5v571h233v-1024h-233v176q-30 -93 -106.5 -147t-186.5 -54q-168 0 -259 105t-91 299zM268 1485h264l195 -330h-203z" />
<glyph unicode="&#xfa;" horiz-adv-x="1118" d="M119 379v645h233v-641q0 -215 172 -215q106 0 172 74.5t66 210.5v571h233v-1024h-233v176q-30 -93 -106.5 -147t-186.5 -54q-168 0 -259 105t-91 299zM391 1155l195 330h264l-256 -330h-203z" />
<glyph unicode="&#xfb;" horiz-adv-x="1118" d="M119 379v645h233v-641q0 -215 172 -215q106 0 172 74.5t66 210.5v571h233v-1024h-233v176q-30 -93 -106.5 -147t-186.5 -54q-168 0 -259 105t-91 299zM219 1155l238 330h200l238 -330h-203l-135 164l-135 -164h-203z" />
<glyph unicode="&#xfc;" horiz-adv-x="1118" d="M119 379v645h233v-641q0 -215 172 -215q106 0 172 74.5t66 210.5v571h233v-1024h-233v176q-30 -93 -106.5 -147t-186.5 -54q-168 0 -259 105t-91 299zM248 1190v250h241v-250h-241zM625 1190v250h241v-250h-241z" />
<glyph unicode="&#xfd;" horiz-adv-x="1062" d="M31 1024h243l263 -737l251 737h244l-448 -1239q-50 -134 -126 -182.5t-204 -48.5q-69 0 -96 4v188h75q49 0 82.5 24.5t55.5 86.5l49 139zM362 1155l195 330h264l-256 -330h-203z" />
<glyph unicode="&#xff;" horiz-adv-x="1062" d="M31 1024h243l263 -737l251 737h244l-448 -1239q-50 -134 -126 -182.5t-204 -48.5q-69 0 -96 4v188h75q49 0 82.5 24.5t55.5 86.5l49 139zM227 1190v250h242v-250h-242zM604 1190v250h242v-250h-242z" />
<glyph unicode="&#x106;" horiz-adv-x="1306" d="M102 717q0 -167 26.5 -301.5t98.5 -237.5q143 -203 439 -203q247 0 393 139t155 365h-245q-5 -136 -84.5 -213.5t-218.5 -77.5q-160 0 -238 115q-42 63 -61 157.5t-19 256.5t19 256t61 157q78 115 238 115q139 0 218.5 -77.5t84.5 -213.5h245q-9 226 -155 365t-393 139 q-296 0 -439 -203q-72 -103 -98.5 -237t-26.5 -301zM465 1563l194 329h265l-256 -329h-203z" />
<glyph unicode="&#x107;" horiz-adv-x="1064" d="M86 512q0 -260 116 -398.5t343 -138.5q194 0 309.5 94.5t134.5 268.5h-235q-8 -79 -62.5 -124.5t-146.5 -45.5q-124 0 -175 88t-51 256t51 256t175 88q92 0 146.5 -45.5t62.5 -124.5h235q-19 174 -134.5 268.5t-309.5 94.5q-227 0 -343 -138.5t-116 -398.5zM350 1155 l195 330h264l-256 -330h-203z" />
<glyph unicode="&#x10c;" horiz-adv-x="1306" d="M102 717q0 -167 26.5 -301.5t98.5 -237.5q143 -203 439 -203q247 0 393 139t155 365h-245q-5 -136 -84.5 -213.5t-218.5 -77.5q-160 0 -238 115q-42 63 -61 157.5t-19 256.5t19 256t61 157q78 115 238 115q139 0 218.5 -77.5t84.5 -213.5h245q-9 226 -155 365t-393 139 q-296 0 -439 -203q-72 -103 -98.5 -237t-26.5 -301zM319 1892h203l135 -163l136 163h202l-237 -329h-201z" />
<glyph unicode="&#x10d;" horiz-adv-x="1064" d="M86 512q0 -260 116 -398.5t343 -138.5q194 0 309.5 94.5t134.5 268.5h-235q-8 -79 -62.5 -124.5t-146.5 -45.5q-124 0 -175 88t-51 256t51 256t175 88q92 0 146.5 -45.5t62.5 -124.5h235q-19 174 -134.5 268.5t-309.5 94.5q-227 0 -343 -138.5t-116 -398.5zM197 1485h202 l136 -164l135 164h202l-237 -330h-201z" />
<glyph unicode="&#x10e;" horiz-adv-x="1318" d="M143 0v1434h523q301 0 430 -185q72 -103 96.5 -231.5t24.5 -300.5t-24.5 -301t-96.5 -232q-129 -184 -430 -184h-523zM254 1892h203l135 -163l135 163h203l-238 -329h-200zM389 213h252q175 0 244 98q44 62 65 155t21 251q0 157 -21 250t-65 155q-69 99 -244 99h-252 v-1008z" />
<glyph unicode="&#x10f;" horiz-adv-x="1327" d="M86 512q0 273 105.5 405t295.5 132q105 0 180 -49.5t103 -133.5v568h234v-1434h-234v158q-28 -84 -103 -133.5t-180 -49.5q-190 0 -295.5 132t-105.5 405zM319 512q0 -168 51 -256t175 -88t174.5 88t50.5 256t-50.5 256t-174.5 88t-175 -88t-51 -256zM1085 963v100 q63 11 91 41t28 92h-119v238h242v-238q0 -100 -60.5 -160.5t-181.5 -72.5z" />
<glyph unicode="&#x110;" horiz-adv-x="1318" d="M20 629v176h123v629h523q301 0 430 -185q72 -103 96.5 -231.5t24.5 -300.5t-24.5 -301t-96.5 -232q-129 -184 -430 -184h-523v629h-123zM389 213h252q175 0 244 98q44 62 65 155t21 251q0 157 -21 250t-65 155q-69 99 -244 99h-252v-416h236v-176h-236v-416z" />
<glyph unicode="&#x111;" horiz-adv-x="1126" d="M86 512q0 273 105.5 405t295.5 132q105 0 180 -49.5t103 -133.5v295h-258v152h258v121h234v-121h112v-152h-112v-1161h-234v158q-28 -84 -103 -133.5t-180 -49.5q-190 0 -295.5 132t-105.5 405zM319 512q0 -168 51 -256t175 -88t174.5 88t50.5 256t-50.5 256t-174.5 88 t-175 -88t-51 -256z" />
<glyph unicode="&#x11a;" horiz-adv-x="1107" d="M143 0v1434h863v-213h-617v-379h543v-213h-543v-416h627v-213h-873zM236 1892h202l135 -163l136 163h202l-237 -329h-201z" />
<glyph unicode="&#x11b;" d="M86 512q0 260 116 398.5t343 138.5t343 -138.5t116 -398.5v-72h-682q13 -272 223 -272q82 0 135 37.5t65 105.5h238q-28 -162 -141 -249t-297 -87q-227 0 -343 138.5t-116 398.5zM207 1485h203l135 -164l135 164h203l-238 -330h-201zM324 612h442q-19 244 -221 244 t-221 -244z" />
<glyph unicode="&#x11e;" horiz-adv-x="1341" d="M102 717q0 -167 26.5 -301.5t98.5 -237.5q67 -95 176.5 -149t245.5 -54q125 0 218 55t132 146l37 -176h176v754h-536v-205h295v-41q0 -126 -62 -211q-78 -109 -243 -109q-160 0 -238 115q-42 63 -61 157.5t-19 256.5t19 256t61 157q78 115 238 115q139 0 218.5 -77.5 t84.5 -213.5h245q-9 226 -155 365t-393 139q-296 0 -439 -203q-72 -103 -98.5 -237t-26.5 -301zM344 1870h201q3 -66 35 -98.5t86 -32.5t85.5 32.5t34.5 98.5h201q-7 -142 -95 -222.5t-226 -80.5t-226.5 80.5t-95.5 222.5z" />
<glyph unicode="&#x11f;" horiz-adv-x="1126" d="M86 512q0 273 105.5 405t295.5 132q105 0 180 -49.5t103 -133.5v158h234v-1057q0 -97 -24.5 -175t-75.5 -139t-138 -94.5t-203 -33.5q-187 0 -297.5 82t-132.5 233h238q21 -135 192 -135q109 0 158 60.5t49 181.5v211q-28 -84 -103 -133.5t-180 -49.5q-190 0 -295.5 132 t-105.5 405zM252 1466h201q3 -66 34.5 -98.5t85.5 -32.5t86 32.5t35 98.5h201q-7 -142 -95.5 -222.5t-226.5 -80.5t-226 80.5t-95 222.5zM319 512q0 -169 50.5 -256.5t175.5 -87.5t175 87.5t50 256.5t-50 256.5t-175 87.5t-175.5 -87.5t-50.5 -256.5z" />
<glyph unicode="&#x130;" horiz-adv-x="532" d="M143 0v1434h246v-1434h-246zM145 1597v250h242v-250h-242z" />
<glyph unicode="&#x131;" horiz-adv-x="499" d="M133 0v1024h234v-1024h-234z" />
<glyph unicode="&#x13f;" horiz-adv-x="1048" d="M143 0v1434h246v-1221h627v-213h-873zM610 647v250h242v-250h-242z" />
<glyph unicode="&#x140;" horiz-adv-x="751" d="M133 0v1434h234v-1434h-234zM489 647v250h242v-250h-242z" />
<glyph unicode="&#x147;" horiz-adv-x="1314" d="M143 0v1434h252l535 -1006v1006h241v-1434h-251l-535 1006v-1006h-242zM319 1892h203l135 -163l136 163h202l-237 -329h-201z" />
<glyph unicode="&#x148;" horiz-adv-x="1118" d="M123 0v1024h233v-176q30 93 106.5 147t186.5 54q168 0 259 -105t91 -299v-645h-233v641q0 215 -172 215q-106 0 -172 -74.5t-66 -210.5v-571h-233zM221 1485h203l135 -164l135 164h203l-238 -330h-200z" />
<glyph unicode="&#x152;" horiz-adv-x="1873" d="M102 717q0 172 24.5 300.5t96.5 231.5q129 185 430 185h1119v-213h-617v-379h543v-213h-543v-416h627v-213h-1129q-301 0 -430 184q-72 103 -96.5 232t-24.5 301zM348 717q0 -158 21 -251t65 -155q69 -98 244 -98h231v1008h-231q-175 0 -244 -99q-44 -62 -65 -155 t-21 -250z" />
<glyph unicode="&#x153;" horiz-adv-x="1773" d="M86 512q0 259 115.5 398t335.5 139q124 0 216 -49t134 -134q42 85 134 134t216 49q220 0 335.5 -139t115.5 -398v-72h-682q6 -134 58.5 -203t164.5 -69q83 0 136 37.5t65 105.5h237q-28 -161 -139.5 -248.5t-290.5 -87.5q-124 0 -216 49t-134 134q-42 -85 -134 -134 t-216 -49q-220 0 -335.5 139t-115.5 398zM319 512q0 -168 51 -256t175 -88t174.5 88t50.5 256t-50.5 256t-174.5 88t-175 -88t-51 -256zM1008 612h442q-9 119 -62 181.5t-159 62.5t-159 -62.5t-62 -181.5z" />
<glyph unicode="&#x158;" horiz-adv-x="1271" d="M143 0v1434h568q223 0 339.5 -113t116.5 -324q0 -283 -241 -360q106 -22 157 -93t60 -212l12 -201q6 -78 25 -131h-250q-18 57 -21 127l-10 186q-6 114 -62 164.5t-175 50.5h-273v-528h-246zM248 1892h203l135 -163l135 163h203l-238 -329h-201zM389 741h283 q250 0 250 240q0 127 -64.5 183.5t-185.5 56.5h-283v-480z" />
<glyph unicode="&#x159;" horiz-adv-x="747" d="M76 1485h203l135 -164l135 164h203l-238 -330h-201zM123 0v1024h233v-180q28 105 94 155t183 50q49 0 84 -9l-4 -188q-32 4 -90 4q-129 0 -198 -82t-69 -239v-535h-233z" />
<glyph unicode="&#x15e;" horiz-adv-x="1187" d="M102 406v24h246v-31q0 -96 69 -153.5t187 -57.5t187 57.5t69 153.5q0 167 -203 211l-184 39q-176 36 -273.5 137.5t-97.5 266.5q0 173 125 289t351 116q115 0 206.5 -32.5t149.5 -88.5t88.5 -128.5t30.5 -155.5v-19h-246v19q0 87 -59.5 139.5t-169.5 52.5t-170 -52.5 t-60 -139.5q0 -82 49 -127.5t154 -67.5l184 -39q178 -37 274.5 -141.5t96.5 -271.5q0 -166 -100.5 -278.5t-280.5 -141.5l-37 -78q92 -9 142.5 -58.5t50.5 -128.5q0 -96 -69 -152t-187 -56q-135 0 -232 73l68 129q64 -49 147 -49q92 0 92 62q0 65 -108 65q-50 0 -80 -10 l-35 45l70 149q-209 15 -327 131t-118 298z" />
<glyph unicode="&#x15f;" horiz-adv-x="974" d="M86 291v28h233v-28q0 -62 49 -96.5t130 -34.5q82 0 130 34.5t48 92.5q0 57 -31.5 87.5t-107.5 43.5l-107 18q-175 31 -256.5 104t-81.5 203q0 133 105.5 219.5t283.5 86.5q181 0 285 -83t104 -223v-20h-233v20q0 53 -40.5 87t-115.5 34q-74 0 -114.5 -32.5t-40.5 -81.5 q0 -53 34 -80t113 -41l107 -19q178 -30 253.5 -105.5t75.5 -213.5q0 -114 -81.5 -197t-221.5 -108l-37 -78q92 -9 142.5 -58.5t50.5 -128.5q0 -96 -69 -152t-187 -56q-135 0 -232 73l68 129q64 -49 147 -49q93 0 93 62q0 65 -109 65q-50 0 -80 -10l-35 45l72 152 q-159 15 -251.5 100t-92.5 211z" />
<glyph unicode="&#x160;" horiz-adv-x="1187" d="M102 406v24h246v-31q0 -96 69 -153.5t187 -57.5t187 57.5t69 153.5q0 167 -203 211l-184 39q-176 36 -273.5 137.5t-97.5 266.5q0 173 125 289t351 116q115 0 206.5 -32.5t149.5 -88.5t88.5 -128.5t30.5 -155.5v-19h-246v19q0 87 -59.5 139.5t-169.5 52.5t-170 -52.5 t-60 -139.5q0 -82 49 -127.5t154 -67.5l184 -39q178 -37 274.5 -141.5t96.5 -271.5q0 -193 -134.5 -312t-367.5 -119t-367.5 119t-134.5 312zM236 1892h202l135 -163l136 163h202l-237 -329h-201z" />
<glyph unicode="&#x161;" horiz-adv-x="997" d="M92 291v28h234v-28q0 -62 48.5 -96.5t129.5 -34.5q82 0 130 34.5t48 92.5q0 57 -31.5 87.5t-107.5 43.5l-107 18q-175 31 -256.5 104t-81.5 203q0 133 105.5 219.5t283.5 86.5q181 0 285.5 -83t104.5 -223v-20h-234v20q0 53 -40.5 87t-115.5 34q-74 0 -114.5 -32.5 t-40.5 -81.5q0 -53 34 -80t113 -41l107 -19q178 -30 253.5 -105.5t75.5 -213.5q0 -135 -112.5 -225.5t-298.5 -90.5q-188 0 -300 88.5t-112 227.5zM152 1485h202l135 -164l136 164h202l-237 -330h-201z" />
<glyph unicode="&#x164;" horiz-adv-x="1093" d="M31 1221v213h1032v-213h-393v-1221h-246v1221h-393zM209 1892h203l135 -163l135 163h203l-238 -329h-201z" />
<glyph unicode="&#x165;" horiz-adv-x="954" d="M51 831v193h146v291h233v-291h266v-193h-266v-509q0 -87 33.5 -115.5t128.5 -28.5h104v-186q-46 -6 -145 -6q-191 0 -272.5 64t-81.5 226v555h-146zM713 987v100q63 11 90.5 41.5t27.5 92.5h-118v237h241v-237q0 -100 -60 -161t-181 -73z" />
<glyph unicode="&#x16e;" horiz-adv-x="1335" d="M133 528v906h246v-871q0 -188 70 -281.5t219 -93.5t218.5 93t69.5 282v871h246v-906q0 -255 -137 -404t-397 -149t-397.5 149t-137.5 404zM446 1726q0 100 62 156.5t160 56.5t159.5 -56.5t61.5 -156.5t-61.5 -156.5t-159.5 -56.5t-160 56.5t-62 156.5zM594 1726 q0 -38 19.5 -59.5t54.5 -21.5q34 0 53.5 21.5t19.5 59.5t-19.5 60t-53.5 22q-35 0 -54.5 -22t-19.5 -60z" />
<glyph unicode="&#x16f;" horiz-adv-x="1118" d="M119 379v645h233v-641q0 -215 172 -215q106 0 172 74.5t66 210.5v571h233v-1024h-233v176q-30 -93 -106.5 -147t-186.5 -54q-168 0 -259 105t-91 299zM336 1319q0 100 61.5 156.5t159.5 56.5t159.5 -56.5t61.5 -156.5t-61.5 -156.5t-159.5 -56.5t-159.5 56.5t-61.5 156.5 zM483 1319q0 -38 19.5 -60t54.5 -22q34 0 54 22t20 60t-20 60t-54 22q-35 0 -54.5 -22t-19.5 -60z" />
<glyph unicode="&#x178;" horiz-adv-x="1241" d="M31 1434h258l332 -652l331 652h258l-467 -869v-565h-245v565zM311 1597v250h242v-250h-242zM688 1597v250h242v-250h-242z" />
<glyph unicode="&#x17d;" horiz-adv-x="1110" d="M82 0v193l639 1028h-619v213h916v-193l-639 -1028h649v-213h-946zM227 1892h203l135 -163l135 163h203l-237 -329h-201z" />
<glyph unicode="&#x17e;" horiz-adv-x="937" d="M74 0v172l485 659h-469v193h760v-172l-485 -659h499v-193h-790zM147 1485h203l135 -164l136 164h202l-237 -330h-201z" />
<glyph unicode="&#x2c6;" horiz-adv-x="778" d="M51 1165l238 330h200l238 -330h-203l-135 164l-135 -164h-203z" />
<glyph unicode="&#x2da;" horiz-adv-x="778" d="M168 1329q0 100 61.5 156.5t159.5 56.5t159.5 -56.5t61.5 -156.5t-61.5 -156.5t-159.5 -56.5t-159.5 56.5t-61.5 156.5zM315 1329q0 -38 19.5 -60t54.5 -22q34 0 54 22t20 60t-20 60t-54 22q-35 0 -54.5 -22t-19.5 -60z" />
<glyph unicode="&#x2dc;" horiz-adv-x="778" d="M63 1208q0 254 195 254q42 0 77 -14t53.5 -31t38.5 -31t36 -14q49 0 49 74h201q0 -254 -195 -254q-42 0 -77 14t-53.5 31t-38.5 31t-36 14q-49 0 -49 -74h-201z" />
<glyph unicode="&#x400;" horiz-adv-x="1107" d="M143 0v1434h863v-213h-617v-379h543v-213h-543v-416h627v-213h-873zM283 1892h264l194 -329h-202z" />
<glyph unicode="&#x401;" horiz-adv-x="1107" d="M143 0v1434h863v-213h-617v-379h543v-213h-543v-416h627v-213h-873zM264 1597v250h242v-250h-242zM641 1597v250h242v-250h-242z" />
<glyph unicode="&#x402;" horiz-adv-x="1458" d="M31 1221v213h1032v-213h-393v-367q120 92 297 92q199 0 299 -102t100 -301v-246q0 -153 -87.5 -232t-254.5 -79q-61 0 -96 6v207h76q116 0 116 127v192q0 111 -47 163t-145 52q-75 0 -145 -23.5t-113 -62.5v-647h-246v1221h-393z" />
<glyph unicode="&#x403;" horiz-adv-x="1028" d="M143 0v1434h865v-213h-619v-1221h-246zM391 1563l195 329h264l-256 -329h-203z" />
<glyph unicode="&#x404;" horiz-adv-x="1306" d="M102 717q0 167 26.5 301t98.5 237q143 203 439 203q247 0 393 -139t155 -365h-245q-5 136 -84.5 213.5t-218.5 77.5q-160 0 -238 -115q-70 -101 -78 -307h424v-213h-424q8 -206 78 -307q78 -115 238 -115q139 0 218.5 77.5t84.5 213.5h245q-9 -226 -155 -365t-393 -139 q-296 0 -439 203q-72 103 -98.5 237.5t-26.5 301.5z" />
<glyph unicode="&#x405;" horiz-adv-x="1187" d="M102 406v24h246v-31q0 -96 69 -153.5t187 -57.5t187 57.5t69 153.5q0 167 -203 211l-184 39q-176 36 -273.5 137.5t-97.5 266.5q0 173 125 289t351 116q115 0 206.5 -32.5t149.5 -88.5t88.5 -128.5t30.5 -155.5v-19h-246v19q0 87 -59.5 139.5t-169.5 52.5t-170 -52.5 t-60 -139.5q0 -82 49 -127.5t154 -67.5l184 -39q178 -37 274.5 -141.5t96.5 -271.5q0 -193 -134.5 -312t-367.5 -119t-367.5 119t-134.5 312z" />
<glyph unicode="&#x406;" horiz-adv-x="532" d="M143 0v1434h246v-1434h-246z" />
<glyph unicode="&#x407;" horiz-adv-x="532" d="M-43 1597v250h242v-250h-242zM143 0v1434h246v-1434h-246zM334 1597v250h241v-250h-241z" />
<glyph unicode="&#x408;" horiz-adv-x="1101" d="M41 438v19h246q8 -269 217 -269q217 0 217 287v959h246v-996q0 -223 -123 -343t-342 -120q-216 0 -338.5 120t-122.5 343z" />
<glyph unicode="&#x409;" horiz-adv-x="1990" d="M20 -8v207h64q78 0 109.5 29t31.5 114v1092h967v-590h260q229 0 348 -105t119 -317t-119 -317t-348 -105h-506v1221h-475v-883q0 -105 -19 -173.5t-63 -108t-106 -55t-158 -15.5q-59 0 -105 6zM1192 213h229q130 0 191 50.5t61 158.5t-60.5 158.5t-191.5 50.5h-229v-418z " />
<glyph unicode="&#x40a;" horiz-adv-x="1929" d="M143 0v1434h246v-592h496v592h245v-590h261q229 0 348 -105t119 -317t-119 -317t-348 -105h-506v629h-496v-629h-246zM1130 213h230q130 0 191 50.5t61 158.5t-60.5 158.5t-191.5 50.5h-230v-418z" />
<glyph unicode="&#x40b;" horiz-adv-x="1468" d="M31 1221v213h1032v-213h-393v-367q120 92 297 92q199 0 299 -102t100 -301v-543h-246v518q0 111 -47 163t-145 52q-75 0 -145 -23.5t-113 -62.5v-647h-246v1221h-393z" />
<glyph unicode="&#x40c;" horiz-adv-x="1220" d="M143 0v1434h246v-592h141l369 592h268l-438 -699l502 -735h-275l-426 629h-141v-629h-246zM449 1563l194 329h264l-256 -329h-202z" />
<glyph unicode="&#x40d;" horiz-adv-x="1314" d="M143 0h252l535 1006v-1006h241v1434h-251l-535 -1006v1006h-242v-1434zM387 1892h264l195 -329h-203z" />
<glyph unicode="&#x40e;" horiz-adv-x="1220" d="M37 1434h258l330 -762l317 762h258l-483 -1166q-64 -157 -137 -212.5t-213 -55.5q-68 0 -101 4v209h70q55 0 85.5 20.5t53.5 75.5l25 58zM297 1870h201q3 -66 34.5 -98.5t85.5 -32.5t86 32.5t35 98.5h201q-7 -142 -95.5 -222.5t-226.5 -80.5t-226 80.5t-95 222.5z" />
<glyph unicode="&#x40f;" horiz-adv-x="1294" d="M143 0v1434h246v-1221h516v1221h246v-1434h-381v-246h-246v246h-381z" />
<glyph unicode="&#x410;" horiz-adv-x="1261" d="M20 0l465 1434h291l465 -1434h-254l-92 305h-530l-91 -305h-254zM428 518h403l-200 680z" />
<glyph unicode="&#x411;" horiz-adv-x="1187" d="M143 0v1434h887v-213h-641v-377h260q229 0 348 -105t119 -317t-119 -317t-348 -105h-506zM389 213h229q130 0 191 50.5t61 158.5t-60.5 158.5t-191.5 50.5h-229v-418z" />
<glyph unicode="&#x412;" horiz-adv-x="1245" d="M143 0v1434h537q446 0 446 -385q0 -114 -55.5 -191t-155.5 -110q118 -28 185 -119t67 -219q0 -201 -111 -305.5t-335 -104.5h-578zM389 213h277q133 0 194.5 48.5t61.5 160.5t-61.5 161.5t-194.5 49.5h-277v-420zM389 844h240q127 0 189.5 42.5t62.5 145.5t-62.5 146 t-189.5 43h-240v-377z" />
<glyph unicode="&#x413;" horiz-adv-x="1028" d="M143 0v1434h865v-213h-619v-1221h-246z" />
<glyph unicode="&#x414;" horiz-adv-x="1314" d="M25 213h141q65 252 65 631v590h889v-1221h154v-459h-246v246h-758v-246h-245v459zM420 213h454v1008h-397v-396q0 -376 -57 -612z" />
<glyph unicode="&#x415;" horiz-adv-x="1107" d="M143 0v1434h863v-213h-617v-379h543v-213h-543v-416h627v-213h-873z" />
<glyph unicode="&#x416;" horiz-adv-x="1814" d="M10 0l447 735l-383 699h266l317 -592h127v592h246v-592h127l318 592h266l-383 -699l446 -735h-276l-371 629h-127v-629h-246v629h-127l-370 -629h-277z" />
<glyph unicode="&#x417;" horiz-adv-x="1173" d="M82 410v22h248v-12q0 -107 67.5 -169.5t184.5 -62.5t184.5 62.5t67.5 169.5q0 114 -68.5 174.5t-194.5 60.5h-168v211h168q222 0 222 191q0 85 -54.5 136.5t-156.5 51.5t-156.5 -51.5t-54.5 -136.5v-10h-246v26q0 168 119.5 276.5t337.5 108.5t337 -108t119 -277 q0 -123 -61 -203.5t-168 -107.5q128 -28 200 -120t72 -232q0 -197 -135.5 -316t-363.5 -119q-227 0 -363.5 119t-136.5 316z" />
<glyph unicode="&#x418;" horiz-adv-x="1314" d="M143 0v1434h242v-1006l535 1006h251v-1434h-241v1006l-535 -1006h-252z" />
<glyph unicode="&#x419;" horiz-adv-x="1314" d="M143 0h252l535 1006v-1006h241v1434h-251l-535 -1006v1006h-242v-1434zM336 1870h201q3 -66 34.5 -98.5t85.5 -32.5t86 32.5t35 98.5h201q-7 -142 -95.5 -222.5t-226.5 -80.5t-226 80.5t-95 222.5z" />
<glyph unicode="&#x41a;" horiz-adv-x="1220" d="M143 0v1434h246v-592h141l369 592h268l-438 -699l502 -735h-275l-426 629h-141v-629h-246z" />
<glyph unicode="&#x41b;" horiz-adv-x="1355" d="M20 -8v207h64q78 0 109.5 29t31.5 114v1092h987v-1434h-245v1221h-496v-883q0 -105 -19 -173.5t-63 -108t-106 -55t-158 -15.5q-59 0 -105 6z" />
<glyph unicode="&#x41c;" horiz-adv-x="1724" d="M143 0v1434h271l448 -1168l449 1168h270v-1434h-242v956l-364 -956h-225l-365 956v-956h-242z" />
<glyph unicode="&#x41d;" horiz-adv-x="1294" d="M143 0v1434h246v-592h516v592h246v-1434h-246v629h-516v-629h-246z" />
<glyph unicode="&#x41e;" horiz-adv-x="1331" d="M102 717q0 167 26.5 301t98.5 237q143 203 439 203q295 0 438 -203q72 -103 98.5 -237t26.5 -301t-26.5 -301.5t-98.5 -237.5q-143 -203 -438 -203q-296 0 -439 203q-72 103 -98.5 237.5t-26.5 301.5zM348 717q0 -162 19 -256.5t61 -157.5q78 -115 238 -115 q159 0 237 115q42 63 61 157.5t19 256.5t-19 256t-61 157q-78 115 -237 115q-160 0 -238 -115q-42 -63 -61 -157t-19 -256z" />
<glyph unicode="&#x41f;" horiz-adv-x="1294" d="M143 0v1434h1008v-1434h-246v1221h-516v-1221h-246z" />
<glyph unicode="&#x420;" horiz-adv-x="1226" d="M143 0v1434h570q213 0 333.5 -118.5t120.5 -334.5q0 -217 -120 -335t-334 -118h-324v-528h-246zM389 741h289q120 0 182 62.5t62 177.5q0 117 -62 178.5t-182 61.5h-289v-480z" />
<glyph unicode="&#x421;" horiz-adv-x="1306" d="M102 717q0 167 26.5 301t98.5 237q143 203 439 203q247 0 393 -139t155 -365h-245q-5 136 -84.5 213.5t-218.5 77.5q-160 0 -238 -115q-42 -63 -61 -157t-19 -256t19 -256.5t61 -157.5q78 -115 238 -115q139 0 218.5 77.5t84.5 213.5h245q-9 -226 -155 -365t-393 -139 q-296 0 -439 203q-72 103 -98.5 237.5t-26.5 301.5z" />
<glyph unicode="&#x422;" horiz-adv-x="1093" d="M31 1221v213h1032v-213h-393v-1221h-246v1221h-393z" />
<glyph unicode="&#x423;" horiz-adv-x="1220" d="M37 1434h258l330 -762l317 762h258l-483 -1166q-64 -157 -137 -212.5t-213 -55.5q-68 0 -101 4v209h70q55 0 85.5 20.5t53.5 75.5l25 58z" />
<glyph unicode="&#x424;" horiz-adv-x="1495" d="M72 717q0 232 146 357t407 143v217h245v-217q261 -18 407 -143t146 -357t-146 -358t-407 -144v-215h-245v215q-261 18 -407 144t-146 358zM317 717q0 -134 82 -208.5t226 -80.5v576q-144 -5 -226 -79t-82 -208zM870 428q144 6 226 80.5t82 208.5t-82 208t-226 79v-576z " />
<glyph unicode="&#x425;" horiz-adv-x="1245" d="M31 0l440 741l-410 693h271l291 -510l290 510h271l-412 -693l442 -741h-270l-321 557l-322 -557h-270z" />
<glyph unicode="&#x426;" horiz-adv-x="1345" d="M143 0v1434h246v-1221h516v1221h246v-1221h154v-459h-246v246h-916z" />
<glyph unicode="&#x427;" horiz-adv-x="1249" d="M123 911v523h246v-498q0 -129 49 -182.5t164 -53.5q83 0 159 25t119 66v643h246v-1434h-246v584q-54 -42 -141 -69.5t-176 -27.5q-215 0 -317.5 103.5t-102.5 320.5z" />
<glyph unicode="&#x428;" horiz-adv-x="1957" d="M143 0v1434h246v-1221h467v1221h246v-1221h467v1221h246v-1434h-1672z" />
<glyph unicode="&#x429;" horiz-adv-x="2009" d="M143 0v1434h246v-1221h467v1221h246v-1221h467v1221h246v-1221h153v-459h-246v246h-1579z" />
<glyph unicode="&#x42a;" horiz-adv-x="1427" d="M31 1221v213h598v-590h260q229 0 348 -105t119 -317t-119 -317t-348 -105h-506v1221h-352zM629 213h229q130 0 191 50.5t61 158.5t-60.5 158.5t-191.5 50.5h-229v-418z" />
<glyph unicode="&#x42b;" horiz-adv-x="1662" d="M143 0v1434h246v-590h260q229 0 348 -105t119 -317t-119 -317t-348 -105h-506zM389 213h229q130 0 191 50.5t61 158.5t-60.5 158.5t-191.5 50.5h-229v-418zM1274 0v1434h246v-1434h-246z" />
<glyph unicode="&#x42c;" horiz-adv-x="1187" d="M143 0v1434h246v-590h260q229 0 348 -105t119 -317t-119 -317t-348 -105h-506zM389 213h229q130 0 191 50.5t61 158.5t-60.5 158.5t-191.5 50.5h-229v-418z" />
<glyph unicode="&#x42d;" horiz-adv-x="1306" d="M92 479h246q5 -136 84.5 -213.5t218.5 -77.5q160 0 238 115q36 52 54.5 123t22.5 184h-424v213h424q-8 207 -77 307q-78 115 -238 115q-139 0 -218.5 -77.5t-84.5 -213.5h-246q9 226 155.5 365t393.5 139q295 0 438 -203q72 -103 98.5 -237t26.5 -301t-26.5 -301.5 t-98.5 -237.5q-143 -203 -438 -203q-247 0 -393.5 139t-155.5 365z" />
<glyph unicode="&#x42e;" horiz-adv-x="1765" d="M143 0v1434h246v-611h150q14 276 123 432q143 203 438 203t438 -203q72 -103 98.5 -237t26.5 -301t-26.5 -301.5t-98.5 -237.5q-143 -203 -438 -203t-438 203q-109 153 -123 432h-150v-610h-246zM782 717q0 -162 19 -256.5t61 -157.5q78 -115 238 -115q159 0 237 115 q42 63 61 157.5t19 256.5t-19 256t-61 157q-78 115 -237 115q-160 0 -238 -115q-42 -63 -61 -157t-19 -256z" />
<glyph unicode="&#x42f;" horiz-adv-x="1271" d="M92 0q19 53 25 131l12 201q9 141 60 212t157 93q-242 77 -242 360q0 211 117 324t340 113h567v-1434h-245v528h-273q-119 0 -175 -50.5t-62 -164.5l-11 -186q-3 -74 -20 -127h-250zM350 981q0 -240 250 -240h283v480h-283q-121 0 -185.5 -56.5t-64.5 -183.5z" />
<glyph unicode="&#x430;" d="M78 301q0 155 102 240.5t279 85.5q100 0 176 -36.5t102 -101.5v168q0 199 -196 199q-173 0 -191 -137h-235q11 153 120 241.5t306 88.5q213 0 321.5 -104t108.5 -286v-518q0 -81 24 -141h-239q-15 39 -19 115q-23 -62 -96 -101t-182 -39q-177 0 -279 85.5t-102 240.5z M311 301q0 -147 213 -147t213 147q0 148 -213 148t-213 -148z" />
<glyph unicode="&#x431;" horiz-adv-x="1099" d="M96 635q0 153 7 258t26.5 189t48 135t78.5 89.5t110.5 59t151.5 37.5l301 55l66 -194l-330 -60q-56 -10 -92 -24t-63.5 -37t-42 -60t-21 -88.5t-6.5 -128.5q28 84 104.5 133.5t183.5 49.5q187 0 291.5 -132.5t104.5 -404.5q0 -262 -114.5 -399.5t-344.5 -137.5 q-159 0 -258 63.5t-150 209.5t-51 387zM330 512q0 -169 50 -256.5t175 -87.5t175 87.5t50 256.5t-50 256.5t-175 87.5t-175 -87.5t-50 -256.5z" />
<glyph unicode="&#x432;" horiz-adv-x="1028" d="M123 0v1024h465q177 0 261.5 -75t84.5 -208q0 -77 -40.5 -132t-111.5 -79q87 -22 134 -80.5t47 -148.5q0 -301 -359 -301h-481zM356 186h222q77 0 114 29.5t37 93.5t-37 93.5t-114 29.5h-222v-246zM356 616h207q71 0 103 26.5t32 84.5t-32 84.5t-103 26.5h-207v-222z" />
<glyph unicode="&#x433;" horiz-adv-x="839" d="M123 0v1024h676v-193h-443v-831h-233z" />
<glyph unicode="&#x434;" horiz-adv-x="1081" d="M20 193h119q41 194 41 458v373h746v-831h125v-418h-234v225h-563v-225h-234v418zM375 193h317v638h-278v-200q0 -255 -39 -438z" />
<glyph unicode="&#x435;" d="M86 512q0 260 116 398.5t343 138.5t343 -138.5t116 -398.5v-72h-682q13 -272 223 -272q82 0 135 37.5t65 105.5h238q-28 -162 -141 -249t-297 -87q-227 0 -343 138.5t-116 398.5zM324 612h442q-19 244 -221 244t-221 -244z" />
<glyph unicode="&#x436;" horiz-adv-x="1482" d="M20 0l320 532l-272 492h245l215 -399h97v399h233v-399h96l215 399h246l-272 -492l319 -532h-254l-256 444h-94v-444h-233v444h-95l-256 -444h-254z" />
<glyph unicode="&#x437;" horiz-adv-x="1011" d="M61 287v14h234v-8q0 -59 54 -94t147 -35q94 0 147 35.5t53 99.5t-53 99.5t-147 35.5h-152v189h158q86 0 129 32.5t43 85.5t-43 86t-129 33t-129 -33t-43 -86v-18h-234v18q0 137 103 222.5t303 85.5t302.5 -83.5t102.5 -215.5q0 -80 -53.5 -141.5t-132.5 -80.5 q95 -15 152 -80t57 -161q0 -141 -115.5 -226.5t-318.5 -85.5q-204 0 -319.5 85.5t-115.5 226.5z" />
<glyph unicode="&#x438;" horiz-adv-x="1081" d="M123 0v1024h233v-641l383 641h219v-1024h-233v641l-383 -641h-219z" />
<glyph unicode="&#x439;" horiz-adv-x="1081" d="M123 0v1024h233v-641l383 641h219v-1024h-233v641l-383 -641h-219zM229 1466h201q3 -66 35 -98.5t86 -32.5t86 32.5t35 98.5h200q-7 -142 -95 -222.5t-226 -80.5t-226.5 80.5t-95.5 222.5z" />
<glyph unicode="&#x43a;" horiz-adv-x="1015" d="M123 0v1024h233v-399h97l252 399h253l-317 -492l365 -532h-263l-292 444h-95v-444h-233z" />
<glyph unicode="&#x43b;" horiz-adv-x="1132" d="M31 -10v190h53q64 0 91.5 31t27.5 106v707h807v-1024h-234v831h-340v-524q0 -178 -79 -249.5t-253 -71.5q-41 0 -73 4z" />
<glyph unicode="&#x43c;" horiz-adv-x="1353" d="M123 0v1024h211l342 -772l344 772h211v-1024h-225v543l-240 -543h-178l-240 543v-543h-225z" />
<glyph unicode="&#x43d;" horiz-adv-x="1073" d="M123 0v1024h233v-401h361v401h233v-1024h-233v430h-361v-430h-233z" />
<glyph unicode="&#x43e;" d="M86 512q0 260 116 398.5t343 138.5t343 -138.5t116 -398.5t-116 -398.5t-343 -138.5t-343 138.5t-116 398.5zM319 512q0 -168 51 -256t175 -88t174.5 88t50.5 256t-50.5 256t-174.5 88t-175 -88t-51 -256z" />
<glyph unicode="&#x43f;" horiz-adv-x="1073" d="M123 0v1024h827v-1024h-233v831h-361v-831h-233z" />
<glyph unicode="&#x440;" horiz-adv-x="1126" d="M123 -446v1470h233v-158q28 84 103 133.5t180 49.5q190 0 295.5 -132t105.5 -405t-105.5 -405t-295.5 -132q-105 0 -180 49.5t-103 133.5v-604h-233zM356 512q0 -168 51 -256t175 -88t174.5 88t50.5 256t-50.5 256t-174.5 88t-175 -88t-51 -256z" />
<glyph unicode="&#x441;" horiz-adv-x="1064" d="M86 512q0 260 116 398.5t343 138.5q194 0 309.5 -94.5t134.5 -268.5h-235q-8 79 -62.5 124.5t-146.5 45.5q-124 0 -175 -88t-51 -256t51 -256t175 -88q92 0 146.5 45.5t62.5 124.5h235q-19 -174 -134.5 -268.5t-309.5 -94.5q-227 0 -343 138.5t-116 398.5z" />
<glyph unicode="&#x442;" horiz-adv-x="937" d="M41 831v193h856v-193h-311v-831h-234v831h-311z" />
<glyph unicode="&#x443;" horiz-adv-x="1062" d="M31 1024h243l263 -737l251 737h244l-448 -1239q-50 -134 -126 -182.5t-204 -48.5q-69 0 -96 4v188h75q49 0 82.5 24.5t55.5 86.5l49 139z" />
<glyph unicode="&#x444;" horiz-adv-x="1773" d="M86 512q0 273 105.5 405t295.5 132q105 0 180 -49.5t103 -133.5v568h234v-568q28 84 102.5 133.5t179.5 49.5q190 0 296 -132.5t106 -404.5t-106 -404.5t-296 -132.5q-105 0 -179.5 49.5t-102.5 133.5v-604h-234v604q-28 -84 -103 -133.5t-180 -49.5q-190 0 -295.5 132 t-105.5 405zM319 512q0 -168 51 -256t175 -88t174.5 88t50.5 256t-50.5 256t-174.5 88t-175 -88t-51 -256zM1004 512q0 -168 50.5 -256t174.5 -88t174.5 88t50.5 256t-50.5 256t-174.5 88t-174.5 -88t-50.5 -256z" />
<glyph unicode="&#x445;" horiz-adv-x="987" d="M20 0l336 526l-315 498h254l201 -340l200 340h254l-315 -498l336 -526h-254l-221 369l-222 -369h-254z" />
<glyph unicode="&#x446;" horiz-adv-x="1105" d="M123 0v1024h233v-831h361v831h233v-831h125v-418h-233v225h-719z" />
<glyph unicode="&#x447;" horiz-adv-x="1036" d="M102 651v373h234v-356q0 -91 35 -129.5t114 -38.5q58 0 111 18t84 47v459h233v-1024h-233v375q-42 -30 -108 -49t-130 -19q-173 0 -256.5 82.5t-83.5 261.5z" />
<glyph unicode="&#x448;" horiz-adv-x="1585" d="M123 0v1024h233v-831h320v831h233v-831h320v831h233v-1024h-1339z" />
<glyph unicode="&#x449;" horiz-adv-x="1617" d="M123 0v1024h233v-831h320v831h233v-831h320v831h233v-831h125v-418h-233v225h-1231z" />
<glyph unicode="&#x44a;" horiz-adv-x="1191" d="M41 831v193h504v-356h213q177 0 272.5 -86.5t95.5 -247.5t-95.5 -247.5t-272.5 -86.5h-447v831h-270zM545 193h184q77 0 120.5 35t43.5 106t-43.5 106t-120.5 35h-184v-282z" />
<glyph unicode="&#x44b;" horiz-adv-x="1423" d="M123 0v1024h233v-356h213q177 0 273 -86.5t96 -247.5t-96 -247.5t-273 -86.5h-446zM356 193h185q77 0 120.5 35t43.5 106t-43.5 106t-120.5 35h-185v-282zM1067 0v1024h233v-1024h-233z" />
<glyph unicode="&#x44c;" horiz-adv-x="1003" d="M123 0v1024h233v-356h213q177 0 273 -86.5t96 -247.5t-96 -247.5t-273 -86.5h-446zM356 193h185q77 0 120.5 35t43.5 106t-43.5 106t-120.5 35h-185v-282z" />
<glyph unicode="&#x44d;" horiz-adv-x="1064" d="M76 338h235q8 -79 62.5 -124.5t146.5 -45.5q106 0 158 64.5t63 187.5h-284v184h284q-11 123 -63 187.5t-158 64.5q-92 0 -146.5 -45.5t-62.5 -124.5h-235q19 174 134.5 268.5t309.5 94.5q227 0 343 -138.5t116 -398.5t-116 -398.5t-343 -138.5q-194 0 -309.5 94.5 t-134.5 268.5z" />
<glyph unicode="&#x44e;" horiz-adv-x="1480" d="M123 0v1024h233v-416h125q21 215 134 328t321 113q230 0 344.5 -137.5t114.5 -399.5t-114.5 -399.5t-344.5 -137.5q-413 0 -455 441h-125v-416h-233zM711 512q0 -168 50.5 -256t174.5 -88t174.5 88t50.5 256t-50.5 256t-174.5 88t-174.5 -88t-50.5 -256z" />
<glyph unicode="&#x44f;" horiz-adv-x="1052" d="M92 0q12 49 14 94l9 144q6 96 46 149t124 70q-189 57 -189 268q0 144 93 221.5t274 77.5h467v-1024h-234v360h-184q-157 0 -166 -135l-8 -135q-3 -59 -14 -90h-232zM330 692q0 -139 159 -139h207v278h-207q-159 0 -159 -139z" />
<glyph unicode="&#x450;" d="M86 512q0 260 116 398.5t343 138.5t343 -138.5t116 -398.5v-72h-682q13 -272 223 -272q82 0 135 37.5t65 105.5h238q-28 -162 -141 -249t-297 -87q-227 0 -343 138.5t-116 398.5zM264 1485h264l195 -330h-203zM324 612h442q-19 244 -221 244t-221 -244z" />
<glyph unicode="&#x451;" d="M86 512q0 260 116 398.5t343 138.5t343 -138.5t116 -398.5v-72h-682q13 -272 223 -272q82 0 135 37.5t65 105.5h238q-28 -162 -141 -249t-297 -87q-227 0 -343 138.5t-116 398.5zM236 1190v250h241v-250h-241zM324 612h442q-19 244 -221 244t-221 -244zM612 1190v250h242 v-250h-242z" />
<glyph unicode="&#x452;" horiz-adv-x="1118" d="M10 1161v152h113v121h233v-121h258v-152h-258v-313q30 93 106.5 147t186.5 54q168 0 259 -105t91 -299v-780q0 -153 -87.5 -232t-254.5 -79q-61 0 -96 6v188h76q66 0 97.5 30t31.5 97v766q0 215 -172 215q-106 0 -172 -74.5t-66 -210.5v-571h-233v1161h-113z" />
<glyph unicode="&#x453;" horiz-adv-x="839" d="M123 0v1024h676v-193h-443v-831h-233zM281 1155l194 330h264l-256 -330h-202z" />
<glyph unicode="&#x454;" horiz-adv-x="1064" d="M86 512q0 260 116 398.5t343 138.5q194 0 309.5 -94.5t134.5 -268.5h-235q-8 79 -62.5 124.5t-146.5 45.5q-106 0 -158 -64.5t-63 -187.5h284v-184h-284q11 -123 63 -187.5t158 -64.5q92 0 146.5 45.5t62.5 124.5h235q-19 -174 -134.5 -268.5t-309.5 -94.5 q-227 0 -343 138.5t-116 398.5z" />
<glyph unicode="&#x455;" horiz-adv-x="997" d="M92 291v28h234v-28q0 -62 48.5 -96.5t129.5 -34.5q82 0 130 34.5t48 92.5q0 57 -31.5 87.5t-107.5 43.5l-107 18q-175 31 -256.5 104t-81.5 203q0 133 105.5 219.5t283.5 86.5q181 0 285.5 -83t104.5 -223v-20h-234v20q0 53 -40.5 87t-115.5 34q-74 0 -114.5 -32.5 t-40.5 -81.5q0 -53 34 -80t113 -41l107 -19q178 -30 253.5 -105.5t75.5 -213.5q0 -135 -112.5 -225.5t-298.5 -90.5q-188 0 -300 88.5t-112 227.5z" />
<glyph unicode="&#x456;" horiz-adv-x="499" d="M133 0v1024h234v-1024h-234zM133 1208v226h234v-226h-234z" />
<glyph unicode="&#x457;" horiz-adv-x="499" d="M-59 1190v250h241v-250h-241zM133 0v1024h234v-1024h-234zM317 1190v250h242v-250h-242z" />
<glyph unicode="&#x458;" horiz-adv-x="499" d="M-72 -252h76q129 0 129 143v1133h234v-1159q0 -153 -87.5 -232t-254.5 -79q-62 0 -97 6v188zM133 1208v226h234v-226h-234z" />
<glyph unicode="&#x459;" horiz-adv-x="1636" d="M31 -10v190h53q64 0 91.5 31t27.5 106v707h786v-356h213q177 0 273 -86.5t96 -247.5t-96 -247.5t-273 -86.5h-446v831h-320v-524q0 -178 -79 -249.5t-253 -71.5q-41 0 -73 4zM989 193h185q76 0 119.5 35t43.5 106t-43.5 106t-119.5 35h-185v-282z" />
<glyph unicode="&#x45a;" horiz-adv-x="1576" d="M123 0v1024h233v-401h340v401h234v-356h213q177 0 272.5 -86.5t95.5 -247.5t-95.5 -247.5t-272.5 -86.5h-447v430h-340v-430h-233zM930 193h184q77 0 120.5 35t43.5 106t-43.5 106t-120.5 35h-184v-282z" />
<glyph unicode="&#x45b;" horiz-adv-x="1118" d="M10 1161v152h113v121h233v-121h258v-152h-258v-313q30 93 106.5 147t186.5 54q168 0 259 -105t91 -299v-645h-233v641q0 215 -172 215q-106 0 -172 -74.5t-66 -210.5v-571h-233v1161h-113z" />
<glyph unicode="&#x45c;" horiz-adv-x="1015" d="M123 0v1024h233v-399h97l252 399h253l-317 -492l365 -532h-263l-292 444h-95v-444h-233zM348 1155l195 330h264l-256 -330h-203z" />
<glyph unicode="&#x45d;" horiz-adv-x="1081" d="M123 0v1024h233v-641l383 641h219v-1024h-233v641l-383 -641h-219zM281 1485h264l194 -330h-202z" />
<glyph unicode="&#x45e;" horiz-adv-x="1062" d="M31 1024h243l263 -737l251 737h244l-448 -1239q-50 -134 -126 -182.5t-204 -48.5q-69 0 -96 4v188h75q49 0 82.5 24.5t55.5 86.5l49 139zM215 1466h201q3 -66 35 -98.5t86 -32.5t85.5 32.5t34.5 98.5h201q-7 -142 -95 -222.5t-226 -80.5t-226.5 80.5t-95.5 222.5z" />
<glyph unicode="&#x45f;" horiz-adv-x="1073" d="M123 0v1024h233v-831h361v831h233v-1024h-297v-225h-233v225h-297z" />
<glyph unicode="&#x490;" horiz-adv-x="1028" d="M143 0v1434h619v286h246v-499h-619v-1221h-246z" />
<glyph unicode="&#x491;" horiz-adv-x="839" d="M123 0v1024h442v221h234v-414h-443v-831h-233z" />
<glyph unicode="&#x2000;" horiz-adv-x="969" />
<glyph unicode="&#x2001;" horiz-adv-x="1939" />
<glyph unicode="&#x2002;" horiz-adv-x="969" />
<glyph unicode="&#x2003;" horiz-adv-x="1939" />
<glyph unicode="&#x2004;" horiz-adv-x="646" />
<glyph unicode="&#x2005;" horiz-adv-x="484" />
<glyph unicode="&#x2006;" horiz-adv-x="323" />
<glyph unicode="&#x2007;" horiz-adv-x="323" />
<glyph unicode="&#x2008;" horiz-adv-x="242" />
<glyph unicode="&#x2009;" horiz-adv-x="387" />
<glyph unicode="&#x200a;" horiz-adv-x="107" />
<glyph unicode="&#x2010;" horiz-adv-x="843" d="M102 565v205h639v-205h-639z" />
<glyph unicode="&#x2011;" horiz-adv-x="843" d="M102 565v205h639v-205h-639z" />
<glyph unicode="&#x2012;" horiz-adv-x="843" d="M102 565v205h639v-205h-639z" />
<glyph unicode="&#x2013;" horiz-adv-x="1024" d="M0 565v205h1024v-205h-1024z" />
<glyph unicode="&#x2014;" horiz-adv-x="2048" d="M0 565v205h2048v-205h-2048z" />
<glyph unicode="&#x2018;" horiz-adv-x="577" d="M160 1096v258q0 102 68 166.5t190 68.5v-110q-129 -9 -129 -125h129v-258h-258z" />
<glyph unicode="&#x2019;" horiz-adv-x="577" d="M160 1096v110q129 9 129 125h-129v258h258v-258q0 -102 -68 -166.5t-190 -68.5z" />
<glyph unicode="&#x201a;" horiz-adv-x="577" d="M160 0v258h258v-258q0 -102 -68 -167t-190 -69v111q129 9 129 125h-129z" />
<glyph unicode="&#x201c;" horiz-adv-x="942" d="M160 1096v258q0 102 68 166.5t190 68.5v-110q-129 -9 -129 -125h129v-258h-258zM524 1096v258q0 102 68 166.5t190 68.5v-110q-129 -9 -129 -125h129v-258h-258z" />
<glyph unicode="&#x201d;" horiz-adv-x="942" d="M160 1096v110q129 9 129 125h-129v258h258v-258q0 -102 -68 -166.5t-190 -68.5zM524 1096v110q129 9 129 125h-129v258h258v-258q0 -102 -68 -166.5t-190 -68.5z" />
<glyph unicode="&#x201e;" horiz-adv-x="942" d="M160 0v258h258v-258q0 -102 -68 -167t-190 -69v111q129 9 129 125h-129zM524 0v258h258v-258q0 -102 -68 -167t-190 -69v111q129 9 129 125h-129z" />
<glyph unicode="&#x2022;" horiz-adv-x="741" d="M102 668q0 110 79.5 189t189.5 79t189 -79t79 -189t-79 -189.5t-189 -79.5t-189.5 79.5t-79.5 189.5z" />
<glyph unicode="&#x2026;" horiz-adv-x="1732" d="M160 0v258h258v-258h-258zM737 0v258h258v-258h-258zM1315 0v258h258v-258h-258z" />
<glyph unicode="&#x202f;" horiz-adv-x="387" />
<glyph unicode="&#x2039;" horiz-adv-x="589" d="M82 565v148l426 258v-185l-250 -147l250 -147v-185z" />
<glyph unicode="&#x203a;" horiz-adv-x="589" d="M82 307v185l250 147l-250 147v185l426 -258v-148z" />
<glyph unicode="&#x205f;" horiz-adv-x="484" />
<glyph unicode="&#x20ac;" horiz-adv-x="1306" d="M25 535v122h77v119h-77v123h86q21 221 116 356q143 203 439 203q247 0 393 -139t155 -365h-245q-5 136 -84.5 213.5t-218.5 77.5q-160 0 -238 -115q-58 -82 -72 -231h396l-21 -123h-383v-119h363l-21 -122h-334q14 -150 72 -232q78 -115 238 -115q139 0 218.5 77.5 t84.5 213.5h245q-9 -226 -155 -365t-393 -139q-296 0 -439 203q-96 136 -116 357h-86z" />
<glyph unicode="&#x2122;" horiz-adv-x="1361" d="M20 1294v140h512v-140h-172v-544h-167v544h-173zM582 750v684h139l205 -482l204 482h140v-684h-156v315l-137 -315h-103l-137 315v-315h-155z" />
<glyph unicode="&#x25fc;" horiz-adv-x="1024" d="M0 0v1024h1024v-1024h-1024z" />
</font>
</defs>
</svg>
