<?xml version="1.0" encoding="utf-8"?>
<!-- Generator: Adobe Illustrator 16.0.0, SVG Export Plug-In . SVG Version: 6.00 Build 0)  -->
<!DOCTYPE svg PUBLIC "-//W3C//DTD SVG 1.1//EN" "http://www.w3.org/Graphics/SVG/1.1/DTD/svg11.dtd">
<svg version="1.1" xmlns="http://www.w3.org/2000/svg" xmlns:xlink="http://www.w3.org/1999/xlink" x="0px" y="0px" width="20px"
	 height="20px" viewBox="0 0 20 20" enable-background="new 0 0 20 20" xml:space="preserve">
<g id="location">
</g>
<g id="Location" display="none">
	<path display="inline" fill="#a2acb3" d="M10,2C6.687,2,4,4.687,4,8s6,10,6,10s6-6.687,6-10S13.313,2,10,2z M10,10.5
		c-1.38,0-2.5-1.119-2.5-2.5c0-1.38,1.12-2.5,2.5-2.5c1.381,0,2.5,1.12,2.5,2.5C12.5,9.381,11.381,10.5,10,10.5z"/>
</g>
<g id="draft" display="none">
	<path display="inline" fill="#a2acb3" d="M13,10c0,1.657-1.343,3-3,3c-1.657,0-3-1.343-3-3H2v8h16v-8H13z"/>
	<g display="inline">
		<path fill="#a2acb3" d="M14.438,4L16,10.246V16H4v-5.754L5.562,4H14.438 M16,2H4l-2,8v8h16v-8L16,2L16,2z"/>
	</g>
</g>
<g id="Layer_4" display="none">
	<rect x="8" y="2" display="inline" fill="#a2acb3" width="4" height="11"/>
	
		<rect x="10.884" y="7.073" transform="matrix(0.7072 0.707 -0.707 0.7072 11.4853 -5.2579)" display="inline" fill="#a2acb3" width="2.414" height="8.329"/>
	
		<rect x="6.702" y="7.075" transform="matrix(-0.7069 0.7073 -0.7073 -0.7069 21.4495 13.5893)" display="inline" fill="#a2acb3" width="2.415" height="8.328"/>
	<rect x="4.625" y="16" display="inline" fill="#a2acb3" width="10.75" height="2"/>
</g>
<g id="Layer_5" display="none">
	<path display="inline" fill="#a2acb3" d="M10.958,17c0,0.553-0.448,1-1,1l0,0c-0.552,0-1-0.447-1-1V3c0-0.552,0.448-1,1-1l0,0
		c0.552,0,1,0.448,1,1V17z"/>
	<path display="inline" fill="#a2acb3" d="M10.666,17.707c-0.391,0.391-1.024,0.391-1.414,0l0,0c-0.39-0.39-0.391-1.023,0-1.414
		l6.899-6.899c0.391-0.391,1.025-0.39,1.414,0l0,0c0.391,0.39,0.391,1.023,0,1.414L10.666,17.707z"/>
	<path display="inline" fill="#a2acb3" d="M10.666,16.293c0.391,0.391,0.391,1.024,0,1.414l0,0c-0.39,0.391-1.023,0.391-1.414,0
		l-6.899-6.899c-0.391-0.391-0.39-1.024,0-1.414l0,0c0.39-0.39,1.023-0.391,1.414,0L10.666,16.293z"/>
</g>
<g id="Layer_5_copy" display="none">
	<path display="inline" fill="#a2acb3" d="M8.958,3c0-0.553,0.448-1,1-1l0,0c0.552,0,1,0.447,1,1v14c0,0.552-0.448,1-1,1l0,0
		c-0.552,0-1-0.448-1-1V3z"/>
	<path display="inline" fill="#a2acb3" d="M9.251,2.293c0.391-0.391,1.024-0.391,1.414,0l0,0c0.389,0.39,0.39,1.023,0,1.414
		l-6.899,6.899c-0.391,0.391-1.025,0.39-1.414,0l0,0c-0.391-0.39-0.391-1.023,0-1.414L9.251,2.293z"/>
	<path display="inline" fill="#a2acb3" d="M9.251,3.708c-0.391-0.391-0.391-1.024,0-1.414l0,0c0.39-0.391,1.023-0.391,1.414,0
		l6.899,6.899c0.391,0.391,0.39,1.024,0,1.414l0,0c-0.391,0.39-1.023,0.391-1.414,0L9.251,3.708z"/>
</g>
<g id="Layer_5_copy_2" display="none">
	<path display="inline" fill="#a2acb3" d="M16.958,9c0.553,0,1,0.448,1,1l0,0c0,0.553-0.447,1-1,1H2.959c-0.552,0-1-0.447-1-1l0,0
		c0-0.552,0.448-1,1-1L16.958,9z"/>
	<path display="inline" fill="#a2acb3" d="M17.665,9.293c0.391,0.391,0.391,1.024,0,1.414l0,0c-0.39,0.39-1.023,0.391-1.414,0
		L9.353,3.809c-0.391-0.391-0.391-1.025,0-1.414l0,0c0.39-0.391,1.023-0.391,1.414,0L17.665,9.293z"/>
	<path display="inline" fill="#a2acb3" d="M16.251,9.293c0.391-0.391,1.024-0.391,1.414,0l0,0c0.391,0.39,0.391,1.023,0,1.414
		l-6.898,6.899c-0.391,0.391-1.024,0.39-1.415,0l0,0c-0.39-0.391-0.391-1.023,0-1.414L16.251,9.293z"/>
</g>
<g id="Layer_5_copy_6" display="none">
	<path display="inline" fill="#a2acb3" d="M16.958,9c0.553,0,1,0.448,1,1l0,0c0,0.553-0.447,1-1,1H2.959c-0.552,0-1-0.447-1-1l0,0
		c0-0.552,0.448-1,1-1L16.958,9z"/>
</g>
<g id="Layer_5_copy_3" display="none">
	<path display="inline" fill="#a2acb3" d="M2.959,11c-0.553,0-1-0.447-1-0.999l0,0c0-0.553,0.447-1,1-1h13.999c0.552,0,1,0.447,1,1
		l0,0c0,0.552-0.448,1-1,1L2.959,11z"/>
	<path display="inline" fill="#a2acb3" d="M2.252,10.708c-0.391-0.391-0.391-1.024,0-1.414l0,0c0.39-0.39,1.023-0.391,1.414,0
		l6.898,6.898c0.391,0.391,0.391,1.025,0,1.414l0,0c-0.39,0.391-1.023,0.391-1.414,0L2.252,10.708z"/>
	<path display="inline" fill="#a2acb3" d="M3.666,10.708c-0.391,0.391-1.024,0.391-1.414,0l0,0c-0.391-0.39-0.391-1.023,0-1.414
		L9.15,2.395c0.391-0.391,1.024-0.39,1.415,0l0,0c0.39,0.391,0.391,1.023,0,1.414L3.666,10.708z"/>
</g>
<g id="Layer_5_copy_4" display="none">
	<path display="inline" fill="#a2acb3" d="M2.959,11c-0.553,0-1-0.447-1-0.999l0,0c0-0.553,0.447-1,1-1h13.999c0.552,0,1,0.447,1,1
		l0,0c0,0.552-0.448,1-1,1L2.959,11z"/>
	<path display="inline" fill="#a2acb3" d="M8.959,3.001c0-0.553,0.447-1,0.999-1l0,0c0.553,0,1,0.447,1,1V17c0,0.552-0.447,1-1,1
		l0,0c-0.552,0-1-0.448-1-1L8.959,3.001z"/>
</g>
<g id="Layer_5_copy_5" display="none">
	<path display="inline" fill="#a2acb3" d="M2.301,3.756C1.91,3.365,1.91,2.732,2.3,2.342l0,0c0.391-0.391,1.023-0.391,1.414,0
		l13.913,13.914c0.39,0.391,0.391,1.023,0,1.414l0,0c-0.391,0.391-1.024,0.391-1.415,0L2.301,3.756z"/>
	<path display="inline" fill="#a2acb3" d="M16.145,2.401c0.43-0.43,1.095-0.462,1.485-0.072l0,0
		c0.391,0.391,0.358,1.055-0.071,1.485L3.737,17.636c-0.429,0.429-1.094,0.462-1.485,0.071l0,0c-0.39-0.391-0.358-1.057,0.071-1.485
		L16.145,2.401z"/>
</g>
<g id="Layer_11" display="none">
	<path display="inline" fill="#a2acb3" d="M4,2v16h12V2H4z M7,15H5v-2h2V15z M7,11H5V9h2V11z M15,16H8v-1h7V16z M15,14H8v-1h7V14z
		 M15,12H8v-1h7V12z M15,10H8V9h7V10z M15,8H5V4h10V8z"/>
</g>
<g id="Layer_11_copy" display="none">
	<path display="inline" fill="#a2acb3" d="M10,8.192c-1.707,0-3.095-1.389-3.095-3.096C6.905,3.389,8.293,2,10,2
		s3.096,1.389,3.096,3.096C13.096,6.803,11.707,8.192,10,8.192z"/>
	<path display="inline" fill="#a2acb3" d="M13.512,3.108c-0.174,0-0.342,0.018-0.504,0.049c0.361,0.559,0.574,1.224,0.574,1.939
		c0,1.267-0.664,2.379-1.658,3.017c0.447,0.318,0.994,0.507,1.588,0.507c1.521,0,2.756-1.234,2.756-2.756
		C16.268,4.341,15.033,3.108,13.512,3.108z"/>
	<path display="inline" fill="#a2acb3" d="M6.418,5.096c0-0.706,0.208-1.363,0.562-1.918c-0.197-0.044-0.4-0.07-0.61-0.07
		c-1.522,0-2.756,1.234-2.756,2.756S4.849,8.62,6.371,8.62c0.616,0,1.183-0.204,1.642-0.546C7.052,7.43,6.418,6.336,6.418,5.096z"/>
	<path display="inline" fill="#a2acb3" d="M15.318,14.332c0.082,0.608,0.171,1.304,0.265,2.075c0.83-0.16,1.647-0.353,2.45-0.581
		c-0.065-0.535-0.138-1.095-0.209-1.625c-0.316-2.338-1.898-4.273-4.239-4.319c-0.255,0.005-0.499,0.036-0.735,0.086
		C14.156,10.897,15.068,12.494,15.318,14.332z"/>
	<path display="inline" fill="#a2acb3" d="M7.269,9.986C7.006,9.925,6.732,9.888,6.444,9.882c-2.341,0.046-3.922,1.981-4.239,4.319
		C2.135,14.72,2.065,15.268,2,15.792c0.84,0.243,1.696,0.447,2.564,0.615c0.094-0.772,0.183-1.469,0.265-2.075
		C5.082,12.48,5.963,10.922,7.269,9.986z"/>
	<g display="inline">
		<path fill="#a2acb3" d="M12.233,10.145c-0.629-0.366-1.354-0.583-2.16-0.598c-0.827,0.016-1.568,0.242-2.208,0.626
			c-1.397,0.837-2.31,2.425-2.555,4.226c-0.142,1.044-0.281,2.193-0.387,3.104C6.582,17.828,8.295,18,10.049,18
			c1.771,0,3.501-0.175,5.174-0.506c-0.106-0.909-0.245-2.055-0.386-3.096C14.59,12.577,13.658,10.974,12.233,10.145z"/>
	</g>
</g>
<g id="Layer_11_copy_2" display="none">
	<path display="inline" fill="#a2acb3" d="M2,2v16h16V2H2z M16,14H4V4h12V14z"/>
	<polygon display="inline" fill="#a2acb3" points="11,7 9,10.667 7,9 5,13 15,13 	"/>
	<circle display="inline" fill="#a2acb3" cx="6.5" cy="6.5" r="1.5"/>
</g>
<g id="Layer_11_copy_3" display="none">
	<path display="inline" fill="#a2acb3" d="M17,17v-2h1V5h-1V3h1V2H2v1h2v2H2v10h2v2H2v1h16v-1H17z M11,3h2v2h-2V3z M8,3h2v2H8V3z
		 M7,17H5v-2h2V17z M7,5H5V3h2V5z M10,17H8v-2h2V17z M13,17h-2v-2h2V17z M8,13.09V7l5.273,3.045L8,13.09z M16,17h-2v-2h2V17z M16,5
		h-2V3h2V5z"/>
</g>
<g id="Layer_11_copy_4" display="none">
	<g display="inline">
		<rect x="2" y="8" fill="#a2acb3" width="5" height="4"/>
		<rect x="2" y="3" fill="#a2acb3" width="9" height="4"/>
		<polygon fill="#a2acb3" points="8,13 7,13 2,13 2,17 11,17 11,13 		"/>
		<rect x="12" y="3" fill="#a2acb3" width="6" height="4"/>
		<polygon fill="#a2acb3" points="11,8 8,8 8,12 11,12 12,12 18,12 18,8 12,8 		"/>
		<rect x="12" y="13" fill="#a2acb3" width="6" height="4"/>
	</g>
</g>
<g id="Layer_11_copy_5" display="none">
	<g display="inline">
		<path fill="#a2acb3" d="M10,4c3.309,0,6,2.691,6,6s-2.691,6-6,6s-6-2.691-6-6S6.691,4,10,4 M10,2c-4.418,0-8,3.582-8,8
			c0,4.418,3.582,8,8,8c4.418,0,8-3.582,8-8C18,5.582,14.418,2,10,2L10,2z"/>
	</g>
	<path display="inline" fill="#a2acb3" d="M11,6c0-0.552-0.447-1-1-1l0,0C9.448,5,9,5.448,9,6v4c0,0.552,0.448,1,1,1l0,0
		c0.553,0,1-0.448,1-1V6z"/>
	<path display="inline" fill="#a2acb3" d="M11.414,12.831c0.391,0.391,1.023,0.391,1.414,0l0,0c0.391-0.391,0.391-1.023,0-1.415
		l-2.121-2.121c-0.391-0.391-1.024-0.391-1.415,0l0,0c-0.391,0.391-0.391,1.023,0,1.414L11.414,12.831z"/>
</g>
<g id="Layer_11_copy_6" display="none">
	<polygon display="inline" fill="#a2acb3" points="12,12 9,3 6,9 2,9 2,11 7,11 9,7 12,17 14,11 18,11 18,9 13,9 	"/>
</g>
<g id="Layer_11_copy_7" display="none">
	<g display="inline">
		<path fill="#a2acb3" d="M8.5,4C10.981,4,13,6.019,13,8.5S10.981,13,8.5,13S4,10.981,4,8.5S6.019,4,8.5,4 M8.5,2
			C4.91,2,2,4.91,2,8.5S4.91,15,8.5,15S15,12.09,15,8.5S12.09,2,8.5,2L8.5,2z"/>
	</g>
	<path display="inline" fill="#a2acb3" d="M17.706,17.703c-0.391,0.392-1.023,0.392-1.414,0l-4.242-4.242
		c-0.392-0.391-0.392-1.023,0-1.414l0,0c0.391-0.392,1.023-0.392,1.414,0l4.242,4.242C18.098,16.68,18.098,17.312,17.706,17.703
		L17.706,17.703z"/>
</g>
<g id="Layer_11_copy_8" display="none">
	<g display="inline">
		<rect x="2" y="6" fill="#a2acb3" width="7" height="3"/>
		<rect x="11" y="6" fill="#a2acb3" width="7" height="3"/>
	</g>
	<g display="inline">
		<rect x="3" y="10" fill="#a2acb3" width="6" height="8"/>
		<rect x="11" y="10" fill="#a2acb3" width="6" height="8"/>
	</g>
	<g display="inline">
		<path fill="#a2acb3" d="M12,3c0.552,0,1,0.449,1,1s-0.448,1-1,1c-0.233,0-0.624,0.005-1,0.012V4C11,3.449,11.448,3,12,3 M12,2
			c-1.104,0-2,0.896-2,2c0,0.552,0,2.031,0,2.031S11.447,6,12,6c1.104,0,2-0.896,2-2S13.104,2,12,2L12,2z"/>
	</g>
	<g display="inline">
		<path fill="#a2acb3" d="M8,3c0.551,0,1,0.449,1,1v1.012C8.624,5.005,8.233,5,8,5C7.449,5,7,4.551,7,4S7.449,3,8,3 M8,2
			C6.896,2,6,2.896,6,4s0.896,2,2,2c0.553,0,2,0.031,2,0.031S10,4.552,10,4C10,2.896,9.104,2,8,2L8,2z"/>
	</g>
</g>
<g id="Layer_11_copy_9" display="none">
	<g display="inline">
		<path fill="#a2acb3" d="M8.317,13.586c0.007-1.042,0.127-1.787,0.36-2.234c0.233-0.448,0.75-1.01,1.55-1.688
			c0.568-0.553,1.021-1.083,1.355-1.589c0.336-0.506,0.503-1.065,0.503-1.676c0-0.707-0.191-1.255-0.574-1.644
			c-0.381-0.39-0.926-0.585-1.633-0.585c-0.604,0-1.117,0.166-1.54,0.497C7.917,4.999,7.705,5.488,7.705,6.135H5.149L5.117,6.07
			C5.095,4.774,5.53,3.764,6.422,3.039s2.044-1.087,3.457-1.087c1.528,0,2.723,0.39,3.577,1.169C14.312,3.9,14.74,4.982,14.74,6.365
			c0,0.925-0.268,1.783-0.803,2.572c-0.535,0.791-1.211,1.513-2.027,2.169c-0.415,0.364-0.674,0.709-0.779,1.037
			c-0.107,0.327-0.159,0.808-0.159,1.442H8.317z M11.016,18.086H8.306V15.54h2.709V18.086z"/>
	</g>
</g>
<g id="Layer_11_copy_10" display="none">
	<path display="inline" fill="#a2acb3" d="M16,5V4c0-1.104-0.896-2-2-2H5C3.896,2,3,2.896,3,4v1H16z"/>
	<path display="inline" fill="#a2acb3" d="M4,6v10c0,1.104,0.896,2,2,2h7c1.104,0,2-0.896,2-2V6H4z"/>
	<rect x="6" y="7" display="inline" fill="#FFFFFF" width="1" height="9"/>
	<rect x="9" y="7" display="inline" fill="#FFFFFF" width="1" height="9"/>
	<rect x="12" y="7" display="inline" fill="#FFFFFF" width="1" height="9"/>
</g>
<g id="Layer_11_copy_12" display="none">
	<g display="inline">
		<path fill="#a2acb3" d="M9.998,3.998L9.998,3.998c2.454,0,4.636,1.469,5.561,3.742c1.246,3.064-0.233,6.572-3.298,7.819
			c-0.725,0.294-1.484,0.443-2.258,0.443c-2.454,0-4.637-1.469-5.561-3.741C3.196,9.196,4.675,5.688,7.74,4.442
			C8.464,4.147,9.224,3.998,9.998,3.998 M9.997,1.998c-1.003,0-2.024,0.19-3.011,0.591C2.894,4.254,0.925,8.92,2.589,13.014
			c1.263,3.106,4.255,4.988,7.414,4.988c1.004,0,2.023-0.189,3.011-0.591c4.093-1.665,6.062-6.332,4.397-10.425
			C16.147,3.88,13.155,1.998,9.997,1.998L9.997,1.998z"/>
	</g>
	<path display="inline" fill="#a2acb3" d="M10,7.428L10,7.428l-1.191,5.954c0,0.658,0.533,1.19,1.191,1.19l0,0
		c0.658,0,1.19-0.532,1.19-1.19C11.19,13.382,10.297,8.916,10,7.428z"/>
	<circle display="inline" fill="#a2acb3" cx="8.493" cy="6.295" r="1"/>
	<circle display="inline" fill="#a2acb3" cx="6.309" cy="8.459" r="1"/>
	<path display="inline" fill="#a2acb3" d="M14.082,9.428c-0.51,0.208-1.094-0.039-1.301-0.552c-0.206-0.513,0.041-1.095,0.555-1.302
		c0.509-0.207,1.094,0.041,1.3,0.553C14.843,8.639,14.596,9.221,14.082,9.428z"/>
	<circle display="inline" fill="#a2acb3" cx="11.549" cy="6.312" r="1"/>
</g>
<g id="Layer_11_copy_13" display="none">
	<rect x="2" y="7" display="inline" fill="#a2acb3" width="16" height="10"/>
	<polygon display="inline" fill="#a2acb3" points="18,6 2,6 2,4.989 3,5 4,3 9,3 10,5 18,5 	"/>
</g>
<g id="Layer_11_copy_14" display="none">
	<path display="inline" fill="#a2acb3" d="M18.021,11.021v-2h-2.11c-0.153-0.911-0.509-1.75-1.023-2.473l1.492-1.492l-1.415-1.414
		l-1.491,1.491C12.75,4.619,11.91,4.264,11,4.11V2H9v2.11C8.089,4.264,7.25,4.619,6.527,5.133L5.036,3.642L3.622,5.056l1.491,1.491
		C4.599,7.27,4.243,8.11,4.089,9.021h-2.11v2h2.11c0.153,0.91,0.509,1.751,1.023,2.473l-1.491,1.491l1.414,1.415l1.492-1.491
		C7.25,15.422,8.089,15.777,9,15.931v2.11h2v-2.11c0.91-0.153,1.75-0.509,2.473-1.022l1.491,1.491l1.415-1.415l-1.492-1.491
		c0.515-0.723,0.87-1.562,1.023-2.473H18.021z M10,13.021c-1.657,0-3-1.343-3-3c0-1.657,1.343-3,3-3c1.657,0,3,1.343,3,3
		C13,11.678,11.657,13.021,10,13.021z"/>
</g>
<g id="Layer_11_copy_15" display="none">
	<path display="inline" fill="#a2acb3" d="M13,2c-1.131,0-2.5,2-3,3.022C9.5,4,8.131,2,7,2C4.239,2,2,4.239,2,7c0,6.5,8,11,8,11
		s8-4.5,8-11C18,4.239,15.761,2,13,2z"/>
</g>
<g id="Layer_11_copy_11" display="none">
	<g display="inline">
		<path fill="#a2acb3" d="M10,4c3.309,0,6,2.691,6,6s-2.691,6-6,6s-6-2.691-6-6S6.691,4,10,4 M10,2c-4.418,0-8,3.582-8,8
			c0,4.418,3.582,8,8,8c4.418,0,8-3.582,8-8C18,5.582,14.418,2,10,2L10,2z"/>
	</g>
	<path display="inline" fill="#a2acb3" d="M11,10c0-0.552-0.447-1-1-1l0,0c-0.552,0-1,0.448-1,1v3c0,0.553,0.448,1,1,1l0,0
		c0.553,0,1-0.447,1-1V10z"/>
	<circle display="inline" fill="#a2acb3" cx="10" cy="7" r="1.5"/>
</g>
<g id="Layer_11_copy_16" display="none">
	<polygon display="inline" fill="#a2acb3" points="9.99,2.398 12.461,7.403 17.984,8.206 13.987,12.102 14.932,17.603 9.99,15.005 
		5.051,17.603 5.994,12.102 1.997,8.206 7.52,7.403 	"/>
</g>
<g id="Layer_11_copy_17" display="none">
	<path display="inline" fill="#a2acb3" d="M11,2C9.031,2,6,6,6,6H4C2.896,6,2,6.896,2,8v2v2c0,1.104,0.896,2,2,2h2c0,0,3.031,4,5,4
		c0.266,0,1,0,1,0v-8V2C12,2,11.266,2,11,2z"/>
	<rect x="13" y="7" display="inline" fill="#a2acb3" width="1" height="6"/>
	<rect x="15" y="5" display="inline" fill="#a2acb3" width="1" height="10"/>
	<rect x="17" y="2.5" display="inline" fill="#a2acb3" width="1" height="15"/>
</g>
<g id="Layer_11_copy_18" display="none">
	<path display="inline" fill="#a2acb3" d="M2.814,14.583c0.083-0.731,0.439-1.411,1.066-2.038l6.144-6.144
		c1.255-1.233,2.382-1.411,3.385-0.532c0.9,0.919,0.521,1.877-0.753,3.194l-5.675,5.643l-0.876-0.968l5.611-5.612
		c0.021,0,0.409-0.405,0.482-0.5c0.216-0.257,0.354-0.428,0.141-0.675c-0.252-0.272-0.633-0.007-1.219,0.579l-6.112,6.113
		c-0.397,0.376-0.617,0.741-0.659,1.098c-0.042,0.417,0.146,0.836,0.565,1.254c0.438,0.354,0.81,0.506,1.112,0.454
		c0.304-0.053,0.685-0.299,1.145-0.737c0.877-0.856,2.042-2.005,3.495-3.448c1.453-1.441,2.493-2.486,3.12-3.134
		c0.021-0.021,0.521-0.48,1.034-1.155c0.374-0.49,0.685-0.941,0.752-1.228c0.147-0.698-0.011-1.265-0.532-1.975
		c-0.521-0.71-1.14-1.108-1.851-1.191c-0.73-0.083-1.547,0.303-2.444,1.16l-6.709,6.709l-1.097-1.066l6.709-6.74
		c1.045-1.024,2.111-1.562,3.198-1.615c1.087-0.052,2.1,0.392,3.04,1.333c1.128,1.149,1.525,2.414,1.191,3.793
		c-0.209,0.794-0.71,1.599-1.505,2.414c-0.92,0.899-2.236,2.205-3.95,3.919L8.269,16.84c-0.752,0.751-1.557,1.14-2.414,1.16
		c-0.731,0-1.4-0.304-2.006-0.909C3.097,16.338,2.752,15.502,2.814,14.583L2.814,14.583z"/>
</g>
<g id="Layer_11_copy_19" display="none">
	<polygon display="inline" fill="#a2acb3" points="16,18 10,13 4,18 4,2 16,2 	"/>
</g>
<g id="Layer_11_copy_20" display="none">
	<path display="inline" fill="#a2acb3" d="M16.205,12.784C17.326,11.751,18,10.435,18,9c0-3.314-3.582-6-8-6C5.582,3,2,5.686,2,9
		c0,3.313,3.582,6,8,6c1.247,0,2.422-0.22,3.475-0.602l3.496,1.495L16.205,12.784z"/>
</g>
<g id="Layer_11_copy_22" display="none">
	<path display="inline" fill="#a2acb3" d="M16,4v1c0,1.103-0.896,2-2,2c-1.103,0-2-0.897-2-2V4H8v1c0,1.103-0.897,2-2,2
		C4.897,7,4,6.103,4,5V4H2v14h16V4H16z M16,16H4V9h12V16z"/>
	<path display="inline" fill="#a2acb3" d="M6,2C5.448,2,5,2.448,5,3v1v1c0,0.552,0.448,1,1,1s1-0.448,1-1V4V3C7,2.448,6.552,2,6,2z"
		/>
	<path display="inline" fill="#a2acb3" d="M14,2c-0.552,0-1,0.448-1,1v1v1c0,0.552,0.448,1,1,1c0.553,0,1-0.448,1-1V4V3
		C15,2.448,14.553,2,14,2z"/>
</g>
<g id="Layer_11_copy_21" display="none">
	<path display="inline" fill="#a2acb3" d="M17.938,6.006c0,0-0.847-1.387-2.967-0.9c-1.959,0.447-2.287,1.568-9.75,5.615
		c-0.109,0.061-0.438,0.241-0.438,0.241l-1.059,0.573l-0.365,0.202c-1.211,0.665-1.654,2.194-0.988,3.401
		c0.666,1.213,2.192,1.658,3.403,0.99l1.424-0.774c1.21-0.665,1.654-2.192,0.989-3.403c-0.083-0.152-0.179-0.289-0.287-0.416
		L17.938,6.006z M14.972,5.105c-1.984,0.453-1.83,1.32-9.75,5.615 M6.732,12.751c0.184,0.332,0.101,0.729-0.183,0.888l-1.876,1.022
		c-0.285,0.155-0.664,0.013-0.848-0.322c-0.183-0.33-0.102-0.729,0.183-0.884l0.43-0.238l1.448-0.786
		C6.17,12.273,6.549,12.417,6.732,12.751z"/>
	<path display="inline" fill="#a2acb3" d="M11.316,10.043l-2.163,1.165c0.354,0.212,0.678,0.41,0.976,0.595l-0.302-0.174
		c1.85,1.145,2.811,1.855,3.576,2.312c0.52,0.318,0.933,0.503,1.558,0.646c2.12,0.486,2.967-0.9,2.967-0.9L11.316,10.043z"/>
	<path display="inline" fill="#a2acb3" d="M8.469,8.475L7.89,8.156C7.998,8.03,8.093,7.893,8.176,7.74
		c0.665-1.211,0.222-2.738-0.989-3.403L5.764,3.562c-1.211-0.667-2.737-0.223-3.403,0.99C1.695,5.76,2.138,7.289,3.349,7.954
		l0.365,0.202l1.059,0.573c0,0,0.329,0.181,0.438,0.241c0.422,0.229,0.814,0.445,1.191,0.654L8.469,8.475z M4.427,6.475l-0.43-0.239
		C3.713,6.083,3.632,5.683,3.815,5.353C3.999,5.017,4.378,4.875,4.663,5.03l1.876,1.023C6.822,6.21,6.905,6.608,6.721,6.94
		c-0.183,0.334-0.562,0.478-0.846,0.32L4.427,6.475z"/>
</g>
<g id="Layer_11_copy_23" display="none">
	<path display="inline" fill="#a2acb3" d="M4.851,17.978C2,18,2,18,2,18s0,0,0.022-2.852c0.002-0.321,0.906-0.906,0.906-0.906
		l2.829,2.828C5.758,17.07,5.171,17.975,4.851,17.978z"/>
	<path display="inline" fill="#a2acb3" d="M16.932,3.068c-0.78-0.781-1.312-1.516-2.094-0.734l-1.346,1.346l2.828,2.828l1.346-1.346
		C18.447,4.38,17.713,3.849,16.932,3.068z"/>
	
		<rect x="3.401" y="8.39" transform="matrix(0.7071 -0.7071 0.7071 0.7071 -4.5326 9.8389)" display="inline" fill="#a2acb3" width="12.417" height="4.001"/>
	<polygon display="inline" fill="#a2acb3" points="6.875,17 18,17 18,18 6.063,18 	"/>
</g>
<g id="Layer_11_copy_24" display="none">
	<path display="inline" fill="#a2acb3" d="M10,4c1.654,0,3,1.346,3,3s-1.346,3-3,3S7,8.654,7,7S8.346,4,10,4 M10,2
		C7.239,2,5,4.239,5,7c0,2.762,2.239,5,5,5c2.762,0,5-2.238,5-5C15,4.239,12.762,2,10,2L10,2z"/>
	<rect x="9" y="10.953" display="inline" fill="#a2acb3" width="2" height="7.047"/>
	<rect x="6.477" y="14" display="inline" fill="#a2acb3" width="7.047" height="2"/>
</g>
<g id="Layer_11_copy_25" display="none">
	<path display="inline" fill="#a2acb3" d="M5.455,14.545c-1.404-1.403-1.404-3.688,0-5.092c1.404-1.405,3.688-1.405,5.093,0
		c1.405,1.404,1.405,3.688,0,5.092C9.144,15.949,6.859,15.949,5.455,14.545 M3.758,16.244c2.343,2.343,6.145,2.343,8.488,0
		c2.344-2.345,2.344-6.146,0-8.489c-2.345-2.344-6.145-2.344-8.488,0C1.414,10.099,1.414,13.899,3.758,16.244L3.758,16.244z"/>
	
		<rect x="13.014" y="1.625" transform="matrix(-0.7071 -0.7071 0.7071 -0.7071 19.7037 20.0951)" display="inline" fill="#a2acb3" width="2" height="8.683"/>
	<rect x="16" y="2" display="inline" fill="#a2acb3" width="2" height="7.046"/>
	<rect x="10.953" y="2" display="inline" fill="#a2acb3" width="7.047" height="2"/>
</g>
<g id="Layer_11_copy_28" display="none">
	<path display="inline" fill="#a2acb3" d="M12,8h4v8H8V4h4V8 M14,2H6v16h12V6L14,2z"/>
	<polygon display="inline" fill="#a2acb3" points="5,17 2,17 2,3 5,3 5,5 4,5 4,15 5,15 	"/>
</g>
<g id="Layer_11_copy_29" display="none">
	<rect x="2" y="2" display="inline" fill="#a2acb3" width="2" height="16"/>
	<path display="inline" fill="#a2acb3" d="M18,14c0,0-2.912-1.743-4-2c-0.974-0.229-3.019,0.189-4,0c-1.322-0.255-5-2-5-2V2
		c0,0,3.678,1.746,5,2c0.982,0.189,3.027-0.23,4,0c1.088,0.257,4,2,4,2V14z"/>
</g>
<g id="Layer_11_copy_31" display="none">
	<path display="inline" fill="#a2acb3" d="M18,12.234c0-2.481-2.682-4.492-5.989-4.492c-3.308,0-5.99,2.011-5.99,4.492
		c0,2.481,2.682,4.492,5.99,4.492c0.934,0,1.812-0.164,2.602-0.451L17.554,18l-0.897-2.932C17.496,14.294,18,13.31,18,12.234z"/>
	<path display="inline" fill="#a2acb3" d="M12.011,7.242c0.057,0,0.112,0.005,0.168,0.007C12.374,6.837,12.5,6.4,12.5,5.938
		C12.5,3.763,10.15,2,7.25,2C4.351,2,2,3.763,2,5.938C2,6.88,2.442,7.743,3.178,8.421L2.392,10.99L4.97,9.48
		c0.43,0.156,0.899,0.252,1.383,0.317C7.465,8.274,9.583,7.242,12.011,7.242z"/>
</g>
<g id="Layer_11_copy_30" display="none">
	<path display="inline" fill="#a2acb3" d="M9.96,3.994C9.514,2.831,8.394,2,7.077,2C5.37,2,3.981,3.389,3.981,5.096
		c0,1.707,1.388,3.096,3.095,3.096c0.579,0,1.116-0.17,1.58-0.448C8.734,6.758,9.021,5.293,9.96,3.994z"/>
	<path display="inline" fill="#a2acb3" d="M16.686,8.787c0,0,0.259-2.637-1.405-4.559c-0.401-0.463-0.965-0.77-1.596-0.883
		c0.001-0.001,0.001-0.001,0.002-0.002c-0.167-0.032-0.341-0.051-0.522-0.051c-0.181,0-0.354,0.019-0.522,0.051
		c0.001,0.001,0.001,0.001,0.002,0.002c-0.63,0.113-1.194,0.42-1.596,0.883C9.384,6.15,9.645,8.787,9.645,8.787
		S10.288,8.5,10.988,8.5c0.17,0,0.344,0.017,0.512,0.059c-0.002,0.001-0.004,0.003-0.007,0.005c0.336,0.127,0.609,0.24,0.881,0.322
		c0.072,0.021,0.145,0.038,0.22,0.053c0.179,0.04,0.361,0.069,0.57,0.069s0.393-0.029,0.571-0.069
		c0.075-0.015,0.147-0.032,0.221-0.053c0.271-0.081,0.544-0.194,0.879-0.321c-0.002-0.002-0.004-0.004-0.007-0.005
		C14.997,8.518,15.171,8.5,15.341,8.5C16.042,8.5,16.686,8.787,16.686,8.787z"/>
	<g display="inline">
		<path fill="#a2acb3" d="M7.439,17.427c0.098-0.842,0.227-1.905,0.358-2.871c0.224-1.652,0.963-3.071,2.058-4.034
			c-0.173-0.138-0.354-0.265-0.545-0.376C8.681,9.779,7.956,9.562,7.15,9.547c-0.827,0.016-1.568,0.242-2.208,0.626
			c-1.397,0.837-2.31,2.425-2.555,4.226C2.246,15.442,2.106,16.592,2,17.503C3.659,17.828,5.372,18,7.125,18
			c0.083,0,0.165-0.005,0.247-0.006L7.439,17.427z"/>
	</g>
	<path display="inline" fill="#a2acb3" d="M15.15,10.781c-0.578-0.336-1.244-0.535-1.985-0.55c-0.76,0.015-1.441,0.223-2.029,0.575
		c-1.284,0.77-2.123,2.229-2.348,3.884c-0.13,0.959-0.258,2.016-0.356,2.853C9.957,17.842,11.53,18,13.143,18
		c1.627,0,3.218-0.161,4.755-0.465c-0.098-0.836-0.226-1.889-0.354-2.845C17.315,13.017,16.46,11.543,15.15,10.781z"/>
</g>
<g id="Layer_11_copy_32" display="none">
	<path display="inline" fill="#a2acb3" d="M15.657,4.343c-3.125-3.125-8.19-3.125-11.314,0c-3.124,3.124-3.125,8.189,0,11.314
		c3.124,3.124,8.19,3.124,11.314,0C18.781,12.532,18.781,7.467,15.657,4.343z M15.711,13.101l-2.938-1.959
		c0.301-0.729,0.301-1.553,0-2.284L15.71,6.9C16.758,8.828,16.758,11.172,15.711,13.101z M8.939,11.061
		c-0.585-0.585-0.586-1.535,0-2.121c0.585-0.585,1.536-0.585,2.121,0c0.586,0.586,0.586,1.536,0,2.121
		C10.475,11.646,9.525,11.646,8.939,11.061z M13.1,4.289l-1.958,2.938c-0.73-0.3-1.553-0.3-2.283,0L6.9,4.289
		C8.828,3.242,11.172,3.242,13.1,4.289z M4.29,6.9l2.938,1.958c-0.301,0.73-0.301,1.554,0,2.284l-2.938,1.959
		C3.242,11.172,3.242,8.828,4.29,6.9z M6.899,15.711l1.958-2.938c0.73,0.301,1.554,0.301,2.285,0l1.958,2.938
		C11.172,16.758,8.828,16.758,6.899,15.711z"/>
</g>
<g id="Layer_11_copy_26" display="none">
	<polygon display="inline" fill="#a2acb3" points="9.875,2 2,7 2,9 9.875,4 18,9 18,7 	"/>
	<polygon display="inline" fill="#a2acb3" points="17,18 17,10.385 9.875,6 3,10.365 3,18 8,18 8,12 12,12 12,18 	"/>
</g>
<g id="Layer_45" display="none">
	<path display="inline" fill="#a2acb3" d="M5.938,10.125C3.763,10.125,2,11.888,2,14.062S3.763,18,5.938,18s3.937-1.763,3.937-3.938
		S8.112,10.125,5.938,10.125z M5.885,11.98c1.179,0,2.135,0.956,2.135,2.136s-0.956,2.135-2.135,2.135S3.75,15.296,3.75,14.116
		S4.706,11.98,5.885,11.98z"/>
	<path display="inline" fill="#a2acb3" d="M14.522,3.882l-7.548,7.551l1.855,1.856l7.55-7.552c0,0,0.937-0.682-0.118-1.737
		C15.293,3.032,14.522,3.882,14.522,3.882z"/>
	
		<rect x="12.297" y="5.128" transform="matrix(-0.7071 -0.7072 0.7072 -0.7071 19.3284 23.2619)" display="inline" fill="#a2acb3" width="4.37" height="5"/>
</g>
<g id="Layer_45_copy" display="none">
	<g display="inline">
		<path fill="#a2acb3" d="M11.914,7.919l-1.308,1.308c0.007,0.059,0.017,0.117,0.017,0.177c0,0.399-0.155,0.774-0.438,1.057
			l-0.271,0.271l-0.154,0.154l-1.722,1.723l0,0l-1.515,1.515c-0.282,0.282-0.657,0.438-1.056,0.438
			c-0.399,0-0.774-0.155-1.057-0.438L4.098,13.81c-0.283-0.282-0.438-0.657-0.438-1.057c0-0.398,0.155-0.773,0.438-1.057L7.76,8.035
			c0.282-0.282,0.657-0.437,1.056-0.437c0.041,0,0.081,0.008,0.122,0.012l1.322-1.322c-0.441-0.228-0.933-0.35-1.444-0.35
			c-0.842,0-1.634,0.328-2.23,0.924l-3.662,3.662C2.328,11.118,2,11.911,2,12.753c0,0.843,0.328,1.636,0.924,2.231l0.313,0.312
			c0.596,0.596,1.388,0.924,2.23,0.924c0.843,0,1.635-0.328,2.23-0.924l1.52-1.519l0,0l1.734-1.735l0,0l0.409-0.408
			c0.595-0.596,0.924-1.387,0.924-2.23C12.284,8.878,12.155,8.371,11.914,7.919z"/>
		<path fill="#a2acb3" d="M9.873,8.035l0.313,0.313c0.145,0.145,0.255,0.315,0.33,0.5l1.221-1.22
			c-0.11-0.161-0.236-0.313-0.376-0.454l-0.313-0.313c-0.151-0.151-0.316-0.285-0.49-0.401L9.325,7.691
			C9.528,7.765,9.715,7.878,9.873,8.035z"/>
	</g>
	<path display="inline" fill="#a2acb3" d="M17.088,5.016l-0.312-0.313c-0.597-0.596-1.389-0.924-2.231-0.924
		c-0.842,0-1.635,0.328-2.23,0.924l-1.52,1.519c0,0,0,0,0,0L9.493,7.523l0,0L8.652,8.364c-0.596,0.596-0.924,1.388-0.924,2.23
		c0,0.526,0.128,1.034,0.37,1.485l1.308-1.308c-0.007-0.059-0.017-0.117-0.017-0.178c0-0.398,0.155-0.774,0.438-1.057l0.69-0.689
		l0,0l0.107-0.107l0.061-0.061l0,0l1.29-1.29l0,0l1.514-1.515c0.283-0.282,0.658-0.438,1.057-0.438c0.399,0,0.774,0.155,1.057,0.438
		l0.313,0.313c0.282,0.282,0.438,0.658,0.438,1.056c0,0.399-0.155,0.774-0.438,1.057l-3.662,3.661
		c-0.282,0.283-0.657,0.438-1.057,0.438c-0.041,0-0.08-0.009-0.121-0.012l-1.322,1.322c0.441,0.228,0.933,0.35,1.443,0.35
		c0.843,0,1.635-0.328,2.23-0.924l3.662-3.662c0.596-0.595,0.924-1.388,0.924-2.23C18.012,6.404,17.684,5.612,17.088,5.016z"/>
</g>
<g id="Layer_11_copy_33" display="none">
	<path display="inline" fill="#a2acb3" d="M10,4c1.654,0,3,1.346,3,3s-1.346,3-3,3S7,8.654,7,7S8.346,4,10,4 M10,2
		C7.239,2,5,4.239,5,7c0,2.762,2.239,5,5,5c2.762,0,5-2.238,5-5C15,4.239,12.762,2,10,2L10,2z"/>
	<rect x="3" y="7" display="inline" fill="#a2acb3" width="14" height="11"/>
</g>
<g id="Layer_11_copy_34" display="none">
	<path display="inline" fill="#a2acb3" d="M17.547,13.422C17.156,12.995,16.062,13,16.062,13H5.999c0,0-0.265-1.007,1.001-1.166
		c3.186-0.403,9.99-0.464,10.438-2.521C17.703,8.091,18,4,18,4H5.999c0,0,0.147-1.021-0.562-1.479C4.447,1.881,2,2,2,2v2
		c0,0,1.297-0.094,1.584,0.188C4.025,4.621,4,5.313,4,5.313V13v2h14C18,15,18.138,14.066,17.547,13.422z"/>
	<circle display="inline" fill="#a2acb3" cx="5" cy="16.959" r="1"/>
	<circle display="inline" fill="#a2acb3" cx="15" cy="16.959" r="1"/>
</g>
<g id="Layer_45_copy_2" display="none">
	<path display="inline" fill="#a2acb3" d="M15.562,4.538H4.488c-1.359,0-2.461,1.102-2.461,2.461v5.743
		c0,1.359,1.102,2.461,2.461,2.461h11.076c1.359,0,2.461-1.102,2.461-2.461V6.999C18.025,5.64,16.924,4.538,15.562,4.538z
		 M16.912,13.678l-0.25,0.25c-0.139,0.139-0.363,0.139-0.5,0l-3.387-3.542l-2.249,2.25l-0.251,0.252
		c-0.069,0.068-0.159,0.102-0.251,0.102c-0.09,0-0.181-0.033-0.25-0.102l-0.251-0.252l-2.136-2.136l-3.497,3.34
		c-0.139,0.14-0.363,0.14-0.501,0l-0.25-0.25C3,13.45,3,13.227,3.14,13.089l3.497-3.341L3.515,6.624c-0.138-0.139-0.138-0.362,0-0.5
		l0.25-0.251c0.139-0.139,0.363-0.139,0.501,0l5.76,5.762l5.762-5.762c0.139-0.139,0.361-0.139,0.502,0l0.248,0.251
		c0.141,0.138,0.141,0.362,0,0.5l-3.01,3.01l3.385,3.543C17.051,13.314,17.051,13.54,16.912,13.678z"/>
</g>
<g id="Layer_45_copy_4" display="none">
	<path display="inline" fill="#a2acb3" d="M13.562,2H6.488C5.129,2,4.027,3.102,4.027,4.461v11.078C4.027,16.898,5.129,18,6.488,18
		h7.076c1.359,0,2.461-1.102,2.461-2.461V4.461C16.025,3.102,14.924,2,13.562,2z M10,16.865c-0.553,0-1-0.447-1-1s0.448-1,1-1
		c0.552,0,1,0.447,1,1S10.552,16.865,10,16.865z M14,14H6V4h8V14z"/>
</g>
<g id="Layer_45_copy_5" display="none">
	<path display="inline" fill="#a2acb3" d="M15.562,2H4.488C3.129,2,2.027,3.102,2.027,4.461v6.078C2.027,11.898,3.129,13,4.488,13H8
		v3.031H6.488c-1.201,0-2.198,0.861-2.415,2h11.905c-0.216-1.139-1.213-2-2.416-2H12V13h3.564c1.359,0,2.461-1.102,2.461-2.461
		V4.461C18.025,3.102,16.924,2,15.562,2z M16,11H4V4h12V11z"/>
</g>
<g id="Layer_45_copy_6" display="none">
	<path display="inline" fill="#a2acb3" d="M7,4v1.5v2v5.653C6.686,13.06,6.353,13,6,13c-1.657,0-3,1.119-3,2.5S4.343,18,6,18
		s3-1.119,3-2.5V8.167l6-1.333v4.32C14.686,11.06,14.353,11,14,11c-1.656,0-3,1.119-3,2.5s1.344,2.5,3,2.5s3-1.119,3-2.5v-8v-3V2
		L7,4z"/>
</g>
<g id="Layer_11_copy_35" display="none">
	<path display="inline" fill="#a2acb3" d="M17.815,4c-0.644-0.644-8.658,5.829-8.658,5.829S6.306,8.597,5.322,8.597
		c-0.138,0-0.25,0.034-0.328,0.112c-0.5,0.5,4.173,6.041,4.173,6.041S18.589,4.773,17.815,4z"/>
	<g display="inline">
		<path fill="#a2acb3" d="M15.859,8.721C15.949,9.133,16,9.561,16,10c0,3.309-2.691,6-6,6s-6-2.691-6-6s2.691-6,6-6
			c1.252,0,2.415,0.387,3.378,1.045c0.599-0.455,1.173-0.871,1.702-1.225C13.698,2.683,11.929,2,10,2c-4.418,0-8,3.582-8,8
			c0,4.418,3.582,8,8,8c4.418,0,8-3.582,8-8c0-1.098-0.222-2.144-0.622-3.097C16.932,7.479,16.414,8.093,15.859,8.721z"/>
	</g>
</g>
<g id="Layer_45_copy_7" display="none">
	<path display="inline" fill="#a2acb3" d="M15,7.034V3c0-0.552-0.447-1-1-1s-1,0.448-1,1v4.034H7V3c0-0.552-0.447-1-1-1
		C5.448,2,5,2.448,5,3v4.034H3.062v5.539c0,1.359,1.102,2.461,2.461,2.461H9V18h2v-2.966h3.599c1.359,0,2.461-1.102,2.461-2.461
		V7.034H15z"/>
</g>
<g id="Layer_45_copy_3" display="none">
	<g display="inline">
		<path fill="#a2acb3" d="M11.735,15.274l0.17-0.172c1.127-1.127,1.127-2.954,0-4.081L8.979,8.094c-1.127-1.127-2.956-1.127-4.083,0
			l-0.17,0.17L11.735,15.274z"/>
		<path fill="#a2acb3" d="M12.77,1.946l-0.128,0.128c-0.851,0.851-0.851,2.228,0,3.079l2.205,2.206c0.851,0.849,2.229,0.849,3.079,0
			l0.128-0.128L12.77,1.946z"/>
		
			<rect x="9.201" y="4.88" transform="matrix(0.7071 0.7071 -0.7071 0.7071 9.3938 -5.6049)" fill="#a2acb3" width="4.523" height="7.313"/>
		<path fill="#a2acb3" d="M2.003,17.996c-0.306-0.306,6.09-7.656,6.09-7.656l1.565,1.564C9.659,11.904,2.344,18.336,2.003,17.996z"
			/>
	</g>
</g>
<g id="Layer_11_copy_36" display="none">
	<path display="inline" fill="#a2acb3" d="M15,9c-0.553,0-1,0.448-1,1c0,2.206-1.794,4-4,4c-2.206,0-4-1.794-4-4
		c0-2.206,1.794-4,4-4v2l4.167-3L10,2v2c-3.314,0-6,2.686-6,6c0,3.313,2.686,6,6,6c3.313,0,6-2.687,6-6C16,9.448,15.553,9,15,9z"/>
</g>
<g id="Layer_58" display="none">
	<path display="inline" fill="#a2acb3" d="M13,9c-1.73-0.854-5-1-5-1V4l-6,6l6,6v-4c0,0,5.75-0.344,10,2.875
		C18,14.875,17.688,11.312,13,9z"/>
</g>
<g id="Layer_45_copy_8" display="none">
	<path display="inline" fill="#a2acb3" d="M2,10c4.39,0,7.963,3.556,7.997,7.938h3C12.963,11.892,8.054,7,2,7V10z"/>
	<path display="inline" fill="#a2acb3" d="M2,5c7.147,0,12.963,5.798,12.997,12.938h3C17.963,9.13,10.815,2,2,2V5z"/>
	<circle display="inline" fill="#a2acb3" cx="4.5" cy="15.5" r="2.5"/>
</g>
<g id="Layer_45_copy_9">
	<rect x="2" y="2" fill="#a2acb3" width="16" height="16"/>
	<rect x="3" y="4" fill="#FFFFFF" width="14" height="13"/>
	<rect x="4" y="5" fill="#a2acb3" width="12" height="11"/>
	<g>
		<path fill="#FFFFFF" d="M6.437,14.103l4.037-7.206h1.579l1.012,7.206h-1.378l-0.19-1.534h-2.88l-0.801,1.534H6.437z M11.007,8.081
			l-1.812,3.417h2.191L11.007,8.081z"/>
	</g>
</g>
<g id="Layer_45_copy_10" display="none">
	<polygon display="inline" fill="#a2acb3" points="18,7.657 7.657,18 2,12.343 12.343,2 15,2 18,2 18,5 	"/>
	<circle display="inline" fill="#FFFFFF" cx="14.5" cy="5.5" r="1.5"/>
</g>
<g id="Layer_11_copy_37" display="none">
	<rect x="2" y="9" display="inline" fill="#a2acb3" width="10" height="9"/>
	<path display="inline" fill="#a2acb3" d="M13,2c-2.209,0-4,1.791-4,4v3h1.5V6c0-1.378,1.121-2.5,2.5-2.5s2.5,1.122,2.5,2.5v1.5H17
		V6C17,3.791,15.209,2,13,2z"/>
</g>
<g id="Layer_11_copy_39" display="none">
	<g display="inline">
		<path fill="#a2acb3" d="M12.33,9.621C11.66,9.23,10.886,9,10.026,8.982C9.145,9,8.354,9.241,7.67,9.65
			c-1.491,0.893-2.464,2.587-2.725,4.508c-0.151,1.113-0.299,2.34-0.413,3.312C6.302,17.816,8.129,18,10,18
			c1.889,0,3.734-0.187,5.52-0.54c-0.113-0.97-0.262-2.191-0.412-3.302C14.844,12.215,13.85,10.505,12.33,9.621z"/>
	</g>
	<circle display="inline" fill="#a2acb3" cx="10" cy="5" r="3"/>
</g>
<g id="Layer_11_copy_38" display="none">
	<path display="inline" fill="#a2acb3" d="M17.775,15.345L10.864,3.496c-0.358-0.614-1.369-0.614-1.728,0l-7,12
		c-0.181,0.31-0.182,0.691-0.003,1.002S2.642,17,3,17h14c0.007,0,0.015,0,0.02,0c0.553,0,1-0.447,1-1
		C18.02,15.749,17.928,15.521,17.775,15.345z"/>
	<path display="inline" fill="#FFFFFF" d="M11,11.25c0,0.553-0.448,1-1,1l0,0c-0.552,0-1-0.447-1-1V7c0-0.552,0.448-1,1-1l0,0
		c0.552,0,1,0.448,1,1V11.25z"/>
	<circle display="inline" fill="#FFFFFF" cx="10" cy="14.25" r="1"/>
</g>
<g id="Layer_11_copy_27" display="none">
	<path display="inline" fill="#a2acb3" d="M10,8h4v8H6V4h4V8 M12,2H4v16h12V6L12,2z"/>
	<path display="inline" fill="#a2acb3" d="M11,14c0,0.553-0.448,1-1,1l0,0c-0.552,0-1-0.447-1-1v-4c0-0.552,0.448-1,1-1l0,0
		c0.552,0,1,0.448,1,1V14z"/>
	<path display="inline" fill="#a2acb3" d="M8,13c-0.553,0-1-0.447-1-1l0,0c0-0.553,0.447-1,1-1h4c0.553,0,1,0.447,1,1l0,0
		c0,0.553-0.447,1-1,1H8z"/>
</g>
<g id="Layer_11_copy_41" display="none">
	<path display="inline" fill="#a2acb3" d="M4.851,17.978C2,18,2,18,2,18s0,0,0.022-2.852c0.002-0.321,0.906-0.906,0.906-0.906
		l2.829,2.828C5.758,17.07,5.171,17.975,4.851,17.978z"/>
	<path display="inline" fill="#a2acb3" d="M16.932,3.068c-0.78-0.781-1.312-1.516-2.094-0.734l-1.346,1.346l2.828,2.828l1.346-1.346
		C18.447,4.38,17.713,3.849,16.932,3.068z"/>
	
		<rect x="3.401" y="8.39" transform="matrix(0.7071 -0.7071 0.7071 0.7071 -4.5326 9.8389)" display="inline" fill="#a2acb3" width="12.417" height="4.001"/>
</g>
<g id="Layer_11_copy_42" display="none">
	<path display="inline" fill="#a2acb3" d="M15.657,4.343C14.095,2.781,12.047,2,10,2C7.953,2,5.905,2.781,4.343,4.343
		c-3.124,3.124-3.125,8.189,0,11.314C5.905,17.22,7.953,18,10,18c2.047,0,4.095-0.78,5.657-2.343
		C18.781,12.532,18.781,7.467,15.657,4.343z M5.758,5.757C6.891,4.624,8.397,4,10,4c1.089,0,2.131,0.294,3.044,0.835l-8.196,8.196
		C3.498,10.732,3.787,7.728,5.758,5.757z M14.243,14.243C13.109,15.376,11.604,16,10,16c-1.089,0-2.131-0.295-3.044-0.835
		l8.196-8.197C16.503,9.268,16.214,12.271,14.243,14.243z"/>
</g>
<g id="Layer_11_copy_40" display="none">
</g>
</svg>
