<?xml version="1.0" encoding="utf-8"?>
<!-- Generator: Adobe Illustrator 16.0.0, SVG Export Plug-In . SVG Version: 6.00 Build 0)  -->
<!DOCTYPE svg PUBLIC "-//W3C//DTD SVG 1.1//EN" "http://www.w3.org/Graphics/SVG/1.1/DTD/svg11.dtd">
<svg version="1.1" xmlns="http://www.w3.org/2000/svg" xmlns:xlink="http://www.w3.org/1999/xlink" x="0px" y="0px" width="28px"
	 height="64px" viewBox="0 0 28 64" enable-background="new 0 0 28 64" xml:space="preserve">
<g id="Layer_1" display="none">
	<g display="inline">
		<path fill="#A2ACB3" d="M26.25,19.414h-24c-0.414,0-0.75-0.336-0.75-0.75V5.407c0-0.414,0.336-0.75,0.75-0.75h6.907V1.75
			C9.157,1.336,9.493,1,9.907,1h8.686c0.414,0,0.75,0.336,0.75,0.75s-0.336,0.75-0.75,0.75h-7.936v2.907
			c0,0.414-0.336,0.75-0.75,0.75H3v11.757h22.5V6.157h-6.907c-0.413,0-0.75-0.336-0.75-0.75c0-0.414,0.337-0.75,0.75-0.75h7.657
			c0.414,0,0.75,0.336,0.75,0.75v13.257C27,19.078,26.664,19.414,26.25,19.414z"/>
	</g>
	<g display="inline">
		<path fill="#A2ACB3" d="M14.25,15.617c-2.281,0-4.137-1.855-4.137-4.136c0-2.281,1.856-4.136,4.137-4.136
			c2.281,0,4.137,1.855,4.137,4.136C18.387,13.762,16.531,15.617,14.25,15.617z M14.25,8.545c-1.619,0-2.937,1.317-2.937,2.937
			c0,1.618,1.317,2.936,2.937,2.936s2.938-1.317,2.938-2.936C17.188,9.862,15.869,8.545,14.25,8.545z"/>
	</g>
	<g display="inline">
		<path fill="#36D0AE" d="M26.289,62.495h-24c-0.414,0-0.75-0.336-0.75-0.75V48.488c0-0.414,0.336-0.75,0.75-0.75h6.907v-2.907
			c0-0.414,0.336-0.75,0.75-0.75h8.686c0.414,0,0.75,0.336,0.75,0.75s-0.336,0.75-0.75,0.75h-7.936v2.907
			c0,0.414-0.336,0.75-0.75,0.75H3.039v11.757h22.5V49.238h-6.907c-0.414,0-0.75-0.336-0.75-0.75s0.336-0.75,0.75-0.75h7.657
			c0.414,0,0.75,0.336,0.75,0.75v13.257C27.039,62.159,26.703,62.495,26.289,62.495z"/>
	</g>
	<g display="inline">
		<path fill="#36D0AE" d="M14.25,58.736c-2.281,0-4.137-1.854-4.137-4.135c0-2.281,1.856-4.137,4.137-4.137
			c2.281,0,4.137,1.855,4.137,4.137C18.387,56.882,16.531,58.736,14.25,58.736z M14.25,51.665c-1.619,0-2.937,1.317-2.937,2.937
			c0,1.618,1.317,2.937,2.937,2.937s2.938-1.317,2.938-2.937S15.869,51.665,14.25,51.665z"/>
	</g>
</g>
<g id="Layer_2">
	<path fill="#A2ACB3" d="M17.268,3.736L15.124,5.88l-5.963,5.962c-0.025,0.025-0.041,0.056-0.064,0.081l-0.008-0.008l-2.729,2.729
		c-1.45,1.45-1.45,3.81,0,5.26c1.45,1.449,3.81,1.449,5.259,0l10.23-10.231l0.598-0.598c0.004-0.003,0.009-0.005,0.013-0.008
		c0.294-0.294,0.294-0.77,0-1.063C22.168,7.713,21.698,7.713,21.403,8V7.999l-0.615,0.614l0,0l-10.23,10.231
		c-0.865,0.865-2.273,0.865-3.138,0S6.554,16.57,7.696,15.43l2.453-2.453l0.073-0.073l5.963-5.963l1.256-1.256l0.888-0.888
		c0.073-0.073,0.159-0.125,0.235-0.192c1.684-1.461,4.234-1.408,5.834,0.192c1.673,1.674,1.672,4.396,0,6.069l-8.107,8.106
		l-2.739,2.74l-0.19,0.189c-2.383,2.383-6.262,2.383-8.645,0c-2.383-2.385-2.383-6.262,0-8.645l10.369-10.37l0.598-0.598
		c0.005-0.004,0.01-0.005,0.014-0.008c0.293-0.294,0.293-0.77,0-1.063c-0.291-0.291-0.762-0.291-1.057-0.004V1.213l-0.614,0.614
		l-10.37,10.37c-2.968,2.968-2.968,7.797,0,10.766s7.798,2.969,10.766,0l2.93-2.93l8.107-8.106c2.225-2.226,2.253-5.822,0.094-8.088
		c-0.033-0.034-0.061-0.07-0.094-0.103C23.2,1.478,19.525,1.479,17.268,3.736z"/>
	<path fill="#36D0AE" d="M17.268,40.964l-2.144,2.144L9.161,49.07c-0.025,0.025-0.041,0.056-0.064,0.081l-0.008-0.008l-2.729,2.729
		c-1.45,1.45-1.45,3.81,0,5.26c1.45,1.449,3.81,1.449,5.259,0L21.849,46.9l0.598-0.598c0.004-0.004,0.009-0.005,0.013-0.008
		c0.294-0.294,0.294-0.77,0-1.062c-0.291-0.291-0.761-0.291-1.056-0.005v-0.001l-0.615,0.613l0,0l-10.23,10.231
		c-0.865,0.865-2.273,0.865-3.138,0s-0.865-2.273,0.276-3.414l2.453-2.453l0.073-0.073l5.963-5.963l1.256-1.256l0.888-0.888
		c0.073-0.073,0.159-0.126,0.235-0.192c1.684-1.461,4.234-1.408,5.834,0.192c1.673,1.674,1.672,4.396,0,6.069L16.29,56.2
		l-2.739,2.74l-0.19,0.189c-2.383,2.383-6.262,2.383-8.645,0c-2.383-2.385-2.383-6.262,0-8.646l10.369-10.369l0.598-0.598
		c0.005-0.004,0.01-0.006,0.014-0.008c0.293-0.294,0.293-0.77,0-1.063c-0.291-0.291-0.762-0.291-1.057-0.005V38.44l-0.614,0.614
		L3.655,49.424c-2.968,2.969-2.968,7.798,0,10.767s7.798,2.969,10.766,0l2.93-2.93l8.107-8.106c2.225-2.226,2.253-5.822,0.094-8.088
		c-0.033-0.033-0.061-0.07-0.094-0.103C23.2,38.705,19.525,38.706,17.268,40.964z"/>
</g>
</svg>
