<svg xmlns="http://www.w3.org/2000/svg" width="20" height="20" viewBox="0 0 20 20" enable-background="new 0 0 20 20"><path fill="#a2acb3" d="m2.814 14.583c.083-.731.439-1.411 1.066-2.038l6.144-6.144c1.255-1.233 2.382-1.411 3.385-.532.9.919.521 1.877-.753 3.194l-5.675 5.643-.876-.968 5.611-5.612c.021 0 .409-.405.482-.5.216-.257.354-.428.141-.675-.252-.272-.633-.007-1.219.579l-6.112 6.113c-.397.376-.617.741-.659 1.098-.042.417.146.836.565 1.254.438.354.81.506 1.112.454.304-.053.685-.299 1.145-.737.877-.856 2.042-2.01 3.495-3.448 1.453-1.441 2.493-2.486 3.12-3.134.021-.021.521-.48 1.034-1.155.374-.49.685-.941.752-1.228.147-.698-.011-1.265-.532-1.975-.521-.71-1.14-1.108-1.851-1.191-.73-.083-1.547.303-2.444 1.16l-6.709 6.709-1.097-1.066 6.709-6.74c1.045-1.024 2.111-1.562 3.198-1.615 1.087-.052 2.1.392 3.04 1.333 1.128 1.149 1.525 2.414 1.191 3.793-.209.794-.71 1.599-1.505 2.414-.92.899-2.236 2.205-3.95 3.919l-3.353 3.352c-.752.751-1.557 1.14-2.414 1.16-.731 0-1.4-.304-2.01-.909-.752-.753-1.097-1.589-1.035-2.508"/></svg>