<svg xmlns="http://www.w3.org/2000/svg" width="20" height="20" viewBox="0 0 20 20" enable-background="new 0 0 20 20"><g fill="#a2acb3"><path d="m2 6h7v3h-7z"/><path d="m11 6h7v3h-7z"/><path d="m3 10h6v8h-6z"/><path d="m11 10h6v8h-6z"/><path d="m12 3c.552 0 1 .449 1 1s-.448 1-1 1c-.233 0-.624.005-1 .012v-1.012c0-.551.448-1 1-1m0-1c-1.104 0-2 .896-2 2 0 .552 0 2.031 0 2.031s1.447-.031 2-.031c1.104 0 2-.896 2-2s-.896-2-2-2z"/><path d="m8 3c.551 0 1 .449 1 1v1.012c-.376-.007-.767-.012-1-.012-.551 0-1-.449-1-1s.449-1 1-1m0-1c-1.104 0-2 .896-2 2s.896 2 2 2c.553 0 2 .031 2 .031s0-1.479 0-2.031c0-1.104-.896-2-2-2z"/></g></svg>