<svg xmlns="http://www.w3.org/2000/svg" width="20" height="20" viewBox="0 0 20 20" enable-background="new 0 0 20 20"><g fill="#a2acb3"><path d="m17.938 6.01c0 0-.847-1.387-2.967-.9-1.959.447-2.287 1.568-9.75 5.615-.109.061-.438.241-.438.241l-1.059.573-.365.202c-1.211.665-1.654 2.194-.988 3.401.666 1.213 2.192 1.658 3.403.99l1.424-.774c1.21-.665 1.654-2.192.989-3.403-.083-.152-.179-.289-.287-.416l10.04-5.529m-2.966-.901c-1.984.453-1.83 1.32-9.75 5.615m1.51 2.031c.184.332.101.729-.183.888l-1.876 1.022c-.285.155-.664.013-.848-.322-.183-.33-.102-.729.183-.884l.43-.238 1.448-.786c.284-.158.663-.014.846.32z"/><path d="m11.316 10.04l-2.163 1.165c.354.212.678.41.976.595l-.302-.174c1.85 1.145 2.811 1.855 3.576 2.312.52.318.933.503 1.558.646 2.12.486 2.967-.9 2.967-.9l-6.612-3.644"/><path d="m8.469 8.475l-.579-.319c.108-.126.203-.263.286-.416.665-1.211.222-2.738-.989-3.403l-1.423-.775c-1.211-.667-2.737-.223-3.403.99-.666 1.208-.223 2.737.988 3.402l.365.202 1.059.573c0 0 .329.181.438.241.422.229.814.445 1.191.654l2.067-1.149m-4.04-2l-.43-.239c-.284-.153-.365-.553-.182-.883.184-.336.563-.478.848-.323l1.876 1.023c.283.157.366.555.182.887-.183.334-.562.478-.846.32l-1.448-.785"/></g></svg>