<svg xmlns="http://www.w3.org/2000/svg" width="20" height="20" viewBox="0 0 20 20" enable-background="new 0 0 20 20"><g fill="#a2acb3"><path d="m17.547 13.422c-.391-.427-1.485-.422-1.485-.422h-10.06c0 0-.265-1.01 1-1.166 3.186-.403 9.99-.464 10.438-2.521.265-1.222.562-5.313.562-5.313h-12c0 0 .147-1.021-.562-1.479-.99-.64-3.437-.521-3.437-.521v2c0 0 1.297-.094 1.584.188.441.433.416 1.125.416 1.125v7.687 2h14c0 0 .138-.934-.453-1.578"/><circle cx="5" cy="16.959" r="1"/><circle cx="15" cy="16.959" r="1"/></g></svg>