<svg xmlns="http://www.w3.org/2000/svg" width="20" height="20" viewBox="0 0 20 20" enable-background="new 0 0 20 20"><g fill="#a2acb3"><path d="m9.998 3.998c2.454 0 4.636 1.469 5.561 3.742 1.246 3.064-.233 6.572-3.298 7.819-.725.294-1.484.443-2.258.443-2.454 0-4.637-1.469-5.561-3.741-1.246-3.065.233-6.573 3.298-7.819.724-.295 1.484-.444 2.258-.444m-.001-2c-1 0-2.024.19-3.01.591-4.092 1.665-6.06 6.331-4.397 10.425 1.263 3.106 4.255 4.988 7.414 4.988 1 0 2.023-.189 3.01-.591 4.093-1.665 6.06-6.332 4.397-10.425-1.264-3.106-4.256-4.988-7.414-4.988z"/><path d="m10 7.428l-1.191 5.954c0 .658.533 1.19 1.191 1.19.658 0 1.19-.532 1.19-1.19 0 0-.893-4.466-1.19-5.954"/><circle cx="8.493" cy="6.295" r="1"/><circle cx="6.309" cy="8.459" r="1"/><path d="m14.08 9.428c-.51.208-1.094-.039-1.301-.552-.206-.513.041-1.095.555-1.302.509-.207 1.094.041 1.3.553.207.512-.04 1.094-.554 1.301"/><circle cx="11.549" cy="6.312" r="1"/></g></svg>