<svg xmlns="http://www.w3.org/2000/svg" width="20" height="40" viewBox="0 0 20 40" enable-background="new 0 0 20 40"><path fill="#c3cacf" d="m15.397 4.664h-11.07c-1.359 0-2.461 1.102-2.461 2.461v5.743c0 1.359 1.102 2.461 2.461 2.461h11.08c1.359 0 2.462-1.102 2.462-2.461v-5.743c-.001-1.359-1.103-2.461-2.463-2.461m1.349 9.139l-.251.251c-.138.138-.362.138-.5 0l-3.385-3.543-2.25 2.25-.251.251c-.069.069-.159.103-.251.103-.09 0-.181-.034-.25-.103l-.251-.251-2.136-2.136-3.497 3.34c-.139.139-.363.139-.501 0l-.25-.25c-.139-.139-.139-.362 0-.5l3.497-3.341-3.122-3.124c-.138-.139-.138-.362 0-.5l.25-.251c.139-.139.363-.139.501 0l5.76 5.761 5.762-5.761c.138-.139.361-.139.501 0l.249.251c.14.138.14.362 0 .5l-3.01 3.01 3.385 3.543c.138.138.138.363 0 .5"/><path fill="#5b646a" d="m15.397 24.671h-11.07c-1.359 0-2.461 1.102-2.461 2.461v5.743c0 1.359 1.102 2.462 2.461 2.462h11.08c1.359 0 2.462-1.103 2.462-2.462v-5.743c-.001-1.36-1.103-2.461-2.463-2.461m1.349 9.139l-.251.252c-.138.138-.362.138-.5 0l-3.385-3.543-2.25 2.249-.251.251c-.069.068-.159.104-.251.104-.09 0-.181-.035-.25-.104l-.251-.251-2.136-2.136-3.497 3.34c-.139.139-.363.139-.501 0l-.25-.25c-.139-.139-.139-.362 0-.5l3.497-3.342-3.123-3.123c-.138-.139-.138-.362 0-.5l.25-.252c.139-.139.363-.139.501 0l5.76 5.762 5.762-5.762c.138-.139.361-.139.501 0l.249.252c.14.138.14.361 0 .5l-3.01 3.01 3.385 3.543c.139.138.139.363.001.5"/></svg>