<svg xmlns="http://www.w3.org/2000/svg" width="20" height="40" viewBox="0 0 20 40" enable-background="new 0 0 20 40"><path fill="#c3cacf" d="m15.958 7.371v-5.371h-12v5.38c-1.117.232-1.958 1.223-1.958 2.41v5.743c0 1.359 1.102 2.461 2.461 2.461h11.08c1.359 0 2.462-1.102 2.462-2.461v-5.743c0-1.216-.883-2.219-2.041-2.419m-11-4.371h10v1h-10v-1m0 2h10v1h-10v-1m0 2h10v1h-10v-1m1.98 3l-1-1h8.02l-1 1h-6.02m5.02 1l-1 1h-2.02l-1-1h4.02m4.928 5.467l-.251.251c-.138.138-.362.138-.5 0l-3.385-3.543-2.25 2.25-.251.251c-.069.069-.159.103-.251.103-.09 0-.181-.034-.25-.103l-.251-.251-2.136-2.136-3.497 3.34c-.139.139-.363.139-.501 0l-.25-.25c-.139-.139-.139-.362 0-.5l3.497-3.341-3.123-3.124c-.138-.139-.138-.362 0-.5l.25-.251c.139-.139.363-.139.501 0l5.76 5.761 5.762-5.761c.138-.139.361-.139.501 0l.249.251c.14.138.14.362 0 .5l-3.01 3.01 3.385 3.543c.138.138.138.363.001.5"/><path fill="#5b646a" d="m15.958 27.363v-5.37h-12v5.38c-1.117.232-1.958 1.223-1.958 2.41v5.742c0 1.359 1.102 2.461 2.461 2.461h11.08c1.359 0 2.462-1.102 2.462-2.461v-5.742c0-1.216-.883-2.219-2.041-2.42m-11-4.37h10v1h-10v-1m0 2h10v1h-10v-1m0 2h10v1h-10v-1m1.98 3l-1-1h8.02l-1 1h-6.02m5.02 1l-1 1h-2.02l-1-1h4.02m4.928 5.468l-.251.25c-.138.139-.362.139-.5 0l-3.385-3.543-2.25 2.25-.251.251c-.069.069-.159.103-.251.103-.09 0-.181-.033-.25-.103l-.251-.251-2.136-2.137-3.497 3.341c-.139.14-.363.14-.501 0l-.25-.25c-.139-.139-.139-.362 0-.501l3.497-3.341-3.123-3.123c-.138-.139-.138-.362 0-.501l.25-.25c.139-.139.363-.139.501 0l5.76 5.76 5.762-5.76c.138-.139.361-.139.501 0l.249.25c.14.139.14.362 0 .501l-3.01 3.01 3.385 3.543c.138.138.138.362.001.501"/></svg>