<svg xmlns="http://www.w3.org/2000/svg" width="20" height="20" viewBox="0 0 20 20" enable-background="new 0 0 20 20"><g fill="#a2acb3"><path d="m9.96 3.994c-.446-1.163-1.566-1.994-2.883-1.994-1.707 0-3.096 1.389-3.096 3.096 0 1.707 1.388 3.096 3.095 3.096.579 0 1.116-.17 1.58-.448.078-.986.365-2.451 1.304-3.75"/><path d="m16.686 8.787c0 0 .259-2.637-1.405-4.559-.401-.463-.965-.77-1.596-.883.001-.001.001-.001.002-.002-.167-.032-.341-.051-.522-.051-.181 0-.354.019-.522.051.001.001.001.001.002.002-.63.113-1.194.42-1.596.883-1.665 1.922-1.404 4.559-1.404 4.559s.643-.287 1.343-.287c.17 0 .344.017.512.059-.002.001-.004.003-.007.005.336.127.609.24.881.322.072.021.145.038.22.053.179.04.361.069.57.069s.393-.029.571-.069c.075-.015.147-.032.221-.053.271-.081.544-.194.879-.321-.002-.002-.004-.004-.007-.005.169-.042.343-.06.513-.06.701 0 1.345.287 1.345.287"/><path d="m7.439 17.427c.098-.842.227-1.905.358-2.871.224-1.652.963-3.071 2.058-4.03-.173-.138-.354-.265-.545-.376-.629-.367-1.354-.584-2.16-.599-.827.016-1.568.242-2.208.626-1.397.837-2.31 2.425-2.555 4.226-.141 1.043-.281 2.193-.387 3.104 1.659.325 3.372.497 5.125.497.083 0 .165-.005.247-.006l.067-.567"/><path d="m15.15 10.781c-.578-.336-1.244-.535-1.985-.55-.76.015-1.441.223-2.029.575-1.284.77-2.123 2.229-2.348 3.884-.13.959-.258 2.02-.356 2.853 1.525.299 3.098.457 4.711.457 1.627 0 3.218-.161 4.755-.465-.098-.836-.226-1.889-.354-2.845-.229-1.673-1.084-3.147-2.394-3.909"/></g></svg>