<svg xmlns="http://www.w3.org/2000/svg" width="20" height="20" viewBox="0 0 20 20" enable-background="new 0 0 20 20"><g fill="#a2acb3"><path d="m10 8.192c-1.707 0-3.095-1.389-3.095-3.096 0-1.707 1.388-3.096 3.095-3.096s3.096 1.389 3.096 3.096c0 1.707-1.389 3.096-3.096 3.096"/><path d="m13.512 3.108c-.174 0-.342.018-.504.049.361.559.574 1.224.574 1.939 0 1.267-.664 2.379-1.658 3.02.447.318.994.507 1.588.507 1.521 0 2.756-1.234 2.756-2.756 0-1.523-1.235-2.756-2.756-2.756"/><path d="m6.418 5.096c0-.706.208-1.363.562-1.918-.197-.044-.4-.07-.61-.07-1.522 0-2.756 1.234-2.756 2.756s1.235 2.756 2.757 2.756c.616 0 1.183-.204 1.642-.546-.961-.644-1.595-1.738-1.595-2.978"/><path d="m15.318 14.332c.082.608.171 1.304.265 2.075.83-.16 1.647-.353 2.45-.581-.065-.535-.138-1.095-.209-1.625-.316-2.338-1.898-4.273-4.239-4.319-.255.005-.499.036-.735.086 1.306.929 2.218 2.526 2.468 4.364"/><path d="m7.269 9.986c-.263-.061-.537-.098-.825-.104-2.341.046-3.922 1.981-4.239 4.319-.07.519-.14 1.067-.205 1.591.84.243 1.696.447 2.564.615.094-.772.183-1.469.265-2.075.253-1.852 1.134-3.41 2.44-4.346"/><path d="m12.233 10.145c-.629-.366-1.354-.583-2.16-.598-.827.016-1.568.242-2.208.626-1.397.837-2.31 2.425-2.555 4.226-.142 1.044-.281 2.193-.387 3.104 1.659.325 3.372.497 5.126.497 1.771 0 3.501-.175 5.174-.506-.106-.909-.245-2.055-.386-3.096-.247-1.821-1.179-3.424-2.604-4.253"/></g></svg>