<svg xmlns="http://www.w3.org/2000/svg" width="20" height="20" viewBox="0 0 20 20" enable-background="new 0 0 20 20"><path fill="#a2acb3" d="m18.02 11.02v-2h-2.11c-.153-.911-.509-1.75-1.023-2.473l1.492-1.492-1.415-1.414-1.491 1.491c-.724-.514-1.564-.869-2.474-1.023v-2.11h-2v2.11c-.911.154-1.75.509-2.473 1.023l-1.491-1.491-1.414 1.414 1.491 1.491c-.514.723-.87 1.563-1.024 2.474h-2.11v2h2.11c.153.91.509 1.751 1.023 2.473l-1.491 1.491 1.414 1.415 1.492-1.491c.723.513 1.562.868 2.473 1.022v2.11h2v-2.11c.91-.153 1.75-.509 2.473-1.022l1.491 1.491 1.415-1.415-1.492-1.491c.515-.723.87-1.562 1.023-2.473h2.111m-8.02 2c-1.657 0-3-1.343-3-3 0-1.657 1.343-3 3-3 1.657 0 3 1.343 3 3 0 1.657-1.343 3-3 3"/></svg>