<svg xmlns="http://www.w3.org/2000/svg" width="20" height="20" viewBox="0 0 20 20" enable-background="new 0 0 20 20"><path fill="#a2acb3" d="m15.657 4.343c-3.125-3.125-8.19-3.125-11.314 0-3.124 3.124-3.125 8.189 0 11.314 3.124 3.124 8.19 3.124 11.314 0 3.124-3.125 3.124-8.19 0-11.314m.054 8.758l-2.938-1.959c.301-.729.301-1.553 0-2.284l2.937-1.958c1.048 1.928 1.048 4.272.001 6.201m-6.772-2.04c-.585-.585-.586-1.535 0-2.121.585-.585 1.536-.585 2.121 0 .586.586.586 1.536 0 2.121-.585.585-1.535.585-2.121 0m4.161-6.772l-1.958 2.938c-.73-.3-1.553-.3-2.283 0l-1.959-2.938c1.928-1.047 4.272-1.047 6.2 0m-8.81 2.611l2.938 1.958c-.301.73-.301 1.554 0 2.284l-2.938 1.959c-1.048-1.929-1.048-4.273 0-6.201m2.609 8.811l1.958-2.938c.73.301 1.554.301 2.285 0l1.958 2.938c-1.928 1.047-4.272 1.047-6.201 0"/></svg>