<svg xmlns="http://www.w3.org/2000/svg" width="20" height="20" viewBox="0 0 20 20" enable-background="new 0 0 20 20"><g fill="#a2acb3"><path d="m5.938 10.125c-2.175 0-3.938 1.763-3.938 3.937s1.763 3.938 3.938 3.938 3.937-1.763 3.937-3.938-1.763-3.937-3.937-3.937m-.053 1.855c1.179 0 2.135.956 2.135 2.136s-.956 2.135-2.135 2.135-2.135-.955-2.135-2.135.956-2.136 2.135-2.136"/><path d="m14.522 3.882l-7.548 7.551 1.855 1.856 7.55-7.552c0 0 .937-.682-.118-1.737-.968-.968-1.739-.118-1.739-.118"/><path transform="matrix(-.7071-.7072.7072-.7071 19.328 23.262)" d="m12.297 5.128h4.37v5h-4.37z"/></g></svg>