<svg xmlns="http://www.w3.org/2000/svg" width="20" height="20" viewBox="0 0 20 20" enable-background="new 0 0 20 20"><g fill="#a2acb3"><path d="m11.914 7.919l-1.308 1.308c.007.059.017.117.017.177 0 .399-.155.774-.438 1.057l-.271.271-.154.154-1.722 1.723-1.515 1.515c-.282.282-.657.438-1.056.438-.399 0-.774-.155-1.057-.438l-.312-.314c-.283-.282-.438-.657-.438-1.057 0-.398.155-.773.438-1.057l3.662-3.661c.282-.282.657-.437 1.056-.437.041 0 .081.008.122.012l1.322-1.322c-.441-.228-.933-.35-1.444-.35-.842 0-1.634.328-2.23.924l-3.662 3.662c-.596.594-.924 1.387-.924 2.229 0 .843.328 1.636.924 2.231l.313.312c.596.596 1.388.924 2.23.924.843 0 1.635-.328 2.23-.924l1.52-1.519 1.734-1.735.409-.408c.595-.596.924-1.387.924-2.23 0-.526-.129-1.033-.37-1.485"/><path d="m9.873 8.04l.313.313c.145.145.255.315.33.5l1.221-1.22c-.11-.161-.236-.313-.376-.454l-.313-.313c-.151-.151-.316-.285-.49-.401l-1.233 1.231c.203.074.39.187.548.344"/><path d="m17.09 5.02l-.312-.313c-.597-.596-1.389-.924-2.231-.924-.842 0-1.635.328-2.23.924l-1.52 1.519c0 0 0 0 0 0l-1.302 1.301-.841.841c-.596.596-.924 1.388-.924 2.23 0 .526.128 1.034.37 1.485l1.308-1.308c-.007-.059-.017-.117-.017-.178 0-.398.155-.774.438-1.057l.69-.689.107-.107.061-.061 1.29-1.29 1.514-1.515c.283-.282.658-.438 1.057-.438.399 0 .774.155 1.057.438l.313.313c.282.282.438.658.438 1.056 0 .399-.155.774-.438 1.057l-3.662 3.661c-.282.283-.657.438-1.057.438-.041 0-.08-.009-.121-.012l-1.322 1.322c.441.228.933.35 1.443.35.843 0 1.635-.328 2.23-.924l3.662-3.662c.596-.595.924-1.388.924-2.23-.001-.839-.329-1.631-.925-2.227"/></g></svg>