<svg xmlns="http://www.w3.org/2000/svg" width="20" height="20" viewBox="0 0 20 20" enable-background="new 0 0 20 20"><g fill="#a2acb3"><path d="m2.959 11c-.553 0-1-.447-1-.999 0-.553.447-1 1-1h13.999c.552 0 1 .447 1 1 0 .552-.448 1-1 1h-13.999"/><path d="m2.252 10.708c-.391-.391-.391-1.024 0-1.414.39-.39 1.023-.391 1.414 0l6.898 6.898c.391.391.391 1.025 0 1.414-.39.391-1.023.391-1.414 0l-6.898-6.898"/><path d="m3.666 10.708c-.391.391-1.024.391-1.414 0-.391-.39-.391-1.023 0-1.414l6.898-6.899c.391-.391 1.024-.39 1.415 0 .39.391.391 1.023 0 1.414l-6.899 6.899"/></g></svg>