<svg xmlns="http://www.w3.org/2000/svg" width="20" height="20" viewBox="0 0 20 20" enable-background="new 0 0 20 20"><g fill="#a2acb3"><path d="m5.455 14.545c-1.404-1.403-1.404-3.688 0-5.092 1.404-1.405 3.688-1.405 5.093 0 1.405 1.404 1.405 3.688 0 5.092-1.404 1.404-3.689 1.404-5.093 0m-1.697 1.699c2.343 2.343 6.145 2.343 8.488 0 2.344-2.345 2.344-6.146 0-8.489-2.345-2.344-6.145-2.344-8.488 0-2.344 2.344-2.344 6.144 0 8.489z"/><path transform="matrix(-.7071-.7071.7071-.7071 19.704 20.1)" d="m13.01 1.625h2v8.683h-2z"/><path d="m16 2h2v7.05h-2z"/><path d="m10.953 2h7.05v2h-7.05z"/></g></svg>