<svg xmlns="http://www.w3.org/2000/svg" width="20" height="20" viewBox="0 0 20 20" enable-background="new 0 0 20 20"><path fill="#a2acb3" d="m15.562 4.538h-11.07c-1.359 0-2.461 1.102-2.461 2.461v5.743c0 1.359 1.102 2.461 2.461 2.461h11.08c1.359 0 2.461-1.102 2.461-2.461v-5.743c0-1.359-1.101-2.461-2.463-2.461m1.35 9.14l-.25.25c-.139.139-.363.139-.5 0l-3.387-3.542-2.249 2.25-.251.252c-.069.068-.159.102-.251.102-.09 0-.181-.033-.25-.102l-.251-.252-2.136-2.136-3.497 3.34c-.139.14-.363.14-.501 0l-.25-.25c-.139-.14-.139-.363.001-.501l3.497-3.341-3.122-3.124c-.138-.139-.138-.362 0-.5l.25-.251c.139-.139.363-.139.501 0l5.76 5.762 5.762-5.762c.139-.139.361-.139.502 0l.248.251c.141.138.141.362 0 .5l-3.01 3.01 3.385 3.543c.138.137.138.363-.001.501"/></svg>