<svg xmlns="http://www.w3.org/2000/svg" width="20" height="40" viewBox="0 0 20 40" enable-background="new 0 0 20 40"><g fill="#c3cacf"><path d="M7.282,16.064C7.651,17.188,8.709,18,9.957,18c1.248,0,2.305-0.812,2.674-1.936H9.957H7.282z"/><path d="m14.312 6.919c-.157-1.095-.052-.27-.124-1.414-.149-2.332-1.895-3.494-4.23-3.494s-4.082 1.163-4.23 3.494c-.074 1.144.032.319-.126 1.414-.399 2.776-2.976 4.297-2.976 7.283 0 .292.018.58.051.862h4.589 2.691 2.689 4.591c.033-.282.051-.57.051-.862 0-2.986-2.578-4.507-2.976-7.283"/></g><g fill="#5b646a"><path d="m7.282 36.05c.369 1.125 1.427 1.937 2.675 1.937 1.248 0 2.305-.812 2.674-1.937h-2.674-2.675"/><path d="m14.312 26.908c-.157-1.096-.052-.27-.124-1.414-.15-2.332-1.895-3.494-4.231-3.494s-4.082 1.162-4.23 3.494c-.073 1.145.033.318-.125 1.414-.399 2.775-2.976 4.297-2.976 7.283 0 .291.018.58.051.861h4.589 2.691 2.689 4.591c.033-.281.051-.57.051-.861 0-2.986-2.578-4.507-2.976-7.283"/></g></svg>