<?xml version="1.0" encoding="utf-8"?>
<!-- Generator: Adobe Illustrator 16.0.0, SVG Export Plug-In . SVG Version: 6.00 Build 0)  -->
<!DOCTYPE svg PUBLIC "-//W3C//DTD SVG 1.1//EN" "http://www.w3.org/Graphics/SVG/1.1/DTD/svg11.dtd">
<svg version="1.1" id="Layer_1" xmlns="http://www.w3.org/2000/svg" xmlns:xlink="http://www.w3.org/1999/xlink" x="0px" y="0px"
	 width="28px" height="64px" viewBox="0 0 28 64" enable-background="new 0 0 28 64" xml:space="preserve">
<g>
	<path fill="#A2ACB3" d="M26.25,19.414h-24c-0.414,0-0.75-0.336-0.75-0.75V5.407c0-0.414,0.336-0.75,0.75-0.75h6.907V1.75
		C9.157,1.336,9.493,1,9.907,1h8.686c0.414,0,0.75,0.336,0.75,0.75s-0.336,0.75-0.75,0.75h-7.936v2.907
		c0,0.414-0.336,0.75-0.75,0.75H3v11.757h22.5V6.157h-6.907c-0.414,0-0.75-0.336-0.75-0.75s0.336-0.75,0.75-0.75h7.657
		c0.414,0,0.75,0.336,0.75,0.75v13.257C27,19.078,26.664,19.414,26.25,19.414z"/>
</g>
<g>
	<path fill="#A2ACB3" d="M14.25,15.617c-2.281,0-4.137-1.855-4.137-4.136s1.856-4.136,4.137-4.136c2.281,0,4.137,1.855,4.137,4.136
		S16.531,15.617,14.25,15.617z M14.25,8.545c-1.619,0-2.937,1.317-2.937,2.937c0,1.618,1.317,2.936,2.937,2.936
		s2.937-1.317,2.937-2.936C17.187,9.862,15.869,8.545,14.25,8.545z"/>
</g>
<g>
	<path fill="#36D0AE" d="M26.289,62.495h-24c-0.414,0-0.75-0.336-0.75-0.75V48.488c0-0.414,0.336-0.75,0.75-0.75h6.907v-2.907
		c0-0.414,0.336-0.75,0.75-0.75h8.686c0.414,0,0.75,0.336,0.75,0.75s-0.336,0.75-0.75,0.75h-7.936v2.907
		c0,0.414-0.336,0.75-0.75,0.75H3.039v11.757h22.5V49.238h-6.907c-0.414,0-0.75-0.336-0.75-0.75s0.336-0.75,0.75-0.75h7.657
		c0.414,0,0.75,0.336,0.75,0.75v13.257C27.039,62.159,26.703,62.495,26.289,62.495z"/>
</g>
<g>
	<path fill="#36D0AE" d="M14.25,58.737c-2.281,0-4.137-1.855-4.137-4.136s1.856-4.136,4.137-4.136c2.281,0,4.137,1.855,4.137,4.136
		S16.531,58.737,14.25,58.737z M14.25,51.665c-1.619,0-2.937,1.317-2.937,2.937c0,1.618,1.317,2.936,2.937,2.936
		s2.937-1.317,2.937-2.936C17.187,52.982,15.869,51.665,14.25,51.665z"/>
</g>
</svg>
