<svg xmlns="http://www.w3.org/2000/svg" width="20" height="20" viewBox="0 0 20 20" enable-background="new 0 0 20 20"><g fill="#a2acb3"><path d="m11.735 15.274l.17-.172c1.127-1.127 1.127-2.954 0-4.081l-2.926-2.927c-1.127-1.127-2.956-1.127-4.083 0l-.17.17 7.01 7.01"/><path d="m12.77 1.946l-.128.128c-.851.851-.851 2.228 0 3.079l2.205 2.206c.851.849 2.229.849 3.079 0l.128-.128-5.284-5.285"/><path transform="matrix(.7071.7071-.7071.7071 9.394-5.605)" d="m9.201 4.88h4.523v7.313h-4.523z"/><path d="m2 17.996c-.306-.306 6.09-7.656 6.09-7.656l1.565 1.564c.001 0-7.314 6.432-7.655 6.092"/></g></svg>