<svg xmlns="http://www.w3.org/2000/svg" width="20" height="20" viewBox="0 0 20 20" enable-background="new 0 0 20 20"><path fill="#a2acb3" d="m8.317 13.586c.007-1.042.127-1.787.36-2.234.233-.448.75-1.01 1.55-1.688.568-.553 1.021-1.083 1.355-1.589.336-.506.503-1.065.503-1.676 0-.707-.191-1.255-.574-1.644-.381-.39-.926-.585-1.633-.585-.604 0-1.117.166-1.54.497-.421.332-.633.821-.633 1.468h-2.556l-.032-.065c-.022-1.296.413-2.306 1.305-3.03s2.044-1.087 3.457-1.087c1.528 0 2.723.39 3.577 1.169.856.779 1.284 1.861 1.284 3.244 0 .925-.268 1.783-.803 2.572-.535.791-1.211 1.513-2.027 2.169-.415.364-.674.709-.779 1.037-.107.327-.159.808-.159 1.442h-2.655m2.699 4.501h-2.71v-2.546h2.709v2.546z"/></svg>