<svg xmlns="http://www.w3.org/2000/svg" width="20" height="20" viewBox="0 0 20 20" enable-background="new 0 0 20 20"><path fill="#a2acb3" d="m15.657 4.343c-1.562-1.562-3.61-2.343-5.657-2.343-2.047 0-4.095.781-5.657 2.343-3.124 3.124-3.125 8.189 0 11.314 1.562 1.563 3.61 2.343 5.657 2.343 2.047 0 4.095-.78 5.657-2.343 3.124-3.125 3.124-8.19 0-11.314m-9.899 1.414c1.133-1.133 2.639-1.757 4.242-1.757 1.089 0 2.131.294 3.044.835l-8.196 8.196c-1.35-2.299-1.061-5.303.91-7.274m8.485 8.486c-1.134 1.133-2.639 1.757-4.243 1.757-1.089 0-2.131-.295-3.044-.835l8.196-8.197c1.351 2.3 1.062 5.303-.909 7.275"/></svg>