<svg xmlns="http://www.w3.org/2000/svg" width="20" height="20" viewBox="0 0 20 20" enable-background="new 0 0 20 20"><g fill="#a2acb3"><path d="m10.958 17c0 .553-.448 1-1 1-.552 0-1-.447-1-1v-14c0-.552.448-1 1-1 .552 0 1 .448 1 1v14"/><path d="m10.666 17.707c-.391.391-1.024.391-1.414 0-.39-.39-.391-1.023 0-1.414l6.899-6.899c.391-.391 1.025-.39 1.414 0 .391.39.391 1.023 0 1.414l-6.899 6.899"/><path d="m10.666 16.293c.391.391.391 1.024 0 1.414-.39.391-1.023.391-1.414 0l-6.899-6.899c-.391-.391-.39-1.024 0-1.414.39-.39 1.023-.391 1.414 0l6.899 6.899"/></g></svg>