<svg xmlns="http://www.w3.org/2000/svg" width="20" height="40" viewBox="0 0 20 40" enable-background="new 0 0 20 40"><g fill="#c3cacf"><path d="m14.262 15.694c-.012-.149-.03-.298-.055-.444-.007-.05-.019-.1-.027-.15-.018-.095-.034-.191-.057-.284-.014-.059-.031-.116-.047-.174-.021-.083-.042-.167-.067-.249-.02-.062-.043-.122-.063-.182-.026-.077-.052-.153-.081-.229-.025-.062-.051-.122-.077-.183-.03-.071-.062-.142-.095-.212-.028-.061-.059-.121-.091-.181-.034-.067-.068-.134-.106-.2-.034-.06-.068-.119-.104-.177-.04-.063-.078-.126-.118-.188-.039-.058-.078-.115-.116-.171-.044-.06-.086-.118-.13-.176-.043-.056-.086-.11-.13-.165-.046-.056-.092-.109-.139-.163-.048-.053-.095-.106-.144-.157-.048-.051-.098-.101-.148-.151-.05-.051-.102-.101-.154-.15-.052-.048-.104-.093-.156-.139-.055-.048-.109-.095-.166-.14-.054-.043-.11-.085-.165-.127-.059-.043-.116-.088-.177-.129-.057-.04-.113-.077-.173-.114-.061-.04-.122-.081-.186-.118-.06-.035-.12-.067-.181-.101-.064-.036-.129-.073-.195-.107-.062-.031-.125-.059-.188-.087-.068-.032-.134-.064-.203-.093-.002-.001-.004-.002-.006-.003-.128-.053-.259-.104-.392-.149-.619-.21-1.283-.325-1.973-.325-3.386 0-6.131 2.744-6.131 6.131v.694c1.956.522 4.01.801 6.131.801 2.121 0 4.175-.279 6.131-.801v-.428-.267c0-.17-.007-.342-.021-.512"/><path d="m17.961 14.823c-.174-2.101-1.593-3.85-3.519-4.503-.527-.179-1.093-.277-1.678-.277-.479 0-.941.066-1.383.187 1.997 1.078 3.35 3.1 3.54 5.41.016.191.024.383.024.569v.207c1.037-.112 2.051-.301 3.03-.564v-.591c.001-.148-.004-.294-.017-.438"/><path d="m10.974 7.578c.016-.021.032-.042.048-.063.057-.076.11-.155.16-.235.009-.014.019-.026.027-.041.055-.093.106-.189.154-.288.012-.023.021-.046.032-.069.037-.081.07-.164.101-.248.009-.025.019-.049.026-.074.036-.104.066-.209.091-.317.005-.019.008-.038.012-.057.019-.092.036-.185.048-.279.004-.03.008-.061.011-.091.011-.112.019-.226.019-.342 0-.444-.086-.866-.24-1.255-.037-.095-.081-.188-.126-.278-.014-.026-.028-.051-.041-.077-.037-.067-.076-.134-.116-.199-.008-.013-.016-.027-.022-.041 0 0-.002 0-.002.001-.629-.975-1.738-1.625-3-1.625-1.962 0-3.551 1.555-3.551 3.475 0 1.917 1.589 3.472 3.551 3.472.474 0 .925-.09 1.338-.255.372-.148.71-.357 1.01-.612 0 .001 0 .001.001.002.009-.008.017-.016.025-.024.166-.146.317-.306.452-.48"/><path d="m15.581 5.06c-.438-1.104-1.533-1.888-2.816-1.888-.353 0-.689.06-1 .168.123.201.23.414.319.636.19.479.286.983.286 1.5 0 .839-.256 1.65-.739 2.34-.183.261-.396.499-.63.709.498.351 1.107.558 1.768.558.402 0 .785-.078 1.138-.218 1.104-.44 1.882-1.5 1.882-2.738-.001-.377-.072-.736-.204-1.067"/></g><g fill="#5b646a"><path d="m14.262 35.693c-.012-.148-.03-.297-.055-.443-.007-.051-.019-.101-.027-.15-.018-.096-.034-.191-.057-.284-.014-.059-.031-.116-.047-.175-.021-.082-.042-.166-.067-.248-.02-.062-.043-.121-.063-.182-.026-.076-.052-.153-.081-.229-.025-.062-.051-.122-.077-.184-.03-.07-.062-.142-.095-.212-.028-.061-.059-.12-.091-.181-.034-.066-.068-.135-.106-.199-.034-.061-.068-.119-.104-.178-.04-.063-.078-.126-.118-.188-.039-.059-.078-.115-.116-.172-.044-.06-.086-.117-.13-.176-.043-.057-.086-.11-.13-.165-.046-.056-.092-.108-.139-.163-.048-.053-.095-.105-.144-.157-.048-.052-.098-.101-.148-.151-.05-.051-.102-.101-.154-.149-.052-.048-.104-.093-.156-.139-.055-.048-.109-.095-.166-.14-.054-.043-.11-.085-.165-.127-.059-.043-.116-.088-.177-.129-.057-.04-.113-.076-.173-.114-.061-.04-.122-.081-.186-.118-.06-.035-.12-.067-.181-.101-.064-.036-.129-.073-.195-.106-.062-.031-.125-.059-.188-.088-.068-.031-.134-.064-.203-.094-.002 0-.004-.002-.006-.002-.128-.053-.259-.104-.392-.148-.619-.211-1.283-.325-1.973-.325-3.386 0-6.131 2.744-6.131 6.132v.693c1.956.522 4.01.802 6.131.802 2.121 0 4.175-.279 6.131-.802v-.428-.266c0-.172-.007-.344-.021-.514"/><path d="m17.961 34.822c-.174-2.101-1.593-3.85-3.519-4.502-.527-.18-1.093-.277-1.678-.277-.479 0-.941.066-1.383.187 1.997 1.077 3.35 3.101 3.54 5.41.016.19.024.383.024.569v.206c1.037-.112 2.051-.302 3.03-.563v-.592c.001-.147-.004-.293-.017-.438"/><path d="m10.974 27.578c.016-.021.032-.043.048-.063.057-.076.11-.155.16-.235.009-.014.019-.025.027-.04.055-.093.106-.189.154-.288.012-.023.021-.046.032-.068.037-.082.07-.164.101-.248.009-.025.019-.049.026-.074.036-.104.066-.209.091-.317.005-.019.008-.038.012-.057.019-.092.036-.185.048-.279.004-.03.008-.061.011-.091.011-.113.019-.227.019-.342 0-.444-.086-.867-.24-1.256-.037-.095-.081-.188-.126-.278-.014-.026-.028-.051-.041-.077-.037-.066-.076-.134-.116-.199-.008-.013-.016-.027-.022-.04 0 .001-.002.001-.002.001-.629-.977-1.738-1.627-3-1.627-1.962 0-3.551 1.555-3.551 3.475 0 1.917 1.589 3.472 3.551 3.472.474 0 .925-.091 1.338-.255.372-.148.71-.357 1.01-.613 0 .002 0 .002.001.002.009-.008.017-.016.025-.023.166-.147.317-.306.452-.48"/><path d="m15.581 25.06c-.438-1.104-1.533-1.888-2.816-1.888-.353 0-.689.06-1 .168.123.2.23.414.319.636.19.479.286.983.286 1.5 0 .839-.256 1.649-.739 2.34-.183.262-.396.498-.63.709.498.352 1.107.559 1.768.559.402 0 .785-.078 1.138-.218 1.104-.44 1.882-1.501 1.882-2.738-.001-.377-.072-.736-.204-1.068"/></g></svg>