<svg xmlns="http://www.w3.org/2000/svg" width="20" height="40" viewBox="0 0 20 40" enable-background="new 0 0 20 40"><g fill="#c3cacf"><ellipse cx="9.917" cy="5.532" rx="3.611" ry="3.533"/><path d="m9.916 10.213c-3.443 0-6.234 2.792-6.234 6.235v.707c1.988.531 4.078.814 6.235.814 2.155 0 4.245-.283 6.234-.814v-.707c0-3.443-2.792-6.235-6.235-6.235"/></g><g fill="#5b646a"><ellipse cx="9.917" cy="25.532" rx="3.611" ry="3.532"/><path d="m9.916 30.21c-3.443 0-6.234 2.792-6.234 6.235v.706c1.988.531 4.078.814 6.235.814 2.155 0 4.245-.283 6.234-.814v-.706c0-3.443-2.792-6.235-6.235-6.235"/></g></svg>