<?xml version="1.0" encoding="utf-8"?>
<!-- Generator: Adobe Illustrator 16.0.0, SVG Export Plug-In . SVG Version: 6.00 Build 0)  -->
<!DOCTYPE svg PUBLIC "-//W3C//DTD SVG 1.1//EN" "http://www.w3.org/Graphics/SVG/1.1/DTD/svg11.dtd">
<svg version="1.1" id="Layer_1" xmlns="http://www.w3.org/2000/svg" xmlns:xlink="http://www.w3.org/1999/xlink" x="0px" y="0px"
	 width="20px" height="20px" viewBox="0 0 20 20" enable-background="new 0 0 20 20" xml:space="preserve">
<g>
	<path fill="#A2ACB3" d="M4.301,5.756C3.91,5.365,3.91,4.732,4.3,4.342c0.391-0.391,1.023-0.391,1.414,0l9.913,9.914
		c0.391,0.391,0.391,1.023,0,1.414s-1.023,0.391-1.415,0L4.301,5.756"/>
	<path fill="#A2ACB3" d="M14.141,4.401c0.43-0.43,1.094-0.462,1.484-0.072c0.391,0.391,0.357,1.055-0.07,1.485l-9.823,9.822
		c-0.429,0.429-1.094,0.462-1.485,0.071c-0.39-0.391-0.358-1.057,0.071-1.484L14.141,4.401"/>
</g>
</svg>
