<svg xmlns="http://www.w3.org/2000/svg" width="20" height="41" viewBox="0 0 20 41" enable-background="new 0 0 20 41"><path fill="#626060" d="m15.988 10.741v-1.494h-1.577c-.114-.681-.38-1.308-.765-1.849l1.115-1.115-1.059-1.057-1.114 1.115c-.539-.385-1.167-.65-1.848-.765v-1.576h-1.493v1.577c-.681.115-1.308.38-1.849.765l-1.114-1.115-1.057 1.057 1.115 1.115c-.385.54-.65 1.168-.765 1.849h-1.577v1.494h1.577c.114.681.38 1.309.765 1.849l-1.115 1.114 1.057 1.057 1.115-1.114c.541.384 1.168.649 1.849.764v1.577h1.494v-1.577c.681-.115 1.309-.38 1.848-.764l1.114 1.114 1.059-1.057-1.115-1.114c.385-.541.65-1.168.765-1.849h1.575m-5.994 1.494c-1.238 0-2.242-1-2.242-2.242 0-1.238 1-2.242 2.242-2.242s2.242 1 2.242 2.242c0 1.239-1 2.242-2.242 2.242"/><path fill="#9f9f9f" d="m15.988 31.741v-1.494h-1.577c-.114-.681-.38-1.308-.765-1.849l1.115-1.115-1.059-1.057-1.114 1.115c-.539-.385-1.167-.65-1.848-.765v-1.576h-1.493v1.577c-.681.114-1.308.38-1.849.765l-1.115-1.115-1.057 1.057 1.115 1.115c-.385.54-.65 1.168-.765 1.849h-1.576v1.494h1.577c.114.681.38 1.309.765 1.849l-1.115 1.114 1.057 1.058 1.115-1.115c.541.385 1.168.65 1.849.765v1.577h1.494v-1.577c.681-.114 1.309-.38 1.848-.765l1.114 1.115 1.059-1.058-1.115-1.114c.385-.541.65-1.168.765-1.849h1.575m-5.994 1.494c-1.238 0-2.242-1-2.242-2.242s1-2.242 2.242-2.242 2.242 1 2.242 2.242-1 2.242-2.242 2.242"/></svg>