<svg xmlns="http://www.w3.org/2000/svg" width="10" height="10" viewBox="0 0 10 10" enable-background="new 0 0 10 10"><path fill="#5b646a" d="m6.5 1.751c1.379 0 2.5 1.122 2.5 2.5 0 .928-.521 1.773-1.36 2.208-.33.171-.538.511-.54.884l-.002.537-1.703-.992c-.153-.09-.327-.137-.504-.137h-1.391c-1.378 0-2.5-1.122-2.5-2.5s1.122-2.5 2.5-2.5h3m0-1h-3c-1.933 0-3.5 1.566-3.5 3.5s1.567 3.5 3.5 3.5h1.391l2.451 1.43c.078.047.165.068.252.068.086 0 .172-.021.248-.064.155-.09.251-.254.252-.434l.006-1.404c1.125-.582 1.9-1.743 1.9-3.096 0-1.934-1.566-3.5-3.5-3.5z"/></svg>