<?xml version="1.0" encoding="utf-8"?>
<!-- Generator: Adobe Illustrator 16.0.0, SVG Export Plug-In . SVG Version: 6.00 Build 0)  -->
<!DOCTYPE svg PUBLIC "-//W3C//DTD SVG 1.1//EN" "http://www.w3.org/Graphics/SVG/1.1/DTD/svg11.dtd">
<svg version="1.1" id="Layer_1" xmlns="http://www.w3.org/2000/svg" xmlns:xlink="http://www.w3.org/1999/xlink" x="0px" y="0px"
	 width="20px" height="20px" viewBox="0 0 20 20" enable-background="new 0 0 20 20" xml:space="preserve">
<g>
	<path fill="#A2ACB3" d="M10,19c-4.962,0-9-4.038-9-9s4.038-9,9-9s9,4.038,9,9S14.962,19,10,19z M10,2c-4.411,0-8,3.589-8,8
		s3.589,8,8,8s8-3.589,8-8S14.411,2,10,2z"/>
</g>
<g>
	<g>
		<path fill="#A2ACB3" d="M8.525,14.596c-0.195-0.195-0.195-0.512,0-0.707l4.243-4.243c0.195-0.195,0.512-0.195,0.707,0l0,0
			c0.195,0.195,0.195,0.512,0,0.707l-4.243,4.243C9.037,14.792,8.72,14.792,8.525,14.596L8.525,14.596z"/>
	</g>
	<g>
		<path fill="#A2ACB3" d="M8.525,5.404c0.195-0.195,0.512-0.195,0.707,0l4.243,4.243c0.195,0.195,0.195,0.512,0,0.707l0,0
			c-0.195,0.195-0.512,0.195-0.707,0L8.525,6.111C8.33,5.916,8.33,5.599,8.525,5.404L8.525,5.404z"/>
	</g>
</g>
</svg>
