<?xml version="1.0" encoding="utf-8"?>
<!-- Generator: Adobe Illustrator 16.0.0, SVG Export Plug-In . SVG Version: 6.00 Build 0)  -->
<!DOCTYPE svg PUBLIC "-//W3C//DTD SVG 1.1//EN" "http://www.w3.org/Graphics/SVG/1.1/DTD/svg11.dtd">
<svg version="1.1" id="Layer_1" xmlns="http://www.w3.org/2000/svg" xmlns:xlink="http://www.w3.org/1999/xlink" x="0px" y="0px"
	 width="64px" height="64px" viewBox="0 0 64 64" enable-background="new 0 0 64 64" xml:space="preserve">
<g id="Speech_x5F_Balloon_x5F_Empty">
	<g>
		<path fill="#A2ACB3" d="M60.844,1H41.156C39.968,1,39,1.925,39,3.062v19.666c0,0.598,0.233,1.161,0.661,1.59
			c0.427,0.426,0.992,0.66,1.59,0.66c0.601,0,1.165-0.234,1.581-0.65l4.948-4.778c0.354-0.354,0.825-0.55,1.325-0.55h11.738
			C62.032,19,63,18.075,63,16.938V3.062C63,1.925,62.032,1,60.844,1z M61.5,16.938c0,0.311-0.295,0.562-0.656,0.562H49.105
			c-0.9,0-1.749,0.352-2.376,0.979l-4.948,4.779c-0.286,0.284-0.773,0.285-1.06-0.001c-0.144-0.146-0.221-0.329-0.221-0.529
			L40.501,10H40.5V3.062c0-0.311,0.294-0.562,0.656-0.562h19.688c0.361,0,0.656,0.252,0.656,0.562V16.938z"/>
	</g>
</g>
<g>
	<path fill="#A2ACB3" d="M13.744,23.271c-0.183,0-0.367-0.066-0.51-0.2l-10.24-9.511c-2.655-2.655-2.655-6.945-0.02-9.581
		C4.251,2.703,5.95,2,7.755,2s3.503,0.703,4.78,1.979c0.487,0.487,0.894,1.042,1.208,1.645c0.315-0.603,0.722-1.157,1.209-1.645
		C16.229,2.703,17.927,2,19.733,2c1.806,0,3.504,0.703,4.78,1.979c2.636,2.636,2.636,6.926,0,9.562l-10.259,9.53
		C14.111,23.205,13.927,23.271,13.744,23.271z M7.755,3.5c-1.405,0-2.727,0.547-3.721,1.54c-2.051,2.052-2.051,5.39,0,7.44
		l9.709,9.018l9.729-9.037c2.031-2.031,2.031-5.369-0.02-7.421c-0.993-0.993-2.314-1.54-3.72-1.54s-2.727,0.547-3.72,1.54
		c-0.875,0.874-1.415,2.032-1.521,3.261c-0.022,0.322-0.249,0.604-0.57,0.683c-0.359,0.087-0.727-0.094-0.87-0.435
		c-0.03-0.072-0.049-0.154-0.056-0.236l0,0c-0.104-1.232-0.644-2.395-1.521-3.272C10.481,4.047,9.161,3.5,7.755,3.5z"/>
</g>
<g id="Speech_x5F_Balloon_x5F_Empty_2_">
	<g>
		<path fill="#36D0AE" d="M60.844,38H41.156C39.968,38,39,38.926,39,40.062v19.666c0,0.598,0.233,1.161,0.661,1.59
			c0.427,0.426,0.992,0.66,1.59,0.66c0.601,0,1.165-0.234,1.581-0.65l4.948-4.778c0.354-0.354,0.825-0.55,1.325-0.55h11.738
			C62.032,56,63,55.075,63,53.938V40.062C63,38.926,62.032,38,60.844,38z M61.5,53.938c0,0.311-0.295,0.562-0.656,0.562H49.105
			c-0.9,0-1.749,0.352-2.376,0.979l-4.948,4.779c-0.286,0.284-0.773,0.285-1.06-0.001c-0.144-0.146-0.221-0.329-0.221-0.529
			L40.501,47H40.5v-6.938c0-0.311,0.294-0.562,0.656-0.562h19.688c0.361,0,0.656,0.252,0.656,0.562V53.938z"/>
	</g>
</g>
<g>
	<path fill="#36D0AE" d="M13.744,60.271c-0.183,0-0.367-0.066-0.51-0.2l-10.24-9.511c-2.655-2.655-2.655-6.945-0.02-9.581
		C4.251,39.703,5.95,39,7.755,39s3.503,0.703,4.78,1.979c0.487,0.487,0.894,1.042,1.208,1.645c0.315-0.603,0.722-1.157,1.209-1.645
		C16.229,39.703,17.927,39,19.733,39c1.806,0,3.504,0.703,4.78,1.979c2.636,2.636,2.636,6.926,0,9.562l-10.259,9.53
		C14.111,60.205,13.927,60.271,13.744,60.271z M7.755,40.5c-1.405,0-2.727,0.547-3.721,1.54c-2.051,2.052-2.051,5.39,0,7.44
		l9.709,9.018l9.729-9.037c2.031-2.031,2.031-5.369-0.02-7.421c-0.993-0.993-2.314-1.54-3.72-1.54s-2.727,0.547-3.72,1.54
		c-0.875,0.874-1.415,2.032-1.521,3.261c-0.022,0.322-0.249,0.604-0.57,0.683c-0.359,0.087-0.727-0.094-0.87-0.435
		c-0.03-0.072-0.049-0.154-0.056-0.236l0,0c-0.104-1.232-0.644-2.395-1.521-3.272C10.481,41.047,9.161,40.5,7.755,40.5z"/>
</g>
</svg>
