<?xml version="1.0" encoding="utf-8"?>
<!-- Generator: Adobe Illustrator 16.0.0, SVG Export Plug-In . SVG Version: 6.00 Build 0)  -->
<!DOCTYPE svg PUBLIC "-//W3C//DTD SVG 1.1//EN" "http://www.w3.org/Graphics/SVG/1.1/DTD/svg11.dtd">
<svg version="1.1" id="Icons" xmlns="http://www.w3.org/2000/svg" xmlns:xlink="http://www.w3.org/1999/xlink" x="0px" y="0px"
	 width="24px" height="48.957px" viewBox="0 0 24 48.957" enable-background="new 0 0 24 48.957" xml:space="preserve">
<g id="Speech_x5F_Balloon_x5F_Empty">
	<g>
		<path fill="#A2ACB3" d="M21.844,0H2.156C0.968,0,0,0.925,0,2.062v19.666c0,0.598,0.233,1.161,0.661,1.59
			c0.427,0.426,0.992,0.66,1.59,0.66c0.601,0,1.165-0.234,1.581-0.65L8.78,18.55C9.135,18.195,9.605,18,10.106,18h11.738
			C23.032,18,24,17.075,24,15.938V2.062C24,0.925,23.032,0,21.844,0z M22.5,15.938c0,0.31-0.294,0.562-0.656,0.562H10.106
			c-0.901,0-1.749,0.351-2.376,0.979l-4.948,4.779c-0.286,0.285-0.773,0.285-1.06-0.001C1.577,22.112,1.5,21.929,1.5,21.729L1.501,9
			H1.5V2.062C1.5,1.752,1.794,1.5,2.156,1.5h19.688c0.362,0,0.656,0.252,0.656,0.562V15.938z"/>
	</g>
</g>
<g id="Speech_x5F_Balloon_x5F_Empty_2_">
	<g>
		<path fill="#2DB395" d="M21.844,24.979H2.156C0.968,24.979,0,25.904,0,27.041v19.666c0,0.598,0.233,1.161,0.661,1.59
			c0.427,0.426,0.992,0.66,1.59,0.66c0.601,0,1.165-0.234,1.581-0.65l4.948-4.778c0.354-0.354,0.825-0.55,1.326-0.55h11.738
			c1.188,0,2.156-0.925,2.156-2.062V27.041C24,25.904,23.032,24.979,21.844,24.979z M22.5,40.916c0,0.31-0.294,0.562-0.656,0.562
			H10.106c-0.901,0-1.749,0.351-2.376,0.979l-4.948,4.779c-0.286,0.285-0.773,0.285-1.06-0.001C1.577,47.091,1.5,46.907,1.5,46.707
			l0.001-12.729H1.5v-6.938c0-0.311,0.294-0.562,0.656-0.562h19.688c0.362,0,0.656,0.252,0.656,0.562V40.916z"/>
	</g>
</g>
</svg>
