<svg xmlns="http://www.w3.org/2000/svg" width="30" height="30" viewBox="0 0 30 30" enable-background="new 0 0 30 30"><path fill="#fff" d="m29.591 3.666c-.225-.26-.562-.403-.949-.403-.182 0-.296.022-.28.026l-1.811.217c.245-.42.534-.914.757-1.296.415-.715.358-1.5-.138-1.908-.479-.394-1.183-.404-1.893-.007-.58.324-1.836 1.798-2.787 2.977-.097.12-.273.206-.504.261v-.533h-3v7h3v-.778c1.831.092 5.226.264 5.972.31.062.004.122.006.179.006 1.062 0 1.409-.645 1.446-1 .002-.029.203-2.897.291-3.492.087-.597-.009-1.06-.283-1.378m-.707 1.233c-.092.631-.29 3.447-.29 3.507-.013.034-.124.131-.457.131l-.118-.004c-.755-.045-4.212-.221-6.03-.312v-3.664c.572-.089 1-.309 1.283-.657 1.448-1.796 2.25-2.594 2.496-2.731.328-.184.61-.224.77-.094.064.053.091.318-.093.633-.478.823-1.264 2.162-1.264 2.162-.097.164-.092.368.013.527.104.159.296.247.478.223l2.867-.347c0 0 .207-.058.299.047.054.064.097.25.048.579"/><path fill="#e6e6e6" d="m29.591 22.541c-.225-.26-.562-.403-.948-.403-.183 0-.297.026-.281.026l-1.811.218c.245-.42.534-.914.757-1.297.414-.715.358-1.499-.138-1.908-.482-.396-1.186-.402-1.892-.006-.581.323-1.837 1.797-2.788 2.977-.097.12-.273.206-.504.261v-.533h-3v7h3v-.778c1.831.093 5.226.265 5.972.31.062.004.123.006.18.006 1.062 0 1.408-.645 1.445-1 .002-.029.203-2.896.291-3.492.087-.598-.009-1.062-.283-1.379m-.707 1.232c-.092.633-.29 3.447-.29 3.508-.013.034-.124.131-.456.131l-.119-.004c-.755-.046-4.212-.221-6.03-.312v-3.664c.572-.089 1-.309 1.283-.657 1.448-1.796 2.25-2.594 2.496-2.73.328-.183.611-.225.769-.095.065.054.091.318-.092.634-.478.822-1.264 2.162-1.265 2.162-.096.164-.091.368.014.526.104.159.296.252.478.223l2.867-.347c0 0 .205-.061.299.048.054.063.097.248.048.577"/><path fill="#fff" d="m10 3.5c0-1.933-1.567-3.5-3.5-3.5h-3c-1.933 0-3.5 1.567-3.5 3.5s1.567 3.5 3.5 3.5h1.39l2.452 1.43c.078.045.165.068.252.068.085 0 .171-.022.248-.066.155-.088.251-.253.252-.432l.006-1.404c1.124-.582 1.9-1.742 1.9-3.096"/><path fill="#e6e6e6" d="m10 23.5c0-1.934-1.567-3.5-3.5-3.5h-3c-1.933 0-3.5 1.566-3.5 3.5s1.567 3.5 3.5 3.5h1.391l2.451 1.43c.078.046.165.068.252.068.085 0 .171-.021.248-.065.155-.089.251-.254.252-.433l.006-1.404c1.124-.582 1.9-1.742 1.9-3.096"/></svg>