<svg xmlns="http://www.w3.org/2000/svg" width="11" height="10" viewBox="0 0 11 10" enable-background="new 0 0 11 10"><path fill="#a2acb3" d="m.051 7.353c.131-.479.447-.894.944-1.244l4.883-3.444c.996-.689 1.797-.688 2.404.001.532.707.173 1.304-.844 2.047l-4.507 3.157-.51-.735 4.46-3.145c.016.003.324-.226.383-.282.177-.148.289-.248.168-.434-.147-.208-.44-.07-.905.258l-4.858 3.423c-.314.209-.503.43-.568.663-.071.274.018.572.266.894.268.283.51.422.725.417.216-.002.506-.126.869-.369.696-.478 1.619-1.118 2.774-1.926 1.154-.808 1.98-1.394 2.482-1.758.016-.012.41-.266.834-.661.309-.287.57-.554.645-.738.174-.449.121-.843-.17-1.37-.29-.527-.678-.856-1.163-.987-.5-.132-1.104.04-1.816.515l-5.331 3.76-.654-.825 5.335-3.78c.828-.573 1.623-.818 2.382-.739.76.08 1.42.481 1.977 1.207.666.884.814 1.767.443 2.649-.227.506-.654.989-1.287 1.448-.729.5-1.775 1.23-3.137 2.192l-2.666 1.882c-.598.419-1.196.594-1.792.517-.508-.078-.941-.349-1.301-.816-.446-.579-.601-1.173-.465-1.777"/></svg>