<?xml version="1.0" standalone="no"?>
<!DOCTYPE svg PUBLIC "-//W3C//DTD SVG 1.1//EN" "http://www.w3.org/Graphics/SVG/1.1/DTD/svg11.dtd" >
<svg>
<metadata>
Created by FontForge 20120731 at Fri Sep  5 14:06:36 2014
 By root
Copyright (c) 2002, 2005 Parachute :, www.parachute.gr.  All rights reserved.
</metadata>
<defs>
<font id="PFDinTextPro-Thin" horiz-adv-x="1818" >
  <font-face 
    font-family="PF DinText Pro Thin "
    font-weight="200"
    font-stretch="normal"
    units-per-em="1000"
    panose-1="2 0 0 0 0 0 0 0 0 0"
    ascent="750"
    descent="-250"
    x-height="494"
    cap-height="696"
    bbox="-327 -255 1760 913"
    underline-thickness="50"
    underline-position="-50"
    unicode-range="U+0020-FB05"
  />
<missing-glyph horiz-adv-x="432" 
d="M0 700h432v-700h-432v700zM376 669h-320l160 -291zM402 49v604l-166 -303zM376 31l-160 291l-160 -291h320zM30 51l166 299l-166 300v-599z" />
    <glyph glyph-name="fj" unicode="fj" horiz-adv-x="429" 
d="M90 496v103q0 37 11 61.5t29 39.5t42.5 21t51.5 6q46 0 78.5 -13.5t56.5 -38.5l-30 -31q-25 25 -50.5 32.5t-56.5 7.5q-42 0 -64.5 -20t-22.5 -68v-100h216v-572q0 -56 -30.5 -91.5t-90.5 -35.5h-21v40q1 0 10.5 -0.5t10.5 0.5q77 4 77 92v530h-172v-459h-45v459h-59v37
h59z" />
    <glyph glyph-name="ffj" unicode="ffj" horiz-adv-x="648" 
d="M351 496h217v-572q0 -56 -31 -91.5t-91 -35.5h-21v40q1 0 10.5 -0.5t10.5 0.5q77 4 77 92v530h-172v-459h-44v459h-172v-459h-45v459h-59v37h59v79q0 37 11 62t29 40t42.5 21t51.5 6q34 0 59.5 -7.5t46.5 -20.5q18 26 46.5 36t63.5 10q47 0 79.5 -13.5t55.5 -38.5
l-30 -31q-24 24 -49.5 32t-57.5 8q-42 0 -64.5 -20t-22.5 -68v-95zM222 661q-42 0 -64.5 -20t-22.5 -68v-77h172v97q0 26 4 43q-21 16 -43 20.5t-46 4.5z" />
    <glyph glyph-name="ff" unicode="ff" horiz-adv-x="474" 
d="M224 713q32 0 57.5 -7.5t45.5 -19.5q15 22 39 33.5t53 11.5h48v-41h-40q-24 0 -39.5 -8t-23.5 -21t-11 -29t-3 -31v-105h116v-37h-116v-459h-44v459h-172v-459h-44v459h-60v37h60v82q0 70 37 102.5t97 32.5zM306 496v108v11.5t1 10.5q0 10 3 19q-22 17 -43.5 21t-45.5 4
q-42 0 -64.5 -20t-22.5 -68v-86h172z" />
    <glyph glyph-name="fi" unicode="fi" horiz-adv-x="429" 
d="M307 0v459h-172v-459h-45v459h-59v37h59v103q0 37 11 61.5t29 39.5t42.5 21t51.5 6q46 0 78.5 -13.5t56.5 -38.5l-30 -31q-25 25 -50.5 32.5t-56.5 7.5q-42 0 -64.5 -20t-22.5 -68v-100h216v-496h-44z" />
    <glyph glyph-name="fl" unicode="fl" horiz-adv-x="454" 
d="M421 0q-54 0 -84 22.5t-30 79.5v155v107.5v71.5v47.5v35v34.5v45v68q-20 11 -41.5 14.5t-44.5 3.5q-42 0 -64.5 -20t-22.5 -68v-100h118v-38h-118v-458h-44v458h-60v38h60v102q0 34 10.5 58t28.5 40t42.5 23.5t52.5 7.5q27 0 56.5 -6.5t70.5 -24.5v-587q0 -34 18 -52.5
t59 -18.5h8v-38h-15v0z" />
    <glyph glyph-name="ffi" unicode="ffi" horiz-adv-x="648" 
d="M523 0v459h-172v-459h-44v459h-172v-459h-45v459h-59v37h59v79q0 37 11 62t29 40t42.5 21t51.5 6q34 0 59.5 -7.5t46.5 -20.5q18 26 46.5 36t63.5 10q47 0 79.5 -13.5t55.5 -38.5l-30 -31q-24 24 -49.5 32t-57.5 8q-42 0 -64.5 -20t-22.5 -68v-95h217v-496h-45zM222 662
q-42 0 -64.5 -20.5t-22.5 -68.5v-77h172v97q0 26 4 43q-21 16 -43.5 21t-45.5 5z" />
    <glyph glyph-name="ffl" unicode="ffl" horiz-adv-x="671" 
d="M224 704q32 0 57.5 -7t45.5 -20q18 28 48 39t66 11q27 0 56.5 -6.5t70.5 -24.5v-587q0 -34 18 -52.5t59 -18.5h8v-38h-15q-54 0 -84 22.5t-30 79.5v564q-20 11 -42.5 14.5t-43.5 3.5q-42 0 -64.5 -20t-22.5 -68v-100h117v-37h-117v-459h-44v459h-172v-459h-45v459h-59v37
h59v79q0 37 11 62t29 40t42.5 21t51.5 6zM222 662q-42 0 -64.5 -20.5t-22.5 -68.5v-77h172v103q0 20 3 37q-21 16 -43.5 21t-44.5 5z" />
    <glyph glyph-name="ft" unicode="ft" horiz-adv-x="471" 
d="M135 460v-460h-45v460h-59v36h59v110q0 59 33 88.5t80 29.5h47v-40h-38q-24 0 -39.5 -8.5t-23.5 -21t-11 -28.5t-3 -31v-99h172v131h44v-131h92v-36h-92v-339q0 -36 14 -58.5t59 -22.5h31v-40h-44q-48 0 -76 27t-28 78v355h-172z" />
    <glyph glyph-name=".notdef" horiz-adv-x="432" 
d="M0 700h432v-700h-432v700zM376 669h-320l160 -291zM402 49v604l-166 -303zM376 31l-160 291l-160 -291h320zM30 51l166 299l-166 300v-599z" />
    <glyph glyph-name="quotedbl" unicode="&#x22;" horiz-adv-x="243" 
d="M154 513v183h34v-183h-34zM60 513v183h34v-183h-34z" />
    <glyph glyph-name="numbersign" unicode="#" horiz-adv-x="467" 
d="M8 255h102q2 17 5.5 42t7.5 52t7.5 52.5t6.5 42.5h-99v31h103l29 220h33l-29 -220h145q3 18 7 47.5t8.5 62t9 62.5t6.5 48h33l-30 -220h102v-31h-106l-26 -189h103v-31h-107l-29 -224h-35l30 224h-145l-31 -224h-35l32 224h-98v31zM144 255h145l26 189h-145z" />
    <glyph glyph-name="dollar" unicode="$" horiz-adv-x="467" 
d="M247 36q31 1 59 11t49 28t33 44t12 60q0 38 -13.5 63t-33.5 40.5t-45 23.5t-47 13q-4 2 -7.5 2.5t-6.5 2.5v-288zM217 656q-28 -2 -53 -12t-44.5 -28.5t-31 -45.5t-11.5 -61q0 -35 13.5 -58t34 -38t45 -23t47.5 -13v279zM217 -120v113q-56 3 -106.5 21t-89.5 50
q7 8 13.5 18t13.5 18q36 -26 78.5 -43.5t90.5 -20.5v294q-36 7 -69.5 19.5t-59.5 33t-41.5 52t-15.5 76.5q0 39 13 72t37 57.5t58.5 39.5t77.5 18v75h30v-76q45 -2 87 -14t77 -35q-6 -9 -12 -19t-11 -20q-32 19 -67.5 31.5t-73.5 14.5v-285q41 -10 77.5 -21.5t63.5 -31.5
t42.5 -53t15.5 -85q0 -41 -14 -74.5t-40.5 -57.5t-63 -38t-81.5 -16v-113h-30z" />
    <glyph glyph-name="ampersand" unicode="&#x26;" horiz-adv-x="625" 
d="M228 392q-41 51 -63.5 90.5t-22.5 79.5q0 27 9 52.5t28.5 46t49 32.5t71.5 12q45 0 82 -11.5t69 -41.5l-30 -34q-30 25 -58.5 35t-66.5 10q-31 0 -52 -9.5t-33.5 -24.5t-18 -33t-5.5 -34q0 -11 4 -22.5t15 -28.5q13 -21 35 -52.5t47.5 -67t53 -72.5t51.5 -69.5t42.5 -57
t26.5 -35.5q18 31 27.5 69.5t13.5 70.5q11 -1 21.5 -1.5t21.5 -2.5q-6 -45 -19 -87.5t-36 -83.5l96 -122h-56l-69 88q-84 -94 -201 -94q-42 0 -76.5 12t-58.5 34t-37.5 53t-13.5 69q0 69 40 125t113 105zM253 358q-28 -18 -52.5 -39t-42.5 -45t-28.5 -51t-10.5 -57
q0 -32 12 -57t31.5 -41.5t45.5 -25t54 -8.5q50 0 95 24t77 63q-46 60 -90.5 118.5t-90.5 118.5z" />
    <glyph glyph-name="quotesingle" unicode="'" horiz-adv-x="189" 
d="M78 513v183h34v-183h-34z" />
    <glyph glyph-name="parenleft" unicode="(" horiz-adv-x="262" 
d="M229 -119q-34 39 -63.5 87t-51.5 102t-35 112t-13 118q0 57 12 114.5t33 112t50.5 103.5t64.5 90l22 -13q-62 -88 -97 -193.5t-35 -208.5q0 -112 36 -218t96 -191l-19 -15v0z" />
    <glyph glyph-name="parenright" unicode=")" horiz-adv-x="262" 
d="M27 -106q60 85 95.5 191t35.5 218q0 104 -34.5 209t-96.5 193l21 13q36 -41 65.5 -90t50.5 -103.5t33 -112t12 -114.5q0 -59 -13 -117.5t-35 -112.5t-51.5 -102t-62.5 -87z" />
    <glyph glyph-name="asterisk" unicode="*" horiz-adv-x="343" 
d="M279 447q-5 -4 -18 -14t-18 -13l-69 108l-68 -109l-35 28l79 96q-5 1 -22.5 6.5t-38 11.5t-38 11.5t-21.5 6.5q2 5 6.5 20t6.5 21l118 -49l-8 125h42l-8 -125l119 49l13 -42l-121 -35z" />
    <glyph glyph-name="plus" unicode="+" horiz-adv-x="467" 
d="M251 261v-194h-37v194h-188v38h188v192h37v-192h188v-38h-188z" />
    <glyph glyph-name="comma" unicode="," horiz-adv-x="174" 
d="M45 -99l26 99h-16v66h61v-56q-8 -29 -19 -55.5t-23 -53.5h-29z" />
    <glyph glyph-name="hyphen" unicode="-" horiz-adv-x="370" 
d="M53 239v42h264v-42h-264z" />
    <glyph glyph-name="period" unicode="." horiz-adv-x="167" 
d="M56 0v65h59v-65h-59z" />
    <glyph glyph-name="slash" unicode="/" horiz-adv-x="407" 
d="M39 -25h-38l366 743h39z" />
    <glyph glyph-name="zero" unicode="0" horiz-adv-x="467" 
d="M417 179q0 -45 -15 -79t-40.5 -57.5t-59 -35.5t-69.5 -12t-69.5 12t-59 35.5t-40.5 57.5t-15 79v337q0 45 15 79.5t40.5 58t59 35.5t69.5 12t69.5 -12t59 -35.5t40.5 -58t15 -79.5v-337zM375 510q0 68 -39 109t-103 41t-102.5 -41t-38.5 -109v-324q0 -68 38.5 -109.5
t102.5 -41.5t103 41.5t39 109.5v324z" />
    <glyph glyph-name="one" unicode="1" horiz-adv-x="467" 
d="M274 0h-44v648l-102 -68v48l101 68h45v-696z" />
    <glyph glyph-name="two" unicode="2" horiz-adv-x="467" 
d="M45 0v44l290 375q17 22 28 53.5t11 57.5t-9 49.5t-26.5 41t-43 27.5t-59.5 10q-49 0 -87 -30t-51 -78l-45 7q8 33 25.5 59t42 44.5t54 28.5t61.5 10q43 0 77.5 -12.5t58.5 -35t36.5 -52.5t12.5 -66q0 -32 -11.5 -67.5t-36.5 -66.5l-274 -356h317v-43h-371z" />
    <glyph glyph-name="three" unicode="3" horiz-adv-x="467" 
d="M424 196q0 -46 -15.5 -83t-43.5 -63.5t-65.5 -41t-81.5 -14.5q-27 0 -54.5 6t-51 20t-41.5 37.5t-27 58.5l44 6q13 -41 47 -65t85 -24q31 0 60 11.5t51 32t35 50t13 65.5t-11 64t-29.5 47.5t-44 29.5t-55.5 10h-45v40h36q29 0 54.5 9.5t44 27t29 42.5t10.5 56t-10.5 57
t-29 45.5t-45 30.5t-59.5 11q-41 0 -79 -24t-52 -69l-43 7q17 57 65 91.5t111 34.5q48 0 83.5 -15t58.5 -40.5t34 -58t11 -68.5q0 -18 -5 -40.5t-17 -44t-32 -40.5t-50 -31q34 -12 56.5 -32t35.5 -43.5t18 -48t5 -44.5z" />
    <glyph glyph-name="four" unicode="4" horiz-adv-x="467" 
d="M385 112v-112h-43v112h-313v42l248 542h49l-252 -542h268v215h43v-215h62v-42h-62z" />
    <glyph glyph-name="five" unicode="5" horiz-adv-x="467" 
d="M93 124q14 -44 49 -68t88 -24q38 0 66 13.5t46 36t27 51.5t9 61v72q0 32 -8 60.5t-25 49.5t-44.5 33.5t-67.5 12.5q-17 0 -35.5 -5.5t-35.5 -15t-32 -22t-25 -27.5h-41v344h341v-42h-300v-249q37 35 74.5 45.5t66.5 10.5q46 0 79 -14.5t54 -40t31 -60.5t10 -75v-45
q0 -49 -9 -91t-31 -73t-59 -49t-93 -18q-69 0 -114 30t-62 90z" />
    <glyph glyph-name="six" unicode="6" horiz-adv-x="467" 
d="M426 204q0 -57 -16.5 -97t-43.5 -65t-62 -36.5t-72 -11.5q-33 0 -65 12.5t-57.5 37t-41 62t-15.5 87.5q0 62 25 112l197 391h47l-168 -334l2 -1q20 16 45.5 23t46.5 7q35 0 67.5 -13t57 -37t39 -58.5t14.5 -78.5zM382 195q0 37 -11 66.5t-30.5 49.5t-45.5 31t-56 11
t-56.5 -11t-46 -31t-30.5 -49.5t-11 -66.5q0 -73 38.5 -118t105.5 -45q28 0 54 11t46 32t31.5 51t11.5 69z" />
    <glyph glyph-name="seven" unicode="7" horiz-adv-x="467" 
d="M169 0h-49l255 653h-282v-109h-43v152h372v-44z" />
    <glyph glyph-name="eight" unicode="8" horiz-adv-x="467" 
d="M437 188q0 -43 -16 -79t-43 -61.5t-63.5 -39.5t-77.5 -14t-77.5 14t-63.5 39.5t-42.5 61.5t-15.5 79q0 22 7 47.5t21 49t36 43.5t52 31q-30 12 -50 30t-32 39.5t-16.5 44t-4.5 42.5q0 39 14.5 73t39.5 58.5t59 39t73 14.5q42 0 76.5 -14.5t58.5 -39t37.5 -58.5t13.5 -73
q0 -47 -24 -89.5t-80 -66.5l1 -1q32 -10 54 -29t36 -42.5t20.5 -49.5t6.5 -49zM237 341q-31 0 -59.5 -11t-50 -31t-34.5 -48t-13 -62q0 -33 13 -62t34.5 -50t50 -33t59.5 -12t60 12t50.5 33t34.5 50t13 62q0 34 -13 62t-35 48t-50.5 31t-59.5 11zM237 662q-27 0 -52.5 -9.5
t-45.5 -28t-32.5 -45.5t-12.5 -62q0 -36 12.5 -62t32.5 -43.5t46 -26t52 -8.5q27 0 52.5 8.5t46 25.5t33 43.5t12.5 62.5q0 35 -12.5 62t-32.5 45.5t-46 28t-53 9.5z" />
    <glyph glyph-name="nine" unicode="9" horiz-adv-x="467" 
d="M53 495q0 57 16.5 96.5t44 64t62 35.5t70.5 11q34 0 66.5 -12.5t58 -37t41 -62t15.5 -87.5q0 -30 -6 -58.5t-19 -53.5l-198 -391h-48l169 331l-2 1q-25 -16 -49.5 -20.5t-41.5 -4.5q-36 0 -68 12.5t-57 36.5t-39.5 59t-14.5 80zM95 501q0 -37 11.5 -66.5t31 -49.5t46 -31
t56.5 -11q61 0 102 41.5t41 116.5q0 73 -38.5 118t-104.5 45q-29 0 -55 -11t-46 -32t-32 -51t-12 -69z" />
    <glyph glyph-name="colon" unicode=":" horiz-adv-x="174" 
d="M57 0v65h59v-65h-59zM57 314v65h59v-65h-59z" />
    <glyph glyph-name="semicolon" unicode=";" horiz-adv-x="174" 
d="M46 -99l26 99h-16v66h61v-56q-2 -5 -2 -10t-2 -10l-38 -89h-29zM57 313v66h60v-66h-60z" />
    <glyph glyph-name="less" unicode="&#x3c;" horiz-adv-x="467" 
d="M432 80l-402 182v36l401 182v-41l-355 -159q30 -13 78 -34.5t99.5 -44.5t99.5 -44.5t79 -34.5v-42z" />
    <glyph glyph-name="equal" unicode="=" horiz-adv-x="467" 
d="M26 340v37h413v-37h-413zM26 163v38h413v-38h-413z" />
    <glyph glyph-name="greater" unicode="&#x3e;" horiz-adv-x="467" 
d="M31 122q31 13 79 34.5t99.5 44.5t99.5 44.5t78 34.5l-354 159v41l400 -182v-36l-402 -182v42z" />
    <glyph glyph-name="question" unicode="?" horiz-adv-x="445" 
d="M33 532q10 42 29.5 73.5t46 52.5t57.5 32t65 11q41 0 74.5 -13t57 -36.5t36.5 -55t13 -68.5q0 -24 -6.5 -45.5t-17 -40.5t-24.5 -36t-27 -33q-14 -17 -29 -33.5t-27 -34t-20.5 -37t-9.5 -42.5v-66h-46v68q0 27 10 51t25 46q13 19 34.5 41t42 46.5t35 52t14.5 57.5
q0 20 -6.5 44t-23 44.5t-43.5 34.5t-68 14q-33 0 -59 -14t-44.5 -34.5t-29.5 -44t-14 -42.5zM201 0v61h56v-61h-56z" />
    <glyph glyph-name="at" unicode="@" horiz-adv-x="774" 
d="M514 237q0 -25 10.5 -43.5t46.5 -18.5q33 0 57.5 15.5t41.5 43.5t25.5 67t8.5 87q0 70 -26 123.5t-68 89.5t-96 54t-109 18q-74 0 -135.5 -25t-105.5 -70t-68.5 -107t-24.5 -135q0 -79 25 -142.5t70.5 -107.5t108.5 -68t138 -24q63 0 111 10t89 30q4 -8 7 -16.5t6 -16.5
q-49 -17 -99.5 -28.5t-109.5 -11.5q-83 0 -153 26t-121 74.5t-79.5 118t-28.5 156.5q0 78 26.5 145.5t74.5 117t115 78t149 28.5q71 0 133 -21.5t108.5 -62.5t73 -100t26.5 -133q0 -63 -13 -109t-36.5 -76.5t-54.5 -45t-67 -14.5q-7 0 -19.5 1.5t-26 7t-24.5 16t-15 27.5h-2
q-9 -17 -24.5 -27t-33.5 -16t-36.5 -8t-33.5 -2q-24 0 -47.5 5.5t-42 18t-30.5 32.5t-12 48q0 46 32.5 77t93.5 31h130v52q0 40 -21.5 63.5t-84.5 23.5q-26 0 -56.5 -8.5t-54.5 -27.5q-5 6 -9.5 13.5t-9.5 13.5q31 24 66 33t65 9q29 0 54.5 -4.5t44.5 -17t30 -34.5t11 -57
v-176zM352 324q-18 0 -35 -4.5t-30.5 -13.5t-21.5 -23t-8 -33q0 -37 27 -57.5t75 -20.5q20 0 41 4t38.5 13t29 24.5t11.5 38.5v72h-127z" />
    <glyph glyph-name="A" unicode="A" horiz-adv-x="585" 
d="M459 170h-335l-60 -170h-50l253 696h49q64 -175 127.5 -348t126.5 -348h-51zM290 639q-4 -11 -15.5 -43t-26.5 -75.5t-32.5 -92.5t-33 -92.5t-27.5 -77.5t-17 -47h307l-90 254q-16 44 -31.5 87t-30.5 87h-3z" />
    <glyph glyph-name="B" unicode="B" horiz-adv-x="585" 
d="M546 186q0 -42 -14.5 -76.5t-40 -59t-59.5 -37.5t-73 -13h-280v696h253q48 0 85 -13.5t62 -37.5t38 -56.5t13 -69.5q0 -20 -5.5 -43t-19 -45t-36 -41t-56.5 -29v-2q36 -7 61.5 -25t41 -42.5t23 -52.5t7.5 -53zM125 655v-277h199q73 0 116 38t43 101q0 60 -41 99t-118 39
h-199zM125 337v-294h214q80 0 119 42t39 105q0 29 -9.5 55.5t-29.5 47t-50 32.5t-70 12h-213z" />
    <glyph glyph-name="C" unicode="C" horiz-adv-x="528" 
d="M511 134q-26 -65 -82.5 -103t-135.5 -38q-62 0 -107 20.5t-74.5 55t-44 80.5t-14.5 97v207q0 50 15 95t45 79t75 54t105 20q78 0 133 -35.5t82 -94.5l-42 -21q-21 47 -65 77.5t-107 30.5q-49 0 -85.5 -16.5t-61 -45t-36.5 -66t-12 -79.5v-206q0 -42 12 -79.5t36.5 -66.5
t61 -46t85.5 -17q64 0 107.5 31.5t67.5 85.5z" />
    <glyph glyph-name="D" unicode="D" horiz-adv-x="606" 
d="M303 696q78 0 135 -29.5t89 -96.5q17 -37 21 -90t4 -119q0 -75 -3.5 -131t-20.5 -96q-33 -75 -93.5 -104.5t-145.5 -29.5h-210v696h224zM505 417q0 67 -15 112t-42 72.5t-65.5 39.5t-86.5 12h-170v-610h170q59 0 99 17t64.5 48t35 73.5t10.5 92.5v143z" />
    <glyph glyph-name="E" unicode="E" horiz-adv-x="528" 
d="M79 0v696h422v-43h-375v-279h320v-42h-320v-289h375v-43h-422z" />
    <glyph glyph-name="F" unicode="F" horiz-adv-x="507" 
d="M127 653v-281h319v-41h-319v-331h-48v696h422v-43h-374z" />
    <glyph glyph-name="G" unicode="G" horiz-adv-x="585" 
d="M292 34q45 0 80.5 16.5t60.5 43.5t38.5 63t13.5 75v80h-157v40h204v-111q0 -52 -16.5 -97.5t-47.5 -79t-76 -52.5t-101 -19q-62 0 -107 20.5t-74.5 55t-44 80.5t-14.5 97v207q0 50 15 95t45 79t75 54t105 20q78 0 133.5 -35.5t81.5 -94.5q-2 -2 -8 -5t-13 -6t-13 -6
l-8 -4q-21 47 -65 77.5t-107 30.5q-49 0 -85.5 -16.5t-61 -45t-36.5 -66t-12 -79.5v-208q0 -42 12 -79.5t36.5 -66.5t61 -46t85.5 -17z" />
    <glyph glyph-name="H" unicode="H" horiz-adv-x="625" 
d="M499 0v332h-374v-332h-46v696h46v-322h374v322h47v-696h-47z" />
    <glyph glyph-name="I" unicode="I" horiz-adv-x="212" 
d="M83 0v696h46v-696h-46z" />
    <glyph glyph-name="J" unicode="J" horiz-adv-x="448" 
d="M378 197q0 -55 -17 -93.5t-45.5 -63t-66 -35.5t-78.5 -11q-42 0 -77.5 14.5t-63.5 40.5l34 32q26 -22 50.5 -32.5t52.5 -10.5q33 0 63 8.5t52.5 29t36 54.5t13.5 84v482h46v-499z" />
    <glyph glyph-name="K" unicode="K" horiz-adv-x="606" 
d="M528 0q-58 99 -116 196.5t-117 196.5l-170 -209v-184h-47v696h47v-444h1q44 54 86 106t86 105l191 233h52l-216 -266q65 -109 128 -215.5t128 -214.5h-53v0z" />
    <glyph glyph-name="L" unicode="L" horiz-adv-x="528" 
d="M79 0v696h46v-653h376v-43h-422z" />
    <glyph glyph-name="M" unicode="M" horiz-adv-x="741" 
d="M626 591h-1l-104 -220l-126 -262h-40l-126 264l-105 218q0 -1 -1 -1v-590h-45v696h47l156 -328q24 -50 47.5 -99.5t46.5 -100.5h1l95 200l156 328h45v-696h-46v591z" />
    <glyph glyph-name="N" unicode="N" horiz-adv-x="663" 
d="M276 392q-38 57 -74.5 112.5t-73.5 112.5q-1 0 -1 -1v-616h-47v696h48l258 -388q38 -58 75.5 -115.5t75.5 -115.5q1 0 1 1v618h46v-696h-47z" />
    <glyph glyph-name="O" unicode="O" horiz-adv-x="571" 
d="M286 701q56 0 100 -18.5t75 -51.5t47 -78.5t16 -99.5v-207q0 -58 -16.5 -105t-47.5 -80t-75 -50.5t-99 -17.5q-62 0 -107.5 20.5t-75 55t-44 80.5t-14.5 97v207q0 50 15 95t45 79t75 54t106 20zM287 657q-49 0 -85.5 -16.5t-60.5 -45t-36 -65.5t-12 -79v-207
q0 -41 12 -78.5t36 -66.5t60.5 -46t85.5 -17q44 0 79 16t59.5 44t37.5 67t13 85v203q0 43 -13 81t-37 65.5t-59 43.5t-80 16z" />
    <glyph glyph-name="P" unicode="P" horiz-adv-x="555" 
d="M544 494q0 -35 -12.5 -69.5t-38 -63t-64.5 -46t-91 -17.5h-211v-298h-47v696h248q42 0 81 -11t69 -35t48 -62.5t18 -93.5zM494 497q0 39 -13 68.5t-35.5 49t-53 29t-64.5 9.5h-201v-311h205q43 0 74 13.5t50.5 35t28.5 49.5t9 57z" />
    <glyph glyph-name="Q" unicode="Q" horiz-adv-x="585" 
d="M286 701q56 0 100 -18.5t75 -51.5t47 -78.5t16 -99.5v-207q0 -42 -8.5 -77.5t-25.5 -65.5l100 -79l-26 -31q-17 13 -45 35t-53 42q-31 -37 -76 -57t-104 -20q-62 0 -107 20.5t-74.5 55t-44 80.5t-14.5 97v207q0 50 15 95t45 79t75 54t105 20zM287 656q-49 0 -85.5 -16.5
t-60.5 -44.5t-36 -65.5t-12 -78.5v-206q0 -41 12 -78.5t36 -66.5t60.5 -46t85.5 -17q46 0 81.5 17t59.5 46l-102 82l27 32l97 -79q26 50 26 114v202q0 43 -13 80.5t-37 65t-59 43.5t-80 16z" />
    <glyph glyph-name="R" unicode="R" horiz-adv-x="585" 
d="M483 0l-155 323h-201v-323h-47v696h269q43 0 80 -12.5t63 -35.5t41 -56.5t15 -75.5q0 -75 -46 -126t-123 -64l160 -326h-56zM498 516q0 37 -13.5 63.5t-35.5 43t-51.5 24.5t-60.5 8h-210v-290h207q35 0 65 9.5t52 28.5t34.5 47.5t12.5 65.5z" />
    <glyph glyph-name="S" unicode="S" horiz-adv-x="530" 
d="M503 183q0 -43 -16.5 -78t-48 -59.5t-76 -38t-100.5 -13.5q-66 0 -127 18.5t-114 56.5l28 38q46 -33 101 -51t115 -18q40 0 75 9t60.5 27t40 45.5t14.5 64.5q0 42 -17 68.5t-44 43t-60.5 26t-65.5 15.5q-39 7 -76.5 17t-67 29t-48 50t-18.5 81q0 43 15.5 78t44 59.5
t68.5 37.5t90 13q116 0 199 -53l-25 -40q-40 23 -84 36t-92 13q-33 0 -64 -8.5t-54 -26t-37 -44.5t-14 -65t16 -61.5t42 -37.5t59.5 -22t68.5 -15q40 -8 78 -19.5t68 -32.5t48 -55t18 -88z" />
    <glyph glyph-name="T" unicode="T" horiz-adv-x="478" 
d="M264 655v-655h-46v655h-210v41h463v-41h-207z" />
    <glyph glyph-name="U" unicode="U" horiz-adv-x="606" 
d="M542 696v-464q0 -54 -18 -98t-49.5 -75t-75.5 -48t-96 -17q-54 0 -97.5 18t-75 50.5t-48.5 77.5t-17 99v457h46v-446q0 -44 13.5 -83t38.5 -67.5t60.5 -45t79.5 -16.5q42 0 77 14t60.5 40t39.5 64t14 86v454h48z" />
    <glyph glyph-name="V" unicode="V" horiz-adv-x="528" 
d="M242 0q-58 175 -115 348t-114 348h48q54 -169 110 -339l91 -285h3q23 72 45.5 142.5t45.5 142.5l108 339h49l-229 -696h-42z" />
    <glyph glyph-name="W" unicode="W" horiz-adv-x="809" 
d="M619 0h-43l-105 376q-17 60 -33.5 119t-33.5 119h-1l-169 -614h-44q-43 175 -85.5 348t-84.5 348h48q22 -96 44.5 -189.5t44.5 -188.5l56 -239h2l32 120t33 119l105 378h40q27 -96 53 -190.5t53 -189.5l66 -237h1l54 236l89 381h49z" />
    <glyph glyph-name="X" unicode="X" horiz-adv-x="500" 
d="M437 0l-187 318l-187 -318h-52l213 357l-198 339h52l172 -300l172 300h52l-199 -339l213 -357h-51z" />
    <glyph glyph-name="Y" unicode="Y" horiz-adv-x="475" 
d="M259 0h-44v288l-209 408h49q7 -13 21.5 -42l33 -66l39 -78t38 -77t31.5 -63.5t19 -38.5q19 37 37 73.5t36 74.5q28 54 55.5 108t53.5 109h48q-53 -103 -104.5 -204t-103.5 -204v-288z" />
    <glyph glyph-name="Z" unicode="Z" horiz-adv-x="488" 
d="M33 0v42l370 613h-354v41h406v-40l-370 -613h370v-43h-422z" />
    <glyph glyph-name="bracketleft" unicode="[" horiz-adv-x="234" 
d="M76 -109v806h142v-35h-99v-737h99v-34h-142z" />
    <glyph glyph-name="backslash" unicode="\" horiz-adv-x="292" 
d="M-4 725h36l252 -767h-36z" />
    <glyph glyph-name="bracketright" unicode="]" horiz-adv-x="234" 
d="M35 -109v34h98v737h-98v35h141v-806h-141z" />
    <glyph glyph-name="asciicircum" unicode="^" horiz-adv-x="467" 
d="M45 333l171 360h36l169 -359h-41l-147 316q-11 -27 -31 -69.5t-41.5 -88.5t-41.5 -89t-32 -70h-42z" />
    <glyph glyph-name="underscore" unicode="_" horiz-adv-x="493" 
d="M0 -107v37h493v-37h-493z" />
    <glyph glyph-name="grave" unicode="`" horiz-adv-x="482" 
d="M305 563l-99 147l48 19l79 -154z" />
    <glyph glyph-name="a" unicode="a" horiz-adv-x="474" 
d="M376 54q-12 -18 -29.5 -30t-39.5 -18.5t-47 -9t-50 -2.5q-36 0 -67.5 8.5t-55 26t-37.5 44t-14 62.5q0 60 40 99.5t119 39.5h182v71q0 55 -32 85t-111 30q-37 0 -72.5 -10t-65.5 -38l-28 30q61 59 167 59q38 0 71.5 -6.5t59 -24t40.5 -47.5t15 -76v-347h-44v54h-1z
M205 237q-60 0 -93.5 -24.5t-33.5 -75.5t37.5 -78t100.5 -27q24 0 52 4.5t52.5 16t40.5 32t16 53.5v99h-172z" />
    <glyph glyph-name="b" unicode="b" horiz-adv-x="465" 
d="M95 416q23 35 57.5 59.5t92.5 24.5q54 0 90 -21.5t57 -56.5t29.5 -79.5t8.5 -90.5q0 -56 -10 -103.5t-32.5 -82t-59 -54t-88.5 -19.5q-18 0 -37.5 2t-38 9.5t-36.5 23.5t-33 43l-4 -1v-70h-44v723h44v-305zM384 247q0 36 -5.5 73.5t-22 68.5t-45.5 51t-75 20
q-41 0 -69 -17.5t-45 -47.5t-24 -69t-7 -81q0 -32 5 -69t20.5 -69t44 -53.5t75.5 -21.5q49 0 78 20t44.5 51.5t20.5 69.5t5 74z" />
    <glyph glyph-name="c" unicode="c" horiz-adv-x="414" 
d="M395 49q-29 -26 -65 -41t-80 -15q-41 0 -80.5 13.5t-70.5 43.5t-50 78.5t-19 118.5t19 118.5t50 78.5t70.5 43.5t80.5 13.5q44 0 80 -14.5t65 -39.5l-28 -33q-20 20 -49.5 33.5t-61.5 13.5q-88 0 -135 -55t-47 -159t47 -159.5t135 -55.5q32 0 61.5 15t49.5 32l28 -30v0z
" />
    <glyph glyph-name="d" unicode="d" horiz-adv-x="465" 
d="M374 0v77h-2q-16 -26 -34.5 -42.5t-38 -25.5t-40 -12.5t-39.5 -3.5q-53 0 -88.5 20.5t-57 55.5t-31 81.5t-9.5 97.5q0 46 9 91.5t30.5 81.5t58.5 58t93 22q58 0 92.5 -25t54.5 -55h2v302h43v-723h-43zM374 245q0 42 -7.5 81t-24.5 69t-45 47.5t-69 17.5q-47 0 -76 -20
t-45 -51t-21.5 -68.5t-5.5 -73.5q0 -33 4.5 -70.5t20 -69t45 -52.5t78.5 -21q46 0 74.5 21t44.5 52.5t21.5 68.5t5.5 69z" />
    <glyph glyph-name="e" unicode="e" horiz-adv-x="474" 
d="M85 241q-1 -42 7.5 -80.5t28.5 -67t53 -45.5t81 -17q32 0 63 12t57 31l25 -32q-32 -26 -68 -37.5t-75 -11.5q-38 0 -76 10t-68.5 38t-50 77t-19.5 127q0 75 18.5 124.5t47 79t64 41t70.5 11.5q49 0 85.5 -17.5t61 -47.5t36.5 -71.5t12 -89.5v-34h-353zM395 277
q-2 94 -42.5 139.5t-109.5 45.5q-71 0 -111.5 -48t-45.5 -137h309z" />
    <glyph glyph-name="f" unicode="f" horiz-adv-x="258" 
d="M135 460v-460h-45v460h-59v36h59v110q0 59 33 88.5t80 29.5h47v-40h-38q-24 0 -39.5 -8.5t-23.5 -21t-11 -28.5t-3 -31v-99h115v-36h-115z" />
    <glyph glyph-name="g" unicode="g" horiz-adv-x="498" 
d="M388 417v79h43l1 -493q0 -56 -17 -96t-46.5 -65t-67.5 -36.5t-80 -11.5q-35 0 -69.5 12t-63.5 37l28 33q21 -17 49 -29.5t60 -12.5q34 0 64 10.5t52 30.5t34.5 49t12.5 67l1 99h-2q-24 -44 -61 -69.5t-94 -25.5q-54 0 -89.5 21.5t-56.5 57t-29.5 80t-8.5 90.5
q0 50 9 96.5t30.5 82t56.5 57t88 21.5q18 0 38.5 -3t41 -12t39.5 -25.5t34 -43.5h3zM93 247q0 -36 6 -73t22.5 -68t45.5 -50.5t76 -19.5q40 0 67.5 17.5t45 47.5t25 69t7.5 81q0 32 -5.5 68.5t-21.5 68t-44.5 52.5t-73.5 21q-49 0 -78.5 -21t-45.5 -52.5t-21 -69t-5 -71.5z
" />
    <glyph glyph-name="h" unicode="h" horiz-adv-x="508" 
d="M400 0v317q0 69 -35 105.5t-104 36.5q-32 0 -60 -11.5t-49 -32.5t-33 -50.5t-12 -64.5v-300h-43v723h43v-313h3q25 47 70.5 68.5t89.5 21.5q84 0 129 -43.5t45 -124.5v-332h-44z" />
    <glyph glyph-name="i" unicode="i" horiz-adv-x="199" 
d="M74 648v49h50v-49h-50zM78 0v496h44v-496h-44z" />
    <glyph glyph-name="j" unicode="j" horiz-adv-x="218" 
d="M87 696h50v-48h-50v48zM-8 -166h17q39 0 60 24t21 69v568h45v-573q0 -58 -34 -92.5t-87 -34.5h-22v39z" />
    <glyph glyph-name="k" unicode="k" horiz-adv-x="479" 
d="M423 0q-47 71 -92 141.5t-92 141.5q-32 -35 -63 -70.5t-62 -71.5v-141h-43v722h43v-522h1q66 74 131.5 147.5t131.5 148.5h52l-162 -183l204 -313h-49v0z" />
    <glyph glyph-name="l" unicode="l" horiz-adv-x="218" 
d="M185 0q-54 0 -84 22.5t-30 79.5v620h44v-613q0 -34 18 -52.5t59 -18.5h8v-38h-15v0z" />
    <glyph glyph-name="m" unicode="m" horiz-adv-x="853" 
d="M735 317q0 69 -36 105t-98 36q-32 0 -60.5 -11t-49.5 -31.5t-33.5 -49t-12.5 -63.5v-303h-43v317q0 69 -39 105t-101 36q-32 0 -59.5 -11t-47.5 -31.5t-31 -49t-11 -63.5v-303h-43v496h43v-82h2q12 24 30 40t39 26.5t43.5 15t43.5 4.5q61 0 101 -26t60 -73h1q26 51 73 75
t104 24q37 0 68 -11.5t53.5 -33t35 -53t12.5 -70.5v-332h-44v317z" />
    <glyph glyph-name="n" unicode="n" horiz-adv-x="502" 
d="M397 0v317q0 69 -35 105.5t-105 36.5q-32 0 -60 -11.5t-48.5 -32.5t-32.5 -50.5t-12 -64.5v-300h-43v495h43v-85h2q12 24 30.5 41t40.5 28t45 16t44 5q84 0 129 -43.5t45 -124.5v-332h-43z" />
    <glyph glyph-name="o" unicode="o" horiz-adv-x="489" 
d="M249 501q54 0 94.5 -21t65.5 -59q17 -28 26 -68.5t9 -108.5t-14 -111.5t-35 -70.5q-27 -35 -66 -51.5t-88 -16.5q-92 0 -142 56q-27 31 -41 78.5t-14 120.5q0 69 15 112.5t39 72.5q26 31 63.5 49t87.5 18zM247 462q-38 0 -67 -15.5t-49 -40.5t-31.5 -61t-11.5 -98
q0 -63 11.5 -100t31.5 -62t48 -38.5t65 -13.5q38 0 68.5 16t50.5 45q16 23 26.5 56t10.5 95q0 61 -7.5 94t-19.5 53q-20 33 -52 51.5t-74 18.5z" />
    <glyph glyph-name="p" unicode="p" horiz-adv-x="492" 
d="M102 496v-84h1q16 27 35 44.5t39.5 27.5t41 14t40.5 4q54 0 89 -20.5t56 -55.5t29 -81.5t8 -97.5q0 -46 -9 -91t-30.5 -81t-58.5 -58t-93 -22q-57 0 -91.5 25t-55.5 62h-1v-281h-44v695h44zM102 250q0 -42 7 -80.5t24 -68.5t45 -47.5t69 -17.5q48 0 77 20t45 50.5
t21.5 68t5.5 73.5q0 34 -4 71.5t-18.5 69t-43.5 52.5t-78 21q-47 0 -76 -21t-45.5 -53t-22.5 -69t-6 -69z" />
    <glyph glyph-name="q" unicode="q" horiz-adv-x="496" 
d="M49 243q0 53 9.5 100t31.5 82.5t58.5 56t91.5 20.5q45 0 82 -20t64 -71h1v85h44v-696h-44v286h-1q-11 -18 -26 -34t-34.5 -29t-43.5 -20.5t-52 -7.5q-55 0 -90 22t-55.5 57.5t-28 80t-7.5 88.5zM93 248q0 -36 5.5 -73.5t21.5 -68t45.5 -50.5t76.5 -20q40 0 67.5 17.5
t45 47.5t25 68.5t7.5 80.5q0 32 -5.5 69.5t-21.5 69.5t-44.5 53.5t-73.5 21.5q-48 0 -77.5 -21t-45 -53t-21 -70t-5.5 -72z" />
    <glyph glyph-name="r" unicode="r" horiz-adv-x="340" 
d="M326 445q-17 8 -33.5 11.5t-31.5 3.5q-32 0 -59 -11t-46.5 -31.5t-30.5 -49t-11 -64.5v-304h-43v496h43v-85h3q26 52 68 71t85 19q21 0 40 -2.5t34 -9.5z" />
    <glyph glyph-name="s" unicode="s" horiz-adv-x="446" 
d="M408 134q0 -30 -12.5 -55.5t-36.5 -44.5t-59.5 -30t-82.5 -11q-54 0 -104 14.5t-91 46.5l26 34q36 -29 80.5 -42.5t95.5 -13.5q22 0 47 5t45.5 17t34 32t13.5 50q0 26 -12 43.5t-31.5 28.5t-44.5 17.5t-50 9.5q-33 5 -64.5 11.5t-56 19.5t-39.5 35t-15 58q0 33 13 59.5
t36.5 44.5t56.5 28t72 10q54 0 92 -11t71 -34l-24 -35q-29 18 -62 29t-74 11q-59 0 -97.5 -25t-39.5 -73q0 -25 11.5 -40.5t31 -25t45.5 -14.5t55 -9q30 -5 60.5 -13t54.5 -23.5t39.5 -40.5t15.5 -63z" />
    <glyph glyph-name="t" unicode="t" horiz-adv-x="264" 
d="M194 0q-57 0 -79.5 31t-22.5 85v343h-68v37h68v131h45v-131h92v-37h-92v-339q0 -17 2.5 -32t10.5 -26t22.5 -17t37.5 -6h31v-39h-47z" />
    <glyph glyph-name="u" unicode="u" horiz-adv-x="517" 
d="M402 0v80h-2q-12 -24 -30.5 -40t-40 -26t-44.5 -14.5t-44 -4.5q-39 0 -71 11.5t-55.5 33t-36.5 52.5t-13 70v334h44v-317q0 -70 38.5 -107t102.5 -37q32 0 60 11.5t48.5 32.5t32.5 50t12 64v303h42v-496h-43z" />
    <glyph glyph-name="v" unicode="v" horiz-adv-x="434" 
d="M420 494q-46 -124 -91.5 -247t-90.5 -247h-42q-46 124 -92 247t-91 247h48q23 -63 45.5 -128t45.5 -128l64 -178h3q15 43 31 89t30 89q23 63 45.5 127.5t45.5 128.5h49v0z" />
    <glyph glyph-name="w" unicode="w" horiz-adv-x="703" 
d="M539 0h-44q-23 66 -44 130.5t-44 130.5l-57 166q-14 -42 -28 -83.5t-28 -82.5l-43.5 -130.5t-44.5 -130.5h-44l-154 494h48l80 -271l48 -160h2l53 159q23 69 45.5 136t44.5 136h44q23 -68 45 -135.5t44 -135.5l53 -162h3l48 163l80 270h48z" />
    <glyph glyph-name="x" unicode="x" horiz-adv-x="441" 
d="M360 0l-140 223l-139 -223h-52l165 254l-157 241h52l131 -211l130 211h53l-157 -241l166 -254h-52z" />
    <glyph glyph-name="y" unicode="y" horiz-adv-x="419" 
d="M197 -111q-16 -46 -47 -67.5t-67 -21.5h-21v39h20q25 0 46.5 18t32.5 53q7 21 13.5 42t14.5 42q-47 125 -92.5 249.5t-92.5 250.5h49l84 -233q19 -53 36.5 -105t36.5 -105h2q5 14 17 48t27.5 78.5t33 94t33 94t27.5 79t17 49.5h46l-216 -605v0z" />
    <glyph glyph-name="z" unicode="z" horiz-adv-x="421" 
d="M35 0v36l300 421h-285v38h335v-37l-298 -419h298v-39h-350z" />
    <glyph glyph-name="braceleft" unicode="{" horiz-adv-x="234" 
d="M180 -109q-37 0 -58.5 28t-21.5 74v140q0 65 -14 101.5t-57 47.5v25q22 6 36.5 21t22 36t10.5 45.5t3 48.5v135q0 47 21 75t58 28h47v-29h-34q-18 0 -29 -9t-16.5 -23t-7.5 -30.5t-2 -31.5v-134q0 -31 -6.5 -55.5t-16 -42.5t-21.5 -29.5t-23 -15.5v-1q26 -8 46.5 -43.5
t20.5 -93.5v-144q0 -15 2 -31.5t7.5 -30.5t16.5 -23t29 -9h34v-29h-47z" />
    <glyph glyph-name="bar" unicode="|" horiz-adv-x="174" 
d="M72 -162v878h34v-878h-34z" />
    <glyph glyph-name="braceright" unicode="}" horiz-adv-x="234" 
d="M226 282q-43 -11 -57 -47.5t-14 -101.5v-140q0 -46 -21.5 -74t-58.5 -28h-47v29h34q18 0 29 9t16.5 23t7.5 30.5t2 31.5v144q0 58 20.5 93.5t46.5 43.5v1q-12 4 -23.5 15.5t-21.5 29.5t-16 42.5t-6 55.5v134q0 15 -1.5 31.5t-6.5 30.5t-16.5 23t-30.5 9h-34v28h46
q40 0 60 -28.5t20 -73.5v-135q0 -24 3 -48.5t10.5 -45.5t21.5 -36t37 -21v-25v0z" />
    <glyph glyph-name="asciitilde" unicode="~" horiz-adv-x="467" 
d="M420 293q-23 -35 -48 -51.5t-57 -16.5q-17 0 -37.5 8t-41.5 17t-41.5 17t-38.5 8q-25 0 -43 -12.5t-36 -32.5l-32 23q47 65 113 65q19 0 40 -8t41.5 -17t40 -17t36.5 -8q22 0 37 13t33 36l34 -24v0z" />
    <glyph glyph-name="Adieresis" unicode="&#xc4;" horiz-adv-x="585" 
d="M459 170h-335l-60 -170h-50l253 696h49q64 -175 127.5 -348t126.5 -348h-51zM290 639q-4 -11 -15.5 -43t-26.5 -75.5t-32.5 -92.5t-33 -92.5t-27.5 -77.5t-17 -47h307l-90 254q-16 44 -31.5 87t-30.5 87h-3zM352 811h55v-53h-55v53zM174 811h54v-53h-54v53z" />
    <glyph glyph-name="Ccedilla" unicode="&#xc7;" horiz-adv-x="528" 
d="M510 133q-26 -63 -81 -100t-132 -39q-2 -10 -5.5 -19t-6.5 -18q29 -2 47 -10.5t28.5 -19.5t14.5 -23.5t4 -23.5t-5 -23.5t-16 -23.5t-28 -18t-42 -7q-9 0 -31.5 2t-47.5 11l9 25q19 -7 37 -9.5t31 -2.5q7 0 17 2.5t19 8t15 14.5t6 22q0 23 -22.5 36.5t-55.5 13.5
q-5 0 -8 3t-6 5q5 14 8.5 28t8.5 28q-56 3 -96.5 24.5t-67 55.5t-39.5 78t-13 92v208q0 50 15 95t45 79t75 54t105 20q78 0 133.5 -35.5t81.5 -95.5q-11 -5 -21 -10.5t-21 -10.5q-20 48 -64.5 78t-107.5 30q-49 0 -85.5 -16.5t-61 -45t-36.5 -66t-12 -79.5v-206
q0 -41 12 -79t36.5 -67t61 -46t85.5 -17q65 0 108.5 32t66.5 86z" />
    <glyph glyph-name="Eacute" unicode="&#xc9;" horiz-adv-x="528" 
d="M79 0v696h422v-43h-375v-279h320v-42h-320v-289h375v-43h-422zM231 751l135 108l35 -37l-151 -93z" />
    <glyph glyph-name="Odieresis" unicode="&#xd6;" horiz-adv-x="571" 
d="M286 701q56 0 100 -18.5t75 -51.5t47 -78.5t16 -99.5v-207q0 -58 -16.5 -105t-47.5 -80t-75 -50.5t-99 -17.5q-62 0 -107.5 20.5t-75 55t-44 80.5t-14.5 97v207q0 50 15 95t45 79t75 54t106 20zM287 657q-49 0 -85.5 -16.5t-60.5 -45t-36 -65.5t-12 -79v-207
q0 -41 12 -78.5t36 -66.5t60.5 -46t85.5 -17q44 0 79 16t59.5 44t37.5 67t13 85v203q0 43 -13 81t-37 65.5t-59 43.5t-80 16zM346 759v53h54v-53h-54zM167 759v53h55v-53h-55z" />
    <glyph glyph-name="Udieresis" unicode="&#xdc;" horiz-adv-x="606" 
d="M542 696v-464q0 -54 -18 -98t-49.5 -75t-75.5 -48t-96 -17q-54 0 -97.5 18t-75 50.5t-48.5 77.5t-17 99v457h46v-446q0 -44 13.5 -83t38.5 -67.5t60.5 -45t79.5 -16.5q42 0 77 14t60.5 40t39.5 64t14 86v454h48zM367 759v53h54v-53h-54zM188 759v53h55v-53h-55z" />
    <glyph glyph-name="dieresistonos" unicode="&#x385;" horiz-adv-x="449" 
d="M293 606v53h55v-53h-55zM86 606v53h54v-53h-54zM159 575l79 154l48 -19l-99 -147z" />
    <glyph glyph-name="agrave" unicode="&#xe0;" horiz-adv-x="474" 
d="M376 54q-12 -18 -29.5 -30t-39.5 -18.5t-47 -9t-50 -2.5q-36 0 -67.5 8.5t-55 26t-37.5 44t-14 62.5q0 60 40 99.5t119 39.5h182v71q0 55 -32 85t-111 30q-37 0 -72.5 -10t-65.5 -38l-28 30q61 59 167 59q38 0 71.5 -6.5t59 -24t40.5 -47.5t15 -76v-347h-44v54h-1z
M205 237q-60 0 -93.5 -24.5t-33.5 -75.5t37.5 -78t100.5 -27q24 0 52 4.5t52.5 16t40.5 32t16 53.5v99h-172zM282 575q-7 -4 -13.5 -6.5t-13.5 -5.5l-99 146q12 5 23.5 9.5t24.5 9.5z" />
    <glyph glyph-name="acircumflex" unicode="&#xe2;" horiz-adv-x="474" 
d="M376 54q-12 -18 -29.5 -30t-39.5 -18.5t-47 -9t-50 -2.5q-36 0 -67.5 8.5t-55 26t-37.5 44t-14 62.5q0 60 40 99.5t119 39.5h182v71q0 55 -32 85t-111 30q-37 0 -72.5 -10t-65.5 -38l-28 30q61 59 167 59q38 0 71.5 -6.5t59 -24t40.5 -47.5t15 -76v-347h-44v54h-1z
M205 237q-60 0 -93.5 -24.5t-33.5 -75.5t37.5 -78t100.5 -27q24 0 52 4.5t52.5 16t40.5 32t16 53.5v99h-172zM241 653q-32 -25 -63 -49t-63 -48l-10.5 10.5l-10.5 10.5l131 124h37l126 -124l-21 -20z" />
    <glyph glyph-name="adieresis" unicode="&#xe4;" horiz-adv-x="474" 
d="M376 54q-12 -18 -29.5 -30t-39.5 -18.5t-47 -9t-50 -2.5q-36 0 -67.5 8.5t-55 26t-37.5 44t-14 62.5q0 60 40 99.5t119 39.5h182v71q0 55 -32 85t-111 30q-37 0 -72.5 -10t-65.5 -38l-28 30q61 59 167 59q38 0 71.5 -6.5t59 -24t40.5 -47.5t15 -76v-347h-44v54h-1z
M205 237q-60 0 -93.5 -24.5t-33.5 -75.5t37.5 -78t100.5 -27q24 0 52 4.5t52.5 16t40.5 32t16 53.5v99h-172zM315 661h54v-53h-54v53zM126 661h54v-53h-54v53z" />
    <glyph glyph-name="tonos" unicode="&#x384;" horiz-adv-x="482" 
d="M206 575l78 154l49 -19l-100 -147z" />
    <glyph glyph-name="dieresis" unicode="&#xa8;" horiz-adv-x="482" 
d="M311 608v54h55v-54h-55zM122 608v54h54v-54h-54z" />
    <glyph glyph-name="ccedilla" unicode="&#xe7;" horiz-adv-x="414" 
d="M247 -6l-12 -37q29 -2 47 -10.5t28.5 -19.5t14.5 -23.5t4 -23.5t-5 -23.5t-16 -23.5t-28 -18t-42 -7q-9 0 -31.5 2t-48.5 11l10 25q19 -7 36.5 -9.5t31.5 -2.5q9 0 19 3t18.5 8.5t14 14.5t5.5 21q0 23 -22.5 36.5t-56.5 13.5q-5 0 -7 3t-7 5l19 57q-38 4 -72 20t-60 46
t-41.5 76t-15.5 109q0 70 19 118.5t49.5 78.5t70 43.5t81.5 13.5q43 0 79 -15t65 -40l-27 -32q-21 19 -50.5 32.5t-61.5 13.5q-87 0 -134.5 -54.5t-47.5 -158.5t47 -159.5t135 -55.5q33 0 62.5 15t49.5 32q7 -8 13.5 -15.5t14.5 -15.5q-29 -25 -65.5 -39.5t-79.5 -14.5h-3z
" />
    <glyph glyph-name="eacute" unicode="&#xe9;" horiz-adv-x="474" 
d="M85 241q-1 -42 7.5 -80.5t28.5 -67t53 -45.5t81 -17q30 0 61.5 11t57.5 30l27 -30q-32 -26 -68.5 -37.5t-75.5 -11.5q-38 0 -76 10t-68.5 38t-50 77t-19.5 127q0 75 18 124.5t47 79t64 41t70 11.5q49 0 85.5 -17.5t61 -47.5t37 -71.5t12.5 -89.5v-34h-353zM392 277
q-3 94 -42.5 139.5t-106.5 45.5q-71 0 -111.5 -48t-45.5 -137h306zM209 575l78 154l49 -19l-100 -147z" />
    <glyph glyph-name="egrave" unicode="&#xe8;" horiz-adv-x="474" 
d="M85 241q-1 -42 7.5 -80.5t28.5 -67t53 -45.5t81 -17q30 0 61.5 11t57.5 30l27 -30q-32 -26 -68.5 -37.5t-75.5 -11.5q-38 0 -76 10t-68.5 38t-50 77t-19.5 127q0 75 18 124.5t47 79t64 41t70 11.5q49 0 85.5 -17.5t61 -47.5t37 -71.5t12.5 -89.5v-34h-353zM392 277
q-3 94 -42.5 139.5t-106.5 45.5q-71 0 -111.5 -48t-45.5 -137h306zM257 563l-99 147l48 19l79 -154z" />
    <glyph glyph-name="ecircumflex" unicode="&#xea;" horiz-adv-x="474" 
d="M85 241q-1 -42 7.5 -80.5t28.5 -67t53 -45.5t81 -17q30 0 61.5 11t57.5 30l27 -30q-32 -26 -68.5 -37.5t-75.5 -11.5q-38 0 -76 10t-68.5 38t-50 77t-19.5 127q0 75 18 124.5t47 79t64 41t70 11.5q49 0 85.5 -17.5t61 -47.5t37 -71.5t12.5 -89.5v-34h-353zM392 277
q-3 94 -42.5 139.5t-106.5 45.5q-71 0 -111.5 -48t-45.5 -137h306zM242 654l-127 -98l-21 21l132 124h37l126 -123l-21 -21z" />
    <glyph glyph-name="edieresis" unicode="&#xeb;" horiz-adv-x="474" 
d="M85 241q-1 -42 7.5 -80.5t28.5 -67t53 -45.5t81 -17q30 0 61.5 11t57.5 30l27 -30q-32 -26 -68.5 -37.5t-75.5 -11.5q-38 0 -76 10t-68.5 38t-50 77t-19.5 127q0 75 18 124.5t47 79t64 41t70 11.5q49 0 85.5 -17.5t61 -47.5t37 -71.5t12.5 -89.5v-34h-353zM392 277
q-3 94 -42.5 139.5t-106.5 45.5q-71 0 -111.5 -48t-45.5 -137h306zM314 608v54h55v-54h-55zM125 608v54h55v-54h-55z" />
    <glyph glyph-name="sterling" unicode="&#xa3;" horiz-adv-x="467" 
d="M34 37q40 53 62.5 117t22.5 149h-86v34h79q-4 27 -12 51t-16.5 47.5t-14.5 46.5t-6 48q0 33 10.5 63.5t32.5 54t54.5 37.5t76.5 14q66 0 107.5 -20.5t73.5 -65.5l-37 -24q-28 39 -64 55.5t-83 16.5q-19 0 -41 -6.5t-40.5 -21.5t-31 -40.5t-12.5 -62.5q0 -21 5.5 -42
t13.5 -44.5t16 -49.5t14 -57h150v-34h-147q-1 -71 -16 -136.5t-60 -125.5h347v-41h-398v37z" />
    <glyph glyph-name="trademark" unicode="&#x2122;" horiz-adv-x="806" 
d="M696 311l-1 305l-128 -248h-28l-129 248v-305h-35v384h35l144 -280q13 24 32.5 61.5t40 78t40 78.5t31.5 62h32v-384h-34zM195 661v-350h-35v350h-120v35h275v-35h-120z" />
    <glyph glyph-name="icircumflex" unicode="&#xee;" horiz-adv-x="255" 
d="M105 0v496h46v-496h-46zM128 654l-127 -98l-21 21l131 124h37l127 -123l-22 -21z" />
    <glyph glyph-name="idieresis" unicode="&#xef;" horiz-adv-x="204" 
d="M80 0v496h46v-496h-46zM169 608v54h55v-54h-55zM-20 608v54h55v-54h-55z" />
    <glyph glyph-name="bullet" unicode="&#x2022;" horiz-adv-x="354" 
d="M180 358q19 0 35.5 -7.5t29 -20t19.5 -29.5t7 -36t-7 -36t-19.5 -29.5t-29 -19.5t-35.5 -7t-36 7t-29.5 19.5t-19.5 29.5t-7 36t7 36t19.5 29.5t29.5 20t36 7.5z" />
    <glyph glyph-name="ocircumflex" unicode="&#xf4;" horiz-adv-x="489" 
d="M244 654l-126 -98l-21 21l131 124h37l126 -123l-21 -21zM249 501q54 0 94.5 -21t65.5 -59q17 -28 26 -68.5t9 -108.5t-14 -111.5t-35 -70.5q-27 -35 -66 -51.5t-88 -16.5q-92 0 -142 56q-27 31 -41 78.5t-14 120.5q0 69 15 112.5t39 72.5q26 31 63.5 49t87.5 18zM247 462
q-38 0 -67 -15.5t-49 -40.5t-31.5 -61t-11.5 -98q0 -63 11.5 -100t31.5 -62t48 -38.5t65 -13.5q38 0 68.5 16t50.5 45q16 23 26.5 56t10.5 95q0 61 -7.5 94t-19.5 53q-20 33 -52 51.5t-74 18.5z" />
    <glyph glyph-name="odieresis" unicode="&#xf6;" horiz-adv-x="489" 
d="M310 608v54h55v-54h-55zM121 608v54h55v-54h-55zM249 501q54 0 94.5 -21t65.5 -59q17 -28 26 -68.5t9 -108.5t-14 -111.5t-35 -70.5q-27 -35 -66 -51.5t-88 -16.5q-92 0 -142 56q-27 31 -41 78.5t-14 120.5q0 69 15 112.5t39 72.5q26 31 63.5 49t87.5 18zM247 462
q-38 0 -67 -15.5t-49 -40.5t-31.5 -61t-11.5 -98q0 -63 11.5 -100t31.5 -62t48 -38.5t65 -13.5q38 0 68.5 16t50.5 45q16 23 26.5 56t10.5 95q0 61 -7.5 94t-19.5 53q-20 33 -52 51.5t-74 18.5z" />
    <glyph glyph-name="sfthyphen" unicode="&#xad;" horiz-adv-x="370" 
d="M53 239v42h264v-42h-264z" />
    <glyph glyph-name="ugrave" unicode="&#xf9;" horiz-adv-x="517" 
d="M402 0v80h-2q-12 -24 -30 -40t-38.5 -26t-42.5 -14.5t-43 -4.5q-38 0 -71 11.5t-57.5 33t-38.5 52.5t-14 70v334h44v-317q0 -70 41 -107t105 -37q32 0 59 11.5t47 32.5t31 50t11 64v303h42v-496h-43zM269 563l-100 147l49 19l78 -154z" />
    <glyph glyph-name="ucircumflex" unicode="&#xfb;" horiz-adv-x="517" 
d="M402 0v80h-2q-12 -24 -30 -40t-38.5 -26t-42.5 -14.5t-43 -4.5q-38 0 -71 11.5t-57.5 33t-38.5 52.5t-14 70v334h44v-317q0 -70 41 -107t105 -37q32 0 59 11.5t47 32.5t31 50t11 64v303h42v-496h-43zM257 654l-127 -98l-21 21l131 124h37l127 -123l-22 -21z" />
    <glyph glyph-name="udieresis" unicode="&#xfc;" horiz-adv-x="517" 
d="M402 0v80h-2q-12 -24 -30 -40t-38.5 -26t-42.5 -14.5t-43 -4.5q-38 0 -71 11.5t-57.5 33t-38.5 52.5t-14 70v334h44v-317q0 -70 41 -107t105 -37q32 0 59 11.5t47 32.5t31 50t11 64v303h42v-496h-43zM318 608v54h55v-54h-55zM129 608v54h55v-54h-55z" />
    <glyph glyph-name="dagger" unicode="&#x2020;" horiz-adv-x="447" 
d="M246 411v-605h-46v605h-177v41h177v244h46v-244h178v-41h-178z" />
    <glyph glyph-name="Gamma" unicode="&#x393;" horiz-adv-x="507" 
d="M127 653v-653h-48v696h422v-43h-374z" />
    <glyph glyph-name="Delta" unicode="&#x394;" horiz-adv-x="585" 
d="M267 696h49q64 -175 127.5 -348t126.5 -348h-556zM290 643l-78 -227q-4 -11 -14 -40t-23.5 -67t-28.5 -80.5t-28.5 -80.5t-24 -67t-14.5 -40h426l-133 376q-20 57 -39.5 113t-39.5 113h-3z" />
    <glyph glyph-name="Delta" unicode="&#x2206;" horiz-adv-x="585" 
d="M267 696h49q64 -175 127.5 -348t126.5 -348h-556zM290 643l-78 -227q-4 -11 -14 -40t-23.5 -67t-28.5 -80.5t-28.5 -80.5t-24 -67t-14.5 -40h426l-133 376q-20 57 -39.5 113t-39.5 113h-3z" />
    <glyph glyph-name="Theta" unicode="&#x398;" horiz-adv-x="566" 
d="M283 701q56 0 100 -18.5t75 -51.5t47 -78.5t16 -99.5v-207q0 -58 -16.5 -105t-47.5 -80t-75 -50.5t-99 -17.5q-62 0 -107 20.5t-74.5 55t-44 80.5t-14.5 97v207q0 50 15 95t45 79t75 54t105 20zM284 656q-49 0 -85.5 -16.5t-60.5 -44.5t-36 -65.5t-12 -78.5v-206
q0 -41 12 -78.5t36 -66.5t60.5 -46t85.5 -17q44 0 79 16t59.5 44t37.5 67t13 85v202q0 43 -13 80.5t-37 65t-59 43.5t-80 16zM136 376h294v-41h-294v41z" />
    <glyph glyph-name="Lambda" unicode="&#x39b;" horiz-adv-x="585" 
d="M519 0q-7 20 -22 62.5t-34.5 98t-42.5 119.5t-45.5 128t-44 123.5t-37.5 105.5h-3q-37 -105 -63 -179t-45 -126t-31 -86.5t-21 -58.5l-66 -187h-50l253 696h49q64 -175 127.5 -348t126.5 -348h-51z" />
    <glyph glyph-name="Xi" unicode="&#x39e;" horiz-adv-x="554" 
d="M58 653v43h433v-43h-433zM116 332v41h318v-41h-318zM58 0v43h433v-43h-433z" />
    <glyph glyph-name="Pi" unicode="&#x3a0;" horiz-adv-x="625" 
d="M499 0v655h-374v-655h-46v696h467v-696h-47z" />
    <glyph glyph-name="germandbls" unicode="&#xdf;" horiz-adv-x="509" 
d="M457 228q0 -58 -13.5 -101t-37.5 -71t-57.5 -42t-73.5 -14h-30v37h26q39 0 65.5 15.5t43 41.5t24 61t7.5 74q0 36 -10 66t-27.5 51.5t-42.5 33.5t-55 12h-16v38h16q27 0 48 12t35 30t21 40t7 42q0 22 -7 45.5t-23 42.5t-42 31t-63 12q-42 0 -68.5 -15.5t-41.5 -39
t-21 -50.5t-6 -51v-529h-43v533q0 85 47 137.5t138 52.5q42 0 74.5 -14t54.5 -36.5t33.5 -51t11.5 -58.5q0 -19 -4 -40.5t-14 -41.5t-26 -37.5t-40 -28.5v-2q30 -9 50.5 -27.5t34 -43.5t19.5 -54.5t6 -59.5z" />
    <glyph glyph-name="registered" unicode="&#xae;" horiz-adv-x="546" 
d="M479 492q0 -45 -15.5 -83.5t-43 -66.5t-65 -44t-80.5 -16t-80 16t-64.5 44t-43.5 66.5t-16 83.5t16 84t43.5 67t64.5 44t80 16t80.5 -16t65 -44t43 -67t15.5 -84zM452 492q0 40 -13.5 74t-37 59.5t-56 40t-70.5 14.5t-70 -14.5t-55.5 -40t-37 -59.5t-13.5 -74t13.5 -74
t37 -59t55.5 -39.5t70 -14.5t70.5 14.5t56 39.5t37 59t13.5 74zM288 479h-61v-109h-26v244h97q32 0 52.5 -17.5t20.5 -47.5q0 -26 -15 -44t-41 -23l59 -112h-30zM227 591v-88h66q23 0 37.5 11.5t14.5 34.5q0 22 -15.5 32t-35.5 10h-67z" />
    <glyph glyph-name="copyright" unicode="&#xa9;" horiz-adv-x="780" 
d="M531 210q-17 -40 -52 -63t-82 -23q-38 0 -65.5 12.5t-45.5 33.5t-27 48.5t-9 58.5v122q0 30 9.5 57.5t28 48.5t46 33t63.5 12q47 0 81 -22t51 -59l-34 -17q-13 27 -38 44.5t-59 17.5q-28 0 -49 -9.5t-34.5 -25.5t-20.5 -37t-7 -45v-120q0 -23 7 -44.5t20.5 -38t34.5 -26
t49 -9.5q35 0 59.5 18t38.5 49zM393 -10q-73 0 -135.5 26.5t-108 74t-71.5 111.5t-26 139t26 139.5t72 112t108.5 74t134.5 26.5q73 0 135.5 -26.5t108.5 -74t72.5 -112t26.5 -139.5t-26.5 -139t-72.5 -111.5t-108.5 -74t-135.5 -26.5zM393 658q-64 0 -119.5 -24.5t-96 -67
t-64 -100.5t-23.5 -125q0 -66 23.5 -124t64 -101t96 -67.5t119.5 -24.5q65 0 120.5 24.5t96.5 67.5t64.5 101t23.5 124q0 67 -23.5 125t-64.5 100.5t-96.5 67t-120.5 24.5z" />
    <glyph glyph-name="Sigma" unicode="&#x3a3;" horiz-adv-x="484" 
d="M33 0v42l188 319l-186 295v40h409v-41h-357l188 -294l-189 -318h369v-43h-422z" />
    <glyph glyph-name="Iotadieresis" unicode="&#x3aa;" horiz-adv-x="212" 
d="M83 0v696h46v-696h-46zM169 759v53h54v-53h-54zM-10 759v53h55v-53h-55z" />
    <glyph glyph-name="section" unicode="&#xa7;" horiz-adv-x="447" 
d="M410 281q0 -31 -12.5 -60.5t-38.5 -52.5q37 -43 37 -96q0 -33 -12 -60.5t-35 -47.5t-57 -31.5t-77 -11.5q-46 0 -90.5 18.5t-72.5 46.5l26 28q31 -27 66 -40.5t70 -13.5q60 0 99.5 26t39.5 87q0 25 -10.5 43.5t-29.5 33t-45 26t-56 22.5q-43 15 -73 30t-49.5 32.5
t-28.5 40t-9 52.5q0 29 15 58t42 52q-18 17 -31 42t-13 54q0 65 43.5 104.5t115.5 39.5q46 0 85 -13.5t69 -38.5l-26 -34q-30 24 -62 35t-67 11q-53 0 -84.5 -27t-31.5 -72q0 -27 13.5 -46t35 -33t48.5 -24t53 -20q27 -9 54.5 -22.5t49.5 -32t35.5 -44.5t13.5 -61zM369 281
q0 27 -10.5 46t-30 33.5t-46.5 26t-59 22.5q-21 8 -39.5 15.5t-38.5 18.5q-23 -17 -38 -40.5t-15 -47.5q0 -29 13 -47.5t32.5 -31t42 -21t42.5 -16.5q27 -11 55 -22.5t49 -23.5q23 17 33 39.5t10 48.5z" />
    <glyph glyph-name="degree" unicode="&#xb0;" horiz-adv-x="362" 
d="M304 577q0 -26 -9.5 -48t-26 -38.5t-39 -26t-48.5 -9.5t-48 9.5t-38.5 26t-26 38.5t-9.5 48q0 25 9.5 47.5t26 39t39 26t47.5 9.5q26 0 48.5 -9.5t39 -26t26 -39t9.5 -47.5zM271 577q0 38 -26 64.5t-64 26.5t-63.5 -26.5t-25.5 -64.5t25.5 -64t63.5 -26t64 25t26 65z" />
    <glyph glyph-name="periodcentered" unicode="&#xb7;" horiz-adv-x="174" 
d="M58 232v65h59v-65h-59z" />
    <glyph glyph-name="Alpha" unicode="&#x391;" horiz-adv-x="585" 
d="M459 170h-335l-60 -170h-50l253 696h49q64 -175 127.5 -348t126.5 -348h-51zM290 639q-4 -11 -15.5 -43t-26.5 -75.5t-32.5 -92.5t-33 -92.5t-27.5 -77.5t-17 -47h307l-90 254q-16 44 -31.5 87t-30.5 87h-3z" />
    <glyph glyph-name="plusminus" unicode="&#xb1;" horiz-adv-x="467" 
d="M252 271v-189h-37v189h-186v37h186v187h37v-187h186v-37h-186zM29 0v37h411v-37h-411z" />
    <glyph glyph-name="yen" unicode="&#xa5;" horiz-adv-x="467" 
d="M429 194h-174v-194h-43v194h-172v34h172v58q-2 7 -5.5 13t-6.5 13h-160v33h144l-87.5 175t-87.5 176h47l177 -365h2l175 365h46q-43 -89 -85.5 -176t-86.5 -175h145v-33h-161l-13 -26v-58h174v-34z" />
    <glyph glyph-name="Beta" unicode="&#x392;" horiz-adv-x="585" 
d="M546 186q0 -42 -14.5 -76.5t-40 -59t-59.5 -37.5t-73 -13h-280v696h253q48 0 85 -13.5t62 -37.5t38 -56.5t13 -69.5q0 -20 -5.5 -43t-19 -45t-36 -41t-56.5 -29v-2q36 -7 61.5 -25t41 -42.5t23 -52.5t7.5 -53zM125 655v-277h199q73 0 116 38t43 101q0 60 -41 99t-118 39
h-199zM125 337v-294h214q80 0 119 42t39 105q0 29 -9.5 55.5t-29.5 47t-50 32.5t-70 12h-213z" />
    <glyph glyph-name="Epsilon" unicode="&#x395;" horiz-adv-x="528" 
d="M79 0v696h422v-43h-375v-279h320v-42h-320v-289h375v-43h-422z" />
    <glyph glyph-name="Zeta" unicode="&#x396;" horiz-adv-x="488" 
d="M33 0v42l370 613h-354v41h406v-40l-370 -613h370v-43h-422z" />
    <glyph glyph-name="Eta" unicode="&#x397;" horiz-adv-x="625" 
d="M499 0v332h-374v-332h-46v696h46v-322h374v322h47v-696h-47z" />
    <glyph glyph-name="Iota" unicode="&#x399;" horiz-adv-x="212" 
d="M83 0v696h46v-696h-46z" />
    <glyph glyph-name="Kappa" unicode="&#x39a;" horiz-adv-x="606" 
d="M528 0q-58 99 -116 196.5t-117 196.5l-170 -209v-184h-47v696h47v-444h1q44 54 86 106t86 105l191 233h52l-216 -266q65 -109 128 -215.5t128 -214.5h-53v0z" />
    <glyph glyph-name="Mu" unicode="&#x39c;" horiz-adv-x="741" 
d="M626 591h-1l-104 -220l-126 -262h-40l-126 264l-105 218q0 -1 -1 -1v-590h-45v696h47l156 -328q24 -50 47.5 -99.5t46.5 -100.5h1l251 528h45v-696h-46v591z" />
    <glyph glyph-name="Phi" unicode="&#x3a6;" horiz-adv-x="726" 
d="M685 356q0 -75 -22.5 -130t-62.5 -91.5t-94.5 -55t-118.5 -21.5v-58h-46v58q-76 3 -131.5 26t-92 62t-54 92.5t-17.5 117.5q0 50 12 103t44 96.5t89.5 73t149.5 33.5v34h46v-33q80 -2 136.5 -25.5t92.5 -64t52.5 -96t16.5 -121.5zM387 97q54 1 100 15.5t80.5 45.5
t54 79.5t19.5 118.5q0 68 -18 118.5t-51 83.5t-80 49.5t-105 16.5v-527zM341 625q-127 -7 -189.5 -72.5t-62.5 -196.5q1 -59 15.5 -105.5t44.5 -79.5t77.5 -52t114.5 -22v528z" />
    <glyph glyph-name="Upsilondieresis" unicode="&#x3ab;" horiz-adv-x="475" 
d="M259 0h-44v288l-209 408h49q7 -13 21.5 -42l33 -66l39 -78t38 -77t31.5 -63.5t19 -38.5q19 37 37 73.5t36 74.5q28 54 55.5 108t53.5 109h48q-53 -103 -104.5 -204t-103.5 -204v-288zM299 811h54v-53h-54v53zM120 811h54v-53h-54v53z" />
    <glyph glyph-name="Psi" unicode="&#x3a8;" horiz-adv-x="718" 
d="M651 389q0 -53 -18 -96.5t-52.5 -75t-84.5 -49.5t-114 -21v-147h-46v148q-65 2 -115 21t-84 52t-52 78.5t-18 100.5v296h45v-292q0 -46 15 -84.5t44 -66t70.5 -44t94.5 -17.5v504h46v-503q103 1 162.5 53t59.5 147v303h47v-307v0z" />
    <glyph glyph-name="Omega" unicode="&#x3a9;" horiz-adv-x="566" 
d="M147 42q-48 23 -76.5 82t-28.5 133v196q0 50 15 95t45 79t75 54t105 20q56 0 100 -18.5t75 -51.5t47 -78.5t16 -99.5v-196q0 -74 -25.5 -129t-76.5 -85q0 -1 1 -1h117v-42h-191v51q61 20 94 75t33 130v195q0 43 -12.5 81t-36.5 65.5t-59.5 43.5t-80.5 16
q-50 0 -86.5 -16.5t-60.5 -45t-35.5 -65.5t-11.5 -79v-195q0 -33 8 -65.5t24 -60.5t40.5 -49t56.5 -31v-50h-191v42h120v0z" />
    <glyph glyph-name="alphatonos" unicode="&#x3ac;" horiz-adv-x="500" 
d="M55 242q0 52 9.5 99.5t31.5 83t58 56.5t90 21q19 0 40 -3.5t40.5 -13.5t37 -28t31.5 -46l1 1v84h44v-496h-44v91h-1q-20 -38 -57.5 -67t-94.5 -29q-54 0 -90 21.5t-57 56.5t-30 79.5t-9 89.5zM101 248q0 -36 5.5 -73.5t22 -68t45 -50.5t75.5 -20q41 0 69 18t45 48
t24 68.5t7 79.5q0 32 -5 69t-20.5 69t-44 53t-75.5 21q-49 0 -78 -21t-44.5 -52.5t-20.5 -69t-5 -71.5zM214 575l79 154l48 -19l-99 -147z" />
    <glyph glyph-name="Nu" unicode="&#x39d;" horiz-adv-x="663" 
d="M276 392q-38 57 -74.5 112.5t-73.5 112.5q-1 0 -1 -1v-616h-47v696h48l258 -388q5 -7 16.5 -24.5t27 -41t32.5 -50t32.5 -50t27 -41t15.5 -24.5q1 0 1 1v618h46v-696h-47z" />
    <glyph glyph-name="Omicron" unicode="&#x39f;" horiz-adv-x="571" 
d="M286 701q56 0 100 -18.5t75 -51.5t47 -78.5t16 -99.5v-207q0 -58 -16.5 -105t-47.5 -80t-75 -50.5t-99 -17.5q-62 0 -107.5 20.5t-75 55t-44 80.5t-14.5 97v207q0 50 15 95t45 79t75 54t106 20zM287 657q-49 0 -85.5 -16.5t-60.5 -45t-36 -65.5t-12 -79v-207
q0 -41 12 -78.5t36 -66.5t60.5 -46t85.5 -17q44 0 79 16t59.5 44t37.5 67t13 85v203q0 43 -13 81t-37 65.5t-59 43.5t-80 16z" />
    <glyph glyph-name="Rho" unicode="&#x3a1;" horiz-adv-x="555" 
d="M544 494q0 -35 -12.5 -69.5t-38 -63t-64.5 -46t-91 -17.5h-211v-298h-47v696h248q42 0 81 -11t69 -35t48 -62.5t18 -93.5zM494 497q0 39 -13 68.5t-35.5 49t-53 29t-64.5 9.5h-201v-311h205q43 0 74 13.5t50.5 35t28.5 49.5t9 57z" />
    <glyph glyph-name="Tau" unicode="&#x3a4;" horiz-adv-x="478" 
d="M264 655v-655h-46v655h-210v41h463v-41h-207z" />
    <glyph glyph-name="guillemotleft" unicode="&#xab;" horiz-adv-x="407" 
d="M314 46l-117 173l118 172h44l-115 -172l115 -173h-45zM178 46l-116 173l118 172h44l-115 -172l115 -173h-46z" />
    <glyph glyph-name="guillemotright" unicode="&#xbb;" horiz-adv-x="407" 
d="M64 46l115 173l-116 172h44l118 -172l-117 -173h-44zM198 46l115 173l-115 172h44l118 -172l-117 -173h-45z" />
    <glyph glyph-name="ellipsis" unicode="&#x2026;" horiz-adv-x="575" 
d="M60 0v65h60v-65h-60zM451 0v65h60v-65h-60zM260 0v65h60v-65h-60z" />
    <glyph glyph-name="Upsilon" unicode="&#x3a5;" horiz-adv-x="475" 
d="M259 0h-44v288l-209 408h49q7 -13 21.5 -42l33 -66l39 -78t38 -77t31.5 -63.5t19 -38.5q19 37 37 73.5t36 74.5q28 54 55.5 108t53.5 109h48q-53 -103 -104.5 -204t-103.5 -204v-288z" />
    <glyph glyph-name="Chi" unicode="&#x3a7;" horiz-adv-x="500" 
d="M437 0l-187 318l-187 -318h-52l213 357l-198 339h52l172 -300l172 300h52l-199 -339l213 -357h-51z" />
    <glyph glyph-name="Alphatonos" unicode="&#x386;" horiz-adv-x="585" 
d="M459 170h-335l-60 -170h-50l253 696h49q64 -175 127.5 -348t126.5 -348h-51zM290 639q-4 -11 -15.5 -43t-26.5 -75.5t-32.5 -92.5t-33 -92.5t-27.5 -77.5t-17 -47h307l-90 254q-16 44 -31.5 87t-30.5 87h-3zM-12 568q19 38 38.5 76.5t39.5 76.5q12 -5 24 -9.5t24 -8.5
l-100 -147z" />
    <glyph glyph-name="Epsilontonos" unicode="&#x388;" horiz-adv-x="528" 
d="M79 0v696h422v-43h-375v-279h320v-42h-320v-289h375v-43h-422zM-101 568l79 154l48 -19l-99 -147z" />
    <glyph glyph-name="oe" unicode="&#x153;" horiz-adv-x="829" 
d="M442 241q0 -30 3.5 -57.5t12.5 -51.5q19 -48 58.5 -73.5t93.5 -25.5q32 0 63.5 10t57.5 30l27 -32q-32 -25 -68.5 -36t-75.5 -11q-28 0 -57 5t-54.5 19t-47 38.5t-34.5 63.5q-8 -25 -18.5 -43t-23.5 -31q-51 -52 -140 -52q-83 0 -133 45q-32 32 -48.5 81t-16.5 129
q0 78 18.5 127.5t53.5 78.5q26 21 57.5 33t72.5 12q109 0 161 -80q5 -8 10 -19.5t8 -26.5q13 36 33 60.5t43.5 39.5t49.5 21t51 6q49 0 86 -17.5t61.5 -48t36.5 -71.5t12 -89v-34h-353zM242 461q-35 0 -62 -12t-47 -33q-23 -27 -35.5 -65.5t-12.5 -103.5q0 -84 20 -128
q18 -40 52 -63.5t84 -23.5q34 0 61.5 11.5t47.5 31.5q11 11 20 26t15 35q7 21 9.5 47.5t2.5 61.5q0 61 -7.5 94t-20.5 53q-20 33 -52.5 51t-74.5 18zM600 461q-71 0 -111.5 -47.5t-45.5 -136.5h306q-3 94 -42.5 139t-106.5 45z" />
    <glyph glyph-name="endash" unicode="&#x2013;" horiz-adv-x="493" 
d="M20 243v43h453v-43h-453z" />
    <glyph glyph-name="afii00208" unicode="&#x2015;" horiz-adv-x="993" 
d="M20 243v43h953v-43h-953z" />
    <glyph glyph-name="quotedblleft" unicode="&#x201c;" horiz-adv-x="251" 
d="M110 719l-26 -100h16v-66h-60v68q11 24 20.5 48.5t20.5 49.5h29zM210 719l-26 -100h16v-66h-60v68q11 24 21 48.5t21 49.5h28z" />
    <glyph glyph-name="quotedblright" unicode="&#x201d;" horiz-adv-x="251" 
d="M148 553l26 100h-16v66h60v-68q-11 -24 -20.5 -48.5t-20.5 -49.5h-29zM48 553l26 100h-16v66h60v-68q-11 -24 -21 -48.5t-21 -49.5h-28z" />
    <glyph glyph-name="quoteleft" unicode="&#x2018;" horiz-adv-x="189" 
d="M133 719l-26 -100h16v-66h-60v68q11 24 21 48.5t21 49.5h28z" />
    <glyph glyph-name="quoteright" unicode="&#x2019;" horiz-adv-x="189" 
d="M63 554l26 100h-16v66h60v-68l-42 -98h-28z" />
    <glyph glyph-name="divide" unicode="&#xf7;" horiz-adv-x="467" 
d="M274 448q0 -16 -11 -27.5t-27 -11.5q-17 0 -28 11.5t-11 27.5q0 17 11.5 27t27.5 10q15 0 26.5 -10t11.5 -27zM25 261v37h416v-37h-416zM237 147q14 0 25.5 -10t11.5 -27q0 -16 -11 -27t-27 -11q-17 0 -28 11t-11 27q0 17 12 27t28 10z" />
    <glyph glyph-name="Etatonos" unicode="&#x389;" horiz-adv-x="625" 
d="M499 0v332h-374v-332h-46v696h46v-322h374v322h47v-696h-47zM-97 568l79 154l48 -19l-99 -147z" />
    <glyph glyph-name="Iotatonos" unicode="&#x38a;" horiz-adv-x="212" 
d="M83 0v696h46v-696h-46zM-102 568l78 154l49 -19l-100 -147z" />
    <glyph glyph-name="Omicrontonos" unicode="&#x38c;" horiz-adv-x="571" 
d="M286 701q56 0 100 -18.5t75 -51.5t47 -78.5t16 -99.5v-207q0 -58 -16.5 -105t-47.5 -80t-75 -50.5t-99 -17.5q-62 0 -107.5 20.5t-75 55t-44 80.5t-14.5 97v207q0 50 15 95t45 79t75 54t106 20zM287 657q-49 0 -85.5 -16.5t-60.5 -45t-36 -65.5t-12 -79v-207
q0 -41 12 -78.5t36 -66.5t60.5 -46t85.5 -17q44 0 79 16t59.5 44t37.5 67t13 85v203q0 43 -13 81t-37 65.5t-59 43.5t-80 16zM-96 568l78 154l49 -19l-100 -147z" />
    <glyph glyph-name="Upsilontonos" unicode="&#x38e;" horiz-adv-x="475" 
d="M259 0h-44v288l-209 408h49q7 -13 21.5 -42l33 -66l39 -78t38 -77t31.5 -63.5t19 -38.5q19 37 37 73.5t36 74.5q28 54 55.5 108t53.5 109h48q-53 -103 -104.5 -204t-103.5 -204v-288zM-144 568l79 153q12 -5 24 -9.5t24 -8.5l-99 -147z" />
    <glyph glyph-name="epsilontonos" unicode="&#x3ad;" horiz-adv-x="427" 
d="M145 261q-27 7 -43.5 21t-24.5 29.5t-10.5 30.5t-2.5 26q0 24 10 48t32 42.5t56 30.5t82 12q44 0 84.5 -13.5t70.5 -38.5l-27 -32q-25 20 -60.5 32t-68.5 12q-28 0 -53 -6t-43.5 -18t-29 -29.5t-10.5 -40.5q0 -43 32.5 -65t87.5 -22h64v-37h-67q-24 0 -47 -7t-40.5 -20.5
t-28.5 -33t-11 -44.5q0 -26 12 -45t33 -32t48.5 -19t58.5 -6q15 0 32 3t34 8.5t33 13.5t28 18l27 -32q-31 -25 -73 -38t-87 -13q-94 0 -142 40t-48 105q0 10 3.5 26.5t14 34t28 33t46.5 24.5v2zM199 575l79 154l48 -19l-99 -147z" />
    <glyph glyph-name="etatonos" unicode="&#x3ae;" horiz-adv-x="508" 
d="M400 0v317q0 69 -35 105.5t-105 36.5q-32 0 -60 -11.5t-48.5 -32.5t-32.5 -50.5t-12 -64.5v-300h-43v495h43v-85h2q12 24 30.5 41t40.5 28t45 16t44 5q84 0 129 -43.5t45 -124.5v-332h-43zM191 575l78 154l49 -19l-100 -147z" />
    <glyph glyph-name="iotatonos" unicode="&#x3af;" horiz-adv-x="206" 
d="M168 -2h-15q-47 0 -63 23.5t-16 68.5v404h43v-406q0 -30 10.5 -41t36.5 -11h4v-38zM73 575l78 154l49 -19l-100 -147z" />
    <glyph glyph-name="omicrontonos" unicode="&#x3cc;" horiz-adv-x="489" 
d="M210 575l79 154l48 -19l-99 -147zM249 501q54 0 94.5 -21t65.5 -59q17 -28 26 -68.5t9 -108.5t-14 -111.5t-35 -70.5q-27 -35 -66 -51.5t-88 -16.5q-92 0 -142 56q-27 31 -41 78.5t-14 120.5q0 69 15 112.5t39 72.5q26 31 63.5 49t87.5 18zM247 462q-38 0 -67 -15.5
t-49 -40.5t-31.5 -61t-11.5 -98q0 -63 11.5 -100t31.5 -62t48 -38.5t65 -13.5q38 0 68.5 16t50.5 45q16 23 26.5 56t10.5 95q0 61 -7.5 94t-19.5 53q-20 33 -52 51.5t-74 18.5z" />
    <glyph glyph-name="Omegatonos" unicode="&#x38f;" horiz-adv-x="566" 
d="M147 42q-48 23 -76.5 82t-28.5 133v196q0 50 15 95t45 79t75 54t105 20q56 0 100 -18.5t75 -51.5t47 -78.5t16 -99.5v-196q0 -74 -25.5 -129t-76.5 -85q0 -1 1 -1h117v-42h-191v51q61 20 94 75t33 130v195q0 43 -12.5 81t-36.5 65.5t-59.5 43.5t-80.5 16
q-50 0 -86.5 -16.5t-60.5 -45t-35.5 -65.5t-11.5 -79v-195q0 -33 8 -65.5t24 -60.5t40.5 -49t56.5 -31v-50h-191v42h120zM-97 568l79 153q12 -5 23 -9.5t24 -8.5q-24 -37 -49 -73.5t-50 -73.5z" />
    <glyph glyph-name="upsilontonos" unicode="&#x3cd;" horiz-adv-x="522" 
d="M452 178q0 -90 -52.5 -137.5t-138.5 -47.5q-43 0 -78 13.5t-60 37.5t-38.5 57.5t-13.5 74.5v319h43v-302q0 -71 39.5 -115t108.5 -44t107.5 40.5t38.5 109.5v311h44v-317zM214 575l79 154l48 -19l-99 -147z" />
    <glyph glyph-name="alpha" unicode="&#x3b1;" horiz-adv-x="500" 
d="M55 242q0 52 9.5 99.5t31.5 83t58 56.5t90 21q19 0 40 -3.5t40.5 -13.5t37 -28t31.5 -46l1 1v84h44v-496h-44v91h-1q-20 -38 -57.5 -67t-94.5 -29q-54 0 -90 21.5t-57 56.5t-30 79.5t-9 89.5zM101 248q0 -36 5.5 -73.5t22 -68t45 -50.5t75.5 -20q41 0 69 18t45 48
t24 68.5t7 79.5q0 32 -5 69t-20.5 69t-44 53t-75.5 21q-49 0 -78 -21t-44.5 -52.5t-20.5 -69t-5 -71.5z" />
    <glyph glyph-name="beta" unicode="&#x3b2;" horiz-adv-x="504" 
d="M453 228q0 -53 -12.5 -96t-36.5 -73.5t-59.5 -47.5t-82.5 -17q-16 0 -36 3.5t-40 13.5t-39.5 28.5t-33.5 48.5l-1 -221h-43v662q0 42 11 77.5t33.5 61.5t56.5 40.5t81 14.5q46 0 78.5 -16t52 -40t28.5 -53t9 -56q0 -20 -4.5 -41.5t-14 -40.5t-24.5 -34.5t-35 -24.5v-2
q32 -6 53.5 -25t34.5 -45t18.5 -56.5t5.5 -60.5zM197 394v37h60q30 0 52.5 10t37 27.5t21.5 39.5t7 46q0 18 -6 40.5t-20 42.5t-38.5 34t-60.5 14q-41 0 -67.5 -14.5t-42.5 -37t-22 -49.5t-6 -51v-307q0 -28 6 -61.5t22 -63t44 -49.5t72 -20t73.5 17.5t47.5 45t25.5 62.5
t7.5 71q0 31 -7 60.5t-23.5 53t-43 38t-65.5 14.5h-74z" />
    <glyph glyph-name="psi" unicode="&#x3c8;" horiz-adv-x="610" 
d="M547 197q0 -45 -16 -81.5t-45 -62t-69.5 -40.5t-90.5 -16v-197h-43v197q-51 1 -92 17t-69 42.5t-43 60t-15 71.5v306h43v-291q0 -69 44.5 -114.5t131.5 -50.5v476h43v-476q38 1 70.5 12.5t56.5 32.5t37.5 52t13.5 72v287h43v-297v0z" />
    <glyph glyph-name="delta" unicode="&#x3b4;" horiz-adv-x="482" 
d="M262 723q42 0 75.5 -9.5t62.5 -23.5q-5 -10 -10 -19.5t-10 -19.5q-27 14 -57 23t-62 9q-23 0 -44 -6.5t-37 -18.5t-26 -29.5t-10 -39.5q0 -29 14.5 -48t35.5 -32t45.5 -21t44.5 -16q34 -13 64 -31t50 -47q18 -26 29 -63t11 -97q0 -66 -12 -107t-43 -77q-53 -56 -145 -56
q-82 0 -129 41q-35 31 -51.5 79t-16.5 120q0 90 37 150q19 29 44 49t63 33q-42 21 -64.5 52t-22.5 70q0 27 11 51.5t32 43t51.5 29.5t69.5 11zM240 32q33 0 60.5 11.5t47.5 31.5q31 31 38.5 69.5t7.5 89.5q0 52 -8 81t-22 50q-20 32 -50.5 50.5t-74.5 26.5q-42 -5 -74.5 -27
t-52.5 -54q-27 -48 -27 -126q0 -57 10 -96.5t39 -68.5q17 -18 45.5 -28t60.5 -10z" />
    <glyph glyph-name="epsilon" unicode="&#x3b5;" horiz-adv-x="427" 
d="M145 261q-27 7 -43.5 21t-24.5 29.5t-10.5 30.5t-2.5 26q0 24 10 48t32 42.5t56 30.5t82 12q44 0 84.5 -13.5t70.5 -38.5l-27 -32q-25 20 -60.5 32t-68.5 12q-28 0 -53 -6t-43.5 -18t-29 -29.5t-10.5 -40.5q0 -43 32.5 -65t87.5 -22h64v-37h-67q-24 0 -47 -7t-40.5 -20.5
t-28.5 -33t-11 -44.5q0 -26 12 -45t33 -32t48.5 -19t58.5 -6q15 0 32 3t34 8.5t33 13.5t28 18l27 -32q-31 -25 -73 -38t-87 -13q-94 0 -142 40t-48 105q0 10 3.5 26.5t14 34t28 33t46.5 24.5v2z" />
    <glyph glyph-name="phi" unicode="&#x3c6;" horiz-adv-x="576" 
d="M310 33q44 0 80 15t57 45q20 23 29.5 57t9.5 97q0 57 -6.5 90t-20.5 56q-20 32 -59 50t-90 18v-428zM264 -5q-50 0 -90.5 13t-66.5 40q-32 29 -46.5 75t-14.5 122q0 42 5.5 79.5t19.5 69t39 55.5t64 39l16 -37q-33 -15 -52.5 -36t-30 -46.5t-14 -57t-3.5 -67.5
q0 -66 10.5 -101.5t32.5 -58.5q22 -25 55.5 -38.5t75.5 -13.5v468h49q64 0 110 -20.5t72 -58.5q18 -28 26.5 -67.5t8.5 -107.5q0 -69 -12 -112t-38 -72q-26 -30 -68 -48t-102 -19v-195h-46v195z" />
    <glyph glyph-name="gamma" unicode="&#x3b3;" horiz-adv-x="421" 
d="M237 -200h-44v210q-35 106 -70.5 208.5t-74.5 205.5q-8 20 -14.5 27t-17.5 7q-3 0 -13 -2l-3 38q18 5 30 5q22 0 35 -12.5t23 -38.5q20 -54 37 -102.5t32 -93t29.5 -87.5t28.5 -87q5 15 17.5 49t28.5 77t33.5 90t33 88t27.5 72t16 41h47q-48 -119 -91.5 -236t-89.5 -244
v-215z" />
    <glyph glyph-name="eta" unicode="&#x3b7;" horiz-adv-x="508" 
d="M400 0v317q0 69 -35 105.5t-105 36.5q-32 0 -60 -11.5t-48.5 -32.5t-32.5 -50.5t-12 -64.5v-300h-43v495h43v-85h2q12 24 30.5 41t40.5 28t45 16t44 5q84 0 129 -43.5t45 -124.5v-332h-43z" />
    <glyph glyph-name="iota" unicode="&#x3b9;" horiz-adv-x="206" 
d="M168 -2h-15q-47 0 -63 23.5t-16 68.5v404h43v-406q0 -30 10.5 -41t36.5 -11h4v-38z" />
    <glyph glyph-name="xi" unicode="&#x3be;" horiz-adv-x="395" 
d="M212 58q38 -14 70 -25t61 -23q34 -14 47.5 -31.5t13.5 -40.5q0 -14 -5.5 -31.5t-19.5 -39.5q-8 -14 -17 -27.5t-18 -26.5l-35 20q7 11 13.5 22t13.5 25q5 11 11 23.5t6 22.5q0 15 -11.5 27.5t-37.5 22.5q-21 8 -35 13t-26 9.5t-24.5 8.5t-29.5 10q-32 11 -60 27.5t-48 39
t-31.5 52.5t-11.5 69q0 19 5.5 45.5t20.5 54.5t42 53t71 41q-37 9 -59.5 28t-35 41.5t-17 44.5t-4.5 37q0 44 16.5 76.5t45 54t66 32t79.5 10.5q32 -1 70 -8.5t71 -24.5q-5 -9 -10 -18.5t-10 -19.5q-33 17 -64 23.5t-62 6.5q-34 0 -62.5 -9.5t-49.5 -27t-32.5 -42
t-11.5 -54.5q0 -32 14.5 -57t37.5 -41.5t52.5 -25t59.5 -8.5h83v-39h-109q-37 0 -66.5 -15t-50.5 -39t-32 -55t-11 -63q0 -31 11 -54.5t29 -41.5t40.5 -30.5t46.5 -21.5z" />
    <glyph glyph-name="kappa" unicode="&#x3ba;" horiz-adv-x="479" 
d="M239 283q-32 -35 -63 -70.5t-62 -71.5v-141h-43v496h43v-296h1q66 74 131.5 147.5t131.5 148.5h52l-162 -183l207 -313h-51z" />
    <glyph glyph-name="lambda" unicode="&#x3bb;" horiz-adv-x="430" 
d="M429 0q-7 -2 -13 -2h-12q-23 0 -36.5 12.5t-24.5 42.5q-4 12 -13.5 41.5t-22 67.5t-26.5 80t-26.5 79t-22 65.5t-12.5 38.5h-1l-170 -425h-47l195 485q-12 37 -23.5 73.5t-24.5 72.5q-9 26 -19.5 38t-36.5 12h-9t-10 -1l-3 40q17 4 34 4q29 0 46.5 -14t31.5 -45
q5 -13 10.5 -26.5t10.5 -28.5l181 -541q8 -21 17 -26.5t26 -5.5z" />
    <glyph glyph-name="mu" unicode="&#xb5;" horiz-adv-x="514" 
d="M408 0v80h-3q-25 -47 -68 -66t-86 -19q-42 0 -77 16t-58 43h-2v-254h-43v696h43v-317q0 -35 11.5 -61.5t31.5 -44.5t46.5 -27.5t56.5 -9.5q32 0 59 11.5t47 32t31 49.5t11 64v303h42v-496h-42z" />
    <glyph glyph-name="mu" unicode="&#x3bc;" horiz-adv-x="514" 
d="M408 0v80h-3q-25 -47 -68 -66t-86 -19q-42 0 -77 16t-58 43h-2v-254h-43v696h43v-317q0 -35 11.5 -61.5t31.5 -44.5t46.5 -27.5t56.5 -9.5q32 0 59 11.5t47 32t31 49.5t11 64v303h42v-496h-42z" />
    <glyph glyph-name="nu" unicode="&#x3bd;" horiz-adv-x="429" 
d="M234 0h-41l-183 494h47q5 -14 17.5 -48t28.5 -78t33.5 -93.5t33.5 -93t27.5 -76.5t15.5 -44h2l63 180q23 63 46 126.5t45 126.5h47z" />
    <glyph glyph-name="omicron" unicode="&#x3bf;" horiz-adv-x="489" 
d="M249 501q54 0 94.5 -21t65.5 -59q17 -28 26 -68.5t9 -108.5t-14 -111.5t-35 -70.5q-27 -35 -66 -51.5t-88 -16.5q-92 0 -142 56q-27 31 -41 78.5t-14 120.5q0 69 15 112.5t39 72.5q26 31 63.5 49t87.5 18zM247 462q-38 0 -67 -15.5t-49 -40.5t-31.5 -61t-11.5 -98
q0 -63 11.5 -100t31.5 -62t48 -38.5t65 -13.5q38 0 68.5 16t50.5 45q16 23 26.5 56t10.5 95q0 61 -7.5 94t-19.5 53q-20 33 -52 51.5t-74 18.5z" />
    <glyph glyph-name="pi" unicode="&#x3c0;" horiz-adv-x="522" 
d="M407 0v459h-293v-459h-43v495h380v-495h-44z" />
    <glyph glyph-name="omegatonos" unicode="&#x3ce;" horiz-adv-x="758" 
d="M537 -5q-22 0 -45 5t-44 16.5t-38.5 30.5t-29.5 48q-29 -60 -69 -80.5t-87 -20.5q-56 0 -91 21t-54.5 56t-26 81t-6.5 96q0 46 7 88t25 75.5t48.5 55.5t78.5 30l5 -41q-43 -8 -67 -31t-36 -56.5t-14.5 -74t-2.5 -82.5q0 -36 7.5 -68t24 -57t42 -39.5t60.5 -14.5
q33 0 57.5 13t41 33.5t25 46.5t8.5 53v190h43v-190q0 -27 8.5 -53t26 -46.5t43.5 -33t61 -12.5q39 0 64.5 15t41 43t21.5 67.5t6 88.5q0 37 -4.5 72t-17.5 63t-36.5 47.5t-61.5 26.5l5 41q48 -7 79 -29.5t49 -55.5t25 -75.5t7 -88.5q0 -50 -7 -96t-26.5 -81t-54.5 -56
t-91 -21zM362 563q-7 3 -13.5 5.5t-13.5 6.5l79 153q12 -5 23.5 -9.5t24.5 -9.5z" />
    <glyph glyph-name="rho" unicode="&#x3c1;" horiz-adv-x="498" 
d="M256 501q54 0 95 -21t66 -59q18 -28 27 -68.5t9 -108.5t-13.5 -111.5t-35.5 -70.5q-26 -35 -63 -51t-84 -16q-42 0 -81.5 17t-69.5 67l-1 -1v-278h-44v449q0 63 13.5 110t36.5 74q26 30 61 49t84 19zM255 462q-35 0 -63.5 -15.5t-48.5 -41.5q-17 -20 -27.5 -58.5
t-10.5 -99.5q0 -35 4.5 -71.5t19.5 -66.5t45 -50.5t81 -23.5q38 0 68 14.5t49 44.5q17 22 27 55.5t10 95.5q0 61 -7.5 94t-19.5 53q-20 33 -52.5 51.5t-74.5 18.5z" />
    <glyph glyph-name="sigma" unicode="&#x3c3;" horiz-adv-x="497" 
d="M352 454q19 -10 35 -26t27.5 -41t17.5 -60.5t6 -84.5q0 -69 -16 -116.5t-43 -77t-63.5 -42t-77.5 -12.5q-92 0 -144 60t-52 193q0 66 15 113t41.5 77.5t63 44.5t80.5 14h235v-39h-125v-3zM241 455q-34 0 -62.5 -11.5t-49 -36.5t-32 -64.5t-11.5 -96.5q0 -59 11 -99.5
t31.5 -65.5t48.5 -36.5t63 -11.5q31 0 59 9t49 32.5t33.5 64.5t12.5 104q0 46 -7.5 85t-25 67t-47 44t-73.5 16z" />
    <glyph glyph-name="tau" unicode="&#x3c4;" horiz-adv-x="327" 
d="M239 0q-48 0 -76 26.5t-28 78.5v353h-120v38h299v-38h-136v-338q0 -42 18 -61.5t56 -19.5h38v-39h-51z" />
    <glyph glyph-name="theta" unicode="&#x3b8;" horiz-adv-x="489" 
d="M249 724q53 0 90.5 -21.5t61.5 -59.5q8 -13 16 -31.5t14 -50t10 -78.5t4 -117q0 -73 -5 -124.5t-13 -86.5t-18.5 -57t-20.5 -36q-24 -32 -59.5 -50t-86.5 -18q-47 0 -80 15t-57 43q-12 14 -23 37t-19.5 59t-13 88.5t-4.5 126.5q0 70 5.5 119t14.5 82.5t20 55t22 35.5
q25 32 59 50.5t83 18.5zM87 358q0 -70 3.5 -117t10 -77.5t15 -49t17.5 -30.5q19 -25 46 -38t66 -13q40 0 67 16t47 45q7 11 15 29.5t14.5 48.5t10.5 75.5t4 110.5h-316zM247 684q-38 0 -65 -15t-45 -40q-9 -12 -17.5 -27t-15.5 -40.5t-11.5 -65t-5.5 -99.5h316q0 56 -4 93.5
t-9 62t-11 38.5t-11 23q-18 33 -47 51.5t-74 18.5z" />
    <glyph glyph-name="omega" unicode="&#x3c9;" horiz-adv-x="737" 
d="M541 498q84 -11 119.5 -77.5t35.5 -174.5q0 -58 -10.5 -104.5t-32.5 -79t-56 -50t-80 -17.5q-22 0 -44 5t-42 16.5t-36.5 31t-26.5 48.5q-24 -55 -63 -78.5t-83 -23.5q-48 0 -82 18t-55.5 51t-31.5 80t-10 104q0 107 38 172t119 78l7 -41q-60 -11 -90 -64.5t-30 -145.5
q0 -96 31.5 -154t103.5 -58q31 0 54 12.5t38 33.5t22.5 47t7.5 53v189h44v-189q0 -27 7.5 -53t23.5 -46.5t40.5 -33t57.5 -12.5q67 0 100.5 55.5t33.5 155.5q0 93 -27.5 146.5t-90.5 64.5z" />
    <glyph glyph-name="sigma1" unicode="&#x3c2;" horiz-adv-x="417" 
d="M203 22q-42 16 -71 35.5t-47 46t-26 61.5t-8 82q0 69 19.5 117.5t51 78.5t71.5 44t80 14q41 0 80.5 -12t71.5 -39q-8 -8 -14.5 -17.5t-14.5 -18.5q-25 22 -56 32.5t-63 10.5q-81 0 -130.5 -52.5t-49.5 -155.5q0 -31 5 -58t18 -49.5t35 -41t56 -31.5q30 -11 59.5 -22.5
t58.5 -23.5q35 -14 51 -33.5t16 -42.5q0 -20 -14 -48.5t-46 -71.5l-34 20q8 11 13 19.5t10 18.5q7 11 13.5 26t6.5 26q0 33 -50 52z" />
    <glyph glyph-name="chi" unicode="&#x3c7;" horiz-adv-x="441" 
d="M360 0l-140 223l-139 -223h-52l165 254l-157 241h52l131 -211l130 211h53l-157 -241l166 -254h-52z" />
    <glyph glyph-name="upsilon" unicode="&#x3c5;" horiz-adv-x="522" 
d="M452 178q0 -90 -52.5 -137.5t-138.5 -47.5q-43 0 -78 13.5t-60 37.5t-38.5 57.5t-13.5 74.5v319h43v-302q0 -71 39.5 -115t108.5 -44t107.5 40.5t38.5 109.5v311h44v-317z" />
    <glyph glyph-name="zeta" unicode="&#x3b6;" horiz-adv-x="373" 
d="M88 207q0 -33 10 -57t27 -41t39 -28.5t45 -20.5l123 -45q40 -15 55 -34.5t15 -43.5q0 -14 -7 -31t-16.5 -34.5t-20.5 -33t-20 -27.5l-34 20l28 47q8 14 13 27.5t5 24.5q0 15 -11 26.5t-37 21.5l-115 41q-32 12 -58.5 28.5t-45.5 39t-30 52t-11 67.5q0 39 18.5 91.5
t58.5 113t102.5 127t150.5 134.5h-290v39h352v-37q-62 -46 -123.5 -105t-111 -122t-80.5 -125.5t-31 -114.5z" />
    <glyph glyph-name="iotadieresis" unicode="&#x3ca;" horiz-adv-x="206" 
d="M168 -2h-15q-47 0 -63 23.5t-16 68.5v404h43v-406q0 -30 10.5 -41t36.5 -11h4v-38zM162 608v54h55v-54h-55zM-27 608v54h54v-54h-54z" />
    <glyph glyph-name="upsilondieresis" unicode="&#x3cb;" horiz-adv-x="522" 
d="M452 178q0 -90 -52.5 -137.5t-138.5 -47.5q-43 0 -78 13.5t-60 37.5t-38.5 57.5t-13.5 74.5v319h43v-302q0 -71 39.5 -115t108.5 -44t107.5 40.5t38.5 109.5v311h44v-317zM326 608v54h55v-54h-55zM137 608v54h54v-54h-54z" />
    <glyph glyph-name="iotadieresistonos" unicode="&#x390;" horiz-adv-x="206" 
d="M168 -2h-15q-47 0 -63 23.5t-16 68.5v404h43v-406q0 -30 10.5 -41t36.5 -11h4v-38zM177 606v53h55v-53h-55zM-30 606v53h54v-53h-54zM43 575l79 154l48 -19l-99 -147z" />
    <glyph glyph-name="upsilondieresistonos" unicode="&#x3b0;" horiz-adv-x="522" 
d="M452 178q0 -90 -52.5 -137.5t-138.5 -47.5q-43 0 -78 13.5t-60 37.5t-38.5 57.5t-13.5 74.5v319h43v-302q0 -71 39.5 -115t108.5 -44t107.5 40.5t38.5 109.5v311h44v-317zM337 606v53h54v-53h-54zM130 606v53h54v-53h-54zM203 575l78 154l49 -19l-100 -147z" />
    <glyph glyph-name="space" unicode=" " horiz-adv-x="221" 
 />
    <glyph glyph-name="AE" unicode="&#xc6;" horiz-adv-x="920" 
d="M464 0v185h-292l-117 -185h-51l439 696h443v-43h-374v-279h320v-42h-320v-289h374v-43h-422zM199 226h265v425z" />
    <glyph glyph-name="ae" unicode="&#xe6;" horiz-adv-x="809" 
d="M420 238q0 -43 8.5 -80.5t28 -65.5t52.5 -44.5t81 -16.5q30 0 61.5 11t57.5 31l27 -32q-32 -25 -68 -36t-76 -11q-26 0 -53 4.5t-51.5 16.5t-45.5 32.5t-36 52.5q-8 -20 -23.5 -39t-39.5 -34t-57 -24t-76 -9q-36 0 -67.5 8t-55 25t-37.5 42.5t-14 61.5q0 30 10 56
t30 45.5t50 30.5t69 11h182v75q0 53 -31.5 82t-99.5 29q-37 0 -76.5 -9.5t-70.5 -35.5l-27 31q37 32 83.5 43.5t86.5 11.5q31 0 58.5 -4.5t50 -16t38 -31t23.5 -48.5q14 28 33 47.5t41 31t45 16.5t46 5q50 0 87 -18t61 -48.5t36 -72t12 -87.5v-37h-353zM207 238
q-55 0 -91.5 -25t-36.5 -76t37 -78t100 -27q33 0 62.5 8t51.5 24.5t34.5 40.5t12.5 57v76h-170zM578 461q-71 0 -111.5 -49t-44.5 -138h306q-4 94 -43.5 140.5t-106.5 46.5z" />
    <glyph glyph-name="Euro" unicode="&#x20ac;" horiz-adv-x="467" 
d="M99 384v-68h245v-34h-245v-43q0 -39 10 -76.5t31 -66t52.5 -46t75.5 -17.5q56 0 92 27t62 75l39 -18q-59 -124 -193 -124q-55 0 -95.5 20t-67 54t-39.5 80t-13 97v38h-40v34h40v68h-40v34h40v39q0 50 13.5 94.5t40 78t67 53t94.5 19.5q67 0 116 -31t77 -86l-42 -19
q-24 46 -63 70.5t-88 24.5q-45 0 -77 -17.5t-52.5 -46.5t-30 -66t-9.5 -77v-36h243v-34h-243z" />
    <glyph glyph-name="florin" unicode="&#x192;" horiz-adv-x="467" 
d="M125 407h97q8 58 16.5 111.5t26.5 94t50 64.5t86 24q38 0 73 -11l-12 -41q-30 10 -62 10q-37 0 -59 -16.5t-35.5 -48.5t-21.5 -79t-16 -108h111v-38h-116l-34 -243q-7 -50 -17.5 -90.5t-29 -69t-47 -44t-70.5 -15.5q-16 0 -37.5 3.5t-38.5 8.5q2 7 4.5 14.5t7.5 24.5
q33 -11 61 -11q48 0 76.5 34t39.5 114l39 274h-92v38z" />
    <glyph glyph-name="circumflex" unicode="&#x2c6;" horiz-adv-x="482" 
d="M242 654l-127 -98l-21 21l132 124h37l126 -123l-21 -21z" />
    <glyph glyph-name="multiply" unicode="&#xd7;" horiz-adv-x="495" 
d="M278 273l158 -158l-26 -26l-158 157l-160 -160l-26 26l160 161l-156 157l26 26l157 -157l159 159l25 -26z" />
    <glyph glyph-name="brokenbar" unicode="&#xa6;" horiz-adv-x="174" 
d="M72 305v411h34v-411h-34zM106 249v-411h-34v411h34z" />
    <glyph glyph-name="acute" unicode="&#xb4;" horiz-adv-x="482" 
d="M206 575l78 154l49 -19l-100 -147z" />
    <glyph glyph-name="dotlessi" unicode="&#x131;" horiz-adv-x="191" 
d="M73 0v496h46v-496h-46z" />
    <glyph glyph-name="logicalnot" unicode="&#xac;" horiz-adv-x="467" 
d="M438 67h-36v194h-376v38h413z" />
    <glyph glyph-name="cedilla" unicode="&#xb8;" horiz-adv-x="414" 
d="M254 14q-5 -14 -9.5 -28.5t-9.5 -28.5q29 -2 47 -10.5t28.5 -19.5t14.5 -23.5t4 -23.5t-5 -23.5t-16 -23.5t-28 -18t-42 -7q-9 0 -31.5 2t-48.5 11l10 25q19 -7 36.5 -9.5t31.5 -2.5q7 0 17 2.5t19 8t15 14.5t6 22q0 23 -22.5 36.5t-56.5 13.5h-4l-10 8l25 76
q8 0 15 -0.5t14 -0.5z" />
    <glyph glyph-name="eth" unicode="&#xf0;" horiz-adv-x="491" 
d="M245 476q52 0 97 -28t61 -76h3q0 63 -9.5 120t-32.5 95l-73 -52l-15 22l73 52q-23 31 -58.5 51.5t-95.5 28.5l7 37q66 -5 110.5 -29t71.5 -61l74 53l17 -23l-75 -53q32 -54 40.5 -125t8.5 -156q0 -33 -1.5 -69.5t-7.5 -72.5t-17.5 -69.5t-30.5 -58.5q-25 -32 -63.5 -50
t-89.5 -18q-94 0 -142 55q-55 61 -55 188q0 65 15.5 105.5t39.5 68.5q26 30 62.5 47.5t85.5 17.5zM244 436q-41 0 -71.5 -16t-50.5 -44q-15 -21 -25.5 -54t-10.5 -88q0 -53 11 -88.5t31 -61.5q40 -51 114 -51q37 0 66.5 15.5t50.5 44.5q17 23 28.5 57.5t11.5 88.5
q0 60 -13 93t-31 54q-20 23 -48 36.5t-63 13.5z" />
    <glyph glyph-name="tilde" unicode="&#x2dc;" horiz-adv-x="482" 
d="M314 588q-15 0 -31.5 6.5t-33 14t-32.5 14t-30 6.5q-19 0 -33.5 -9.5t-30.5 -28.5l-28 16q39 65 92 65q16 0 32.5 -6.5t33 -14.5t32 -14.5t28.5 -6.5q15 0 29 9t28 31l29 -17q-19 -35 -40 -50t-45 -15z" />
    <glyph glyph-name="caron" unicode="&#x2c7;" horiz-adv-x="482" 
d="M368 701l21 -20l-126 -124h-37l-132 124l21 21l127 -97z" />
    <glyph glyph-name="breve" unicode="&#x2d8;" horiz-adv-x="498" 
d="M165 674q6 -33 31.5 -53t57.5 -20q33 0 56.5 17.5t31.5 55.5h39q-3 -19 -11.5 -38.5t-23.5 -35.5t-38 -26t-54 -10q-32 0 -55 10t-39 26t-24 35.5t-10 38.5h39z" />
    <glyph glyph-name="exclam" unicode="!" horiz-adv-x="212" 
d="M122 188h-31l-7 508h45zM80 0v60h54v-60h-54z" />
    <glyph glyph-name="uni1FBD" unicode="&#x1fbd;" horiz-adv-x="478" 
d="M235 582q11 20 18 39t7 35q0 18 -10.5 33t-41.5 22l20 46q38 -9 59 -31t21 -54q0 -22 -11.5 -49t-37.5 -53z" />
    <glyph glyph-name="uni1FBE" unicode="&#x1fbe;" horiz-adv-x="500" 
d="M282 -67v-75q0 -15 2.5 -29t9.5 -24t19.5 -16t32.5 -6h13v-38h-22q-48 0 -73 25t-25 78v85h43z" />
    <glyph glyph-name="uni1FC1" unicode="&#x1fc1;" horiz-adv-x="522" 
d="M320 570v54h54v-54h-54zM167 570v54h54v-54h-54zM337 671q-15 0 -31.5 6.5t-33 14t-32.5 14t-30 6.5q-19 0 -33.5 -9.5t-30.5 -28.5l-28 16q39 65 92 65q16 0 32.5 -6.5t33 -14.5t32 -14.5t28.5 -6.5q15 0 29 9t28 31l29 -17q-19 -35 -40 -50t-45 -15z" />
    <glyph glyph-name="uni1FCD" unicode="&#x1fcd;" horiz-adv-x="500" 
d="M156 583q25 42 25 73q0 18 -10 32.5t-42 22.5l20 46q39 -9 60 -31t21 -54q0 -22 -12 -49t-38 -53zM356 570l-114 176l58 11l82 -177z" />
    <glyph glyph-name="uni1FCE" unicode="&#x1fce;" horiz-adv-x="478" 
d="M173 582q11 20 18 39t7 35q0 18 -11 32.5t-41 22.5l20 46q38 -10 59 -32t21 -54q0 -22 -11.5 -48.5t-37.5 -52.5zM251 580l89 177l57 -11l-120 -176z" />
    <glyph glyph-name="uni1FCF" unicode="&#x1fcf;" horiz-adv-x="478" 
d="M236 549q13 19 20 36.5t7 31.5q0 16 -11 27.5t-40 18.5l18 41q77 -18 77 -71q0 -19 -11 -42.5t-38 -49.5zM326 721q-15 0 -31.5 6.5t-33 14t-32.5 14t-30 6.5q-19 0 -33.5 -9.5t-30.5 -28.5l-28 16q39 65 92 65q16 0 32.5 -6.5t33 -14.5t32 -14.5t28.5 -6.5q15 0 29 9
t28 31l29 -17q-19 -35 -40 -50t-45 -15z" />
    <glyph glyph-name="uni1FDD" unicode="&#x1fdd;" horiz-adv-x="478" 
d="M178 570q-26 26 -38 53t-12 49q0 32 21.5 53t59.5 32q5 -12 9.5 -23t9.5 -23q-29 -8 -40 -22t-11 -31q0 -35 25 -76zM357 570l-113 176l58 11l81 -177z" />
    <glyph glyph-name="uni1FDE" unicode="&#x1fde;" horiz-adv-x="478" 
d="M199 570q-26 26 -37.5 52.5t-11.5 48.5q0 32 21 54t60 32q5 -12 9.5 -23.5t9.5 -22.5q-29 -8 -40.5 -22.5t-11.5 -33.5q0 -14 7 -34t19 -39zM251 580l89 177l57 -11l-120 -176z" />
    <glyph glyph-name="uni1FDF" unicode="&#x1fdf;" horiz-adv-x="478" 
d="M254 541q-27 26 -38 49.5t-11 41.5q0 54 77 72l18 -41q-29 -8 -40 -19t-11 -28q0 -27 27 -68zM326 721q-15 0 -31.5 6.5t-33 14t-32.5 14t-30 6.5q-19 0 -33.5 -9.5t-30.5 -28.5l-28 16q39 65 92 65q16 0 32.5 -6.5t33 -14.5t32 -14.5t28.5 -6.5q15 0 29 9t28 31l29 -17
q-19 -35 -40 -50t-45 -15z" />
    <glyph glyph-name="uni1FED" unicode="&#x1fed;" horiz-adv-x="486" 
d="M110 610v54h54v-54h-54zM330 610v54h54v-54h-54zM162 746l58 12l81 -178l-26 -9z" />
    <glyph glyph-name="uni1FEE" unicode="&#x1fee;" horiz-adv-x="486" 
d="M338 610v54h54v-54h-54zM119 610v54h54v-54h-54zM225 571l-26 9l89 178l57 -12z" />
    <glyph glyph-name="uni1FFE" unicode="&#x1ffe;" horiz-adv-x="478" 
d="M262 570q-26 26 -38 53t-12 49q0 32 21.5 53t59.5 32q5 -12 9.5 -23t9.5 -23q-29 -8 -40.5 -22.5t-11.5 -32.5q0 -16 7 -35t19 -39z" />
    <glyph glyph-name="macron" unicode="&#xaf;" horiz-adv-x="474" 
d="M129 593v41h255v-41h-255z" />
    <glyph glyph-name="dotaccent" unicode="&#x2d9;" horiz-adv-x="474" 
d="M218 608v54h55v-54h-55z" />
    <glyph glyph-name="ring" unicode="&#x2da;" horiz-adv-x="474" 
d="M256 553q-38 0 -64 26.5t-26 63.5q0 38 26 64t64 26t64.5 -26t26.5 -64q0 -37 -26.5 -63.5t-64.5 -26.5zM256 706q-26 0 -44 -18.5t-18 -44.5t18 -44.5t44 -18.5q27 0 45 18.5t18 44.5t-18 44.5t-45 18.5z" />
    <glyph glyph-name="ogonek" unicode="&#x2db;" horiz-adv-x="404" 
d="M123 -93q0 20 9.5 44.5t32.5 49.5h34l1 -1q-18 -22 -28 -45.5t-10 -40.5q0 -27 15 -39.5t39 -12.5q26 0 58 16l13 -30q-15 -8 -35.5 -14.5t-43.5 -6.5q-40 0 -62.5 24t-22.5 56z" />
    <glyph glyph-name="hungarumlaut" unicode="&#x2dd;" horiz-adv-x="497" 
d="M177 575l79 154l48 -19l-99 -147zM278 575l79 154l48 -19l-99 -147z" />
    <glyph glyph-name="uni1F00" unicode="&#x1f00;" horiz-adv-x="500" 
d="M394 0v90h-2q-20 -38 -57 -66t-94 -28q-54 0 -90 21.5t-57 56t-30 79t-9 89.5q0 52 9.5 99.5t31 83t58 56.5t90.5 21q19 0 39.5 -3.5t40 -13.5t37 -28t31.5 -46h2v84h43v-495h-43zM394 250q0 32 -5 69t-20.5 68.5t-44.5 52.5t-76 21q-49 0 -78 -20.5t-44.5 -52t-20.5 -69
t-5 -71.5q0 -36 5.5 -73.5t22 -68.5t45 -50.5t75.5 -19.5q41 0 69 18t45 48t24.5 68.5t7.5 79.5zM235 582q11 20 18 39t7 35q0 18 -10.5 33t-41.5 22l20 46q38 -9 59 -31t21 -54q0 -22 -11.5 -49t-37.5 -53z" />
    <glyph glyph-name="uni1F01" unicode="&#x1f01;" horiz-adv-x="500" 
d="M394 0v90h-2q-20 -38 -57 -66t-94 -28q-54 0 -90 21.5t-57 56t-30 79t-9 89.5q0 52 9.5 99.5t31 83t58 56.5t90.5 21q19 0 39.5 -3.5t40 -13.5t37 -28t31.5 -46h2v84h43v-495h-43zM394 250q0 32 -5 69t-20.5 68.5t-44.5 52.5t-76 21q-49 0 -78 -20.5t-44.5 -52t-20.5 -69
t-5 -71.5q0 -36 5.5 -73.5t22 -68.5t45 -50.5t75.5 -19.5q41 0 69 18t45 48t24.5 68.5t7.5 79.5zM269 570q-26 26 -38 53t-12 49q0 32 21.5 53t59.5 32q5 -12 9.5 -23t9.5 -23q-29 -8 -40.5 -22.5t-11.5 -32.5q0 -16 7 -35t19 -39z" />
    <glyph glyph-name="uni1F02" unicode="&#x1f02;" horiz-adv-x="500" 
d="M394 0v90h-2q-20 -38 -57 -66t-94 -28q-54 0 -90 21.5t-57 56t-30 79t-9 89.5q0 52 9.5 99.5t31 83t58 56.5t90.5 21q19 0 39.5 -3.5t40 -13.5t37 -28t31.5 -46h2v84h43v-495h-43zM394 250q0 32 -5 69t-20.5 68.5t-44.5 52.5t-76 21q-49 0 -78 -20.5t-44.5 -52t-20.5 -69
t-5 -71.5q0 -36 5.5 -73.5t22 -68.5t45 -50.5t75.5 -19.5q41 0 69 18t45 48t24.5 68.5t7.5 79.5zM156 583q25 42 25 73q0 18 -10 32.5t-42 22.5l20 46q39 -9 60 -31t21 -54q0 -22 -12 -49t-38 -53zM356 570l-114 176l58 11l82 -177z" />
    <glyph glyph-name="uni1F03" unicode="&#x1f03;" horiz-adv-x="500" 
d="M394 0v90h-2q-20 -38 -57 -66t-94 -28q-54 0 -90 21.5t-57 56t-30 79t-9 89.5q0 52 9.5 99.5t31 83t58 56.5t90.5 21q19 0 39.5 -3.5t40 -13.5t37 -28t31.5 -46h2v84h43v-495h-43zM394 250q0 32 -5 69t-20.5 68.5t-44.5 52.5t-76 21q-49 0 -78 -20.5t-44.5 -52t-20.5 -69
t-5 -71.5q0 -36 5.5 -73.5t22 -68.5t45 -50.5t75.5 -19.5q41 0 69 18t45 48t24.5 68.5t7.5 79.5zM178 570q-26 26 -38 53t-12 49q0 32 21.5 53t59.5 32q5 -12 9.5 -23t9.5 -23q-29 -8 -40 -22t-11 -31q0 -35 25 -76zM357 570l-113 176l58 11l81 -177z" />
    <glyph glyph-name="uni1F04" unicode="&#x1f04;" horiz-adv-x="500" 
d="M394 0v90h-2q-20 -38 -57 -66t-94 -28q-54 0 -90 21.5t-57 56t-30 79t-9 89.5q0 52 9.5 99.5t31 83t58 56.5t90.5 21q19 0 39.5 -3.5t40 -13.5t37 -28t31.5 -46h2v84h43v-495h-43zM394 250q0 32 -5 69t-20.5 68.5t-44.5 52.5t-76 21q-49 0 -78 -20.5t-44.5 -52t-20.5 -69
t-5 -71.5q0 -36 5.5 -73.5t22 -68.5t45 -50.5t75.5 -19.5q41 0 69 18t45 48t24.5 68.5t7.5 79.5zM173 582q11 20 18 39t7 35q0 18 -11 32.5t-41 22.5l20 46q38 -10 59 -32t21 -54q0 -22 -11.5 -48.5t-37.5 -52.5zM251 580l89 177l57 -11l-120 -176z" />
    <glyph glyph-name="uni1F05" unicode="&#x1f05;" horiz-adv-x="500" 
d="M394 0v90h-2q-20 -38 -57 -66t-94 -28q-54 0 -90 21.5t-57 56t-30 79t-9 89.5q0 52 9.5 99.5t31 83t58 56.5t90.5 21q19 0 39.5 -3.5t40 -13.5t37 -28t31.5 -46h2v84h43v-495h-43zM394 250q0 32 -5 69t-20.5 68.5t-44.5 52.5t-76 21q-49 0 -78 -20.5t-44.5 -52t-20.5 -69
t-5 -71.5q0 -36 5.5 -73.5t22 -68.5t45 -50.5t75.5 -19.5q41 0 69 18t45 48t24.5 68.5t7.5 79.5zM199 570q-26 26 -37.5 52.5t-11.5 48.5q0 32 21 54t60 32q5 -12 9.5 -23.5t9.5 -22.5q-29 -8 -40.5 -22.5t-11.5 -33.5q0 -14 7 -34t19 -39zM251 580l89 177l57 -11l-120 -176
z" />
    <glyph glyph-name="uni1F08" unicode="&#x1f08;" horiz-adv-x="585" 
d="M459 170h-335l-60 -170h-50l253 696h49q64 -175 127.5 -348t126.5 -348h-51zM290 639q-4 -11 -15.5 -43t-26.5 -75.5t-32.5 -92.5t-33 -92.5t-27.5 -77.5t-17 -47h307l-90 254q-16 44 -31.5 87t-30.5 87h-3zM21 526q11 20 18 39t7 35q0 18 -11 33t-40 22q5 12 9.5 23
t9.5 23q38 -9 59 -31t21 -54q0 -22 -11.5 -49t-37.5 -53z" />
    <glyph glyph-name="uni1F09" unicode="&#x1f09;" horiz-adv-x="585" 
d="M459 170h-335l-60 -170h-50l253 696h49q64 -175 127.5 -348t126.5 -348h-51zM290 639q-4 -11 -15.5 -43t-26.5 -75.5t-32.5 -92.5t-33 -92.5t-27.5 -77.5t-17 -47h307l-90 254q-16 44 -31.5 87t-30.5 87h-3zM44 515q-26 26 -37.5 52.5t-11.5 48.5q0 64 80 86
q5 -12 9.5 -23t9.5 -23q-29 -8 -40.5 -22.5t-11.5 -32.5q0 -16 7 -35t19 -39z" />
    <glyph glyph-name="uni1F0A" unicode="&#x1f0a;" horiz-adv-x="585" 
d="M459 170h-335l-60 -170h-50l253 696h49q64 -175 127.5 -348t126.5 -348h-51zM290 639q-4 -11 -15.5 -43t-26.5 -75.5t-32.5 -92.5t-33 -92.5t-27.5 -77.5t-17 -47h307l-152 428h-3zM-109 527q11 20 18 38.5t7 34.5q0 18 -11 33t-41 22l20 46q38 -9 59 -31t21 -54
q0 -22 -11.5 -49t-37.5 -53zM90 514q-29 45 -57 88t-56 88l57 11l81 -177z" />
    <glyph glyph-name="uni1F0B" unicode="&#x1f0b;" horiz-adv-x="585" 
d="M459 170h-335l-60 -170h-50l253 696h49q64 -175 127.5 -348t126.5 -348h-51zM290 639q-4 -11 -15.5 -43t-26.5 -75.5t-32.5 -92.5t-33 -92.5t-27.5 -77.5t-17 -47h307l-90 254q-16 44 -31.5 87t-30.5 87h-3zM-73 515q-26 26 -37.5 51.5t-11.5 47.5q0 67 80 88l20 -46
q-29 -8 -41 -22t-12 -31q0 -33 26 -76zM106 515q-29 45 -57 88t-56 88l57 11l81 -177z" />
    <glyph glyph-name="uni1F0C" unicode="&#x1f0c;" horiz-adv-x="585" 
d="M459 170h-335l-60 -170h-50l253 696h49q64 -175 127.5 -348t126.5 -348h-51zM290 639q-4 -11 -15.5 -43t-26.5 -75.5t-32.5 -92.5t-33 -92.5t-27.5 -77.5t-17 -47h307l-90 254q-16 44 -31.5 87t-30.5 87h-3zM-110 525q25 42 25 73q0 18 -10.5 33t-40.5 23l19 46
q38 -10 59.5 -32t21.5 -54q0 -22 -12 -48.5t-38 -52.5zM-32 523l89 177l56 -11q-30 -45 -60 -88t-59 -88z" />
    <glyph glyph-name="uni1F0D" unicode="&#x1f0d;" horiz-adv-x="585" 
d="M459 170h-335l-60 -170h-50l253 696h49q64 -175 127.5 -348t126.5 -348h-51zM290 639q-4 -11 -15.5 -43t-26.5 -75.5t-32.5 -92.5t-33 -92.5t-27.5 -77.5t-17 -47h307l-90 254q-16 44 -31.5 87t-30.5 87h-3zM-81 515q-26 26 -37.5 52.5t-11.5 48.5q0 32 21 54t59 32
l20 -46q-29 -8 -41 -22t-12 -32q0 -16 7 -35.5t19 -39.5zM-29 525q22 45 43.5 88.5t44.5 88.5l57 -11q-30 -45 -60.5 -88t-59.5 -88z" />
    <glyph glyph-name="uni1F10" unicode="&#x1f10;" horiz-adv-x="427" 
d="M144 261q-27 7 -43 20.5t-24.5 29t-11 31t-2.5 26.5q0 24 10 48t32 42.5t56 30.5t82 12q44 0 85 -14t71 -39q-8 -8 -14.5 -15.5t-13.5 -15.5q-24 19 -60 31t-68 12q-57 0 -96.5 -24t-39.5 -69q0 -44 32.5 -66t86.5 -22h64v-37h-67q-24 0 -47 -7t-40.5 -20.5t-28.5 -33
t-11 -44.5q0 -26 12 -44.5t33 -31.5t48.5 -19t58.5 -6q15 0 32 3t34 8.5t33 13.5t29 18l26 -32q-30 -25 -72.5 -38t-87.5 -13q-94 0 -141.5 40t-47.5 105q0 10 3.5 26.5t13.5 33.5t28 33t47 25q0 1 -0.5 1t-0.5 1zM225 582q11 20 18 39t7 35q0 18 -10.5 33t-41.5 22l20 46
q38 -9 59 -31t21 -54q0 -22 -11.5 -49t-37.5 -53z" />
    <glyph glyph-name="uni1F11" unicode="&#x1f11;" horiz-adv-x="427" 
d="M144 261q-27 7 -43 20.5t-24.5 29t-11 31t-2.5 26.5q0 24 10 48t32 42.5t56 30.5t82 12q44 0 85 -14t71 -39q-8 -8 -14.5 -15.5t-13.5 -15.5q-24 19 -60 31t-68 12q-57 0 -96.5 -24t-39.5 -69q0 -44 32.5 -66t86.5 -22h64v-37h-67q-24 0 -47 -7t-40.5 -20.5t-28.5 -33
t-11 -44.5q0 -26 12 -44.5t33 -31.5t48.5 -19t58.5 -6q15 0 32 3t34 8.5t33 13.5t29 18l26 -32q-30 -25 -72.5 -38t-87.5 -13q-94 0 -141.5 40t-47.5 105q0 10 3.5 26.5t13.5 33.5t28 33t47 25q0 1 -0.5 1t-0.5 1zM245 570q-26 26 -38 53t-12 49q0 32 21.5 53t59.5 32
q5 -12 9.5 -23t9.5 -23q-29 -8 -40.5 -22.5t-11.5 -32.5q0 -16 7 -35t19 -39z" />
    <glyph glyph-name="uni1F12" unicode="&#x1f12;" horiz-adv-x="427" 
d="M144 261q-27 7 -43 20.5t-24.5 29t-11 31t-2.5 26.5q0 24 10 48t32 42.5t56 30.5t82 12q44 0 85 -14t71 -39q-8 -8 -14.5 -15.5t-13.5 -15.5q-24 19 -60 31t-68 12q-57 0 -96.5 -24t-39.5 -69q0 -44 32.5 -66t86.5 -22h64v-37h-67q-24 0 -47 -7t-40.5 -20.5t-28.5 -33
t-11 -44.5q0 -26 12 -44.5t33 -31.5t48.5 -19t58.5 -6q15 0 32 3t34 8.5t33 13.5t29 18l26 -32q-30 -25 -72.5 -38t-87.5 -13q-94 0 -141.5 40t-47.5 105q0 10 3.5 26.5t13.5 33.5t28 33t47 25q0 1 -0.5 1t-0.5 1zM122 583q25 42 25 73q0 18 -10 32.5t-42 22.5l20 46
q39 -9 60 -31t21 -54q0 -22 -12 -49t-38 -53zM322 570l-114 176l58 11l82 -177z" />
    <glyph glyph-name="uni1F13" unicode="&#x1f13;" horiz-adv-x="427" 
d="M144 261q-27 7 -43 20.5t-24.5 29t-11 31t-2.5 26.5q0 24 10 48t32 42.5t56 30.5t82 12q44 0 85 -14t71 -39q-8 -8 -14.5 -15.5t-13.5 -15.5q-24 19 -60 31t-68 12q-57 0 -96.5 -24t-39.5 -69q0 -44 32.5 -66t86.5 -22h64v-37h-67q-24 0 -47 -7t-40.5 -20.5t-28.5 -33
t-11 -44.5q0 -26 12 -44.5t33 -31.5t48.5 -19t58.5 -6q15 0 32 3t34 8.5t33 13.5t29 18l26 -32q-30 -25 -72.5 -38t-87.5 -13q-94 0 -141.5 40t-47.5 105q0 10 3.5 26.5t13.5 33.5t28 33t47 25q0 1 -0.5 1t-0.5 1zM143 570q-26 26 -38 53t-12 49q0 32 21.5 53t59.5 32
q5 -12 9.5 -23t9.5 -23q-29 -8 -40 -22t-11 -31q0 -35 25 -76zM322 570l-113 176l58 11l81 -177z" />
    <glyph glyph-name="uni1F14" unicode="&#x1f14;" horiz-adv-x="427" 
d="M144 261q-27 7 -43 20.5t-24.5 29t-11 31t-2.5 26.5q0 24 10 48t32 42.5t56 30.5t82 12q44 0 85 -14t71 -39q-8 -8 -14.5 -15.5t-13.5 -15.5q-24 19 -60 31t-68 12q-57 0 -96.5 -24t-39.5 -69q0 -44 32.5 -66t86.5 -22h64v-37h-67q-24 0 -47 -7t-40.5 -20.5t-28.5 -33
t-11 -44.5q0 -26 12 -44.5t33 -31.5t48.5 -19t58.5 -6q15 0 32 3t34 8.5t33 13.5t29 18l26 -32q-30 -25 -72.5 -38t-87.5 -13q-94 0 -141.5 40t-47.5 105q0 10 3.5 26.5t13.5 33.5t28 33t47 25q0 1 -0.5 1t-0.5 1zM166 582q12 20 19 38t7 34q0 18 -10.5 33.5t-41.5 23.5
q5 11 9.5 22.5t9.5 23.5q39 -10 60 -32t21 -54q0 -22 -11.5 -48.5t-37.5 -52.5zM244 580l90 177l57 -11l-121 -176z" />
    <glyph glyph-name="uni1F15" unicode="&#x1f15;" horiz-adv-x="427" 
d="M144 261q-27 7 -43 20.5t-24.5 29t-11 31t-2.5 26.5q0 24 10 48t32 42.5t56 30.5t82 12q44 0 85 -14t71 -39q-8 -8 -14.5 -15.5t-13.5 -15.5q-24 19 -60 31t-68 12q-57 0 -96.5 -24t-39.5 -69q0 -44 32.5 -66t86.5 -22h64v-37h-67q-24 0 -47 -7t-40.5 -20.5t-28.5 -33
t-11 -44.5q0 -26 12 -44.5t33 -31.5t48.5 -19t58.5 -6q15 0 32 3t34 8.5t33 13.5t29 18l26 -32q-30 -25 -72.5 -38t-87.5 -13q-94 0 -141.5 40t-47.5 105q0 10 3.5 26.5t13.5 33.5t28 33t47 25q0 1 -0.5 1t-0.5 1zM206 570q-26 26 -37.5 52.5t-11.5 48.5q0 32 21 54t59 32
l20 -46q-29 -8 -40.5 -22t-11.5 -32q0 -33 25 -75zM257 580l90 177l57 -11l-121 -176z" />
    <glyph glyph-name="uni1F18" unicode="&#x1f18;" horiz-adv-x="528" 
d="M78 696h422v-43h-375v-280h320v-41h-320v-290h375v-42h-422v696zM-84 532q11 20 18.5 38.5t7.5 34.5q0 18 -10.5 33t-41.5 23q5 12 9.5 23t9.5 23q38 -9 59.5 -31t21.5 -54q0 -22 -12 -49t-38 -53z" />
    <glyph glyph-name="uni1F19" unicode="&#x1f19;" horiz-adv-x="528" 
d="M78 696h422v-43h-375v-280h320v-41h-320v-290h375v-42h-422v696zM-49 520q-26 26 -38 53t-12 49q0 32 21 53t60 32q5 -12 9.5 -23t9.5 -23q-29 -8 -40.5 -22t-11.5 -31q0 -33 26 -76z" />
    <glyph glyph-name="uni1F1A" unicode="&#x1f1a;" horiz-adv-x="528" 
d="M78 696h422v-43h-375v-280h320v-41h-320v-290h375v-42h-422v696zM-215 533q25 42 25 73q0 18 -10.5 32.5t-40.5 22.5q5 12 9.5 23.5t9.5 22.5q38 -9 59.5 -31t21.5 -54q0 -22 -12 -49t-38 -53zM10 530q-7 -2 -13 -5t-12 -5l-114 176l58 11q20 -45 40.5 -88.5t40.5 -88.5z
" />
    <glyph glyph-name="uni1F1B" unicode="&#x1f1b;" horiz-adv-x="528" 
d="M78 696h422v-43h-375v-280h320v-41h-320v-290h375v-42h-422v696zM-197 520q-26 26 -37.5 53t-11.5 49q0 32 21 53.5t59 31.5l20 -46q-29 -8 -41 -22t-12 -31t7 -36t19 -40zM-17 520l-114 176l58 11q20 -45 40.5 -88.5t40.5 -88.5z" />
    <glyph glyph-name="uni1F1C" unicode="&#x1f1c;" horiz-adv-x="528" 
d="M78 696h422v-43h-375v-280h320v-41h-320v-290h375v-42h-422v696zM-214 532q11 20 18 39t7 35q0 18 -11 32.5t-41 22.5l20 46q38 -10 59 -32t21 -54q0 -22 -11.5 -48.5t-37.5 -52.5zM-136 530l89 177l56 -11q-29 -45 -59.5 -88t-59.5 -88z" />
    <glyph glyph-name="uni1F1D" unicode="&#x1f1d;" horiz-adv-x="528" 
d="M78 696h422v-43h-375v-280h320v-41h-320v-290h375v-42h-422v696zM-175 520q-26 26 -37.5 52.5t-11.5 48.5q0 32 21 54t59 32l20 -46q-30 -8 -41 -22.5t-11 -32.5q0 -16 7 -35t18 -39zM-129 530l89 177l56 -11q-29 -45 -59.5 -88t-59.5 -88z" />
    <glyph glyph-name="uni1F20" unicode="&#x1f20;" horiz-adv-x="508" 
d="M399 317q0 34 -11 60.5t-30.5 44.5t-46.5 27t-58 9q-32 0 -58.5 -11t-46 -31.5t-30.5 -49t-11 -63.5v-303h-44v496h44v-82h2q24 47 67.5 66.5t86.5 19.5q38 0 71 -11.5t57 -33t38 -53t14 -70.5v-332h-44v317zM223 582q11 20 18 39t7 35q0 18 -10.5 33t-41.5 22l20 46
q38 -9 59 -31t21 -54q0 -22 -11.5 -49t-37.5 -53z" />
    <glyph glyph-name="uni1F21" unicode="&#x1f21;" horiz-adv-x="508" 
d="M399 317q0 34 -11 60.5t-30.5 44.5t-46.5 27t-58 9q-32 0 -58.5 -11t-46 -31.5t-30.5 -49t-11 -63.5v-303h-44v496h44v-82h2q24 47 67.5 66.5t86.5 19.5q38 0 71 -11.5t57 -33t38 -53t14 -70.5v-332h-44v317zM250 570q-26 26 -38 53t-12 49q0 32 21.5 53t59.5 32
q5 -12 9.5 -23t9.5 -23q-29 -8 -40.5 -22.5t-11.5 -32.5q0 -16 7 -35t19 -39z" />
    <glyph glyph-name="uni1F22" unicode="&#x1f22;" horiz-adv-x="508" 
d="M399 317q0 34 -11 60.5t-30.5 44.5t-46.5 27t-58 9q-32 0 -58.5 -11t-46 -31.5t-30.5 -49t-11 -63.5v-303h-44v496h44v-82h2q24 47 67.5 66.5t86.5 19.5q38 0 71 -11.5t57 -33t38 -53t14 -70.5v-332h-44v317zM136 583q11 20 18 38.5t7 34.5q0 18 -10.5 33t-41.5 22l20 46
q38 -9 59 -31t21 -54q0 -22 -11.5 -49t-37.5 -53zM335 570l-113 176l58 11l81 -177z" />
    <glyph glyph-name="uni1F23" unicode="&#x1f23;" horiz-adv-x="508" 
d="M399 317q0 34 -11 60.5t-30.5 44.5t-46.5 27t-58 9q-32 0 -58.5 -11t-46 -31.5t-30.5 -49t-11 -63.5v-303h-44v496h44v-82h2q24 47 67.5 66.5t86.5 19.5q38 0 71 -11.5t57 -33t38 -53t14 -70.5v-332h-44v317zM159 570q-26 26 -38 53t-12 49q0 32 21.5 53t59.5 32
q5 -12 9.5 -23t9.5 -23q-29 -8 -40.5 -22.5t-11.5 -32.5q0 -16 7 -35t19 -39zM338 570l-113 176l58 11l81 -177z" />
    <glyph glyph-name="uni1F24" unicode="&#x1f24;" horiz-adv-x="508" 
d="M399 317q0 34 -11 60.5t-30.5 44.5t-46.5 27t-58 9q-32 0 -58.5 -11t-46 -31.5t-30.5 -49t-11 -63.5v-303h-44v496h44v-82h2q24 47 67.5 66.5t86.5 19.5q38 0 71 -11.5t57 -33t38 -53t14 -70.5v-332h-44v317zM180 582q12 20 19 38t7 34q0 18 -10.5 33.5t-41.5 23.5
q5 11 9.5 22.5t9.5 23.5q39 -10 60 -32t21 -54q0 -22 -11.5 -48.5t-37.5 -52.5zM258 580l90 177l57 -11l-121 -176z" />
    <glyph glyph-name="uni1F25" unicode="&#x1f25;" horiz-adv-x="508" 
d="M399 317q0 34 -11 60.5t-30.5 44.5t-46.5 27t-58 9q-32 0 -58.5 -11t-46 -31.5t-30.5 -49t-11 -63.5v-303h-44v496h44v-82h2q24 47 67.5 66.5t86.5 19.5q38 0 71 -11.5t57 -33t38 -53t14 -70.5v-332h-44v317zM207 570q-26 26 -37.5 52.5t-11.5 48.5q0 32 21 54t59 32
l20 -46q-29 -8 -40.5 -22t-11.5 -32q0 -15 6 -35t19 -40zM258 580l90 177l57 -11l-121 -176z" />
    <glyph glyph-name="uni1F28" unicode="&#x1f28;" horiz-adv-x="625" 
d="M499 332h-374v-332h-47v696h47v-323h374v323h46v-696h-46v332zM-70 532q11 20 18 39t7 35q0 18 -11 33t-41 22l20 46q39 -10 59 -32t20 -54q0 -22 -11 -48.5t-37 -52.5z" />
    <glyph glyph-name="uni1F29" unicode="&#x1f29;" horiz-adv-x="625" 
d="M499 332h-374v-332h-47v696h47v-323h374v323h46v-696h-46v332zM-47 520q-26 26 -38 53t-12 49q0 32 21 53t60 32q5 -12 9.5 -23t8.5 -23q-28 -8 -39.5 -21.5t-11.5 -31.5q0 -33 26 -76z" />
    <glyph glyph-name="uni1F2A" unicode="&#x1f2a;" horiz-adv-x="625" 
d="M499 332h-374v-332h-47v696h47v-323h374v323h46v-696h-46v332zM-212 533q11 20 18 38.5t7 34.5q0 18 -11 33t-41 22l20 46q38 -9 59 -31t21 -54q0 -22 -11.5 -49t-37.5 -53zM12 530q-5 -2 -11.5 -5t-13.5 -5l-113 176l58 11q20 -45 40 -88.5t40 -88.5z" />
    <glyph glyph-name="uni1F2B" unicode="&#x1f2b;" horiz-adv-x="625" 
d="M499 332h-374v-332h-47v696h47v-323h374v323h46v-696h-46v332zM-190 520q-26 26 -37.5 53t-11.5 49q0 32 21 54t59 31l20 -46q-30 -7 -41 -22t-11 -33q0 -16 7 -34.5t18 -38.5zM12 530q-5 -2 -11.5 -5t-13.5 -5l-113 176l58 11q20 -45 40 -88.5t40 -88.5z" />
    <glyph glyph-name="uni1F2C" unicode="&#x1f2c;" horiz-adv-x="625" 
d="M499 332h-374v-332h-47v696h47v-323h374v323h46v-696h-46v332zM-200 533q11 20 18 38.5t7 34.5q0 18 -11 33t-41 22l20 46q38 -9 59 -31t21 -54q0 -22 -11.5 -49t-37.5 -53zM-114 530q20 45 40 88.5t40 88.5l58 -11l-113 -176q-7 2 -13.5 5t-11.5 5z" />
    <glyph glyph-name="uni1F2D" unicode="&#x1f2d;" horiz-adv-x="625" 
d="M499 332h-374v-332h-47v696h47v-323h374v323h46v-696h-46v332zM-178 520q-26 26 -37.5 53t-11.5 49q0 32 21 54t59 31l20 -46q-30 -7 -41 -22t-11 -33q0 -16 7 -34.5t18 -38.5zM-114 530q20 45 40 88.5t40 88.5l58 -11l-113 -176q-7 2 -13.5 5t-11.5 5z" />
    <glyph glyph-name="uni1F38" unicode="&#x1f38;" horiz-adv-x="212" 
d="M82 696h47v-696h-47v696zM-73 532q11 20 18.5 38.5t7.5 34.5q0 18 -10.5 33t-41.5 23q5 12 9.5 23t9.5 23q80 -20 80 -86q0 -22 -11 -48.5t-37 -52.5z" />
    <glyph glyph-name="uni1F39" unicode="&#x1f39;" horiz-adv-x="212" 
d="M82 696h47v-696h-47v696zM-48 520q-26 26 -37.5 53t-11.5 49q0 65 81 85q5 -12 9.5 -23t8.5 -23q-29 -8 -40 -22.5t-11 -32.5q0 -16 7 -35t19 -39z" />
    <glyph glyph-name="uni1F3A" unicode="&#x1f3a;" horiz-adv-x="212" 
d="M82 696h47v-696h-47v696zM-223 533q11 20 18.5 38t7.5 34q0 18 -11 33t-41 23q5 12 9.5 23.5t9.5 22.5q38 -9 59.5 -31t21.5 -54q0 -22 -12 -49t-38 -53zM-23 520l-114 176l59 11q20 -45 40 -88.5t40 -88.5z" />
    <glyph glyph-name="uni1F3B" unicode="&#x1f3b;" horiz-adv-x="212" 
d="M82 696h47v-696h-47v696zM-178 520q-26 26 -38 53t-12 49q0 32 21.5 54t59.5 31q5 -11 9.5 -22.5t9.5 -23.5q-30 -8 -41 -23t-11 -33q0 -16 7.5 -34t18.5 -38zM-2 520l-114 176l59 11q20 -45 40 -88.5t40 -88.5z" />
    <glyph glyph-name="uni1F3C" unicode="&#x1f3c;" horiz-adv-x="212" 
d="M82 696h47v-696h-47v696zM-203 533q11 20 18.5 38t7.5 34q0 18 -11 33t-41 23q5 12 9.5 23.5t9.5 22.5q38 -9 59.5 -31t21.5 -54q0 -22 -12 -49t-38 -53zM-118 530q20 45 40 88.5t40 88.5l59 -11l-114 -176z" />
    <glyph glyph-name="uni1F3D" unicode="&#x1f3d;" horiz-adv-x="212" 
d="M82 696h47v-696h-47v696zM-179 520q-26 26 -38 53t-12 49q0 32 21.5 54t59.5 31q5 -11 9.5 -22.5t9.5 -23.5q-30 -8 -41 -23t-11 -33q0 -16 7.5 -34t18.5 -38zM-118 530q20 45 40 88.5t40 88.5l59 -11l-114 -176z" />
    <glyph glyph-name="uni1F40" unicode="&#x1f40;" horiz-adv-x="489" 
d="M249 501q54 0 94.5 -21t65.5 -59q17 -28 26 -68.5t9 -108.5t-14 -111.5t-35 -70.5q-27 -35 -66 -51.5t-88 -16.5q-92 0 -142 56q-27 31 -41 78.5t-14 120.5q0 69 15 112.5t39 72.5q26 31 63.5 49t87.5 18zM247 462q-38 0 -67 -15.5t-49 -40.5t-31.5 -61t-11.5 -98
q0 -63 11.5 -100t31.5 -62t48 -38.5t65 -13.5q38 0 68.5 16t50.5 45q16 23 26.5 56t10.5 95q0 61 -7.5 94t-19.5 53q-20 33 -52 51.5t-74 18.5zM228 582q11 20 18 39t7 35q0 18 -10.5 33t-41.5 22l20 46q38 -9 59 -31t21 -54q0 -22 -11.5 -49t-37.5 -53z" />
    <glyph glyph-name="uni1F41" unicode="&#x1f41;" horiz-adv-x="489" 
d="M249 501q54 0 94.5 -21t65.5 -59q17 -28 26 -68.5t9 -108.5t-14 -111.5t-35 -70.5q-27 -35 -66 -51.5t-88 -16.5q-92 0 -142 56q-27 31 -41 78.5t-14 120.5q0 69 15 112.5t39 72.5q26 31 63.5 49t87.5 18zM247 462q-38 0 -67 -15.5t-49 -40.5t-31.5 -61t-11.5 -98
q0 -63 11.5 -100t31.5 -62t48 -38.5t65 -13.5q38 0 68.5 16t50.5 45q16 23 26.5 56t10.5 95q0 61 -7.5 94t-19.5 53q-20 33 -52 51.5t-74 18.5zM259 570q-26 26 -38 53t-12 49q0 32 21.5 53t59.5 32q5 -12 9.5 -23t9.5 -23q-29 -8 -40.5 -22.5t-11.5 -32.5q0 -16 7 -35
t19 -39z" />
    <glyph glyph-name="uni1F42" unicode="&#x1f42;" horiz-adv-x="489" 
d="M249 501q54 0 94.5 -21t65.5 -59q17 -28 26 -68.5t9 -108.5t-14 -111.5t-35 -70.5q-27 -35 -66 -51.5t-88 -16.5q-92 0 -142 56q-27 31 -41 78.5t-14 120.5q0 69 15 112.5t39 72.5q26 31 63.5 49t87.5 18zM247 462q-38 0 -67 -15.5t-49 -40.5t-31.5 -61t-11.5 -98
q0 -63 11.5 -100t31.5 -62t48 -38.5t65 -13.5q38 0 68.5 16t50.5 45q16 23 26.5 56t10.5 95q0 61 -7.5 94t-19.5 53q-20 33 -52 51.5t-74 18.5zM141 583q25 42 25 73q0 18 -10 32.5t-42 22.5l20 46q39 -9 60 -31t21 -54q0 -22 -12 -49t-38 -53zM341 570l-114 176l58 11
l82 -177z" />
    <glyph glyph-name="uni1F43" unicode="&#x1f43;" horiz-adv-x="489" 
d="M249 501q54 0 94.5 -21t65.5 -59q17 -28 26 -68.5t9 -108.5t-14 -111.5t-35 -70.5q-27 -35 -66 -51.5t-88 -16.5q-92 0 -142 56q-27 31 -41 78.5t-14 120.5q0 69 15 112.5t39 72.5q26 31 63.5 49t87.5 18zM247 462q-38 0 -67 -15.5t-49 -40.5t-31.5 -61t-11.5 -98
q0 -63 11.5 -100t31.5 -62t48 -38.5t65 -13.5q38 0 68.5 16t50.5 45q16 23 26.5 56t10.5 95q0 61 -7.5 94t-19.5 53q-20 33 -52 51.5t-74 18.5zM174 570q-26 26 -38 53t-12 49q0 32 21.5 53t59.5 32q5 -12 9.5 -23t9.5 -23q-29 -8 -40 -22t-11 -31q0 -35 25 -76zM353 570
l-113 176l58 11l81 -177z" />
    <glyph glyph-name="uni1F44" unicode="&#x1f44;" horiz-adv-x="489" 
d="M249 501q54 0 94.5 -21t65.5 -59q17 -28 26 -68.5t9 -108.5t-14 -111.5t-35 -70.5q-27 -35 -66 -51.5t-88 -16.5q-92 0 -142 56q-27 31 -41 78.5t-14 120.5q0 69 15 112.5t39 72.5q26 31 63.5 49t87.5 18zM247 462q-38 0 -67 -15.5t-49 -40.5t-31.5 -61t-11.5 -98
q0 -63 11.5 -100t31.5 -62t48 -38.5t65 -13.5q38 0 68.5 16t50.5 45q16 23 26.5 56t10.5 95q0 61 -7.5 94t-19.5 53q-20 33 -52 51.5t-74 18.5zM188 582q12 20 19 38t7 34q0 18 -10.5 33.5t-41.5 23.5q5 11 9.5 22.5t9.5 23.5q39 -10 60 -32t21 -54q0 -22 -11.5 -48.5
t-37.5 -52.5zM266 580l90 177l57 -11l-121 -176z" />
    <glyph glyph-name="uni1F45" unicode="&#x1f45;" horiz-adv-x="489" 
d="M249 501q54 0 94.5 -21t65.5 -59q17 -28 26 -68.5t9 -108.5t-14 -111.5t-35 -70.5q-27 -35 -66 -51.5t-88 -16.5q-92 0 -142 56q-27 31 -41 78.5t-14 120.5q0 69 15 112.5t39 72.5q26 31 63.5 49t87.5 18zM247 462q-38 0 -67 -15.5t-49 -40.5t-31.5 -61t-11.5 -98
q0 -63 11.5 -100t31.5 -62t48 -38.5t65 -13.5q38 0 68.5 16t50.5 45q16 23 26.5 56t10.5 95q0 61 -7.5 94t-19.5 53q-20 33 -52 51.5t-74 18.5zM209 570q-26 26 -37.5 52.5t-11.5 48.5q0 32 21 54t59 32l20 -46q-29 -8 -40.5 -22t-11.5 -32q0 -15 6 -35t19 -40zM260 580
l90 177l57 -11l-121 -176z" />
    <glyph glyph-name="uni1F48" unicode="&#x1f48;" horiz-adv-x="571" 
d="M285 701q56 0 100 -18.5t75 -51.5t47 -78.5t16 -99.5v-208q0 -58 -16.5 -104.5t-47.5 -79t-75 -50t-99 -17.5q-62 0 -107 20t-74.5 54.5t-44 80t-14.5 96.5v208q0 50 15 95t45 79t75 54t105 20zM286 656q-49 0 -85.5 -16.5t-60.5 -44.5t-36 -65.5t-12 -78.5v-207
q0 -41 12 -79t36 -66.5t60.5 -45.5t85.5 -17q44 0 79 16t59.5 44t37.5 67t13 85v203q0 43 -13 80.5t-37 65.5t-59 43.5t-80 15.5zM-72 532q11 20 18.5 38.5t7.5 34.5q0 18 -10.5 33t-41.5 23q5 12 9.5 23t9.5 23q80 -20 80 -86q0 -22 -11 -48.5t-37 -52.5z" />
    <glyph glyph-name="uni1F49" unicode="&#x1f49;" horiz-adv-x="571" 
d="M285 701q56 0 100 -18.5t75 -51.5t47 -78.5t16 -99.5v-208q0 -58 -16.5 -104.5t-47.5 -79t-75 -50t-99 -17.5q-62 0 -107 20t-74.5 54.5t-44 80t-14.5 96.5v208q0 50 15 95t45 79t75 54t105 20zM286 656q-49 0 -85.5 -16.5t-60.5 -44.5t-36 -65.5t-12 -78.5v-207
q0 -41 12 -79t36 -66.5t60.5 -45.5t85.5 -17q44 0 79 16t59.5 44t37.5 67t13 85v203q0 43 -13 80.5t-37 65.5t-59 43.5t-80 15.5zM-45 520q-26 26 -38 53t-12 49q0 32 21 53t60 32q5 -12 9.5 -23t8.5 -23q-28 -8 -39.5 -21.5t-11.5 -31.5q0 -33 26 -76z" />
    <glyph glyph-name="uni1F4A" unicode="&#x1f4a;" horiz-adv-x="571" 
d="M285 701q56 0 100 -18.5t75 -51.5t47 -78.5t16 -99.5v-208q0 -58 -16.5 -104.5t-47.5 -79t-75 -50t-99 -17.5q-62 0 -107 20t-74.5 54.5t-44 80t-14.5 96.5v208q0 50 15 95t45 79t75 54t105 20zM286 656q-49 0 -85.5 -16.5t-60.5 -44.5t-36 -65.5t-12 -78.5v-207
q0 -41 12 -79t36 -66.5t60.5 -45.5t85.5 -17q44 0 79 16t59.5 44t37.5 67t13 85v203q0 43 -13 80.5t-37 65.5t-59 43.5t-80 15.5zM-222 533q11 20 18.5 38t7.5 34q0 18 -11 33t-41 23q5 12 9.5 23.5t9.5 22.5q38 -9 59.5 -31t21.5 -54q0 -22 -12 -49t-38 -53zM-22 520
l-114 176l59 11q20 -45 40 -88.5t40 -88.5z" />
    <glyph glyph-name="uni1F4B" unicode="&#x1f4b;" horiz-adv-x="571" 
d="M285 701q56 0 100 -18.5t75 -51.5t47 -78.5t16 -99.5v-208q0 -58 -16.5 -104.5t-47.5 -79t-75 -50t-99 -17.5q-62 0 -107 20t-74.5 54.5t-44 80t-14.5 96.5v208q0 50 15 95t45 79t75 54t105 20zM286 656q-49 0 -85.5 -16.5t-60.5 -44.5t-36 -65.5t-12 -78.5v-207
q0 -41 12 -79t36 -66.5t60.5 -45.5t85.5 -17q44 0 79 16t59.5 44t37.5 67t13 85v203q0 43 -13 80.5t-37 65.5t-59 43.5t-80 15.5zM-198 520q-26 26 -38 53t-12 49q0 32 21.5 54t59.5 31q5 -11 9.5 -22.5t9.5 -23.5q-30 -8 -41 -23t-11 -33q0 -16 7.5 -34t18.5 -38zM-22 520
l-114 176l59 11q20 -45 40 -88.5t40 -88.5z" />
    <glyph glyph-name="uni1F4C" unicode="&#x1f4c;" horiz-adv-x="571" 
d="M285 701q56 0 100 -18.5t75 -51.5t47 -78.5t16 -99.5v-208q0 -58 -16.5 -104.5t-47.5 -79t-75 -50t-99 -17.5q-62 0 -107 20t-74.5 54.5t-44 80t-14.5 96.5v208q0 50 15 95t45 79t75 54t105 20zM286 656q-49 0 -85.5 -16.5t-60.5 -44.5t-36 -65.5t-12 -78.5v-207
q0 -41 12 -79t36 -66.5t60.5 -45.5t85.5 -17q44 0 79 16t59.5 44t37.5 67t13 85v203q0 43 -13 80.5t-37 65.5t-59 43.5t-80 15.5zM-212 532q11 20 18.5 38t7.5 34q0 18 -10.5 33.5t-41.5 23.5q5 11 9.5 22.5t9.5 23.5q39 -10 60 -32t21 -54q0 -22 -11.5 -48.5t-37.5 -52.5z
M-133 530l89 177l56 -11q-29 -45 -59.5 -88t-60.5 -88z" />
    <glyph glyph-name="uni1F4D" unicode="&#x1f4d;" horiz-adv-x="571" 
d="M285 701q56 0 100 -18.5t75 -51.5t47 -78.5t16 -99.5v-208q0 -58 -16.5 -104.5t-47.5 -79t-75 -50t-99 -17.5q-62 0 -107 20t-74.5 54.5t-44 80t-14.5 96.5v208q0 50 15 95t45 79t75 54t105 20zM286 656q-49 0 -85.5 -16.5t-60.5 -44.5t-36 -65.5t-12 -78.5v-207
q0 -41 12 -79t36 -66.5t60.5 -45.5t85.5 -17q44 0 79 16t59.5 44t37.5 67t13 85v203q0 43 -13 80.5t-37 65.5t-59 43.5t-80 15.5zM-184 520q-26 26 -37.5 52.5t-11.5 48.5q0 32 21 54t59 32l20 -46q-29 -8 -41 -22t-12 -32q0 -16 7 -35.5t19 -39.5zM-132 530l89 177l56 -11
q-29 -45 -59.5 -88t-60.5 -88z" />
    <glyph glyph-name="uni1F50" unicode="&#x1f50;" horiz-adv-x="522" 
d="M260 -6q-42 0 -77 13t-60 37t-38.5 57.5t-13.5 73.5v320h43v-302q0 -72 39 -115.5t108 -43.5t108 40.5t39 108.5v312h43v-317q0 -45 -14 -79.5t-39 -57.5t-60 -35t-78 -12zM228 582q25 42 25 74q0 18 -10.5 33t-41.5 22l20 46q38 -9 59 -31t21 -54q0 -22 -11.5 -49
t-37.5 -53z" />
    <glyph glyph-name="uni1F51" unicode="&#x1f51;" horiz-adv-x="522" 
d="M260 -6q-42 0 -77 13t-60 37t-38.5 57.5t-13.5 73.5v320h43v-302q0 -72 39 -115.5t108 -43.5t108 40.5t39 108.5v312h43v-317q0 -45 -14 -79.5t-39 -57.5t-60 -35t-78 -12zM266 570q-26 26 -38 53t-12 49q0 32 21.5 53t59.5 32q5 -12 9.5 -23t9.5 -23q-29 -8 -40.5 -22.5
t-11.5 -32.5q0 -16 7 -35t19 -39z" />
    <glyph glyph-name="uni1F52" unicode="&#x1f52;" horiz-adv-x="522" 
d="M260 -6q-42 0 -77 13t-60 37t-38.5 57.5t-13.5 73.5v320h43v-302q0 -72 39 -115.5t108 -43.5t108 40.5t39 108.5v312h43v-317q0 -45 -14 -79.5t-39 -57.5t-60 -35t-78 -12zM151 583q25 42 25 73q0 18 -10 32.5t-42 22.5l20 46q39 -9 60 -31t21 -54q0 -22 -12 -49t-38 -53
zM351 570l-114 176l58 11l82 -177z" />
    <glyph glyph-name="uni1F53" unicode="&#x1f53;" horiz-adv-x="522" 
d="M260 -6q-42 0 -77 13t-60 37t-38.5 57.5t-13.5 73.5v320h43v-302q0 -72 39 -115.5t108 -43.5t108 40.5t39 108.5v312h43v-317q0 -45 -14 -79.5t-39 -57.5t-60 -35t-78 -12zM190 570q-26 26 -37.5 53t-11.5 49q0 32 21 53.5t60 31.5q5 -12 9.5 -23t9.5 -23
q-29 -8 -40.5 -22.5t-11.5 -32.5q0 -16 7 -35t19 -39zM370 570q-29 45 -57 88t-56 88l58 11l81 -177z" />
    <glyph glyph-name="uni1F54" unicode="&#x1f54;" horiz-adv-x="522" 
d="M260 -6q-42 0 -77 13t-60 37t-38.5 57.5t-13.5 73.5v320h43v-302q0 -72 39 -115.5t108 -43.5t108 40.5t39 108.5v312h43v-317q0 -45 -14 -79.5t-39 -57.5t-60 -35t-78 -12zM206 582q11 20 18 39t7 35q0 18 -11 32.5t-41 22.5l20 46q38 -10 59 -32t21 -54
q0 -22 -11.5 -48.5t-37.5 -52.5zM284 580l89 177l57 -11l-120 -176z" />
    <glyph glyph-name="uni1F55" unicode="&#x1f55;" horiz-adv-x="522" 
d="M260 -6q-42 0 -77 13t-60 37t-38.5 57.5t-13.5 73.5v320h43v-302q0 -72 39 -115.5t108 -43.5t108 40.5t39 108.5v312h43v-317q0 -45 -14 -79.5t-39 -57.5t-60 -35t-78 -12zM228 570q-26 26 -38 52.5t-12 48.5q0 32 21.5 54t59.5 32q5 -12 9.5 -23.5t9.5 -22.5
q-29 -8 -40 -22t-11 -32q0 -15 6 -35t19 -40zM279 580l89 177l57 -11l-120 -176z" />
    <glyph glyph-name="uni1F59" unicode="&#x1f59;" horiz-adv-x="475" 
d="M259 0h-44v288l-209 408h49q7 -13 21.5 -42l33 -66l39 -78t38 -77t31.5 -63.5t19 -38.5q19 37 37 73.5t36 74.5q28 54 55.5 108t53.5 109h48q-53 -103 -104.5 -204t-103.5 -204v-288zM-88 520q-26 26 -37.5 53t-11.5 49q0 32 21 53.5t59 31.5l20 -46q-29 -8 -41 -22
t-12 -31t7 -36t19 -40z" />
    <glyph glyph-name="uni1F5B" unicode="&#x1f5b;" horiz-adv-x="475" 
d="M259 0h-44v288l-209 408h49q7 -13 21.5 -42l33 -66l39 -78t38 -77t31.5 -63.5t19 -38.5q19 37 37 73.5t36 74.5q28 54 55.5 108t53.5 109h48q-53 -103 -104.5 -204t-103.5 -204v-288zM-198 520q-26 26 -38 53t-12 49q0 32 21.5 54t59.5 31q5 -11 9.5 -22.5t9.5 -23.5
q-30 -8 -41 -23t-11 -33q0 -16 7.5 -34t18.5 -38zM-22 520l-114 176l59 11q20 -45 40 -88.5t40 -88.5z" />
    <glyph glyph-name="uni1F5D" unicode="&#x1f5d;" horiz-adv-x="475" 
d="M259 0h-44v288l-209 408h49q7 -13 21.5 -42l33 -66l39 -78t38 -77t31.5 -63.5t19 -38.5q19 37 37 73.5t36 74.5q28 54 55.5 108t53.5 109h48q-53 -103 -104.5 -204t-103.5 -204v-288zM-232 520q-26 26 -37.5 52.5t-11.5 48.5q0 32 21 54t59 32l20 -46q-29 -8 -41 -22
t-12 -32q0 -16 7 -35.5t19 -39.5zM-180 530l89 177l57 -11l-121 -176z" />
    <glyph glyph-name="uni1F60" unicode="&#x1f60;" horiz-adv-x="758" 
d="M537 -5q-22 0 -45 5t-44 16.5t-38.5 30.5t-29.5 48q-29 -60 -69 -80.5t-87 -20.5q-56 0 -91 21t-54.5 56t-26 81t-6.5 96q0 46 7 88t25 75.5t48.5 55.5t78.5 30l5 -41q-43 -8 -67 -31t-36 -56.5t-14.5 -74t-2.5 -82.5q0 -36 7.5 -68t24 -57t42 -39.5t60.5 -14.5
q33 0 57.5 13t41 33.5t25 46.5t8.5 53v190h43v-190q0 -27 8.5 -53t26 -46.5t43.5 -33t61 -12.5q39 0 64.5 15t41 43t21.5 67.5t6 88.5q0 37 -4.5 72t-17.5 63t-36.5 47.5t-61.5 26.5l5 41q48 -7 79 -29.5t49 -55.5t25 -75.5t7 -88.5q0 -50 -7 -96t-26.5 -81t-54.5 -56
t-91 -21zM349 582q25 42 25 74q0 18 -10 32.5t-42 22.5l20 46q38 -9 59 -31t21 -54q0 -22 -11.5 -49t-37.5 -53z" />
    <glyph glyph-name="uni1F61" unicode="&#x1f61;" horiz-adv-x="758" 
d="M537 -5q-22 0 -45 5t-44 16.5t-38.5 30.5t-29.5 48q-29 -60 -69 -80.5t-87 -20.5q-56 0 -91 21t-54.5 56t-26 81t-6.5 96q0 46 7 88t25 75.5t48.5 55.5t78.5 30l5 -41q-43 -8 -67 -31t-36 -56.5t-14.5 -74t-2.5 -82.5q0 -36 7.5 -68t24 -57t42 -39.5t60.5 -14.5
q33 0 57.5 13t41 33.5t25 46.5t8.5 53v190h43v-190q0 -27 8.5 -53t26 -46.5t43.5 -33t61 -12.5q39 0 64.5 15t41 43t21.5 67.5t6 88.5q0 37 -4.5 72t-17.5 63t-36.5 47.5t-61.5 26.5l5 41q48 -7 79 -29.5t49 -55.5t25 -75.5t7 -88.5q0 -50 -7 -96t-26.5 -81t-54.5 -56
t-91 -21zM385 570q-26 26 -37.5 53t-11.5 49q0 32 21 53.5t59 31.5l20 -46q-29 -8 -40.5 -22t-11.5 -31q0 -35 25 -76z" />
    <glyph glyph-name="uni1F62" unicode="&#x1f62;" horiz-adv-x="758" 
d="M537 -5q-22 0 -45 5t-44 16.5t-38.5 30.5t-29.5 48q-29 -60 -69 -80.5t-87 -20.5q-56 0 -91 21t-54.5 56t-26 81t-6.5 96q0 46 7 88t25 75.5t48.5 55.5t78.5 30l5 -41q-43 -8 -67 -31t-36 -56.5t-14.5 -74t-2.5 -82.5q0 -36 7.5 -68t24 -57t42 -39.5t60.5 -14.5
q33 0 57.5 13t41 33.5t25 46.5t8.5 53v190h43v-190q0 -27 8.5 -53t26 -46.5t43.5 -33t61 -12.5q39 0 64.5 15t41 43t21.5 67.5t6 88.5q0 37 -4.5 72t-17.5 63t-36.5 47.5t-61.5 26.5l5 41q48 -7 79 -29.5t49 -55.5t25 -75.5t7 -88.5q0 -50 -7 -96t-26.5 -81t-54.5 -56
t-91 -21zM274 583q25 42 25 73q0 18 -10 32.5t-42 22.5l20 46q39 -9 60 -31t21 -54q0 -22 -12 -49t-38 -53zM474 570l-114 176l58 11l82 -177z" />
    <glyph glyph-name="uni1F63" unicode="&#x1f63;" horiz-adv-x="758" 
d="M537 -5q-22 0 -45 5t-44 16.5t-38.5 30.5t-29.5 48q-29 -60 -69 -80.5t-87 -20.5q-56 0 -91 21t-54.5 56t-26 81t-6.5 96q0 46 7 88t25 75.5t48.5 55.5t78.5 30l5 -41q-43 -8 -67 -31t-36 -56.5t-14.5 -74t-2.5 -82.5q0 -36 7.5 -68t24 -57t42 -39.5t60.5 -14.5
q33 0 57.5 13t41 33.5t25 46.5t8.5 53v190h43v-190q0 -27 8.5 -53t26 -46.5t43.5 -33t61 -12.5q39 0 64.5 15t41 43t21.5 67.5t6 88.5q0 37 -4.5 72t-17.5 63t-36.5 47.5t-61.5 26.5l5 41q48 -7 79 -29.5t49 -55.5t25 -75.5t7 -88.5q0 -50 -7 -96t-26.5 -81t-54.5 -56
t-91 -21zM298 570q-26 26 -37.5 53t-11.5 49q0 32 21 53.5t59 31.5l20 -46q-29 -8 -40.5 -22t-11.5 -31q0 -35 25 -76zM478 570l-114 176l58 11l82 -177z" />
    <glyph glyph-name="uni1F64" unicode="&#x1f64;" horiz-adv-x="758" 
d="M537 -5q-22 0 -45 5t-44 16.5t-38.5 30.5t-29.5 48q-29 -60 -69 -80.5t-87 -20.5q-56 0 -91 21t-54.5 56t-26 81t-6.5 96q0 46 7 88t25 75.5t48.5 55.5t78.5 30l5 -41q-43 -8 -67 -31t-36 -56.5t-14.5 -74t-2.5 -82.5q0 -36 7.5 -68t24 -57t42 -39.5t60.5 -14.5
q33 0 57.5 13t41 33.5t25 46.5t8.5 53v190h43v-190q0 -27 8.5 -53t26 -46.5t43.5 -33t61 -12.5q39 0 64.5 15t41 43t21.5 67.5t6 88.5q0 37 -4.5 72t-17.5 63t-36.5 47.5t-61.5 26.5l5 41q48 -7 79 -29.5t49 -55.5t25 -75.5t7 -88.5q0 -50 -7 -96t-26.5 -81t-54.5 -56
t-91 -21zM322 582q12 20 19 38t7 34q0 5 -2 13q-2 14 -13 25.5t-37 18.5q5 11 9.5 22.5t9.5 23.5q39 -10 60 -32t21 -54q0 -22 -11.5 -48.5t-37.5 -52.5zM400 580l90 177l57 -11l-121 -176z" />
    <glyph glyph-name="uni1F65" unicode="&#x1f65;" horiz-adv-x="758" 
d="M537 -5q-22 0 -45 5t-44 16.5t-38.5 30.5t-29.5 48q-29 -60 -69 -80.5t-87 -20.5q-56 0 -91 21t-54.5 56t-26 81t-6.5 96q0 46 7 88t25 75.5t48.5 55.5t78.5 30l5 -41q-43 -8 -67 -31t-36 -56.5t-14.5 -74t-2.5 -82.5q0 -36 7.5 -68t24 -57t42 -39.5t60.5 -14.5
q33 0 57.5 13t41 33.5t25 46.5t8.5 53v190h43v-190q0 -27 8.5 -53t26 -46.5t43.5 -33t61 -12.5q39 0 64.5 15t41 43t21.5 67.5t6 88.5q0 37 -4.5 72t-17.5 63t-36.5 47.5t-61.5 26.5l5 41q48 -7 79 -29.5t49 -55.5t25 -75.5t7 -88.5q0 -50 -7 -96t-26.5 -81t-54.5 -56
t-91 -21zM345 570q-26 26 -37.5 52.5t-11.5 48.5q0 32 21 54t59 32l20 -46q-29 -8 -40.5 -22t-11.5 -32q0 -33 25 -75zM396 580l90 177l57 -11l-121 -176z" />
    <glyph glyph-name="uni1F68" unicode="&#x1f68;" horiz-adv-x="566" 
d="M147 42q-54 28 -79.5 84.5t-25.5 130.5v196q0 50 15 95t45 79t75 54t105 20q56 0 100 -18.5t75 -51.5t47 -78.5t16 -99.5v-196q0 -74 -25.5 -129t-76.5 -85q0 -1 1 -1h117v-42h-191v51q61 20 94 75t33 130v195q0 43 -12.5 81t-36.5 65.5t-59.5 43.5t-80.5 16
q-50 0 -86.5 -16.5t-60.5 -45t-35.5 -65.5t-11.5 -79v-195q0 -33 8 -65.5t24 -60.5t40.5 -49t56.5 -31v-50h-191v42h120zM-72 532q11 20 18.5 38.5t7.5 34.5q0 18 -10.5 33t-41.5 23q5 12 9.5 23t9.5 23q80 -20 80 -86q0 -22 -11 -48.5t-37 -52.5z" />
    <glyph glyph-name="uni1F69" unicode="&#x1f69;" horiz-adv-x="566" 
d="M147 42q-54 28 -79.5 84.5t-25.5 130.5v196q0 50 15 95t45 79t75 54t105 20q56 0 100 -18.5t75 -51.5t47 -78.5t16 -99.5v-196q0 -74 -25.5 -129t-76.5 -85q0 -1 1 -1h117v-42h-191v51q61 20 94 75t33 130v195q0 43 -12.5 81t-36.5 65.5t-59.5 43.5t-80.5 16
q-50 0 -86.5 -16.5t-60.5 -45t-35.5 -65.5t-11.5 -79v-195q0 -33 8 -65.5t24 -60.5t40.5 -49t56.5 -31v-50h-191v42h120zM-47 520q-26 26 -37.5 53t-11.5 49q0 65 81 85q5 -12 9.5 -23t8.5 -23q-29 -8 -40 -22.5t-11 -32.5q0 -16 7 -35t19 -39z" />
    <glyph glyph-name="uni1F6A" unicode="&#x1f6a;" horiz-adv-x="566" 
d="M147 42q-54 28 -79.5 84.5t-25.5 130.5v196q0 50 15 95t45 79t75 54t105 20q56 0 100 -18.5t75 -51.5t47 -78.5t16 -99.5v-196q0 -74 -25.5 -129t-76.5 -85q0 -1 1 -1h117v-42h-191v51q61 20 94 75t33 130v195q0 43 -12.5 81t-36.5 65.5t-59.5 43.5t-80.5 16
q-50 0 -86.5 -16.5t-60.5 -45t-35.5 -65.5t-11.5 -79v-195q0 -33 8 -65.5t24 -60.5t40.5 -49t56.5 -31v-50h-191v42h120zM-223 533q25 42 25 73q0 18 -11 33t-41 22l20 46q38 -9 59 -31t21 -54q0 -22 -11.5 -49t-37.5 -53zM-23 520l-114 176l58 11q20 -45 40 -88.5t40 -88.5
z" />
    <glyph glyph-name="uni1F6B" unicode="&#x1f6b;" horiz-adv-x="566" 
d="M147 42q-54 28 -79.5 84.5t-25.5 130.5v196q0 50 15 95t45 79t75 54t105 20q56 0 100 -18.5t75 -51.5t47 -78.5t16 -99.5v-196q0 -74 -25.5 -129t-76.5 -85q0 -1 1 -1h117v-42h-191v51q61 20 94 75t33 130v195q0 43 -12.5 81t-36.5 65.5t-59.5 43.5t-80.5 16
q-50 0 -86.5 -16.5t-60.5 -45t-35.5 -65.5t-11.5 -79v-195q0 -33 8 -65.5t24 -60.5t40.5 -49t56.5 -31v-50h-191v42h120zM-198 520q-26 26 -38 53t-12 49q0 32 21.5 54t59.5 31q5 -11 9.5 -22.5t9.5 -23.5q-30 -8 -41 -23t-11 -33q0 -16 7.5 -34t18.5 -38zM-22 520l-114 176
l59 11q20 -45 40 -88.5t40 -88.5z" />
    <glyph glyph-name="uni1F6C" unicode="&#x1f6c;" horiz-adv-x="566" 
d="M147 42q-54 28 -79.5 84.5t-25.5 130.5v196q0 50 15 95t45 79t75 54t105 20q56 0 100 -18.5t75 -51.5t47 -78.5t16 -99.5v-196q0 -74 -25.5 -129t-76.5 -85q0 -1 1 -1h117v-42h-191v51q61 20 94 75t33 130v195q0 43 -12.5 81t-36.5 65.5t-59.5 43.5t-80.5 16
q-50 0 -86.5 -16.5t-60.5 -45t-35.5 -65.5t-11.5 -79v-195q0 -33 8 -65.5t24 -60.5t40.5 -49t56.5 -31v-50h-191v42h120zM-208 532q11 20 18 39t7 35q0 18 -11 32.5t-41 22.5l20 46q38 -10 59 -32t21 -54q0 -22 -11.5 -48.5t-37.5 -52.5zM-130 530l89 177l56 -11
q-29 -45 -59 -88t-60 -88z" />
    <glyph glyph-name="uni1F6D" unicode="&#x1f6d;" horiz-adv-x="566" 
d="M147 42q-54 28 -79.5 84.5t-25.5 130.5v196q0 50 15 95t45 79t75 54t105 20q56 0 100 -18.5t75 -51.5t47 -78.5t16 -99.5v-196q0 -74 -25.5 -129t-76.5 -85q0 -1 1 -1h117v-42h-191v51q61 20 94 75t33 130v195q0 43 -12.5 81t-36.5 65.5t-59.5 43.5t-80.5 16
q-50 0 -86.5 -16.5t-60.5 -45t-35.5 -65.5t-11.5 -79v-195q0 -33 8 -65.5t24 -60.5t40.5 -49t56.5 -31v-50h-191v42h120zM-179 520q-26 26 -37.5 52.5t-11.5 48.5q0 32 21 54t59 32l20 -46q-29 -8 -41 -22t-12 -32q0 -16 7 -35.5t19 -39.5zM-127 530l89 177l56 -11
q-29 -45 -59.5 -88t-60.5 -88z" />
    <glyph glyph-name="uni1F70" unicode="&#x1f70;" horiz-adv-x="500" 
d="M55 242q0 52 9.5 99.5t31.5 83t58 56.5t90 21q19 0 40 -3.5t40.5 -13.5t37 -28t31.5 -46l1 1v84h44v-496h-44v91h-1q-20 -38 -57.5 -67t-94.5 -29q-54 0 -90 21.5t-57 56.5t-30 79.5t-9 89.5zM101 248q0 -36 5.5 -73.5t22 -68t45 -50.5t75.5 -20q41 0 69 18t45 48
t24 68.5t7 79.5q0 32 -5 69t-20.5 69t-44 53t-75.5 21q-49 0 -78 -21t-44.5 -52.5t-20.5 -69t-5 -71.5zM142 743l58 12l82 -175l-26 -9z" />
    <glyph glyph-name="uni1F71" unicode="&#x1f71;" horiz-adv-x="500" 
d="M55 242q0 52 9.5 99.5t31.5 83t58 56.5t90 21q19 0 40 -3.5t40.5 -13.5t37 -28t31.5 -46l1 1v84h44v-496h-44v91h-1q-20 -38 -57.5 -67t-94.5 -29q-54 0 -90 21.5t-57 56.5t-30 79.5t-9 89.5zM101 248q0 -36 5.5 -73.5t22 -68t45 -50.5t75.5 -20q41 0 69 18t45 48
t24 68.5t7 79.5q0 32 -5 69t-20.5 69t-44 53t-75.5 21q-49 0 -78 -21t-44.5 -52.5t-20.5 -69t-5 -71.5zM257 571l-26 9l90 175l57 -12z" />
    <glyph glyph-name="uni1F72" unicode="&#x1f72;" horiz-adv-x="427" 
d="M145 261q-27 7 -43.5 21t-24.5 29.5t-10.5 30.5t-2.5 26q0 24 10 48t32 42.5t56 30.5t82 12q44 0 84.5 -13.5t70.5 -38.5l-27 -32q-25 20 -60.5 32t-68.5 12q-28 0 -53 -6t-43.5 -18t-29 -29.5t-10.5 -40.5q0 -43 32.5 -65t87.5 -22h64v-37h-67q-24 0 -47 -7t-40.5 -20.5
t-28.5 -33t-11 -44.5q0 -26 12 -45t33 -32t48.5 -19t58.5 -6q15 0 32 3t34 8.5t33 13.5t28 18l27 -32q-31 -25 -73 -38t-87 -13q-94 0 -142 40t-48 105q0 10 3.5 26.5t14 34t28 33t46.5 24.5v2zM125 743l59 12l81 -175l-26 -9z" />
    <glyph glyph-name="uni1F73" unicode="&#x1f73;" horiz-adv-x="427" 
d="M145 261q-27 7 -43.5 21t-24.5 29.5t-10.5 30.5t-2.5 26q0 24 10 48t32 42.5t56 30.5t82 12q44 0 84.5 -13.5t70.5 -38.5l-27 -32q-25 20 -60.5 32t-68.5 12q-28 0 -53 -6t-43.5 -18t-29 -29.5t-10.5 -40.5q0 -43 32.5 -65t87.5 -22h64v-37h-67q-24 0 -47 -7t-40.5 -20.5
t-28.5 -33t-11 -44.5q0 -26 12 -45t33 -32t48.5 -19t58.5 -6q15 0 32 3t34 8.5t33 13.5t28 18l27 -32q-31 -25 -73 -38t-87 -13q-94 0 -142 40t-48 105q0 10 3.5 26.5t14 34t28 33t46.5 24.5v2zM231 571l-26 9l89 175l57 -12z" />
    <glyph glyph-name="uni1F74" unicode="&#x1f74;" horiz-adv-x="508" 
d="M399 0v317q0 34 -11 60.5t-30.5 44.5t-46 27.5t-57.5 9.5q-32 0 -59 -11.5t-46.5 -32t-30.5 -49t-11 -63.5v-303h-43v496h43v-81h2q25 47 68 66t86 19q38 0 71 -11.5t57 -33t38 -52.5t14 -70v-333h-44zM129 743l58 12l81 -175l-26 -9z" />
    <glyph glyph-name="uni1F75" unicode="&#x1f75;" horiz-adv-x="508" 
d="M399 0v317q0 34 -11 60.5t-30.5 44.5t-46 27.5t-57.5 9.5q-32 0 -59 -11.5t-46.5 -32t-30.5 -49t-11 -63.5v-303h-43v496h43v-81h2q25 47 68 66t86 19q38 0 71 -11.5t57 -33t38 -52.5t14 -70v-333h-44zM241 571l-26 9l89 175l57 -12z" />
    <glyph glyph-name="uni1F76" unicode="&#x1f76;" horiz-adv-x="206" 
d="M-19 743l58 12l82 -175l-26 -9zM168 -2h-15q-47 0 -63 23.5t-16 68.5v404h43v-406q0 -30 10.5 -41t36.5 -11h4v-38z" />
    <glyph glyph-name="uni1F77" unicode="&#x1f77;" horiz-adv-x="206" 
d="M101 571l-26 9l89 175l57 -12zM168 -2h-15q-47 0 -63 23.5t-16 68.5v404h43v-406q0 -30 10.5 -41t36.5 -11h4v-38z" />
    <glyph glyph-name="uni1F78" unicode="&#x1f78;" horiz-adv-x="489" 
d="M130 743l58 12l82 -175l-26 -9zM249 501q54 0 94.5 -21t65.5 -59q17 -28 26 -68.5t9 -108.5t-14 -111.5t-35 -70.5q-27 -35 -66 -51.5t-88 -16.5q-92 0 -142 56q-27 31 -41 78.5t-14 120.5q0 69 15 112.5t39 72.5q26 31 63.5 49t87.5 18zM247 462q-38 0 -67 -15.5
t-49 -40.5t-31.5 -61t-11.5 -98q0 -63 11.5 -100t31.5 -62t48 -38.5t65 -13.5q38 0 68.5 16t50.5 45q16 23 26.5 56t10.5 95q0 61 -7.5 94t-19.5 53q-20 33 -52 51.5t-74 18.5z" />
    <glyph glyph-name="uni1F79" unicode="&#x1f79;" horiz-adv-x="489" 
d="M247 571l-26 9l89 175l57 -12zM249 501q54 0 94.5 -21t65.5 -59q17 -28 26 -68.5t9 -108.5t-14 -111.5t-35 -70.5q-27 -35 -66 -51.5t-88 -16.5q-92 0 -142 56q-27 31 -41 78.5t-14 120.5q0 69 15 112.5t39 72.5q26 31 63.5 49t87.5 18zM247 462q-38 0 -67 -15.5
t-49 -40.5t-31.5 -61t-11.5 -98q0 -63 11.5 -100t31.5 -62t48 -38.5t65 -13.5q38 0 68.5 16t50.5 45q16 23 26.5 56t10.5 95q0 61 -7.5 94t-19.5 53q-20 33 -52 51.5t-74 18.5z" />
    <glyph glyph-name="uni1F7A" unicode="&#x1f7a;" horiz-adv-x="522" 
d="M452 178q0 -90 -52.5 -137.5t-138.5 -47.5q-43 0 -78 13.5t-60 37.5t-38.5 57.5t-13.5 74.5v319h43v-302q0 -71 39.5 -115t108.5 -44t107.5 40.5t38.5 109.5v311h44v-317zM145 743l58 12l81 -175l-26 -9z" />
    <glyph glyph-name="uni1F7B" unicode="&#x1f7b;" horiz-adv-x="522" 
d="M452 178q0 -90 -52.5 -137.5t-138.5 -47.5q-43 0 -78 13.5t-60 37.5t-38.5 57.5t-13.5 74.5v319h43v-302q0 -71 39.5 -115t108.5 -44t107.5 40.5t38.5 109.5v311h44v-317zM251 571l-26 9l90 175l56 -12z" />
    <glyph glyph-name="uni1F7C" unicode="&#x1f7c;" horiz-adv-x="758" 
d="M537 -5q-22 0 -45 5t-44 16.5t-38.5 30.5t-29.5 48q-29 -60 -69 -80.5t-87 -20.5q-56 0 -91 21t-54.5 56t-26 81t-6.5 96q0 46 7 88t25 75.5t48.5 55.5t78.5 30l5 -41q-43 -8 -67 -31t-36 -56.5t-14.5 -74t-2.5 -82.5q0 -36 7.5 -68t24 -57t42 -39.5t60.5 -14.5
q33 0 57.5 13t41 33.5t25 46.5t8.5 53v190h43v-190q0 -27 8.5 -53t26 -46.5t43.5 -33t61 -12.5q39 0 64.5 15t41 43t21.5 67.5t6 88.5q0 37 -4.5 72t-17.5 63t-36.5 47.5t-61.5 26.5l5 41q48 -7 79 -29.5t49 -55.5t25 -75.5t7 -88.5q0 -50 -7 -96t-26.5 -81t-54.5 -56
t-91 -21zM375 570l-114 172l58 12l82 -174z" />
    <glyph glyph-name="uni1F7D" unicode="&#x1f7d;" horiz-adv-x="758" 
d="M537 -5q-22 0 -45 5t-44 16.5t-38.5 30.5t-29.5 48q-29 -60 -69 -80.5t-87 -20.5q-56 0 -91 21t-54.5 56t-26 81t-6.5 96q0 46 7 88t25 75.5t48.5 55.5t78.5 30l5 -41q-43 -8 -67 -31t-36 -56.5t-14.5 -74t-2.5 -82.5q0 -36 7.5 -68t24 -57t42 -39.5t60.5 -14.5
q33 0 57.5 13t41 33.5t25 46.5t8.5 53v190h43v-190q0 -27 8.5 -53t26 -46.5t43.5 -33t61 -12.5q39 0 64.5 15t41 43t21.5 67.5t6 88.5q0 37 -4.5 72t-17.5 63t-36.5 47.5t-61.5 26.5l5 41q48 -7 79 -29.5t49 -55.5t25 -75.5t7 -88.5q0 -50 -7 -96t-26.5 -81t-54.5 -56
t-91 -21zM354 580l90 174l56 -12l-120 -172z" />
    <glyph glyph-name="uni1F80" unicode="&#x1f80;" horiz-adv-x="500" 
d="M394 0v90h-2q-20 -38 -57 -66t-94 -28q-54 0 -90 21.5t-57 56t-30 79t-9 89.5q0 52 9.5 99.5t31 83t58 56.5t90.5 21q19 0 39.5 -3.5t40 -13.5t37 -28t31.5 -46h2v84h43v-495h-43zM394 250q0 32 -5 69t-20.5 68.5t-44.5 52.5t-76 21q-49 0 -78 -20.5t-44.5 -52t-20.5 -69
t-5 -71.5q0 -36 5.5 -73.5t22 -68.5t45 -50.5t75.5 -19.5q41 0 69 18t45 48t24.5 68.5t7.5 79.5zM337 -254q-48 0 -73 24.5t-25 77.5v85h42v-67q0 -17 2 -32.5t8.5 -26.5t19.5 -17.5t35 -6.5h12v-37h-21zM235 582q11 20 18 39t7 35q0 18 -10.5 33t-41.5 22l20 46
q38 -9 59 -31t21 -54q0 -22 -11.5 -49t-37.5 -53z" />
    <glyph glyph-name="uni1F81" unicode="&#x1f81;" horiz-adv-x="500" 
d="M394 0v90h-2q-20 -38 -57 -66t-94 -28q-54 0 -90 21.5t-57 56t-30 79t-9 89.5q0 52 9.5 99.5t31 83t58 56.5t90.5 21q19 0 39.5 -3.5t40 -13.5t37 -28t31.5 -46h2v84h43v-495h-43zM394 250q0 32 -5 69t-20.5 68.5t-44.5 52.5t-76 21q-49 0 -78 -20.5t-44.5 -52t-20.5 -69
t-5 -71.5q0 -36 5.5 -73.5t22 -68.5t45 -50.5t75.5 -19.5q41 0 69 18t45 48t24.5 68.5t7.5 79.5zM337 -254q-48 0 -73 24.5t-25 77.5v85h42v-67q0 -17 2 -32.5t8.5 -26.5t19.5 -17.5t35 -6.5h12v-37h-21zM269 570q-26 26 -38 53t-12 49q0 32 21.5 53t59.5 32q5 -12 9.5 -23
t9.5 -23q-29 -8 -40.5 -22.5t-11.5 -32.5q0 -16 7 -35t19 -39z" />
    <glyph glyph-name="uni1F82" unicode="&#x1f82;" horiz-adv-x="500" 
d="M394 0v90h-2q-20 -38 -57 -66t-94 -28q-54 0 -90 21.5t-57 56t-30 79t-9 89.5q0 52 9.5 99.5t31 83t58 56.5t90.5 21q19 0 39.5 -3.5t40 -13.5t37 -28t31.5 -46h2v84h43v-495h-43zM394 250q0 32 -5 69t-20.5 68.5t-44.5 52.5t-76 21q-49 0 -78 -20.5t-44.5 -52t-20.5 -69
t-5 -71.5q0 -36 5.5 -73.5t22 -68.5t45 -50.5t75.5 -19.5q41 0 69 18t45 48t24.5 68.5t7.5 79.5zM337 -254q-48 0 -73 24.5t-25 77.5v85h42v-67q0 -17 2 -32.5t8.5 -26.5t19.5 -17.5t35 -6.5h12v-37h-21zM156 583q25 42 25 73q0 18 -10 32.5t-42 22.5l20 46q39 -9 60 -31
t21 -54q0 -22 -12 -49t-38 -53zM356 570l-114 176l58 11l82 -177z" />
    <glyph glyph-name="uni1F83" unicode="&#x1f83;" horiz-adv-x="500" 
d="M394 0v90h-2q-20 -38 -57 -66t-94 -28q-54 0 -90 21.5t-57 56t-30 79t-9 89.5q0 52 9.5 99.5t31 83t58 56.5t90.5 21q19 0 39.5 -3.5t40 -13.5t37 -28t31.5 -46h2v84h43v-495h-43zM394 250q0 32 -5 69t-20.5 68.5t-44.5 52.5t-76 21q-49 0 -78 -20.5t-44.5 -52t-20.5 -69
t-5 -71.5q0 -36 5.5 -73.5t22 -68.5t45 -50.5t75.5 -19.5q41 0 69 18t45 48t24.5 68.5t7.5 79.5zM337 -254q-48 0 -73 24.5t-25 77.5v85h42v-67q0 -17 2 -32.5t8.5 -26.5t19.5 -17.5t35 -6.5h12v-37h-21zM178 570q-26 26 -38 53t-12 49q0 32 21.5 53t59.5 32q5 -12 9.5 -23
t9.5 -23q-29 -8 -40 -22t-11 -31q0 -35 25 -76zM357 570l-113 176l58 11l81 -177z" />
    <glyph glyph-name="uni1F84" unicode="&#x1f84;" horiz-adv-x="500" 
d="M394 0v90h-2q-20 -38 -57 -66t-94 -28q-54 0 -90 21.5t-57 56t-30 79t-9 89.5q0 52 9.5 99.5t31 83t58 56.5t90.5 21q19 0 39.5 -3.5t40 -13.5t37 -28t31.5 -46h2v84h43v-495h-43zM394 250q0 32 -5 69t-20.5 68.5t-44.5 52.5t-76 21q-49 0 -78 -20.5t-44.5 -52t-20.5 -69
t-5 -71.5q0 -36 5.5 -73.5t22 -68.5t45 -50.5t75.5 -19.5q41 0 69 18t45 48t24.5 68.5t7.5 79.5zM337 -254q-48 0 -73 24.5t-25 77.5v85h42v-67q0 -17 2 -32.5t8.5 -26.5t19.5 -17.5t35 -6.5h12v-37h-21zM173 582q11 20 18 39t7 35q0 18 -11 32.5t-41 22.5l20 46
q38 -10 59 -32t21 -54q0 -22 -11.5 -48.5t-37.5 -52.5zM251 580l89 177l57 -11l-120 -176z" />
    <glyph glyph-name="uni1F85" unicode="&#x1f85;" horiz-adv-x="500" 
d="M394 0v90h-2q-20 -38 -57 -66t-94 -28q-54 0 -90 21.5t-57 56t-30 79t-9 89.5q0 52 9.5 99.5t31 83t58 56.5t90.5 21q19 0 39.5 -3.5t40 -13.5t37 -28t31.5 -46h2v84h43v-495h-43zM394 250q0 32 -5 69t-20.5 68.5t-44.5 52.5t-76 21q-49 0 -78 -20.5t-44.5 -52t-20.5 -69
t-5 -71.5q0 -36 5.5 -73.5t22 -68.5t45 -50.5t75.5 -19.5q41 0 69 18t45 48t24.5 68.5t7.5 79.5zM337 -254q-48 0 -73 24.5t-25 77.5v85h42v-67q0 -17 2 -32.5t8.5 -26.5t19.5 -17.5t35 -6.5h12v-37h-21zM199 570q-26 26 -37.5 52.5t-11.5 48.5q0 32 21 54t60 32
q5 -12 9.5 -23.5t9.5 -22.5q-29 -8 -40.5 -22.5t-11.5 -33.5q0 -14 7 -34t19 -39zM251 580l89 177l57 -11l-120 -176z" />
    <glyph glyph-name="uni1F88" unicode="&#x1f88;" horiz-adv-x="801" 
d="M459 170h-335l-60 -170h-50l253 696h49q64 -175 127.5 -348t126.5 -348h-51zM290 639q-4 -11 -15.5 -43t-26.5 -75.5t-32.5 -92.5t-33 -92.5t-27.5 -77.5t-17 -47h307l-152 428h-3zM755 0q-49 0 -78 25t-29 79v392h44v-350q0 -18 0.5 -37t7.5 -34.5t22 -26t44 -10.5h11
v-38h-22zM21 526q11 20 18 39t7 35q0 18 -11 33t-40 22q5 12 9.5 23t9.5 23q38 -9 59 -31t21 -54q0 -22 -11.5 -49t-37.5 -53z" />
    <glyph glyph-name="uni1F89" unicode="&#x1f89;" horiz-adv-x="801" 
d="M459 170h-335l-60 -170h-50l253 696h49q64 -175 127.5 -348t126.5 -348h-51zM290 639q-4 -11 -15.5 -43t-26.5 -75.5t-32.5 -92.5t-33 -92.5t-27.5 -77.5t-17 -47h307l-152 428h-3zM755 0q-49 0 -78 25t-29 79v392h44v-350q0 -18 0.5 -37t7.5 -34.5t22 -26t44 -10.5h11
v-38h-22zM44 515q-26 26 -37.5 52.5t-11.5 48.5q0 64 80 86q5 -12 9.5 -23t9.5 -23q-29 -8 -40.5 -22.5t-11.5 -32.5q0 -16 7 -35t19 -39z" />
    <glyph glyph-name="uni1F8A" unicode="&#x1f8a;" horiz-adv-x="801" 
d="M459 170h-335l-60 -170h-50l253 696h49q64 -175 127.5 -348t126.5 -348h-51zM290 639q-4 -11 -15.5 -43t-26.5 -75.5t-32.5 -92.5t-33 -92.5t-27.5 -77.5t-17 -47h307l-152 428h-3zM755 0q-49 0 -78 25t-29 79v392h44v-350q0 -18 0.5 -37t7.5 -34.5t22 -26t44 -10.5h11
v-38h-22zM-109 527q11 20 18 38.5t7 34.5q0 18 -11 33t-41 22l20 46q38 -9 59 -31t21 -54q0 -22 -11.5 -49t-37.5 -53zM90 514q-29 45 -57 88t-56 88l57 11l81 -177z" />
    <glyph glyph-name="uni1F8B" unicode="&#x1f8b;" horiz-adv-x="801" 
d="M459 170h-335l-60 -170h-50l253 696h49q64 -175 127.5 -348t126.5 -348h-51zM290 639q-4 -11 -15.5 -43t-26.5 -75.5t-32.5 -92.5t-33 -92.5t-27.5 -77.5t-17 -47h307l-152 428h-3zM755 0q-49 0 -78 25t-29 79v392h44v-350q0 -18 0.5 -37t7.5 -34.5t22 -26t44 -10.5h11
v-38h-22zM-73 515q-26 26 -37.5 51.5t-11.5 47.5q0 67 80 88l20 -46q-29 -8 -41 -22t-12 -31q0 -33 26 -76zM106 515q-29 45 -57 88t-56 88l57 11l81 -177z" />
    <glyph glyph-name="uni1F8C" unicode="&#x1f8c;" horiz-adv-x="801" 
d="M459 170h-335l-60 -170h-50l253 696h49q64 -175 127.5 -348t126.5 -348h-51zM290 639q-4 -11 -15.5 -43t-26.5 -75.5t-32.5 -92.5t-33 -92.5t-27.5 -77.5t-17 -47h307l-152 428h-3zM755 0q-49 0 -78 25t-29 79v392h44v-350q0 -18 0.5 -37t7.5 -34.5t22 -26t44 -10.5h11
v-38h-22zM-110 525q25 42 25 73q0 18 -10.5 33t-40.5 23l19 46q38 -10 59.5 -32t21.5 -54q0 -22 -12 -48.5t-38 -52.5zM-32 523l89 177l56 -11q-30 -45 -60 -88t-59 -88z" />
    <glyph glyph-name="uni1F8D" unicode="&#x1f8d;" horiz-adv-x="801" 
d="M459 170h-335l-60 -170h-50l253 696h49q64 -175 127.5 -348t126.5 -348h-51zM290 639q-4 -11 -15.5 -43t-26.5 -75.5t-32.5 -92.5t-33 -92.5t-27.5 -77.5t-17 -47h307l-152 428h-3zM755 0q-49 0 -78 25t-29 79v392h44v-350q0 -18 0.5 -37t7.5 -34.5t22 -26t44 -10.5h11
v-38h-22zM-81 515q-26 26 -37.5 52.5t-11.5 48.5q0 32 21 54t59 32l20 -46q-29 -8 -41 -22t-12 -32q0 -16 7 -35.5t19 -39.5zM-29 525q22 45 43.5 88.5t44.5 88.5l57 -11q-30 -45 -60.5 -88t-59.5 -88z" />
    <glyph glyph-name="uni1F90" unicode="&#x1f90;" horiz-adv-x="508" 
d="M399 317q0 34 -11 60.5t-30.5 44.5t-46.5 27t-58 9q-32 0 -58.5 -11t-46 -31.5t-30.5 -49t-11 -63.5v-303h-44v496h44v-82h2q24 47 67.5 66.5t86.5 19.5q38 0 71 -11.5t57 -33t38 -53t14 -70.5v-332h-44v317zM331 -254q-48 0 -72.5 24.5t-24.5 77.5v85h42v-67
q0 -17 2 -32.5t8.5 -26.5t19 -17.5t34.5 -6.5h13v-37h-22zM223 582q11 20 18 39t7 35q0 18 -10.5 33t-41.5 22l20 46q38 -9 59 -31t21 -54q0 -22 -11.5 -49t-37.5 -53z" />
    <glyph glyph-name="uni1F91" unicode="&#x1f91;" horiz-adv-x="508" 
d="M399 317q0 34 -11 60.5t-30.5 44.5t-46.5 27t-58 9q-32 0 -58.5 -11t-46 -31.5t-30.5 -49t-11 -63.5v-303h-44v496h44v-82h2q24 47 67.5 66.5t86.5 19.5q38 0 71 -11.5t57 -33t38 -53t14 -70.5v-332h-44v317zM331 -254q-48 0 -72.5 24.5t-24.5 77.5v85h42v-67
q0 -17 2 -32.5t8.5 -26.5t19 -17.5t34.5 -6.5h13v-37h-22zM250 570q-26 26 -38 53t-12 49q0 32 21.5 53t59.5 32q5 -12 9.5 -23t9.5 -23q-29 -8 -40.5 -22.5t-11.5 -32.5q0 -16 7 -35t19 -39z" />
    <glyph glyph-name="uni1F92" unicode="&#x1f92;" horiz-adv-x="508" 
d="M399 317q0 34 -11 60.5t-30.5 44.5t-46.5 27t-58 9q-32 0 -58.5 -11t-46 -31.5t-30.5 -49t-11 -63.5v-303h-44v496h44v-82h2q24 47 67.5 66.5t86.5 19.5q38 0 71 -11.5t57 -33t38 -53t14 -70.5v-332h-44v317zM331 -254q-48 0 -72.5 24.5t-24.5 77.5v85h42v-67
q0 -17 2 -32.5t8.5 -26.5t19 -17.5t34.5 -6.5h13v-37h-22zM136 583q11 20 18 38.5t7 34.5q0 18 -10.5 33t-41.5 22l20 46q38 -9 59 -31t21 -54q0 -22 -11.5 -49t-37.5 -53zM335 570l-113 176l58 11l81 -177z" />
    <glyph glyph-name="uni1F93" unicode="&#x1f93;" horiz-adv-x="508" 
d="M399 317q0 34 -11 60.5t-30.5 44.5t-46.5 27t-58 9q-32 0 -58.5 -11t-46 -31.5t-30.5 -49t-11 -63.5v-303h-44v496h44v-82h2q24 47 67.5 66.5t86.5 19.5q38 0 71 -11.5t57 -33t38 -53t14 -70.5v-332h-44v317zM331 -254q-48 0 -72.5 24.5t-24.5 77.5v85h42v-67
q0 -17 2 -32.5t8.5 -26.5t19 -17.5t34.5 -6.5h13v-37h-22zM159 570q-26 26 -38 53t-12 49q0 32 21.5 53t59.5 32q5 -12 9.5 -23t9.5 -23q-29 -8 -40.5 -22.5t-11.5 -32.5q0 -16 7 -35t19 -39zM338 570l-113 176l58 11l81 -177z" />
    <glyph glyph-name="uni1F94" unicode="&#x1f94;" horiz-adv-x="508" 
d="M399 317q0 34 -11 60.5t-30.5 44.5t-46.5 27t-58 9q-32 0 -58.5 -11t-46 -31.5t-30.5 -49t-11 -63.5v-303h-44v496h44v-82h2q24 47 67.5 66.5t86.5 19.5q38 0 71 -11.5t57 -33t38 -53t14 -70.5v-332h-44v317zM331 -254q-48 0 -72.5 24.5t-24.5 77.5v85h42v-67
q0 -17 2 -32.5t8.5 -26.5t19 -17.5t34.5 -6.5h13v-37h-22zM180 582q12 20 19 38t7 34q0 18 -10.5 33.5t-41.5 23.5q5 11 9.5 22.5t9.5 23.5q39 -10 60 -32t21 -54q0 -22 -11.5 -48.5t-37.5 -52.5zM258 580l90 177l57 -11l-121 -176z" />
    <glyph glyph-name="uni1F95" unicode="&#x1f95;" horiz-adv-x="508" 
d="M399 317q0 34 -11 60.5t-30.5 44.5t-46.5 27t-58 9q-32 0 -58.5 -11t-46 -31.5t-30.5 -49t-11 -63.5v-303h-44v496h44v-82h2q24 47 67.5 66.5t86.5 19.5q38 0 71 -11.5t57 -33t38 -53t14 -70.5v-332h-44v317zM331 -254q-48 0 -72.5 24.5t-24.5 77.5v85h42v-67
q0 -17 2 -32.5t8.5 -26.5t19 -17.5t34.5 -6.5h13v-37h-22zM207 570q-26 26 -37.5 52.5t-11.5 48.5q0 32 21 54t59 32l20 -46q-29 -8 -40.5 -22t-11.5 -32q0 -15 6 -35t19 -40zM258 580l90 177l57 -11l-121 -176z" />
    <glyph glyph-name="uni1F98" unicode="&#x1f98;" horiz-adv-x="827" 
d="M499 332h-374v-332h-47v696h47v-323h374v323h46v-696h-46v332zM781 0q-48 0 -77 25t-29 79v392h44v-350q0 -17 0.5 -36t7 -35t22 -26.5t44.5 -10.5h11v-38h-23zM-70 532q11 20 18 39t7 35q0 18 -11 33t-41 22l20 46q39 -10 59 -32t20 -54q0 -22 -11 -48.5t-37 -52.5z" />
    <glyph glyph-name="uni1F99" unicode="&#x1f99;" horiz-adv-x="827" 
d="M781 0q-48 0 -77 25t-29 79v392h44v-350q0 -17 0.5 -36t7 -35t22 -26.5t44.5 -10.5h11v-38h-23zM499 332h-374v-332h-47v696h47v-323h374v323h46v-696h-46v332zM-47 520q-26 26 -38 53t-12 49q0 32 21 53t60 32q5 -12 9.5 -23t8.5 -23q-28 -8 -39.5 -21.5t-11.5 -31.5
q0 -33 26 -76z" />
    <glyph glyph-name="uni1F9A" unicode="&#x1f9a;" horiz-adv-x="827" 
d="M499 332h-374v-332h-47v696h47v-323h374v323h46v-696h-46v332zM781 0q-48 0 -77 25t-29 79v392h44v-350q0 -17 0.5 -36t7 -35t22 -26.5t44.5 -10.5h11v-38h-23zM-222 533q11 20 18 38.5t7 34.5q0 18 -11 33t-41 22l20 46q38 -9 59 -31t21 -54q0 -22 -11.5 -49t-37.5 -53z
M2 530q-5 -2 -11.5 -5t-13.5 -5l-113 176l58 11q20 -45 40 -88.5t40 -88.5z" />
    <glyph glyph-name="uni1F9B" unicode="&#x1f9b;" horiz-adv-x="827" 
d="M499 332h-374v-332h-47v696h47v-323h374v323h46v-696h-46v332zM781 0q-48 0 -77 25t-29 79v392h44v-350q0 -17 1 -35.5t6 -35.5q11 -37 67 -37h11v-38h-23zM-194 520q-26 26 -37.5 53t-11.5 49q0 32 21 54t59 31l20 -46q-30 -7 -41 -22t-11 -33q0 -16 7 -34.5t18 -38.5z
M8 530q-5 -2 -11.5 -5t-13.5 -5l-113 176l58 11q20 -45 40 -88.5t40 -88.5z" />
    <glyph glyph-name="uni1F9C" unicode="&#x1f9c;" horiz-adv-x="827" 
d="M499 332h-374v-332h-47v696h47v-323h374v323h46v-696h-46v332zM781 0q-48 0 -77 25t-29 79v392h44v-350q0 -17 1 -35.5t6 -35.5q11 -37 67 -37h11v-38h-23zM-212 533q11 20 18 38.5t7 34.5q0 18 -11 33t-41 22l20 46q38 -9 59 -31t21 -54q0 -22 -11.5 -49t-37.5 -53z
M-126 530q20 45 40 88.5t40 88.5l58 -11l-113 -176q-7 2 -13.5 5t-11.5 5z" />
    <glyph glyph-name="uni1F9D" unicode="&#x1f9d;" horiz-adv-x="827" 
d="M499 332h-374v-332h-47v696h47v-323h374v323h46v-696h-46v332zM781 0q-48 0 -77 25t-29 79v392h44v-350q0 -17 1 -35.5t6 -35.5q11 -37 67 -37h11v-38h-23zM-190 520q-26 26 -37.5 53t-11.5 49q0 32 21 54t59 31l20 -46q-30 -7 -41 -22t-11 -33q0 -16 7 -34.5t18 -38.5z
M-126 530q20 45 40 88.5t40 88.5l58 -11l-113 -176q-7 2 -13.5 5t-11.5 5z" />
    <glyph glyph-name="uni1FA0" unicode="&#x1fa0;" horiz-adv-x="758" 
d="M537 -5q-22 0 -45 5t-44 16.5t-38.5 30.5t-29.5 48q-29 -60 -69 -80.5t-87 -20.5q-56 0 -91 21t-54.5 56t-26 81t-6.5 96q0 46 7 88t25 75.5t48.5 55.5t78.5 30l5 -41q-43 -8 -67 -31t-36 -56.5t-14.5 -74t-2.5 -82.5q0 -36 7.5 -68t24 -57t42 -39.5t60.5 -14.5
q33 0 57.5 13t41 33.5t25 46.5t8.5 53v190h43v-190q0 -27 8.5 -53t26 -46.5t43.5 -33t61 -12.5q39 0 64.5 15t41 43t21.5 67.5t6 88.5q0 37 -4.5 72t-17.5 63t-36.5 47.5t-61.5 26.5l5 41q48 -7 79 -29.5t49 -55.5t25 -75.5t7 -88.5q0 -50 -7 -96t-26.5 -81t-54.5 -56
t-91 -21zM454 -254q-48 0 -73 24.5t-25 77.5v85h42v-67q0 -17 2 -32t9 -26.5t20 -18t34 -6.5h12v-37h-21zM349 582q25 42 25 74q0 18 -10 32.5t-42 22.5l20 46q38 -9 59 -31t21 -54q0 -22 -11.5 -49t-37.5 -53z" />
    <glyph glyph-name="uni1FA1" unicode="&#x1fa1;" horiz-adv-x="758" 
d="M537 -5q-22 0 -45 5t-44 16.5t-38.5 30.5t-29.5 48q-29 -60 -69 -80.5t-87 -20.5q-56 0 -91 21t-54.5 56t-26 81t-6.5 96q0 46 7 88t25 75.5t48.5 55.5t78.5 30l5 -41q-43 -8 -67 -31t-36 -56.5t-14.5 -74t-2.5 -82.5q0 -36 7.5 -68t24 -57t42 -39.5t60.5 -14.5
q33 0 57.5 13t41 33.5t25 46.5t8.5 53v190h43v-190q0 -27 8.5 -53t26 -46.5t43.5 -33t61 -12.5q39 0 64.5 15t41 43t21.5 67.5t6 88.5q0 37 -4.5 72t-17.5 63t-36.5 47.5t-61.5 26.5l5 41q48 -7 79 -29.5t49 -55.5t25 -75.5t7 -88.5q0 -50 -7 -96t-26.5 -81t-54.5 -56
t-91 -21zM453 -254q-48 0 -73 24.5t-25 77.5v85h42v-67q0 -17 2 -32t9 -26.5t20 -18t34 -6.5h13v-37h-22zM385 570q-26 26 -37.5 53t-11.5 49q0 32 21 53.5t59 31.5l20 -46q-29 -8 -40.5 -22t-11.5 -31q0 -35 25 -76z" />
    <glyph glyph-name="uni1FA2" unicode="&#x1fa2;" horiz-adv-x="758" 
d="M537 -5q-22 0 -45 5t-44 16.5t-38.5 30.5t-29.5 48q-29 -60 -69 -80.5t-87 -20.5q-56 0 -91 21t-54.5 56t-26 81t-6.5 96q0 46 7 88t25 75.5t48.5 55.5t78.5 30l5 -41q-43 -8 -67 -31t-36 -56.5t-14.5 -74t-2.5 -82.5q0 -36 7.5 -68t24 -57t42 -39.5t60.5 -14.5
q33 0 57.5 13t41 33.5t25 46.5t8.5 53v190h43v-190q0 -27 8.5 -53t26 -46.5t43.5 -33t61 -12.5q39 0 64.5 15t41 43t21.5 67.5t6 88.5q0 37 -4.5 72t-17.5 63t-36.5 47.5t-61.5 26.5l5 41q48 -7 79 -29.5t49 -55.5t25 -75.5t7 -88.5q0 -50 -7 -96t-26.5 -81t-54.5 -56
t-91 -21zM454 -254q-48 0 -73 24.5t-25 77.5v85h42v-67q0 -17 2 -32t9 -26.5t20 -18t34 -6.5h12v-37h-21zM274 583q25 42 25 73q0 18 -10 32.5t-42 22.5l20 46q39 -9 60 -31t21 -54q0 -22 -12 -49t-38 -53zM474 570l-114 176l58 11l82 -177z" />
    <glyph glyph-name="uni1FA3" unicode="&#x1fa3;" horiz-adv-x="758" 
d="M537 -5q-22 0 -45 5t-44 16.5t-38.5 30.5t-29.5 48q-29 -60 -69 -80.5t-87 -20.5q-56 0 -91 21t-54.5 56t-26 81t-6.5 96q0 46 7 88t25 75.5t48.5 55.5t78.5 30l5 -41q-43 -8 -67 -31t-36 -56.5t-14.5 -74t-2.5 -82.5q0 -36 7.5 -68t24 -57t42 -39.5t60.5 -14.5
q33 0 57.5 13t41 33.5t25 46.5t8.5 53v190h43v-190q0 -27 8.5 -53t26 -46.5t43.5 -33t61 -12.5q39 0 64.5 15t41 43t21.5 67.5t6 88.5q0 37 -4.5 72t-17.5 63t-36.5 47.5t-61.5 26.5l5 41q48 -7 79 -29.5t49 -55.5t25 -75.5t7 -88.5q0 -50 -7 -96t-26.5 -81t-54.5 -56
t-91 -21zM454 -254q-48 0 -73 24.5t-25 77.5v85h42v-67q0 -17 2 -32t9 -26.5t20 -18t34 -6.5h12v-37h-21zM298 570q-26 26 -37.5 53t-11.5 49q0 32 21 53.5t59 31.5l20 -46q-29 -8 -40.5 -22t-11.5 -31q0 -35 25 -76zM478 570l-114 176l58 11l82 -177z" />
    <glyph glyph-name="uni1FA4" unicode="&#x1fa4;" horiz-adv-x="758" 
d="M537 -5q-22 0 -45 5t-44 16.5t-38.5 30.5t-29.5 48q-29 -60 -69 -80.5t-87 -20.5q-56 0 -91 21t-54.5 56t-26 81t-6.5 96q0 46 7 88t25 75.5t48.5 55.5t78.5 30l5 -41q-43 -8 -67 -31t-36 -56.5t-14.5 -74t-2.5 -82.5q0 -36 7.5 -68t24 -57t42 -39.5t60.5 -14.5
q33 0 57.5 13t41 33.5t25 46.5t8.5 53v190h43v-190q0 -27 8.5 -53t26 -46.5t43.5 -33t61 -12.5q39 0 64.5 15t41 43t21.5 67.5t6 88.5q0 37 -4.5 72t-17.5 63t-36.5 47.5t-61.5 26.5l5 41q48 -7 79 -29.5t49 -55.5t25 -75.5t7 -88.5q0 -50 -7 -96t-26.5 -81t-54.5 -56
t-91 -21zM454 -254q-48 0 -73 24.5t-25 77.5v85h42v-67q0 -17 2 -32t9 -26.5t20 -18t34 -6.5h12v-37h-21zM322 582q12 20 19 38t7 34q0 18 -10.5 33.5t-41.5 23.5q5 11 9.5 22.5t9.5 23.5q39 -10 60 -32t21 -54q0 -22 -11.5 -48.5t-37.5 -52.5zM400 580l90 177l57 -11
l-121 -176z" />
    <glyph glyph-name="uni1FA5" unicode="&#x1fa5;" horiz-adv-x="758" 
d="M537 -5q-22 0 -45 5t-44 16.5t-38.5 30.5t-29.5 48q-29 -60 -69 -80.5t-87 -20.5q-56 0 -91 21t-54.5 56t-26 81t-6.5 96q0 46 7 88t25 75.5t48.5 55.5t78.5 30l5 -41q-43 -8 -67 -31t-36 -56.5t-14.5 -74t-2.5 -82.5q0 -36 7.5 -68t24 -57t42 -39.5t60.5 -14.5
q33 0 57.5 13t41 33.5t25 46.5t8.5 53v190h43v-190q0 -27 8.5 -53t26 -46.5t43.5 -33t61 -12.5q39 0 64.5 15t41 43t21.5 67.5t6 88.5q0 37 -4.5 72t-17.5 63t-36.5 47.5t-61.5 26.5l5 41q48 -7 79 -29.5t49 -55.5t25 -75.5t7 -88.5q0 -50 -7 -96t-26.5 -81t-54.5 -56
t-91 -21zM454 -254q-48 0 -73 24.5t-25 77.5v85h42v-67q0 -17 2 -32t9 -26.5t20 -18t34 -6.5h12v-37h-21zM345 570q-26 26 -37.5 52.5t-11.5 48.5q0 32 21 54t59 32l20 -46q-29 -8 -40.5 -22t-11.5 -32q0 -33 25 -75zM396 580l90 177l57 -11l-121 -176z" />
    <glyph glyph-name="uni1FA8" unicode="&#x1fa8;" horiz-adv-x="800" 
d="M147 42q-54 28 -79.5 84.5t-25.5 130.5v196q0 50 15 95t45 79t75 54t105 20q56 0 100 -18.5t75 -51.5t47 -78.5t16 -99.5v-196q0 -74 -25.5 -129t-76.5 -85q0 -1 1 -1h117v-42h-191v51q61 20 94 75t33 130v195q0 43 -12.5 81t-36.5 65.5t-59.5 43.5t-80.5 16
q-50 0 -86.5 -16.5t-60.5 -45t-35.5 -65.5t-11.5 -79v-195q0 -33 8 -65.5t24 -60.5t40.5 -49t56.5 -31v-50h-191v42h120zM754 0q-48 0 -77 25t-29 79v392h44v-350q0 -17 0.5 -36t7 -35t22 -26.5t44.5 -10.5h11v-38h-23zM-72 532q11 20 18.5 38.5t7.5 34.5q0 18 -10.5 33
t-41.5 23q5 12 9.5 23t9.5 23q80 -20 80 -86q0 -22 -11 -48.5t-37 -52.5z" />
    <glyph glyph-name="uni1FA9" unicode="&#x1fa9;" horiz-adv-x="800" 
d="M147 42q-54 28 -79.5 84.5t-25.5 130.5v196q0 50 15 95t45 79t75 54t105 20q56 0 100 -18.5t75 -51.5t47 -78.5t16 -99.5v-196q0 -74 -25.5 -129t-76.5 -85q0 -1 1 -1h117v-42h-191v51q61 20 94 75t33 130v195q0 43 -12.5 81t-36.5 65.5t-59.5 43.5t-80.5 16
q-50 0 -86.5 -16.5t-60.5 -45t-35.5 -65.5t-11.5 -79v-195q0 -33 8 -65.5t24 -60.5t40.5 -49t56.5 -31v-50h-191v42h120zM754 0q-48 0 -77 25t-29 79v392h44v-350q0 -17 0.5 -36t7 -35t22 -26.5t44.5 -10.5h11v-38h-23zM-47 520q-26 26 -37.5 53t-11.5 49q0 65 81 85
q5 -12 9.5 -23t8.5 -23q-29 -8 -40 -22.5t-11 -32.5q0 -16 7 -35t19 -39z" />
    <glyph glyph-name="uni1FAA" unicode="&#x1faa;" horiz-adv-x="800" 
d="M147 42q-54 28 -79.5 84.5t-25.5 130.5v196q0 50 15 95t45 79t75 54t105 20q56 0 100 -18.5t75 -51.5t47 -78.5t16 -99.5v-196q0 -74 -25.5 -129t-76.5 -85q0 -1 1 -1h117v-42h-191v51q61 20 94 75t33 130v195q0 43 -12.5 81t-36.5 65.5t-59.5 43.5t-80.5 16
q-50 0 -86.5 -16.5t-60.5 -45t-35.5 -65.5t-11.5 -79v-195q0 -33 8 -65.5t24 -60.5t40.5 -49t56.5 -31v-50h-191v42h120zM754 0q-48 0 -77 25t-29 79v392h44v-350q0 -17 0.5 -36t7 -35t22 -26.5t44.5 -10.5h11v-38h-23zM-223 533q25 42 25 73q0 18 -11 33t-41 22l20 46
q38 -9 59 -31t21 -54q0 -22 -11.5 -49t-37.5 -53zM-23 520l-114 176l58 11q20 -45 40 -88.5t40 -88.5z" />
    <glyph glyph-name="uni1FAB" unicode="&#x1fab;" horiz-adv-x="800" 
d="M147 42q-54 28 -79.5 84.5t-25.5 130.5v196q0 50 15 95t45 79t75 54t105 20q56 0 100 -18.5t75 -51.5t47 -78.5t16 -99.5v-196q0 -74 -25.5 -129t-76.5 -85q0 -1 1 -1h117v-42h-191v51q61 20 94 75t33 130v195q0 43 -12.5 81t-36.5 65.5t-59.5 43.5t-80.5 16
q-50 0 -86.5 -16.5t-60.5 -45t-35.5 -65.5t-11.5 -79v-195q0 -33 8 -65.5t24 -60.5t40.5 -49t56.5 -31v-50h-191v42h120zM754 0q-48 0 -77 25t-29 79v392h44v-350q0 -17 0.5 -36t7 -35t22 -26.5t44.5 -10.5h11v-38h-23zM-201 520q-26 26 -37.5 53t-11.5 49q0 32 21 54t59 31
l20 -46q-30 -7 -41 -22t-11 -33q0 -31 25 -73zM-23 520l-114 176l58 11q20 -45 40 -88.5t40 -88.5z" />
    <glyph glyph-name="uni1FAC" unicode="&#x1fac;" horiz-adv-x="800" 
d="M147 42q-54 28 -79.5 84.5t-25.5 130.5v196q0 50 15 95t45 79t75 54t105 20q56 0 100 -18.5t75 -51.5t47 -78.5t16 -99.5v-196q0 -74 -25.5 -129t-76.5 -85q0 -1 1 -1h117v-42h-191v51q61 20 94 75t33 130v195q0 43 -12.5 81t-36.5 65.5t-59.5 43.5t-80.5 16
q-50 0 -86.5 -16.5t-60.5 -45t-35.5 -65.5t-11.5 -79v-195q0 -33 8 -65.5t24 -60.5t40.5 -49t56.5 -31v-50h-191v42h120zM754 0q-48 0 -77 25t-29 79v392h44v-350q0 -17 0.5 -36t7 -35t22 -26.5t44.5 -10.5h11v-38h-23zM-208 532q11 20 18 39t7 35q0 18 -11 32.5t-41 22.5
l20 46q38 -10 59 -32t21 -54q0 -22 -11.5 -48.5t-37.5 -52.5zM-130 530l89 177l56 -11q-29 -45 -59 -88t-60 -88z" />
    <glyph glyph-name="uni1FAD" unicode="&#x1fad;" horiz-adv-x="800" 
d="M147 42q-54 28 -79.5 84.5t-25.5 130.5v196q0 50 15 95t45 79t75 54t105 20q56 0 100 -18.5t75 -51.5t47 -78.5t16 -99.5v-196q0 -74 -25.5 -129t-76.5 -85q0 -1 1 -1h117v-42h-191v51q61 20 94 75t33 130v195q0 43 -12.5 81t-36.5 65.5t-59.5 43.5t-80.5 16
q-50 0 -86.5 -16.5t-60.5 -45t-35.5 -65.5t-11.5 -79v-195q0 -33 8 -65.5t24 -60.5t40.5 -49t56.5 -31v-50h-191v42h120zM754 0q-48 0 -77 25t-29 79v392h44v-350q0 -17 0.5 -36t7 -35t22 -26.5t44.5 -10.5h11v-38h-23zM-179 520q-26 26 -37.5 52.5t-11.5 48.5q0 32 21 54
t59 32l20 -46q-29 -8 -41 -22t-12 -32q0 -16 7 -35.5t19 -39.5zM-127 530l89 177l56 -11q-29 -45 -59.5 -88t-60.5 -88z" />
    <glyph glyph-name="uni1FB0" unicode="&#x1fb0;" horiz-adv-x="500" 
d="M55 242q0 52 9.5 99.5t31.5 83t58 56.5t90 21q19 0 40 -3.5t40.5 -13.5t37 -28t31.5 -46l1 1v84h44v-496h-44v91h-1q-20 -38 -57.5 -67t-94.5 -29q-54 0 -90 21.5t-57 56.5t-30 79.5t-9 89.5zM101 248q0 -36 5.5 -73.5t22 -68t45 -50.5t75.5 -20q41 0 69 18t45 48
t24 68.5t7 79.5q0 32 -5 69t-20.5 69t-44 53t-75.5 21q-49 0 -78 -21t-44.5 -52.5t-20.5 -69t-5 -71.5zM170 674q5 -33 30.5 -53t57.5 -20q33 0 57 17.5t32 55.5h38q-3 -19 -11 -38.5t-23 -35.5t-38 -26t-55 -10t-55 10t-38.5 26t-23.5 35.5t-10 38.5h39z" />
    <glyph glyph-name="uni1FB1" unicode="&#x1fb1;" horiz-adv-x="500" 
d="M55 242q0 52 9.5 99.5t31.5 83t58 56.5t90 21q19 0 40 -3.5t40.5 -13.5t37 -28t31.5 -46l1 1v84h44v-496h-44v91h-1q-20 -38 -57.5 -67t-94.5 -29q-54 0 -90 21.5t-57 56.5t-30 79.5t-9 89.5zM101 248q0 -36 5.5 -73.5t22 -68t45 -50.5t75.5 -20q41 0 69 18t45 48
t24 68.5t7 79.5q0 32 -5 69t-20.5 69t-44 53t-75.5 21q-49 0 -78 -21t-44.5 -52.5t-20.5 -69t-5 -71.5zM137 593v41h255v-41h-255z" />
    <glyph glyph-name="uni1FB2" unicode="&#x1fb2;" horiz-adv-x="500" 
d="M55 242q0 52 9.5 99.5t31.5 83t58 56.5t90 21q19 0 40 -3.5t40.5 -13.5t37 -28t31.5 -46l1 1v84h44v-496h-44v91h-1q-20 -38 -57.5 -67t-94.5 -29q-54 0 -90 21.5t-57 56.5t-30 79.5t-9 89.5zM101 248q0 -36 5.5 -73.5t22 -68t45 -50.5t75.5 -20q41 0 69 18t45 48
t24 68.5t7 79.5q0 32 -5 69t-20.5 69t-44 53t-75.5 21q-49 0 -78 -21t-44.5 -52.5t-20.5 -69t-5 -71.5zM135 743l59 12l81 -175l-26 -9zM282 -67v-75q0 -15 2.5 -29t9.5 -24t19.5 -16t32.5 -6h13v-38h-22q-48 0 -73 25t-25 78v85h43z" />
    <glyph glyph-name="uni1FB3" unicode="&#x1fb3;" horiz-adv-x="500" 
d="M55 242q0 52 9.5 99.5t31.5 83t58 56.5t90 21q19 0 40 -3.5t40.5 -13.5t37 -28t31.5 -46l1 1v84h44v-496h-44v91h-1q-20 -38 -57.5 -67t-94.5 -29q-54 0 -90 21.5t-57 56.5t-30 79.5t-9 89.5zM101 248q0 -36 5.5 -73.5t22 -68t45 -50.5t75.5 -20q41 0 69 18t45 48
t24 68.5t7 79.5q0 32 -5 69t-20.5 69t-44 53t-75.5 21q-49 0 -78 -21t-44.5 -52.5t-20.5 -69t-5 -71.5zM282 -67v-75q0 -15 2.5 -29t9.5 -24t19.5 -16t32.5 -6h13v-38h-22q-48 0 -73 25t-25 78v85h43z" />
    <glyph glyph-name="uni1FB4" unicode="&#x1fb4;" horiz-adv-x="500" 
d="M55 242q0 52 9.5 99.5t31.5 83t58 56.5t90 21q19 0 40 -3.5t40.5 -13.5t37 -28t31.5 -46l1 1v84h44v-496h-44v91h-1q-20 -38 -57.5 -67t-94.5 -29q-54 0 -90 21.5t-57 56.5t-30 79.5t-9 89.5zM101 248q0 -36 5.5 -73.5t22 -68t45 -50.5t75.5 -20q41 0 69 18t45 48
t24 68.5t7 79.5q0 32 -5 69t-20.5 69t-44 53t-75.5 21q-49 0 -78 -21t-44.5 -52.5t-20.5 -69t-5 -71.5zM264 571l-26 9l89 175l57 -12zM282 -67v-75q0 -15 2.5 -29t9.5 -24t19.5 -16t32.5 -6h13v-38h-22q-48 0 -73 25t-25 78v85h43z" />
    <glyph glyph-name="uni1FBA" unicode="&#x1fba;" horiz-adv-x="585" 
d="M459 170h-335l-60 -170h-50l253 696h49q64 -175 127.5 -348t126.5 -348h-51zM290 639q-4 -11 -15.5 -43t-26.5 -75.5t-32.5 -92.5t-33 -92.5t-27.5 -77.5t-17 -47h307l-90 254q-16 44 -31.5 87t-30.5 87h-3zM62 520q-29 44 -56 86.5t-56 85.5l57 12l81 -174z" />
    <glyph glyph-name="uni1FBB" unicode="&#x1fbb;" horiz-adv-x="585" 
d="M459 170h-335l-60 -170h-50l253 696h49q64 -175 127.5 -348t126.5 -348h-51zM290 639q-4 -11 -15.5 -43t-26.5 -75.5t-32.5 -92.5t-33 -92.5t-27.5 -77.5t-17 -47h307l-90 254q-16 44 -31.5 87t-30.5 87h-3zM-25 530q22 43 43.5 86.5t44.5 87.5l57 -12l-120 -172z" />
    <glyph glyph-name="uni1FBC" unicode="&#x1fbc;" horiz-adv-x="801" 
d="M459 170h-335l-60 -170h-50l253 696h49q64 -175 127.5 -348t126.5 -348h-51zM290 639q-4 -11 -15.5 -43t-26.5 -75.5t-32.5 -92.5t-33 -92.5t-27.5 -77.5t-17 -47h307l-152 428h-3zM755 0q-49 0 -78 25t-29 79v392h44v-350q0 -18 0.5 -37t7.5 -34.5t22 -26t44 -10.5h11
v-38h-22z" />
    <glyph glyph-name="uni1FC2" unicode="&#x1fc2;" horiz-adv-x="508" 
d="M399 0v317q0 34 -11 60.5t-30.5 44.5t-46 27.5t-57.5 9.5q-32 0 -59 -11.5t-46.5 -32t-30.5 -49t-11 -63.5v-303h-43v496h43v-81h2q25 47 68 66t86 19q38 0 71 -11.5t57 -33t38 -52.5t14 -70v-333h-44zM135 743l59 12l81 -175l-26 -9zM282 -67v-75q0 -15 2.5 -29t9.5 -24
t19.5 -16t32.5 -6h13v-38h-22q-48 0 -73 25t-25 78v85h43z" />
    <glyph glyph-name="uni1FC3" unicode="&#x1fc3;" horiz-adv-x="508" 
d="M399 0v317q0 34 -11 60.5t-30.5 44.5t-46 27.5t-57.5 9.5q-32 0 -59 -11.5t-46.5 -32t-30.5 -49t-11 -63.5v-303h-43v496h43v-81h2q25 47 68 66t86 19q38 0 71 -11.5t57 -33t38 -52.5t14 -70v-333h-44zM280 -67v-75q0 -15 2.5 -29t9.5 -24t19.5 -16t32.5 -6h13v-38h-22
q-48 0 -73 25t-25 78v85h43z" />
    <glyph glyph-name="uni1FC4" unicode="&#x1fc4;" horiz-adv-x="508" 
d="M399 0v317q0 34 -11 60.5t-30.5 44.5t-46 27.5t-57.5 9.5q-32 0 -59 -11.5t-46.5 -32t-30.5 -49t-11 -63.5v-303h-43v496h43v-81h2q25 47 68 66t86 19q38 0 71 -11.5t57 -33t38 -52.5t14 -70v-333h-44zM251 571l-26 9l89 175l57 -12zM282 -67v-75q0 -15 2.5 -29t9.5 -24
t19.5 -16t32.5 -6h13v-38h-22q-48 0 -73 25t-25 78v85h43z" />
    <glyph glyph-name="uni1FC8" unicode="&#x1fc8;" horiz-adv-x="528" 
d="M79 0v696h422v-43h-375v-279h320v-42h-320v-289h375v-43h-422zM-136 693l58 12l82 -175l-26 -9z" />
    <glyph glyph-name="uni1FC9" unicode="&#x1fc9;" horiz-adv-x="528" 
d="M79 0v696h422v-43h-375v-279h320v-42h-320v-289h375v-43h-422zM-109 521l-26 9l89 175l57 -12z" />
    <glyph glyph-name="uni1FCA" unicode="&#x1fca;" horiz-adv-x="625" 
d="M499 0v332h-374v-332h-46v696h46v-322h374v322h47v-696h-47zM-154 693l59 12l81 -175l-26 -9z" />
    <glyph glyph-name="uni1FCB" unicode="&#x1fcb;" horiz-adv-x="625" 
d="M499 0v332h-374v-332h-46v696h46v-322h374v322h47v-696h-47zM-128 521l-26 9l89 175l57 -12z" />
    <glyph glyph-name="uni1FCC" unicode="&#x1fcc;" horiz-adv-x="827" 
d="M781 0q-48 0 -77 25t-29 79v392h44v-350q0 -17 0.5 -36t7 -35t22 -26.5t44.5 -10.5h11v-38h-23zM499 332h-374v-332h-47v696h47v-323h374v323h46v-696h-46v332z" />
    <glyph glyph-name="uni1FD8" unicode="&#x1fd8;" horiz-adv-x="221" 
d="M86 0v696h47v-696h-47zM21 841q5 -29 29.5 -51t59.5 -22q37 0 60.5 22t28.5 51h38q-3 -19 -11 -38.5t-23 -35.5t-38 -26t-55 -10t-55 10t-38.5 26t-23.5 35.5t-10 38.5h38z" />
    <glyph glyph-name="uni1FD9" unicode="&#x1fd9;" horiz-adv-x="215" 
d="M84 0v696h46v-696h-46zM-20 769v41h255v-41h-255z" />
    <glyph glyph-name="uni1FDA" unicode="&#x1fda;" horiz-adv-x="216" 
d="M83 0v696h46v-696h-46zM-130 693l59 12l81 -175l-26 -9z" />
    <glyph glyph-name="uni1FDB" unicode="&#x1fdb;" horiz-adv-x="216" 
d="M83 0v696h46v-696h-46zM-113 521l-26 9l90 175l57 -12z" />
    <glyph glyph-name="uni1FE0" unicode="&#x1fe0;" horiz-adv-x="522" 
d="M452 178q0 -90 -52.5 -137.5t-138.5 -47.5q-43 0 -78 13.5t-60 37.5t-38.5 57.5t-13.5 74.5v319h43v-302q0 -71 39.5 -115t108.5 -44t107.5 40.5t38.5 109.5v311h44v-317zM173 674q6 -33 31.5 -53t57.5 -20q33 0 56.5 17.5t31.5 55.5h39q-3 -19 -11 -38.5t-23 -35.5
t-38 -26t-55 -10t-55 10t-39 26t-24 35.5t-10 38.5h39z" />
    <glyph glyph-name="uni1FE1" unicode="&#x1fe1;" horiz-adv-x="522" 
d="M452 178q0 -90 -52.5 -137.5t-138.5 -47.5q-43 0 -78 13.5t-60 37.5t-38.5 57.5t-13.5 74.5v319h43v-302q0 -71 39.5 -115t108.5 -44t107.5 40.5t38.5 109.5v311h44v-317zM131 583v41h255v-41h-255z" />
    <glyph glyph-name="uni1FE2" unicode="&#x1fe2;" horiz-adv-x="522" 
d="M452 178q0 -90 -52.5 -137.5t-138.5 -47.5q-43 0 -78 13.5t-60 37.5t-38.5 57.5t-13.5 74.5v319h43v-302q0 -71 39.5 -115t108.5 -44t107.5 40.5t38.5 109.5v311h44v-317zM127 610v54h54v-54h-54zM346 610v54h54v-54h-54zM187 746l58 12l81 -178l-26 -9z" />
    <glyph glyph-name="uni1FE3" unicode="&#x1fe3;" horiz-adv-x="522" 
d="M452 178q0 -90 -52.5 -137.5t-138.5 -47.5q-43 0 -78 13.5t-60 37.5t-38.5 57.5t-13.5 74.5v319h43v-302q0 -71 39.5 -115t108.5 -44t107.5 40.5t38.5 109.5v311h44v-317zM347 613v54h54v-54h-54zM127 613v54h54v-54h-54zM233 573l-26 10l89 178l57 -12z" />
    <glyph glyph-name="uni1FE4" unicode="&#x1fe4;" horiz-adv-x="500" 
d="M256 501q54 0 95 -21t66 -59q18 -28 27 -68.5t9 -108.5t-13.5 -111.5t-35.5 -70.5q-26 -35 -63 -51t-84 -16q-42 0 -81.5 17t-69.5 67l-1 -1v-278h-44v449q0 63 13.5 110t36.5 74q26 30 61 49t84 19zM255 462q-35 0 -63.5 -15.5t-48.5 -41.5q-17 -20 -27.5 -58.5
t-10.5 -99.5q0 -35 4.5 -71.5t19.5 -66.5t45 -50.5t81 -23.5q38 0 68 14.5t49 44.5q17 22 27 55.5t10 95.5q0 61 -7.5 94t-19.5 53q-20 33 -52.5 51.5t-74.5 18.5zM240 582q25 42 25 74q0 18 -10 32.5t-42 22.5l20 46q38 -9 59 -31t21 -54q0 -22 -11.5 -49t-37.5 -53z" />
    <glyph glyph-name="uni1FE5" unicode="&#x1fe5;" horiz-adv-x="500" 
d="M256 501q54 0 95 -21t66 -59q18 -28 27 -68.5t9 -108.5t-13.5 -111.5t-35.5 -70.5q-26 -35 -63 -51t-84 -16q-42 0 -81.5 17t-69.5 67l-1 -1v-278h-44v449q0 63 13.5 110t36.5 74q26 30 61 49t84 19zM255 462q-35 0 -63.5 -15.5t-48.5 -41.5q-17 -20 -27.5 -58.5
t-10.5 -99.5q0 -35 4.5 -71.5t19.5 -66.5t45 -50.5t81 -23.5q38 0 68 14.5t49 44.5q17 22 27 55.5t10 95.5q0 61 -7.5 94t-19.5 53q-20 33 -52.5 51.5t-74.5 18.5zM262 570q-26 26 -38 53t-12 49q0 32 21.5 53t59.5 32q5 -12 9.5 -23t9.5 -23q-29 -8 -40.5 -22.5
t-11.5 -32.5q0 -16 7 -35t19 -39z" />
    <glyph glyph-name="uni1FE8" unicode="&#x1fe8;" horiz-adv-x="475" 
d="M259 0h-44v288l-209 408h49q7 -13 21.5 -42l33 -66l39 -78t38 -77t31.5 -63.5t19 -38.5q19 37 37 73.5t36 74.5q28 54 55.5 108t53.5 109h48q-53 -103 -104.5 -204t-103.5 -204v-288zM237 766q37 0 60.5 22t28.5 51h38q-3 -19 -11 -38.5t-23 -35.5t-38 -26t-55 -10
t-55 10t-38.5 26t-23.5 35.5t-10 38.5h38q5 -29 29.5 -51t59.5 -22z" />
    <glyph glyph-name="uni1FE9" unicode="&#x1fe9;" horiz-adv-x="475" 
d="M259 0h-44v288l-209 408h49q7 -13 21.5 -42l33 -66l39 -78t38 -77t31.5 -63.5t19 -38.5q19 37 37 73.5t36 74.5q28 54 55.5 108t53.5 109h48q-53 -103 -104.5 -204t-103.5 -204v-288zM110 810h255v-41h-255v41z" />
    <glyph glyph-name="uni1FEA" unicode="&#x1fea;" horiz-adv-x="475" 
d="M259 0h-44v288l-209 408h49q7 -13 21.5 -42l33 -66l39 -78t38 -77t31.5 -63.5t19 -38.5q19 37 37 73.5t36 74.5q28 54 55.5 108t53.5 109h48q-53 -103 -104.5 -204t-103.5 -204v-288zM-73 520l-114 172l59 12q20 -44 40.5 -87.5t40.5 -86.5z" />
    <glyph glyph-name="uni1FEB" unicode="&#x1feb;" horiz-adv-x="475" 
d="M259 0h-44v288l-209 408h49q7 -13 21.5 -42l33 -66l39 -78t38 -77t31.5 -63.5t19 -38.5q19 37 37 73.5t36 74.5q28 54 55.5 108t53.5 109h48q-53 -103 -104.5 -204t-103.5 -204v-288zM-179 530l90 174l56 -12l-120 -172z" />
    <glyph glyph-name="uni1FEC" unicode="&#x1fec;" horiz-adv-x="555" 
d="M328 696q42 0 81 -11t69 -35t48 -63t18 -94q0 -34 -12.5 -69t-38 -63t-64.5 -45.5t-91 -17.5h-211v-298h-47v696h248zM127 341h205q43 0 74 13.5t50.5 35.5t28.5 49.5t9 56.5q0 40 -13 69.5t-35.5 49t-53 29t-64.5 9.5h-201v-312zM-80 532q11 20 18.5 38.5t7.5 34.5
q0 18 -10.5 33t-41.5 23q5 12 9.5 23t9.5 23q39 -9 60 -31t21 -54q0 -22 -11.5 -49t-37.5 -53z" />
    <glyph glyph-name="uni1FF2" unicode="&#x1ff2;" horiz-adv-x="758" 
d="M537 -5q-22 0 -45 5t-44 16.5t-38.5 30.5t-29.5 48q-29 -60 -69 -80.5t-87 -20.5q-56 0 -91 21t-54.5 56t-26 81t-6.5 96q0 46 7 88t25 75.5t48.5 55.5t78.5 30l5 -41q-43 -8 -67 -31t-36 -56.5t-14.5 -74t-2.5 -82.5q0 -36 7.5 -68t24 -57t42 -39.5t60.5 -14.5
q33 0 57.5 13t41 33.5t25 46.5t8.5 53v190h43v-190q0 -27 8.5 -53t26 -46.5t43.5 -33t61 -12.5q39 0 64.5 15t41 43t21.5 67.5t6 88.5q0 37 -4.5 72t-17.5 63t-36.5 47.5t-61.5 26.5l5 41q48 -7 79 -29.5t49 -55.5t25 -75.5t7 -88.5q0 -50 -7 -96t-26.5 -81t-54.5 -56
t-91 -21zM454 -254q-48 0 -73 24.5t-25 77.5v85h42v-67q0 -17 2 -32t9 -26.5t20 -18t34 -6.5h12v-37h-21zM362 570l-114 172l58 12l81 -174z" />
    <glyph glyph-name="uni1FF3" unicode="&#x1ff3;" horiz-adv-x="758" 
d="M537 -5q-22 0 -45 5t-44 16.5t-38.5 30.5t-29.5 48q-29 -60 -69 -80.5t-87 -20.5q-56 0 -91 21t-54.5 56t-26 81t-6.5 96q0 46 7 88t25 75.5t48.5 55.5t78.5 30l5 -41q-43 -8 -67 -31t-36 -56.5t-14.5 -74t-2.5 -82.5q0 -36 7.5 -68t24 -57t42 -39.5t60.5 -14.5
q33 0 57.5 13t41 33.5t25 46.5t8.5 53v190h43v-190q0 -27 8.5 -53t26 -46.5t43.5 -33t61 -12.5q39 0 64.5 15t41 43t21.5 67.5t6 88.5q0 37 -4.5 72t-17.5 63t-36.5 47.5t-61.5 26.5l5 41q48 -7 79 -29.5t49 -55.5t25 -75.5t7 -88.5q0 -50 -7 -96t-26.5 -81t-54.5 -56
t-91 -21zM453 -254q-48 0 -73 24.5t-25 77.5v85h42v-67q0 -17 2 -32t9 -26.5t20 -18t34 -6.5h13v-37h-22z" />
    <glyph glyph-name="uni1FF4" unicode="&#x1ff4;" horiz-adv-x="758" 
d="M537 -5q-22 0 -45 5t-44 16.5t-38.5 30.5t-29.5 48q-29 -60 -69 -80.5t-87 -20.5q-56 0 -91 21t-54.5 56t-26 81t-6.5 96q0 46 7 88t25 75.5t48.5 55.5t78.5 30l5 -41q-43 -8 -67 -31t-36 -56.5t-14.5 -74t-2.5 -82.5q0 -36 7.5 -68t24 -57t42 -39.5t60.5 -14.5
q33 0 57.5 13t41 33.5t25 46.5t8.5 53v190h43v-190q0 -27 8.5 -53t26 -46.5t43.5 -33t61 -12.5q39 0 64.5 15t41 43t21.5 67.5t6 88.5q0 37 -4.5 72t-17.5 63t-36.5 47.5t-61.5 26.5l5 41q48 -7 79 -29.5t49 -55.5t25 -75.5t7 -88.5q0 -50 -7 -96t-26.5 -81t-54.5 -56
t-91 -21zM454 -254q-48 0 -73 24.5t-25 77.5v85h42v-67q0 -17 2 -32t9 -26.5t20 -18t34 -6.5h12v-37h-21zM334 580q23 43 44.5 86.5t44.5 87.5l57 -12l-120 -172z" />
    <glyph glyph-name="uni1FF8" unicode="&#x1ff8;" horiz-adv-x="571" 
d="M286 701q56 0 100 -18.5t75 -51.5t47 -78.5t16 -99.5v-207q0 -58 -16.5 -105t-47.5 -80t-75 -50.5t-99 -17.5q-62 0 -107.5 20.5t-75 55t-44 80.5t-14.5 97v207q0 50 15 95t45 79t75 54t106 20zM287 657q-49 0 -85.5 -16.5t-60.5 -45t-36 -65.5t-12 -79v-207
q0 -41 12 -78.5t36 -66.5t60.5 -46t85.5 -17q44 0 79 16t59.5 44t37.5 67t13 85v203q0 43 -13 81t-37 65.5t-59 43.5t-80 16zM-140 693l58 12l81 -175l-26 -9z" />
    <glyph glyph-name="uni1FF9" unicode="&#x1ff9;" horiz-adv-x="571" 
d="M286 701q56 0 100 -18.5t75 -51.5t47 -78.5t16 -99.5v-207q0 -58 -16.5 -105t-47.5 -80t-75 -50.5t-99 -17.5q-62 0 -107.5 20.5t-75 55t-44 80.5t-14.5 97v207q0 50 15 95t45 79t75 54t106 20zM287 657q-49 0 -85.5 -16.5t-60.5 -45t-36 -65.5t-12 -79v-207
q0 -41 12 -78.5t36 -66.5t60.5 -46t85.5 -17q44 0 79 16t59.5 44t37.5 67t13 85v203q0 43 -13 81t-37 65.5t-59 43.5t-80 16zM-115 521l-26 9l89 175l57 -12z" />
    <glyph glyph-name="uni1FFA" unicode="&#x1ffa;" horiz-adv-x="566" 
d="M147 42q-54 28 -79.5 84.5t-25.5 130.5v196q0 50 15 95t45 79t75 54t105 20q56 0 100 -18.5t75 -51.5t47 -78.5t16 -99.5v-196q0 -74 -25.5 -129t-76.5 -85q0 -1 1 -1h117v-42h-191v51q61 20 94 75t33 130v195q0 43 -12.5 81t-36.5 65.5t-59.5 43.5t-80.5 16
q-50 0 -86.5 -16.5t-60.5 -45t-35.5 -65.5t-11.5 -79v-195q0 -33 8 -65.5t24 -60.5t40.5 -49t56.5 -31v-50h-191v42h120zM1 530q-5 -2 -11.5 -5t-13.5 -5l-113 172l58 12z" />
    <glyph glyph-name="uni1FFB" unicode="&#x1ffb;" horiz-adv-x="566" 
d="M147 42q-54 28 -79.5 84.5t-25.5 130.5v196q0 50 15 95t45 79t75 54t105 20q56 0 100 -18.5t75 -51.5t47 -78.5t16 -99.5v-196q0 -74 -25.5 -129t-76.5 -85q0 -1 1 -1h117v-42h-191v51q61 20 94 75t33 130v195q0 43 -12.5 81t-36.5 65.5t-59.5 43.5t-80.5 16
q-50 0 -86.5 -16.5t-60.5 -45t-35.5 -65.5t-11.5 -79v-195q0 -33 8 -65.5t24 -60.5t40.5 -49t56.5 -31v-50h-191v42h120zM-131 530q23 43 44.5 86.5t44.5 87.5l56 -12l-119 -172z" />
    <glyph glyph-name="uni1FFC" unicode="&#x1ffc;" horiz-adv-x="800" 
d="M754 0q-48 0 -77 25t-29 79v392h44v-350q0 -17 0.5 -36t7 -35t22 -26.5t44.5 -10.5h11v-38h-23zM147 42q-54 28 -79.5 84.5t-25.5 130.5v196q0 50 15 95t45 79t75 54t105 20q56 0 100 -18.5t75 -51.5t47 -78.5t16 -99.5v-196q0 -74 -25.5 -129t-76.5 -85q0 -1 1 -1h117
v-42h-191v51q61 20 94 75t33 130v195q0 43 -12.5 81t-36.5 65.5t-59.5 43.5t-80.5 16q-50 0 -86.5 -16.5t-60.5 -45t-35.5 -65.5t-11.5 -79v-195q0 -33 8 -65.5t24 -60.5t40.5 -49t56.5 -31v-50h-191v42h120z" />
    <glyph glyph-name="uni1FB8" unicode="&#x1fb8;" horiz-adv-x="585" 
d="M459 170h-335l-60 -170h-50l253 696h49q64 -175 127.5 -348t126.5 -348h-51zM290 639q-4 -11 -15.5 -43t-26.5 -75.5t-32.5 -92.5t-33 -92.5t-27.5 -77.5t-17 -47h307l-90 254q-16 44 -31.5 87t-30.5 87h-3zM292 766q37 0 61 22t28 51h38q-3 -19 -11 -38.5t-23 -35.5
t-38 -26t-55 -10t-55 10t-38.5 26t-23.5 35.5t-10 38.5h38q5 -29 29.5 -51t59.5 -22z" />
    <glyph glyph-name="uni1FB9" unicode="&#x1fb9;" horiz-adv-x="585" 
d="M459 170h-335l-60 -170h-50l253 696h49q64 -175 127.5 -348t126.5 -348h-51zM290 639q-4 -11 -15.5 -43t-26.5 -75.5t-32.5 -92.5t-33 -92.5t-27.5 -77.5t-17 -47h307l-90 254q-16 44 -31.5 87t-30.5 87h-3zM165 810h254v-41h-254v41z" />
    <glyph glyph-name="guilsinglright" unicode="&#x203a;" horiz-adv-x="276" 
d="M63 46l114 173l-114 172h44l118 -172l-117 -173h-45z" />
    <glyph glyph-name="guilsinglleft" unicode="&#x2039;" horiz-adv-x="276" 
d="M180 46l-117 173l118 172h44l-114 -172l114 -173h-45z" />
    <glyph glyph-name="exclamdown" unicode="&#xa1;" horiz-adv-x="212" 
d="M90 300h33l6 -507h-45zM134 489v-60h-54v60h54z" />
    <glyph glyph-name="questiondown" unicode="&#xbf;" horiz-adv-x="429" 
d="M404 -42q-20 -84 -74.5 -126.5t-123.5 -42.5q-41 0 -74 13t-56.5 36.5t-36.5 55t-13 68.5q0 49 24 86.5t51 68.5q15 16 30 32.5t27 34t20 37t9 42.5v66h46v-68q0 -26 -10 -50.5t-25 -45.5q-14 -20 -35.5 -42t-41.5 -46.5t-34.5 -51.5t-14.5 -57q0 -20 6.5 -44t22.5 -44.5
t43 -34.5t68 -14q33 0 59.5 14t45 34.5t29.5 44t14 42.5zM236 490v-61h-55v61h55z" />
    <glyph glyph-name="emdash" unicode="&#x2014;" horiz-adv-x="993" 
d="M20 243v43h953v-43h-953z" />
    <glyph glyph-name="Thorn" unicode="&#xde;" horiz-adv-x="555" 
d="M80 695h47v-144h201q42 0 81 -11t69 -35t48 -62.5t18 -93.5q0 -35 -12.5 -69.5t-38 -63t-64.5 -46t-91 -17.5h-211v-153h-47v695zM494 352q0 39 -13 68.5t-35.5 49t-53 29t-64.5 9.5h-201v-312h205q43 0 74 13.5t50.5 35.5t28.5 50t9 57z" />
    <glyph glyph-name="thorn" unicode="&#xfe;" horiz-adv-x="497" 
d="M102 696v-284h1q16 27 34.5 44.5t38 27.5t39.5 14t40 4q52 0 88 -20.5t57.5 -55.5t31 -81.5t9.5 -97.5q0 -46 -9 -91t-30.5 -81t-58.5 -58t-93 -22q-57 0 -90.5 24.5t-56.5 62.5h-1v-281h-44v895h44zM102 250q0 -42 7 -80.5t24 -68.5t45 -47.5t69 -17.5q47 0 76 20
t45 50.5t21.5 68t5.5 73.5q0 34 -5 71.5t-20.5 69t-44.5 52.5t-78 21q-47 0 -75.5 -21t-44 -53t-20.5 -69t-5 -69z" />
    <glyph glyph-name="OE" unicode="&#x152;" horiz-adv-x="790" 
d="M346 0q-15 -3 -30.5 -5t-32.5 -2q-62 0 -107 20.5t-74.5 55t-44 80.5t-14.5 97v207q0 50 15 95t45 79t75 54t105 20q16 0 31.5 -1t29.5 -4h419v-43h-375v-279h321v-42h-321v-289h375v-43h-417zM284 36q30 0 57 8v607q-26 6 -57 6q-49 0 -85.5 -16.5t-60.5 -45t-36 -65.5
t-12 -79v-207q0 -41 12 -78.5t36 -66.5t60.5 -46t85.5 -17z" />
    <glyph glyph-name="quotesinglbase" unicode="&#x201a;" horiz-adv-x="174" 
d="M74 -100h-25l26 100h-16v66h57v-67z" />
    <glyph glyph-name="quotedblbase" unicode="&#x201e;" horiz-adv-x="350" 
d="M88 -100h-25l26 100h-16v66h56v-67zM236 -100h-25l26 99h-16v66h57v-67z" />
    <glyph glyph-name="daggerdbl" unicode="&#x2021;" horiz-adv-x="447" 
d="M200 411h-177v41h177v244h46v-244h178v-41h-178v-255h178v-41h-178v-309h-46v309h-177v41h177v255z" />
    <glyph glyph-name="cent" unicode="&#xa2;" horiz-adv-x="467" 
d="M271 -113h-28v107q-37 4 -71 20.5t-60 47t-41.5 76.5t-15.5 109t15.5 108t41.5 75.5t60 46.5t71 21v109h28v-107q26 -2 46 -5.5t37.5 -10t32.5 -16t32 -22.5l-27 -32q-23 20 -54 33t-67 13v-428q37 0 66 13.5t55 33.5q7 -8 14 -15.5t14 -15.5q-29 -25 -68 -39t-81 -15
v-107zM99 247q0 -93 37 -147t107 -65v422q-70 -11 -107 -64.5t-37 -145.5z" />
    <glyph glyph-name="currency" unicode="&#xa4;" horiz-adv-x="514" 
d="M79 490q5 6 13 14l14 14l58 -58q50 38 109 38q28 0 54.5 -9.5t51.5 -26.5l58 58q5 -6 12.5 -13.5l14.5 -14.5l-58 -58q42 -51 42 -110q0 -29 -10 -56.5t-28 -52.5l58 -57q-6 -8 -13.5 -15t-14.5 -14l-58 58q-48 -38 -109 -40q-61 1 -111 43l-58 -58q-5 6 -14 14.5
t-14 13.5l58 58q-35 49 -35 106q-1 29 9 56t29 52zM140 324q0 -28 10 -52.5t28 -42.5t42 -28.5t52 -10.5t52.5 10.5t42.5 28.5t28.5 42.5t10.5 52.5t-10 52.5t-28 42.5t-42.5 28.5t-52.5 10.5t-52.5 -10.5t-42.5 -28.5t-28 -42.5t-10 -52.5z" />
    <glyph glyph-name="paragraph" unicode="&#xb6;" horiz-adv-x="494" 
d="M259 682v-763h-46v440q-40 0 -74 12.5t-58.5 35.5t-38.5 57t-14 77q0 36 10.5 69.5t33 58.5t56 40t80.5 15h259v-42h-62v-763h-46v763h-100z" />
    <glyph glyph-name="Oslash" unicode="&#xd8;" horiz-adv-x="571" 
d="M286 701q53 0 94.5 -16.5t72.5 -46.5l41 62l27 -18l-45 -70q23 -31 35.5 -71t12.5 -88v-207q0 -58 -16.5 -105t-47.5 -80t-75 -50.5t-99 -17.5q-59 0 -102.5 18t-72.5 50l-43 -64l-27 18l48 72q-23 33 -33.5 73.5t-10.5 85.5v207q0 50 15 95t45 79t75 54t106 20zM476 451
q0 33 -8 63t-22 54l-308 -465q25 -31 61.5 -49t87.5 -18q44 0 79 16t59.5 44t37.5 67t13 85v203zM287 657q-49 0 -85.5 -16.5t-60.5 -45t-36 -65.5t-12 -79v-207q0 -30 6.5 -58.5t20.5 -52.5l306 464q-25 27 -59.5 43.5t-79.5 16.5z" />
    <glyph glyph-name="oslash" unicode="&#xf8;" horiz-adv-x="489" 
d="M249 501q80 0 131 -46l40 53l24 -18l-43 -58q2 -2 4 -5l4 -6q17 -28 26 -68.5t9 -108.5t-14 -111.5t-35 -70.5q-27 -35 -66 -51.5t-88 -16.5q-84 0 -133 46l-37 -50l-24 18l41 55q-22 31 -33 75.5t-11 110.5q0 69 15 112.5t39 72.5q26 31 63.5 49t87.5 18zM373 392
q-1 0 -1 1l-235 -315q39 -45 107 -45q38 0 68.5 16t50.5 45q16 23 26.5 56t10.5 95q0 61 -7.5 94t-19.5 53zM247 462q-38 0 -67 -15.5t-49 -40.5t-31.5 -61t-11.5 -98q0 -52 8 -86t22 -58l235 315q-42 44 -106 44z" />
    <glyph glyph-name="Scaron" unicode="&#x160;" horiz-adv-x="546" 
d="M509 181q0 -43 -17 -77.5t-48 -59t-75 -37.5t-98 -13q-71 0 -128 17t-111 55l28 37q45 -29 99 -47t114 -18q38 0 72 9.5t59.5 27.5t40.5 44.5t15 61.5q0 42 -17.5 68.5t-44.5 42.5t-59.5 23.5t-61.5 12.5q-47 7 -88.5 18.5t-72 32t-48 53t-17.5 82.5q0 40 14.5 74.5
t42.5 60t68.5 39.5t92.5 14q56 0 107 -13.5t95 -39.5l-27 -41q-41 22 -86.5 36t-93.5 14q-31 0 -60.5 -9t-53 -27t-37.5 -45.5t-14 -64.5q0 -39 18 -64t45.5 -40t59.5 -22.5t60 -12.5q44 -8 85 -20t72.5 -33t50.5 -54.5t19 -84.5zM400 861l18 -21l-126 -109h-37l-131 110
l17 21l130 -84z" />
    <glyph glyph-name="Zcaron" unicode="&#x17d;" horiz-adv-x="488" 
d="M33 0v42l370 613h-354v41h406v-40l-370 -613h370v-43h-422zM386 861l18 -21l-126 -109h-37l-131 110l17 21l130 -84z" />
    <glyph glyph-name="scaron" unicode="&#x161;" horiz-adv-x="460" 
d="M420 133q0 -60 -50.5 -100t-147.5 -40q-108 0 -191 62l26 34q73 -57 174 -57q23 0 48 5t46 17t35 32t14 50t-13.5 48.5t-34 28t-45.5 13.5t-48 6q-31 3 -64 9t-60.5 20t-45 38t-17.5 63q0 33 13 59t37 43.5t56.5 27t71.5 9.5q54 0 92.5 -11t72.5 -32l-24 -37
q-32 19 -65.5 29.5t-75.5 10.5q-28 0 -52 -6.5t-42 -19.5t-28.5 -31.5t-10.5 -42.5q0 -28 15.5 -44.5t38.5 -25t49 -12t48 -5.5q31 -3 63 -9t57.5 -21t41.5 -41.5t16 -69.5zM341 701l21 -20l-126 -124h-37l-132 124l21 21l127 -97z" />
    <glyph glyph-name="zcaron" unicode="&#x17e;" horiz-adv-x="421" 
d="M35 0v36l300 421h-285v38h335v-37l-298 -419h298v-39h-350zM338 701l21 -20l-126 -124h-37l-132 124l21 21l127 -97z" />
    <glyph glyph-name="Ydieresis" unicode="&#x178;" horiz-adv-x="475" 
d="M259 0h-44v288l-209 408h49q7 -13 21.5 -42l33 -66l39 -78t38 -77t31.5 -63.5t19 -38.5q19 37 37 73.5t36 74.5q28 54 55.5 108t53.5 109h48q-53 -103 -104.5 -204t-103.5 -204v-288zM308 811h55v-53h-55v53zM130 811h54v-53h-54v53z" />
    <glyph glyph-name="Agrave" unicode="&#xc0;" horiz-adv-x="598" 
d="M459 170h-335l-60 -170h-50l253 696h49q64 -175 127.5 -348t126.5 -348h-51zM290 639q-4 -11 -15.5 -43t-26.5 -75.5t-32.5 -92.5t-33 -92.5t-27.5 -77.5t-17 -47h307l-90 254q-16 44 -31.5 87t-30.5 87h-3zM318 751q-5 -6 -9.5 -12t-9.5 -11l-151 93l35 38
q34 -28 67.5 -54.5t67.5 -53.5z" />
    <glyph glyph-name="Aacute" unicode="&#xc1;" horiz-adv-x="585" 
d="M459 170h-335l-60 -170h-50l253 696h49q64 -175 127.5 -348t126.5 -348h-51zM290 639q-4 -11 -15.5 -43t-26.5 -75.5t-32.5 -92.5t-33 -92.5t-27.5 -77.5t-17 -47h307l-90 254q-16 44 -31.5 87t-30.5 87h-3zM282 728q-5 5 -10 11l-10 12q34 27 68 53.5t68 54.5
q8 -10 17 -19t18 -19z" />
    <glyph glyph-name="Acircumflex" unicode="&#xc2;" horiz-adv-x="585" 
d="M459 170h-335l-60 -170h-50l253 696h49q64 -175 127.5 -348t126.5 -348h-51zM290 639q-4 -11 -15.5 -43t-26.5 -75.5t-32.5 -92.5t-33 -92.5t-27.5 -77.5t-17 -47h307l-90 254q-16 44 -31.5 87t-30.5 87h-3zM422 730q-33 21 -65 42t-64 41l-130 -84l-18 21l132 110h36
l127 -109z" />
    <glyph glyph-name="Aring" unicode="&#xc5;" horiz-adv-x="585" 
d="M459 170h-335l-60 -170h-50l253 696h49q64 -175 127.5 -348t126.5 -348h-51zM290 639q-4 -11 -15.5 -43t-26.5 -75.5t-32.5 -92.5t-33 -92.5t-27.5 -77.5t-17 -47h307l-90 254q-16 44 -31.5 87t-30.5 87h-3zM291 714q-38 0 -64 26.5t-26 63.5q0 38 26 63.5t64 25.5
t64.5 -25.5t26.5 -63.5q0 -37 -26.5 -63.5t-64.5 -26.5zM291 867q-26 0 -44 -18.5t-18 -44.5t18 -44.5t44 -18.5q27 0 45 18.5t18 44.5t-18 44.5t-45 18.5z" />
    <glyph glyph-name="Egrave" unicode="&#xc8;" horiz-adv-x="528" 
d="M79 0v696h422v-43h-375v-279h320v-42h-320v-289h375v-43h-422zM317 729l-151 93l36 37l135 -108z" />
    <glyph glyph-name="Ecircumflex" unicode="&#xca;" horiz-adv-x="528" 
d="M79 0v696h422v-43h-375v-279h320v-42h-320v-289h375v-43h-422zM293 814l-130 -84l-18 21l131 109h37l127 -108l-18 -21z" />
    <glyph glyph-name="Edieresis" unicode="&#xcb;" horiz-adv-x="528" 
d="M79 0v696h422v-43h-375v-279h320v-42h-320v-289h375v-43h-422zM351 758v53h55v-53h-55zM172 758v53h55v-53h-55z" />
    <glyph glyph-name="Igrave" unicode="&#xcc;" horiz-adv-x="212" 
d="M83 0v696h46v-696h-46zM113 729l-151 93l36 37l135 -108z" />
    <glyph glyph-name="Iacute" unicode="&#xcd;" horiz-adv-x="212" 
d="M83 0v696h46v-696h-46zM89 751l135 108l35 -37l-151 -93z" />
    <glyph glyph-name="Icircumflex" unicode="&#xce;" horiz-adv-x="270" 
d="M97 0v696h46v-696h-46zM122 814l-130 -84l-18 21l132 109h37l126 -108l-18 -21z" />
    <glyph glyph-name="Idieresis" unicode="&#xcf;" horiz-adv-x="212" 
d="M83 0v696h46v-696h-46zM170 758v53h54v-53h-54zM-9 758v53h55v-53h-55z" />
    <glyph glyph-name="Eth" unicode="&#xd0;" horiz-adv-x="606" 
d="M303 696q78 0 135 -29.5t89 -96.5q17 -37 21 -90t4 -119q0 -75 -3.5 -131t-20.5 -96q-33 -75 -93.5 -104.5t-145.5 -29.5h-210v353h-66v36h66v307h224zM505 417q0 67 -15 112t-42 72.5t-65.5 39.5t-86.5 12h-170v-264h150v-36h-150v-310h170q59 0 99 17t64.5 48t35 73.5
t10.5 92.5v143z" />
    <glyph glyph-name="Ograve" unicode="&#xd2;" horiz-adv-x="571" 
d="M286 701q56 0 100 -18.5t75 -51.5t47 -78.5t16 -99.5v-207q0 -58 -16.5 -105t-47.5 -80t-75 -50.5t-99 -17.5q-62 0 -107.5 20.5t-75 55t-44 80.5t-14.5 97v207q0 50 15 95t45 79t75 54t106 20zM287 657q-49 0 -85.5 -16.5t-60.5 -45t-36 -65.5t-12 -79v-207
q0 -41 12 -78.5t36 -66.5t60.5 -46t85.5 -17q44 0 79 16t59.5 44t37.5 67t13 85v203q0 43 -13 81t-37 65.5t-59 43.5t-80 16zM331 729l-152 93l36 37l135 -108z" />
    <glyph glyph-name="Oacute" unicode="&#xd3;" horiz-adv-x="571" 
d="M286 701q56 0 100 -18.5t75 -51.5t47 -78.5t16 -99.5v-207q0 -58 -16.5 -105t-47.5 -80t-75 -50.5t-99 -17.5q-62 0 -107.5 20.5t-75 55t-44 80.5t-14.5 97v207q0 50 15 95t45 79t75 54t106 20zM287 657q-49 0 -85.5 -16.5t-60.5 -45t-36 -65.5t-12 -79v-207
q0 -41 12 -78.5t36 -66.5t60.5 -46t85.5 -17q44 0 79 16t59.5 44t37.5 67t13 85v203q0 43 -13 81t-37 65.5t-59 43.5t-80 16zM240 751l135 108l36 -37l-152 -93z" />
    <glyph glyph-name="Ocircumflex" unicode="&#xd4;" horiz-adv-x="571" 
d="M286 701q56 0 100 -18.5t75 -51.5t47 -78.5t16 -99.5v-207q0 -58 -16.5 -105t-47.5 -80t-75 -50.5t-99 -17.5q-62 0 -107.5 20.5t-75 55t-44 80.5t-14.5 97v207q0 50 15 95t45 79t75 54t106 20zM287 657q-49 0 -85.5 -16.5t-60.5 -45t-36 -65.5t-12 -79v-207
q0 -41 12 -78.5t36 -66.5t60.5 -46t85.5 -17q44 0 79 16t59.5 44t37.5 67t13 85v203q0 43 -13 81t-37 65.5t-59 43.5t-80 16zM285 814l-130 -84l-17 21l131 109h37l126 -108l-18 -21z" />
    <glyph glyph-name="Ugrave" unicode="&#xd9;" horiz-adv-x="606" 
d="M542 696v-464q0 -54 -18 -98t-49.5 -75t-75.5 -48t-96 -17q-54 0 -97.5 18t-75 50.5t-48.5 77.5t-17 99v457h46v-446q0 -44 13.5 -83t38.5 -67.5t60.5 -45t79.5 -16.5q42 0 77 14t60.5 40t39.5 64t14 86v454h48zM328 729l-151 93l35 37l136 -108z" />
    <glyph glyph-name="Uacute" unicode="&#xda;" horiz-adv-x="606" 
d="M542 696v-464q0 -54 -18 -98t-49.5 -75t-75.5 -48t-96 -17q-54 0 -97.5 18t-75 50.5t-48.5 77.5t-17 99v457h46v-446q0 -44 13.5 -83t38.5 -67.5t60.5 -45t79.5 -16.5q42 0 77 14t60.5 40t39.5 64t14 86v454h48zM237 751l136 108l35 -37l-151 -93z" />
    <glyph glyph-name="Ucircumflex" unicode="&#xdb;" horiz-adv-x="606" 
d="M542 696v-464q0 -54 -18 -98t-49.5 -75t-75.5 -48t-96 -17q-54 0 -97.5 18t-75 50.5t-48.5 77.5t-17 99v457h46v-446q0 -44 13.5 -83t38.5 -67.5t60.5 -45t79.5 -16.5q42 0 77 14t60.5 40t39.5 64t14 86v454h48zM302 814l-130 -84l-18 21l131 109h37l127 -108l-18 -21z
" />
    <glyph glyph-name="Yacute" unicode="&#xdd;" horiz-adv-x="475" 
d="M259 0h-44v288l-209 408h49q7 -13 21.5 -42l33 -66l39 -78t38 -77t31.5 -63.5t19 -38.5q19 37 37 73.5t36 74.5q28 54 55.5 108t53.5 109h48q-53 -103 -104.5 -204t-103.5 -204v-288zM180 751q34 27 67.5 53.5t67.5 54.5l36 -38l-152 -93z" />
    <glyph glyph-name="aacute" unicode="&#xe1;" horiz-adv-x="474" 
d="M376 54q-12 -18 -29.5 -30t-39.5 -18.5t-47 -9t-50 -2.5q-36 0 -67.5 8.5t-55 26t-37.5 44t-14 62.5q0 60 40 99.5t119 39.5h182v71q0 55 -32 85t-111 30q-37 0 -72.5 -10t-65.5 -38l-28 30q61 59 167 59q38 0 71.5 -6.5t59 -24t40.5 -47.5t15 -76v-347h-44v54h-1z
M205 237q-60 0 -93.5 -24.5t-33.5 -75.5t37.5 -78t100.5 -27q24 0 52 4.5t52.5 16t40.5 32t16 53.5v99h-172zM260 563q-7 3 -13.5 5.5t-13.5 6.5l79 153q12 -5 23.5 -9.5t24.5 -9.5z" />
    <glyph glyph-name="igrave" unicode="&#xec;" horiz-adv-x="200" 
d="M73 0v496h46v-496h-46zM90 563l-100 147l48 19l79 -154z" />
    <glyph glyph-name="iacute" unicode="&#xed;" horiz-adv-x="200" 
d="M73 0v496h46v-496h-46zM83 575l79 154l48 -19l-99 -147z" />
    <glyph glyph-name="ograve" unicode="&#xf2;" horiz-adv-x="489" 
d="M253 563l-99 147l48 19l79 -154zM249 501q54 0 94.5 -21t65.5 -59q17 -28 26 -68.5t9 -108.5t-14 -111.5t-35 -70.5q-27 -35 -66 -51.5t-88 -16.5q-92 0 -142 56q-27 31 -41 78.5t-14 120.5q0 69 15 112.5t39 72.5q26 31 63.5 49t87.5 18zM247 462q-38 0 -67 -15.5
t-49 -40.5t-31.5 -61t-11.5 -98q0 -63 11.5 -100t31.5 -62t48 -38.5t65 -13.5q38 0 68.5 16t50.5 45q16 23 26.5 56t10.5 95q0 61 -7.5 94t-19.5 53q-20 33 -52 51.5t-74 18.5z" />
    <glyph glyph-name="oacute" unicode="&#xf3;" horiz-adv-x="489" 
d="M225 575l79 154l48 -19l-99 -147zM249 501q54 0 94.5 -21t65.5 -59q17 -28 26 -68.5t9 -108.5t-14 -111.5t-35 -70.5q-27 -35 -66 -51.5t-88 -16.5q-92 0 -142 56q-27 31 -41 78.5t-14 120.5q0 69 15 112.5t39 72.5q26 31 63.5 49t87.5 18zM247 462q-38 0 -67 -15.5
t-49 -40.5t-31.5 -61t-11.5 -98q0 -63 11.5 -100t31.5 -62t48 -38.5t65 -13.5q38 0 68.5 16t50.5 45q16 23 26.5 56t10.5 95q0 61 -7.5 94t-19.5 53q-20 33 -52 51.5t-74 18.5z" />
    <glyph glyph-name="uacute" unicode="&#xfa;" horiz-adv-x="517" 
d="M402 0v80h-2q-12 -24 -30 -40t-38.5 -26t-42.5 -14.5t-43 -4.5q-38 0 -71 11.5t-57.5 33t-38.5 52.5t-14 70v334h44v-317q0 -70 41 -107t105 -37q32 0 59 11.5t47 32.5t31 50t11 64v303h42v-496h-43zM242 575l78 154l49 -19l-100 -147z" />
    <glyph glyph-name="aring" unicode="&#xe5;" horiz-adv-x="474" 
d="M376 54q-12 -18 -29.5 -30t-39.5 -18.5t-47 -9t-50 -2.5q-36 0 -67.5 8.5t-55 26t-37.5 44t-14 62.5q0 60 40 99.5t119 39.5h182v71q0 55 -32 85t-111 30q-37 0 -72.5 -10t-65.5 -38l-28 30q61 59 167 59q38 0 71.5 -6.5t59 -24t40.5 -47.5t15 -76v-347h-44v54h-1z
M205 237q-60 0 -93.5 -24.5t-33.5 -75.5t37.5 -78t100.5 -27q24 0 52 4.5t52.5 16t40.5 32t16 53.5v99h-172zM245 553q-37 0 -63.5 26.5t-26.5 63.5q0 38 26.5 63.5t63.5 25.5q38 0 64.5 -25.5t26.5 -63.5q0 -37 -26.5 -63.5t-64.5 -26.5zM245 706q-26 0 -44 -18.5
t-18 -44.5t18 -44.5t44 -18.5q27 0 45 18.5t18 44.5t-18 44.5t-45 18.5z" />
    <glyph glyph-name="yacute" unicode="&#xfd;" horiz-adv-x="419" 
d="M197 -111q-16 -46 -47 -67.5t-67 -21.5h-21v39h20q25 0 46.5 18t32.5 53q7 21 13.5 42t14.5 42q-47 125 -92.5 249.5t-92.5 250.5h49l84 -233q19 -53 36.5 -105t36.5 -105h2q5 14 17 48t27.5 78.5t33 94t33 94t27.5 79t17 49.5h46zM213 563q-7 3 -13.5 5.5t-13.5 6.5
l79 153q12 -5 23.5 -9.5t24.5 -9.5z" />
    <glyph glyph-name="ydieresis" unicode="&#xff;" horiz-adv-x="419" 
d="M197 -111q-16 -46 -47 -67.5t-67 -21.5h-21v39h20q25 0 46.5 18t32.5 53q7 21 13.5 42t14.5 42q-47 125 -92.5 249.5t-92.5 250.5h49l84 -233q19 -53 36.5 -105t36.5 -105h2q5 14 17 48t27.5 78.5t33 94t33 94t27.5 79t17 49.5h46zM283 661h55v-53h-55v53zM94 661h54v-53
h-54v53z" />
    <glyph glyph-name="Amacron" unicode="&#x100;" horiz-adv-x="585" 
d="M459 170h-335l-60 -170h-50l253 696h49q64 -175 127.5 -348t126.5 -348h-51zM290 639q-4 -11 -15.5 -43t-26.5 -75.5t-32.5 -92.5t-33 -92.5t-27.5 -77.5t-17 -47h307l-90 254q-16 44 -31.5 87t-30.5 87h-3zM164 810h254v-41h-254v41z" />
    <glyph glyph-name="amacron" unicode="&#x101;" horiz-adv-x="474" 
d="M376 54q-12 -18 -29.5 -30t-39.5 -18.5t-47 -9t-50 -2.5q-36 0 -67.5 8.5t-55 26t-37.5 44t-14 62.5q0 60 40 99.5t119 39.5h182v71q0 55 -32 85t-111 30q-37 0 -72.5 -10t-65.5 -38l-28 30q61 59 167 59q38 0 71.5 -6.5t59 -24t40.5 -47.5t15 -76v-347h-44v54h-1z
M205 237q-60 0 -93.5 -24.5t-33.5 -75.5t37.5 -78t100.5 -27q24 0 52 4.5t52.5 16t40.5 32t16 53.5v99h-172zM122 634h254v-41h-254v41z" />
    <glyph glyph-name="Abreve" unicode="&#x102;" horiz-adv-x="585" 
d="M459 170h-335l-60 -170h-50l253 696h49q64 -175 127.5 -348t126.5 -348h-51zM290 639q-4 -11 -15.5 -43t-26.5 -75.5t-32.5 -92.5t-33 -92.5t-27.5 -77.5t-17 -47h307l-90 254q-16 44 -31.5 87t-30.5 87h-3zM292 766q37 0 61 22t28 51h38q-3 -19 -11 -38.5t-23 -35.5
t-38 -26t-55 -10t-55 10t-38.5 26t-23.5 35.5t-10 38.5h38q5 -29 29.5 -51t59.5 -22z" />
    <glyph glyph-name="abreve" unicode="&#x103;" horiz-adv-x="474" 
d="M376 54q-12 -18 -29.5 -30t-39.5 -18.5t-47 -9t-50 -2.5q-36 0 -67.5 8.5t-55 26t-37.5 44t-14 62.5q0 60 40 99.5t119 39.5h182v71q0 55 -32 85t-111 30q-37 0 -72.5 -10t-65.5 -38l-28 30q61 59 167 59q38 0 71.5 -6.5t59 -24t40.5 -47.5t15 -76v-347h-44v54h-1z
M205 237q-60 0 -93.5 -24.5t-33.5 -75.5t37.5 -78t100.5 -27q24 0 52 4.5t52.5 16t40.5 32t16 53.5v99h-172zM253 601q33 0 57 17.5t32 55.5h38q-3 -19 -11 -38.5t-23 -35.5t-38 -26.5t-55 -10.5t-55 10.5t-38.5 26.5t-23.5 35.5t-10 38.5h39q5 -33 30.5 -53t57.5 -20z" />
    <glyph glyph-name="Aogonek" unicode="&#x104;" horiz-adv-x="585" 
d="M476 -92q0 19 9.5 44t32.5 48l-59 170h-335l-60 -170h-50l253 696h49q64 -175 127.5 -348t126.5 -348h-16q-18 -21 -28.5 -44.5t-10.5 -40.5q0 -27 15.5 -40t39.5 -13q25 0 57 16l13 -29q-14 -8 -34.5 -15t-43.5 -7q-40 0 -63 24.5t-23 56.5zM290 639q-4 -11 -15.5 -43
t-26.5 -75.5t-32.5 -92.5t-33 -92.5t-27.5 -77.5t-17 -47h307l-90 254q-16 44 -31.5 87t-30.5 87h-3z" />
    <glyph glyph-name="aogonek" unicode="&#x105;" horiz-adv-x="474" 
d="M336 -92q0 19 9.5 43.5t31.5 48.5l-1 54q-12 -18 -29.5 -30t-39.5 -18.5t-47 -9t-50 -2.5q-36 0 -67.5 8.5t-55 26t-37.5 44t-14 62.5q0 60 40 99.5t119 39.5h182v71q0 56 -32 85.5t-111 29.5q-37 0 -72.5 -10t-65.5 -38l-28 30q61 59 167 59q38 0 71.5 -6.5t59 -24
t40.5 -47.5t15 -76v-347q-20 -20 -33 -42t-13 -43q0 -27 15.5 -40t39.5 -13q25 0 57 16l13 -29q-14 -8 -34.5 -15t-43.5 -7q-40 0 -63 24.5t-23 56.5zM205 237q-60 0 -93.5 -24.5t-33.5 -75.5t37.5 -78t100.5 -27q24 0 52 4.5t52.5 16t40.5 32t16 53.5v99h-172z" />
    <glyph glyph-name="Cacute" unicode="&#x106;" horiz-adv-x="528" 
d="M511 134q-26 -65 -82.5 -103t-135.5 -38q-62 0 -107 20.5t-74.5 55t-44 80.5t-14.5 97v207q0 50 15 95t45 79t75 54t105 20q78 0 133 -35.5t82 -94.5l-42 -21q-21 47 -65 77.5t-107 30.5q-49 0 -85.5 -16.5t-61 -45t-36.5 -66t-12 -79.5v-206q0 -42 12 -79.5t36.5 -66.5
t61 -46t85.5 -17q64 0 107.5 31.5t67.5 85.5zM231 751l135 108l35 -37l-151 -93z" />
    <glyph glyph-name="cacute" unicode="&#x107;" horiz-adv-x="414" 
d="M395 49q-29 -26 -65 -41t-80 -15q-41 0 -80.5 13.5t-70.5 43.5t-50 78.5t-19 118.5t19 118.5t50 78.5t70.5 43.5t80.5 13.5q44 0 80 -14.5t65 -39.5l-28 -33q-20 20 -49.5 33.5t-61.5 13.5q-88 0 -135 -55t-47 -159t47 -159.5t135 -55.5q32 0 61.5 15t49.5 32zM208 575
l78 154l49 -19l-100 -147z" />
    <glyph glyph-name="Ccircumflex" unicode="&#x108;" horiz-adv-x="528" 
d="M511 134q-26 -65 -82.5 -103t-135.5 -38q-62 0 -107 20.5t-74.5 55t-44 80.5t-14.5 97v207q0 50 15 95t45 79t75 54t105 20q78 0 133 -35.5t82 -94.5l-42 -21q-21 47 -65 77.5t-107 30.5q-49 0 -85.5 -16.5t-61 -45t-36.5 -66t-12 -79.5v-206q0 -42 12 -79.5t36.5 -66.5
t61 -46t85.5 -17q64 0 107.5 31.5t67.5 85.5zM293 814l-130 -84l-18 21l131 109h37l127 -108l-18 -21z" />
    <glyph glyph-name="ccircumflex" unicode="&#x109;" horiz-adv-x="414" 
d="M395 49q-29 -26 -65 -41t-80 -15q-41 0 -80.5 13.5t-70.5 43.5t-50 78.5t-19 118.5t19 118.5t50 78.5t70.5 43.5t80.5 13.5q44 0 80 -14.5t65 -39.5l-28 -33q-20 20 -49.5 33.5t-61.5 13.5q-88 0 -135 -55t-47 -159t47 -159.5t135 -55.5q32 0 61.5 15t49.5 32zM236 654
l-127 -98l-21 21l132 124h37l126 -123l-21 -21z" />
    <glyph glyph-name="Cdotaccent" unicode="&#x10a;" horiz-adv-x="528" 
d="M511 134q-26 -65 -82.5 -103t-135.5 -38q-62 0 -107 20.5t-74.5 55t-44 80.5t-14.5 97v207q0 50 15 95t45 79t75 54t105 20q78 0 133 -35.5t82 -94.5l-42 -21q-21 47 -65 77.5t-107 30.5q-49 0 -85.5 -16.5t-61 -45t-36.5 -66t-12 -79.5v-206q0 -42 12 -79.5t36.5 -66.5
t61 -46t85.5 -17q64 0 107.5 31.5t67.5 85.5zM261 765v53h55v-53h-55z" />
    <glyph glyph-name="cdotaccent" unicode="&#x10b;" horiz-adv-x="414" 
d="M395 49q-29 -26 -65 -41t-80 -15q-41 0 -80.5 13.5t-70.5 43.5t-50 78.5t-19 118.5t19 118.5t50 78.5t70.5 43.5t80.5 13.5q44 0 80 -14.5t65 -39.5l-28 -33q-20 20 -49.5 33.5t-61.5 13.5q-88 0 -135 -55t-47 -159t47 -159.5t135 -55.5q32 0 61.5 15t49.5 32zM218 608
v54h54v-54h-54z" />
    <glyph glyph-name="Ccaron" unicode="&#x10c;" horiz-adv-x="528" 
d="M511 134q-26 -65 -82.5 -103t-135.5 -38q-62 0 -107 20.5t-74.5 55t-44 80.5t-14.5 97v207q0 50 15 95t45 79t75 54t105 20q78 0 133 -35.5t82 -94.5l-42 -21q-21 47 -65 77.5t-107 30.5q-49 0 -85.5 -16.5t-61 -45t-36.5 -66t-12 -79.5v-206q0 -42 12 -79.5t36.5 -66.5
t61 -46t85.5 -17q64 0 107.5 31.5t67.5 85.5zM418 861l18 -21l-126 -109h-37l-131 110l17 21l130 -84z" />
    <glyph glyph-name="ccaron" unicode="&#x10d;" horiz-adv-x="414" 
d="M395 49q-29 -26 -65 -41t-80 -15q-41 0 -80.5 13.5t-70.5 43.5t-50 78.5t-19 118.5t19 118.5t50 78.5t70.5 43.5t80.5 13.5q44 0 80 -14.5t65 -39.5l-28 -33q-20 20 -49.5 33.5t-61.5 13.5q-88 0 -135 -55t-47 -159t47 -159.5t135 -55.5q32 0 61.5 15t49.5 32zM367 701
l21 -20l-126 -124h-37l-131 124l21 21l126 -97z" />
    <glyph glyph-name="Dcaron" unicode="&#x10e;" horiz-adv-x="606" 
d="M391 861l18 -21l-126 -109h-37l-132 110l18 21l130 -84zM303 696q78 0 135 -29.5t89 -96.5q17 -37 21 -90t4 -119q0 -75 -3.5 -131t-20.5 -96q-33 -75 -93.5 -104.5t-145.5 -29.5h-210v696h224zM505 417q0 67 -15 112t-42 72.5t-65.5 39.5t-86.5 12h-170v-610h170
q59 0 99 17t64.5 48t35 73.5t10.5 92.5v143z" />
    <glyph glyph-name="dcaron" unicode="&#x10f;" horiz-adv-x="567" 
d="M502 565h-28l28 92h-18v66h60v-68zM374 0v86h-2q-17 -30 -35.5 -48.5t-38 -28.5t-39.5 -13t-39 -3q-53 0 -88.5 20.5t-57 55.5t-31 81.5t-9.5 97.5q0 46 9 91.5t30.5 81t58.5 57.5t93 22q31 0 53.5 -7t40 -19t30 -28t23.5 -33h2v310h43v-723h-43zM374 245q0 42 -7.5 81
t-24.5 69t-45 47.5t-69 17.5q-47 0 -76 -20t-45 -51t-21.5 -68.5t-5.5 -73.5q0 -33 4.5 -70.5t20 -69t45 -52.5t78.5 -21q46 0 74.5 21t44.5 52.5t21.5 68.5t5.5 69z" />
    <glyph glyph-name="Dcroat" unicode="&#x110;" horiz-adv-x="606" 
d="M303 696q78 0 135 -29.5t89 -96.5q17 -37 21 -90t4 -119q0 -75 -3.5 -131t-20.5 -96q-33 -75 -93.5 -104.5t-145.5 -29.5h-210v353h-66v36h66v307h224zM505 417q0 67 -15 112t-42 72.5t-65.5 39.5t-86.5 12h-170v-264h150v-36h-150v-310h170q59 0 99 17t64.5 48t35 73.5
t10.5 92.5v143z" />
    <glyph glyph-name="dcroat" unicode="&#x111;" horiz-adv-x="465" 
d="M246 612h128v111h43v-111h56v-32h-56v-580h-43v86h-2q-17 -30 -35.5 -48.5t-38 -28.5t-39.5 -13t-39 -3q-53 0 -88.5 20.5t-57 55.5t-31 81.5t-9.5 97.5q0 46 9 91.5t30.5 81t58.5 57.5t93 22q31 0 53.5 -7t40 -19t30 -28t23.5 -33h2v167h-128v32zM374 245q0 42 -7.5 81
t-24.5 69t-45 47.5t-69 17.5q-47 0 -76 -20t-45 -51t-21.5 -68.5t-5.5 -73.5q0 -33 4.5 -70.5t20 -69t45 -52.5t78.5 -21q46 0 74.5 21t44.5 52.5t21.5 68.5t5.5 69z" />
    <glyph glyph-name="Emacron" unicode="&#x112;" horiz-adv-x="528" 
d="M79 0v696h422v-43h-375v-279h320v-42h-320v-289h375v-43h-422zM165 769v41h255v-41h-255z" />
    <glyph glyph-name="emacron" unicode="&#x113;" horiz-adv-x="474" 
d="M85 241q-1 -42 7.5 -80.5t28.5 -67t53 -45.5t81 -17q30 0 61.5 11t57.5 30l27 -30q-32 -26 -68.5 -37.5t-75.5 -11.5q-38 0 -76 10t-68.5 38t-50 77t-19.5 127q0 75 18 124.5t47 79t64 41t70 11.5q49 0 85.5 -17.5t61 -47.5t37 -71.5t12.5 -89.5v-34h-353zM392 277
q-3 94 -42.5 139.5t-106.5 45.5q-71 0 -111.5 -48t-45.5 -137h306zM120 593v41h255v-41h-255z" />
    <glyph glyph-name="Ebreve" unicode="&#x114;" horiz-adv-x="528" 
d="M79 0v696h422v-43h-375v-279h320v-42h-320v-289h375v-43h-422zM200 840q5 -29 30 -51t59 -22q38 0 61.5 22t27.5 51h38q-3 -19 -11 -38.5t-23 -35.5t-38 -26t-55 -10t-55 10t-38.5 26t-23.5 35.5t-10 38.5h38z" />
    <glyph glyph-name="ebreve" unicode="&#x115;" horiz-adv-x="474" 
d="M85 241q-1 -42 7.5 -80.5t28.5 -67t53 -45.5t81 -17q30 0 61.5 11t57.5 30l27 -30q-32 -26 -68.5 -37.5t-75.5 -11.5q-38 0 -76 10t-68.5 38t-50 77t-19.5 127q0 75 18 124.5t47 79t64 41t70 11.5q49 0 85.5 -17.5t61 -47.5t37 -71.5t12.5 -89.5v-34h-353zM392 277
q-3 94 -42.5 139.5t-106.5 45.5q-71 0 -111.5 -48t-45.5 -137h306zM153 674q6 -33 31.5 -53t57.5 -20q33 0 56.5 17.5t31.5 55.5h39q-3 -19 -11 -38.5t-23 -35.5t-38 -26t-55 -10t-55 10t-39 26t-24 35.5t-10 38.5h39z" />
    <glyph glyph-name="Edotaccent" unicode="&#x116;" horiz-adv-x="528" 
d="M79 0v696h422v-43h-375v-279h320v-42h-320v-289h375v-43h-422zM258 765v53h54v-53h-54z" />
    <glyph glyph-name="edotaccent" unicode="&#x117;" horiz-adv-x="474" 
d="M85 241q-1 -42 7.5 -80.5t28.5 -67t53 -45.5t81 -17q30 0 61.5 11t57.5 30l27 -30q-32 -26 -68.5 -37.5t-75.5 -11.5q-38 0 -76 10t-68.5 38t-50 77t-19.5 127q0 75 18 124.5t47 79t64 41t70 11.5q49 0 85.5 -17.5t61 -47.5t37 -71.5t12.5 -89.5v-34h-353zM392 277
q-3 94 -42.5 139.5t-106.5 45.5q-71 0 -111.5 -48t-45.5 -137h306zM216 608v54h55v-54h-55z" />
    <glyph glyph-name="Eogonek" unicode="&#x118;" horiz-adv-x="528" 
d="M423 -93q0 20 9 44t32 49h-385v696h422v-43h-375v-279h320v-42h-320v-289h375v-43q-18 -22 -28.5 -45.5t-10.5 -40.5q0 -27 15.5 -39.5t39.5 -12.5q25 0 57 16l13 -30q-14 -8 -35 -14.5t-43 -6.5q-40 0 -63 24t-23 56z" />
    <glyph glyph-name="eogonek" unicode="&#x119;" horiz-adv-x="474" 
d="M306 -64q0 14 5.5 32t16.5 36q-36 -11 -71 -11q-38 0 -76 10t-68.5 38t-50 77t-19.5 127q0 75 18 124.5t47 79t64 41t70 11.5q49 0 85.5 -17.5t61 -47.5t37 -71.5t12.5 -89.5v-34h-353q-1 -42 7.5 -80.5t28.5 -67t53 -45.5t81 -17q30 0 61.5 11t57.5 30l27 -30
q-3 -3 -7.5 -6t-9.5 -7q-18 -22 -28.5 -45.5t-10.5 -40.5q0 -27 15.5 -39.5t39.5 -12.5q25 0 57 16l13 -30q-14 -8 -34.5 -14.5t-43.5 -6.5q-40 0 -63 24t-23 56zM392 277q-3 94 -42.5 139.5t-106.5 45.5q-71 0 -111.5 -48t-45.5 -137h306z" />
    <glyph glyph-name="Ecaron" unicode="&#x11a;" horiz-adv-x="528" 
d="M79 0v696h422v-43h-375v-279h320v-42h-320v-289h375v-43h-422zM413 861l18 -21l-126 -109h-37l-131 110l17 21l130 -84z" />
    <glyph glyph-name="ecaron" unicode="&#x11b;" horiz-adv-x="474" 
d="M85 241q-1 -42 7.5 -80.5t28.5 -67t53 -45.5t81 -17q30 0 61.5 11t57.5 30l27 -30q-32 -26 -68.5 -37.5t-75.5 -11.5q-38 0 -76 10t-68.5 38t-50 77t-19.5 127q0 75 18 124.5t47 79t64 41t70 11.5q49 0 85.5 -17.5t61 -47.5t37 -71.5t12.5 -89.5v-34h-353zM392 277
q-3 94 -42.5 139.5t-106.5 45.5q-71 0 -111.5 -48t-45.5 -137h306zM371 701l21 -20l-126 -124h-37l-131 124l21 21l126 -97z" />
    <glyph glyph-name="Gcircumflex" unicode="&#x11c;" horiz-adv-x="585" 
d="M292 34q45 0 80.5 16.5t60.5 43.5t38.5 63t13.5 75v78h-157v42h204v-111q0 -52 -16.5 -97.5t-47.5 -79t-76 -52.5t-101 -19q-62 0 -107 20.5t-74.5 55t-44 80.5t-14.5 97v207q0 50 15 95t45 79t75 54t105 20q78 0 133.5 -35.5t81.5 -94.5q-2 -2 -8 -5t-13 -6t-13 -6
l-8 -4q-21 47 -65 77.5t-107 30.5q-49 0 -85.5 -16.5t-61 -45t-36.5 -66t-12 -79.5v-208q0 -42 12 -79.5t36.5 -66.5t61 -46t85.5 -17zM292 814l-130 -84l-18 21l132 109h37l126 -108l-18 -21z" />
    <glyph glyph-name="gcircumflex" unicode="&#x11d;" horiz-adv-x="498" 
d="M432 3q0 -56 -17 -96t-46.5 -65t-67.5 -36.5t-80 -11.5q-35 0 -69.5 12t-63.5 37l28 33q21 -17 49 -29.5t60 -12.5q34 0 64 10.5t52 30.5t34.5 49t12.5 67l1 99h-2q-24 -44 -61 -69.5t-94 -25.5q-54 0 -89.5 21.5t-56.5 57t-29.5 80t-8.5 90.5q0 50 9 96.5t30.5 82
t56.5 57t88 21.5q19 0 39.5 -3t41 -12.5t40 -26.5t34.5 -45h1v82h43zM93 247q0 -36 6 -73t22.5 -68t45.5 -50.5t76 -19.5q40 0 67.5 17.5t45 47.5t25 69t7.5 81q0 32 -5.5 68.5t-21.5 68t-44.5 52.5t-73.5 21q-49 0 -78.5 -21t-45.5 -52.5t-21 -69t-5 -71.5zM242 654
l-127 -98l-21 21l132 124h37l126 -123l-21 -21z" />
    <glyph glyph-name="Gbreve" unicode="&#x11e;" horiz-adv-x="585" 
d="M292 34q45 0 80.5 16.5t60.5 43.5t38.5 63t13.5 75v78h-157v42h204v-111q0 -52 -16.5 -97.5t-47.5 -79t-76 -52.5t-101 -19q-62 0 -107 20.5t-74.5 55t-44 80.5t-14.5 97v207q0 50 15 95t45 79t75 54t105 20q78 0 133.5 -35.5t81.5 -94.5q-2 -2 -8 -5t-13 -6t-13 -6
l-8 -4q-21 47 -65 77.5t-107 30.5q-49 0 -85.5 -16.5t-61 -45t-36.5 -66t-12 -79.5v-208q0 -42 12 -79.5t36.5 -66.5t61 -46t85.5 -17zM204 840q5 -29 29.5 -51t59.5 -22q37 0 60.5 22t27.5 51h39q-3 -19 -11 -38.5t-23 -35.5t-38 -26t-55 -10t-55 10t-39 26t-24 35.5
t-10 38.5h39z" />
    <glyph glyph-name="gbreve" unicode="&#x11f;" horiz-adv-x="498" 
d="M432 3q0 -56 -17 -96t-46.5 -65t-67.5 -36.5t-80 -11.5q-35 0 -69.5 12t-63.5 37l28 33q21 -17 49 -29.5t60 -12.5q34 0 64 10.5t52 30.5t34.5 49t12.5 67l1 99h-2q-24 -44 -61 -69.5t-94 -25.5q-54 0 -89.5 21.5t-56.5 57t-29.5 80t-8.5 90.5q0 50 9 96.5t30.5 82
t56.5 57t88 21.5q19 0 39.5 -3t41 -12.5t40 -26.5t34.5 -45h1v82h43zM93 247q0 -36 6 -73t22.5 -68t45.5 -50.5t76 -19.5q40 0 67.5 17.5t45 47.5t25 69t7.5 81q0 32 -5.5 68.5t-21.5 68t-44.5 52.5t-73.5 21q-49 0 -78.5 -21t-45.5 -52.5t-21 -69t-5 -71.5zM165 674
q6 -33 31.5 -53t57.5 -20q33 0 56.5 17.5t31.5 55.5h39q-3 -19 -11.5 -38.5t-23.5 -35.5t-38 -26t-54 -10q-32 0 -55 10t-39 26t-24 35.5t-10 38.5h39z" />
    <glyph glyph-name="Gdotaccent" unicode="&#x120;" horiz-adv-x="585" 
d="M292 34q45 0 80.5 16.5t60.5 43.5t38.5 63t13.5 75v78h-157v42h204v-111q0 -52 -16.5 -97.5t-47.5 -79t-76 -52.5t-101 -19q-62 0 -107 20.5t-74.5 55t-44 80.5t-14.5 97v207q0 50 15 95t45 79t75 54t105 20q78 0 133.5 -35.5t81.5 -94.5q-2 -2 -8 -5t-13 -6t-13 -6
l-8 -4q-21 47 -65 77.5t-107 30.5q-49 0 -85.5 -16.5t-61 -45t-36.5 -66t-12 -79.5v-208q0 -42 12 -79.5t36.5 -66.5t61 -46t85.5 -17zM263 765v53h55v-53h-55z" />
    <glyph glyph-name="gdotaccent" unicode="&#x121;" horiz-adv-x="498" 
d="M432 3q0 -56 -17 -96t-46.5 -65t-67.5 -36.5t-80 -11.5q-35 0 -69.5 12t-63.5 37l28 33q21 -17 49 -29.5t60 -12.5q34 0 64 10.5t52 30.5t34.5 49t12.5 67l1 99h-2q-24 -44 -61 -69.5t-94 -25.5q-54 0 -89.5 21.5t-56.5 57t-29.5 80t-8.5 90.5q0 50 9 96.5t30.5 82
t56.5 57t88 21.5q19 0 39.5 -3t41 -12.5t40 -26.5t34.5 -45h1v82h43zM93 247q0 -36 6 -73t22.5 -68t45.5 -50.5t76 -19.5q40 0 67.5 17.5t45 47.5t25 69t7.5 81q0 32 -5.5 68.5t-21.5 68t-44.5 52.5t-73.5 21q-49 0 -78.5 -21t-45.5 -52.5t-21 -69t-5 -71.5zM228 608v54h55
v-54h-55z" />
    <glyph glyph-name="Gcommaaccent" unicode="&#x122;" horiz-adv-x="585" 
d="M292 34q45 0 80.5 16.5t60.5 43.5t38.5 63t13.5 75v78h-157v42h204v-111q0 -52 -16.5 -97.5t-47.5 -79t-76 -52.5t-101 -19q-62 0 -107 20.5t-74.5 55t-44 80.5t-14.5 97v207q0 50 15 95t45 79t75 54t105 20q78 0 133.5 -35.5t81.5 -94.5q-2 -2 -8 -5t-13 -6t-13 -6
l-8 -4q-21 47 -65 77.5t-107 30.5q-49 0 -85.5 -16.5t-61 -45t-36.5 -66t-12 -79.5v-208q0 -42 12 -79.5t36.5 -66.5t61 -46t85.5 -17zM284 -236h-28l28 91h-18v66h60v-67z" />
    <glyph glyph-name="gcommaaccent" unicode="&#x123;" horiz-adv-x="498" 
d="M273 732h28l-28 -91h18v-67h-60v68zM432 3q0 -56 -17 -96t-46.5 -65t-67.5 -36.5t-80 -11.5q-35 0 -69.5 12t-63.5 37l28 33q21 -17 49 -29.5t60 -12.5q34 0 64 10.5t52 30.5t34.5 49t12.5 67l1 99h-2q-24 -44 -61 -69.5t-94 -25.5q-54 0 -89.5 21.5t-56.5 57t-29.5 80
t-8.5 90.5q0 50 9 96.5t30.5 82t56.5 57t88 21.5q19 0 39.5 -3t41 -12.5t40 -26.5t34.5 -45h1v82h43zM93 247q0 -36 6 -73t22.5 -68t45.5 -50.5t76 -19.5q40 0 67.5 17.5t45 47.5t25 69t7.5 81q0 32 -5.5 68.5t-21.5 68t-44.5 52.5t-73.5 21q-49 0 -78.5 -21t-45.5 -52.5
t-21 -69t-5 -71.5z" />
    <glyph glyph-name="Hcircumflex" unicode="&#x124;" horiz-adv-x="625" 
d="M499 0v332h-374v-332h-46v696h46v-322h374v322h47v-696h-47zM309 814l-130 -84l-18 21l131 109h37l127 -108l-18 -21z" />
    <glyph glyph-name="hcircumflex" unicode="&#x125;" horiz-adv-x="523" 
d="M415 0v317q0 69 -41.5 105.5t-104.5 36.5q-32 0 -59 -11t-46.5 -31.5t-30.5 -49.5t-11 -64v-303h-43v723h43v-310h2q26 48 68.5 67.5t86.5 19.5q38 0 70.5 -11t56.5 -32.5t38 -53t14 -71.5v-332h-43zM100 814l-129 -84l-18 21l131 109h37l126 -108l-18 -21z" />
    <glyph glyph-name="Hbar" unicode="&#x126;" horiz-adv-x="625" 
d="M499 0v332h-374v-332h-46v542h-56v33h56v121h46v-121h374v121h47v-121h58v-33h-58v-542h-47zM499 374v168h-374v-168h374z" />
    <glyph glyph-name="hbar" unicode="&#x127;" horiz-adv-x="508" 
d="M13 624h60v99h43v-99h236v-38h-236v-186h2q12 24 30.5 41t40.5 28t45 16t44 5q84 0 129 -43.5t45 -124.5v-322h-43v307q0 69 -35 105.5t-104 36.5q-32 0 -60 -11.5t-49 -32.5t-33 -50.5t-12 -64.5v-290h-43v586h-60v38z" />
    <glyph glyph-name="Imacron" unicode="&#x12a;" horiz-adv-x="212" 
d="M83 0v696h46v-696h-46zM-20 769v41h254v-41h-254z" />
    <glyph glyph-name="Ibreve" unicode="&#x12c;" horiz-adv-x="271" 
d="M49 840q5 -29 29.5 -51t59.5 -22q37 0 60.5 22t28.5 51h38q-3 -19 -11 -38.5t-23 -35.5t-38 -26t-55 -10t-55 10t-38.5 26t-23.5 35.5t-10 38.5h38zM114 0v696h46v-696h-46z" />
    <glyph glyph-name="Iogonek" unicode="&#x12e;" horiz-adv-x="212" 
d="M41 -92q0 19 9.5 43.5t31.5 48.5v696h47v-696h-5q-18 -21 -31 -44.5t-13 -40.5q0 -27 15.5 -40t39.5 -13q25 0 57 16l13 -29q-14 -8 -35 -15t-43 -7q-40 0 -63 24.5t-23 56.5z" />
    <glyph glyph-name="iogonek" unicode="&#x12f;" horiz-adv-x="199" 
d="M37 -92q0 20 9 44t31 48v496h44v-496q-22 -22 -34 -43t-12 -42q0 -27 15.5 -40t39.5 -13q25 0 57 16q4 -7 7 -14t6 -15q-14 -8 -34.5 -14.5t-43.5 -6.5q-40 0 -62.5 24t-22.5 56zM74 696h49v-48h-49v48z" />
    <glyph glyph-name="Idotaccent" unicode="&#x130;" horiz-adv-x="212" 
d="M83 0v696h46v-696h-46zM77 765v53h55v-53h-55z" />
    <glyph glyph-name="IJ" unicode="&#x132;" horiz-adv-x="657" 
d="M83 0v696h47v-696h-47zM587 197q0 -55 -17 -93.5t-45.5 -63t-66.5 -35.5t-79 -11q-42 0 -77.5 14.5t-63.5 40.5l34 32q27 -22 51 -32.5t52 -10.5q33 0 63 8.5t52.5 29t36 54.5t13.5 84v482h47v-499z" />
    <glyph glyph-name="ij" unicode="&#x133;" horiz-adv-x="397" 
d="M75 696h49v-48h-49v48zM78 0v496h44v-496h-44zM266 696h50v-48h-50v48zM170 -166h17q39 0 60 24t21 69v568h45v-573q0 -58 -34 -92.5t-87 -34.5h-22v39z" />
    <glyph glyph-name="Jcircumflex" unicode="&#x134;" horiz-adv-x="448" 
d="M378 198q0 -55 -17 -93.5t-45.5 -63t-66 -35.5t-78.5 -11q-42 0 -77.5 14.5t-63.5 40.5l34 32q26 -22 50.5 -32.5t52.5 -10.5q33 0 63 8.5t52.5 29t36 54.5t13.5 84v482h46v-499zM355 816l-130 -84l-18 21l132 109h37l126 -108l-18 -21z" />
    <glyph glyph-name="jcircumflex" unicode="&#x135;" horiz-adv-x="254" 
d="M6 -166h17q39 0 60 24t21 69v568h45v-573q0 -58 -34 -92.5t-87 -34.5h-22v39zM127 653l-126 -97l-10.5 10.5l-10.5 10.5l130 124h37q32 -31 63.5 -61.5t63.5 -62.5l-22 -20z" />
    <glyph glyph-name="Kcommaaccent" unicode="&#x136;" horiz-adv-x="606" 
d="M528 0q-58 99 -116 196.5t-117 196.5l-170 -209v-184h-47v696h47v-444h1q44 54 86 106t86 105l191 233h52l-216 -266q65 -109 128 -215.5t128 -214.5h-53zM259 -216q7 23 13.5 46t14.5 46h-18v66h60v-68l-42 -90h-28z" />
    <glyph glyph-name="kcommaaccent" unicode="&#x137;" horiz-adv-x="479" 
d="M423 0q-47 71 -92 141.5t-92 141.5q-32 -35 -63 -70.5t-62 -71.5v-141h-43v722h43v-522h1q66 74 131.5 147.5t131.5 148.5h52l-162 -183l204 -313h-49zM219 -236q8 23 14.5 46t13.5 46h-18v66h60v-68l-42 -90h-28z" />
    <glyph glyph-name="kgreenlandic" unicode="&#x138;" horiz-adv-x="479" 
d="M239 283q-32 -35 -63 -70.5t-62 -71.5v-141h-43v496h43v-296h1q66 74 131.5 147.5t131.5 148.5h52l-162 -183l207 -313h-51z" />
    <glyph glyph-name="Lacute" unicode="&#x139;" horiz-adv-x="528" 
d="M79 0v696h46v-653h376v-43h-422zM81 751l135 108l35 -37l-151 -93z" />
    <glyph glyph-name="lacute" unicode="&#x13a;" horiz-adv-x="218" 
d="M185 0q-54 0 -84 22.5t-30 79.5v620h44v-613q0 -34 18 -52.5t59 -18.5h8v-38h-15zM72 767q34 28 67.5 54.5t67.5 53.5l36 -37q-38 -23 -75.5 -46.5t-75.5 -46.5z" />
    <glyph glyph-name="Lcommaaccent" unicode="&#x13b;" horiz-adv-x="528" 
d="M79 0v696h46v-653h376v-43h-422zM281 -236h-28l28 91h-18v66h60v-67z" />
    <glyph glyph-name="lcommaaccent" unicode="&#x13c;" horiz-adv-x="218" 
d="M185 0q-54 0 -84 22.5t-30 79.5v620h44v-613q0 -34 18 -52.5t59 -18.5h8v-38h-15zM87 -236l29 92h-18v66h60v-68q-11 -23 -21 -45t-21 -45h-29z" />
    <glyph glyph-name="Lcaron" unicode="&#x13d;" horiz-adv-x="528" 
d="M79 0v696h46v-653h376v-43h-422zM362 539h-28l28 91h-18v66h60v-67z" />
    <glyph glyph-name="lcaron" unicode="&#x13e;" horiz-adv-x="284" 
d="M200 564q8 23 14.5 46t13.5 46h-18v66h60v-68q-11 -23 -21 -45t-21 -45h-28zM185 0q-54 0 -84 22.5t-30 79.5v620h44v-613q0 -34 18 -52.5t59 -18.5h8v-38h-15z" />
    <glyph glyph-name="Ldot" unicode="&#x13f;" horiz-adv-x="528" 
d="M79 0v696h46v-653h376v-43h-422zM291 347v53h54v-53h-54z" />
    <glyph glyph-name="ldot" unicode="&#x140;" horiz-adv-x="315" 
d="M218 408h54v-53h-54v53zM185 0q-54 0 -84 22.5t-30 79.5v620h44v-613q0 -34 18 -52.5t59 -18.5h8v-38h-15z" />
    <glyph glyph-name="Lslash" unicode="&#x141;" horiz-adv-x="550" 
d="M101 0v267l-85 -48l-19 33l104 59v385h46v-358l133 78l19 -33l-152 -88v-252h376v-43h-422z" />
    <glyph glyph-name="lslash" unicode="&#x142;" horiz-adv-x="274" 
d="M220 0q-54 0 -84 22.5t-30 79.5v220l-87 -50l-19 33l106 61v356h44v-331l105 60l19 -32l-124 -72v-238q0 -34 18 -52.5t59 -18.5h8v-38h-15v0z" />
    <glyph glyph-name="Nacute" unicode="&#x143;" horiz-adv-x="663" 
d="M276 392q-38 57 -74.5 112.5t-73.5 112.5q-1 0 -1 -1v-616h-47v696h48l258 -388q5 -7 16.5 -24.5t27 -41t32.5 -50t32.5 -50t27 -41t15.5 -24.5q1 0 1 1v618h46v-696h-47zM267 751q34 27 67.5 53.5t67.5 54.5l36 -38l-152 -93z" />
    <glyph glyph-name="nacute" unicode="&#x144;" horiz-adv-x="502" 
d="M396 0v317q0 34 -11 60.5t-30.5 44.5t-46 27.5t-57.5 9.5q-32 0 -59 -11.5t-46.5 -32t-30.5 -49t-11 -63.5v-303h-43v496h43v-81h3q24 47 67 66t86 19q38 0 71 -11.5t57 -33t38 -52.5t14 -70v-333h-44zM212 575l79 154l48 -19l-99 -147z" />
    <glyph glyph-name="Ncommaaccent" unicode="&#x145;" horiz-adv-x="663" 
d="M276 392q-38 57 -74.5 112.5t-73.5 112.5q-1 0 -1 -1v-616h-47v696h48l258 -388q5 -7 16.5 -24.5t27 -41t32.5 -50t32.5 -50t27 -41t15.5 -24.5q1 0 1 1v618h46v-696h-47zM288 -202q7 23 13.5 45.5t14.5 45.5h-18v66h60v-67q-11 -23 -21 -45t-21 -45h-28z" />
    <glyph glyph-name="ncommaaccent" unicode="&#x146;" horiz-adv-x="502" 
d="M396 0v317q0 34 -11 60.5t-30.5 44.5t-46 27.5t-57.5 9.5q-32 0 -59 -11.5t-46.5 -32t-30.5 -49t-11 -63.5v-303h-43v496h43v-81h3q24 47 67 66t86 19q38 0 71 -11.5t57 -33t38 -52.5t14 -70v-333h-44zM237 -236h-28l28 91h-18v66h60v-67z" />
    <glyph glyph-name="Ncaron" unicode="&#x147;" horiz-adv-x="663" 
d="M276 392q-38 57 -74.5 112.5t-73.5 112.5q-1 0 -1 -1v-616h-47v696h48l258 -388q5 -7 16.5 -24.5t27 -41t32.5 -50t32.5 -50t27 -41t15.5 -24.5q1 0 1 1v618h46v-696h-47zM331 777l64 42t65 42l18 -21l-127 -109h-36l-132 109l18 22q32 -22 65 -42.5t65 -42.5z" />
    <glyph glyph-name="ncaron" unicode="&#x148;" horiz-adv-x="502" 
d="M396 0v317q0 34 -11 60.5t-30.5 44.5t-46 27.5t-57.5 9.5q-32 0 -59 -11.5t-46.5 -32t-30.5 -49t-11 -63.5v-303h-43v496h43v-81h3q24 47 67 66t86 19q38 0 71 -11.5t57 -33t38 -52.5t14 -70v-333h-44zM368 701l21 -20l-126 -124h-37l-132 124l21 21l127 -97z" />
    <glyph glyph-name="napostrophe" unicode="&#x149;" horiz-adv-x="553" 
d="M447 0v317q0 34 -11 60.5t-30.5 44.5t-46 27.5t-57.5 9.5q-32 0 -59 -11.5t-46.5 -32t-30.5 -49t-11 -63.5v-303h-43v496h43v-81h3q24 47 67 66t86 19q38 0 71 -11.5t57 -33t38 -52.5t14 -70v-333h-44zM34 491h-28l28 91h-18v66h60v-67z" />
    <glyph glyph-name="Eng" unicode="&#x14a;" horiz-adv-x="673" 
d="M489 -130q23 0 37 14.5t14 42.5v69q-68 102 -135.5 202.5t-135.5 203.5l-141 215q-1 0 -1 -1v-616h-47v696h48q67 -100 133 -200l132 -200q37 -55 72.5 -109t71.5 -110q1 0 1 1v618h46v-764q0 -54 -26.5 -77.5t-62.5 -23.5q-21 0 -40 5.5t-36 15.5l14 34q34 -16 56 -16z
" />
    <glyph glyph-name="eng" unicode="&#x14b;" horiz-adv-x="502" 
d="M440 -68q0 -54 -26.5 -77.5t-62.5 -23.5q-21 0 -40 5.5t-36 15.5l14 34q34 -16 56 -16q23 0 37 14.5t14 42.5v390q0 69 -37.5 105.5t-99.5 36.5q-32 0 -60 -11.5t-49 -32t-33.5 -49t-12.5 -63.5v-303h-43v496h43v-81h3q12 24 30.5 40t40.5 26t45.5 14.5t44.5 4.5
q77 0 124.5 -44t47.5 -123v-401v0z" />
    <glyph glyph-name="Omacron" unicode="&#x14c;" horiz-adv-x="571" 
d="M286 701q56 0 100 -18.5t75 -51.5t47 -78.5t16 -99.5v-207q0 -58 -16.5 -105t-47.5 -80t-75 -50.5t-99 -17.5q-62 0 -107.5 20.5t-75 55t-44 80.5t-14.5 97v207q0 50 15 95t45 79t75 54t106 20zM287 657q-49 0 -85.5 -16.5t-60.5 -45t-36 -65.5t-12 -79v-207
q0 -41 12 -78.5t36 -66.5t60.5 -46t85.5 -17q44 0 79 16t59.5 44t37.5 67t13 85v203q0 43 -13 81t-37 65.5t-59 43.5t-80 16zM165 769v41h255v-41h-255z" />
    <glyph glyph-name="omacron" unicode="&#x14d;" horiz-adv-x="489" 
d="M123 593v41h255v-41h-255zM249 501q54 0 94.5 -21t65.5 -59q17 -28 26 -68.5t9 -108.5t-14 -111.5t-35 -70.5q-27 -35 -66 -51.5t-88 -16.5q-92 0 -142 56q-27 31 -41 78.5t-14 120.5q0 69 15 112.5t39 72.5q26 31 63.5 49t87.5 18zM247 462q-38 0 -67 -15.5t-49 -40.5
t-31.5 -61t-11.5 -98q0 -63 11.5 -100t31.5 -62t48 -38.5t65 -13.5q38 0 68.5 16t50.5 45q16 23 26.5 56t10.5 95q0 61 -7.5 94t-19.5 53q-20 33 -52 51.5t-74 18.5z" />
    <glyph glyph-name="Obreve" unicode="&#x14e;" horiz-adv-x="571" 
d="M286 701q56 0 100 -18.5t75 -51.5t47 -78.5t16 -99.5v-207q0 -58 -16.5 -105t-47.5 -80t-75 -50.5t-99 -17.5q-62 0 -107.5 20.5t-75 55t-44 80.5t-14.5 97v207q0 50 15 95t45 79t75 54t106 20zM287 657q-49 0 -85.5 -16.5t-60.5 -45t-36 -65.5t-12 -79v-207
q0 -41 12 -78.5t36 -66.5t60.5 -46t85.5 -17q44 0 79 16t59.5 44t37.5 67t13 85v203q0 43 -13 81t-37 65.5t-59 43.5t-80 16zM201 840q5 -29 30 -51t59 -22q38 0 61.5 22t27.5 51h38q-3 -19 -11 -38.5t-23 -35.5t-38 -26t-55 -10t-55 10t-38.5 26t-23.5 35.5t-10 38.5h38z
" />
    <glyph glyph-name="obreve" unicode="&#x14f;" horiz-adv-x="489" 
d="M156 674q5 -33 30.5 -53t57.5 -20q33 0 57 17.5t32 55.5h38q-3 -19 -11 -38.5t-23 -35.5t-38 -26t-55 -10t-55 10t-38.5 26t-23.5 35.5t-10 38.5h39zM249 501q54 0 94.5 -21t65.5 -59q17 -28 26 -68.5t9 -108.5t-14 -111.5t-35 -70.5q-27 -35 -66 -51.5t-88 -16.5
q-92 0 -142 56q-27 31 -41 78.5t-14 120.5q0 69 15 112.5t39 72.5q26 31 63.5 49t87.5 18zM247 462q-38 0 -67 -15.5t-49 -40.5t-31.5 -61t-11.5 -98q0 -63 11.5 -100t31.5 -62t48 -38.5t65 -13.5q38 0 68.5 16t50.5 45q16 23 26.5 56t10.5 95q0 61 -7.5 94t-19.5 53
q-20 33 -52 51.5t-74 18.5z" />
    <glyph glyph-name="Ohungarumlaut" unicode="&#x150;" horiz-adv-x="571" 
d="M286 701q56 0 100 -18.5t75 -51.5t47 -78.5t16 -99.5v-207q0 -58 -16.5 -105t-47.5 -80t-75 -50.5t-99 -17.5q-62 0 -107.5 20.5t-75 55t-44 80.5t-14.5 97v207q0 50 15 95t45 79t75 54t106 20zM287 657q-49 0 -85.5 -16.5t-60.5 -45t-36 -65.5t-12 -79v-207
q0 -41 12 -78.5t36 -66.5t60.5 -46t85.5 -17q44 0 79 16t59.5 44t37.5 67t13 85v203q0 43 -13 81t-37 65.5t-59 43.5t-80 16zM312 751l135 108l36 -37l-151 -93zM194 751l136 108l35 -37l-151 -93z" />
    <glyph glyph-name="ohungarumlaut" unicode="&#x151;" horiz-adv-x="489" 
d="M177 575l79 154l48 -19l-99 -147zM278 575l79 154l48 -19l-99 -147zM249 501q54 0 94.5 -21t65.5 -59q17 -28 26 -68.5t9 -108.5t-14 -111.5t-35 -70.5q-27 -35 -66 -51.5t-88 -16.5q-92 0 -142 56q-27 31 -41 78.5t-14 120.5q0 69 15 112.5t39 72.5q26 31 63.5 49
t87.5 18zM247 462q-38 0 -67 -15.5t-49 -40.5t-31.5 -61t-11.5 -98q0 -63 11.5 -100t31.5 -62t48 -38.5t65 -13.5q38 0 68.5 16t50.5 45q16 23 26.5 56t10.5 95q0 61 -7.5 94t-19.5 53q-20 33 -52 51.5t-74 18.5z" />
    <glyph glyph-name="Racute" unicode="&#x154;" horiz-adv-x="585" 
d="M493 0l-165 323h-201v-323h-47v696h269q43 0 80 -12.5t63 -35.5t41 -56.5t15 -75.5q0 -75 -46 -126t-123 -64l170 -326h-56zM498 516q0 37 -13.5 63.5t-35.5 43t-51.5 24.5t-60.5 8h-210v-290h207q35 0 65 9.5t52 28.5t34.5 47.5t12.5 65.5zM217 751l136 108l35 -37
l-151 -93z" />
    <glyph glyph-name="racute" unicode="&#x155;" horiz-adv-x="340" 
d="M326 445q-17 8 -33.5 11.5t-31.5 3.5q-32 0 -59 -11t-46.5 -31.5t-30.5 -49t-11 -64.5v-304h-43v496h43v-85h3q26 52 68 71t85 19q21 0 40 -2.5t34 -9.5zM143 575l78 154l49 -19l-100 -147z" />
    <glyph glyph-name="Rcommaaccent" unicode="&#x156;" horiz-adv-x="585" 
d="M493 0l-165 323h-201v-323h-47v696h269q43 0 80 -12.5t63 -35.5t41 -56.5t15 -75.5q0 -75 -46 -126t-123 -64l170 -326h-56zM498 516q0 37 -13.5 63.5t-35.5 43t-51.5 24.5t-60.5 8h-210v-290h207q35 0 65 9.5t52 28.5t34.5 47.5t12.5 65.5zM284 -216h-28l28 91h-18v66
h60v-67z" />
    <glyph glyph-name="rcommaaccent" unicode="&#x157;" horiz-adv-x="340" 
d="M326 445q-17 8 -33.5 11.5t-31.5 3.5q-32 0 -59 -11t-46.5 -31.5t-30.5 -49t-11 -64.5v-304h-43v496h43v-85h3q26 52 68 71t85 19q21 0 40 -2.5t34 -9.5zM87 -236h-28l28 91h-18v66h60v-67z" />
    <glyph glyph-name="Rcaron" unicode="&#x158;" horiz-adv-x="585" 
d="M493 0l-165 323h-201v-323h-47v696h269q43 0 80 -12.5t63 -35.5t41 -56.5t15 -75.5q0 -75 -46 -126t-123 -64l170 -326h-56zM498 516q0 37 -13.5 63.5t-35.5 43t-51.5 24.5t-60.5 8h-210v-290h207q35 0 65 9.5t52 28.5t34.5 47.5t12.5 65.5zM402 861l18 -21l-126 -109
h-37l-131 110l17 21l130 -84z" />
    <glyph glyph-name="rcaron" unicode="&#x159;" horiz-adv-x="340" 
d="M326 445q-17 8 -33.5 11.5t-31.5 3.5q-32 0 -59 -11t-46.5 -31.5t-30.5 -49t-11 -64.5v-304h-43v496h43v-85h3q26 52 68 71t85 19q21 0 40 -2.5t34 -9.5zM305 701l21 -20l-126 -124h-37l-131 124l21 21l127 -97z" />
    <glyph glyph-name="Tcommaaccent" unicode="&#x162;" horiz-adv-x="478" 
d="M264 655v-655h-46v655h-210v41h463v-41h-207zM229 -236h-28l28 91h-18v66h60v-67z" />
    <glyph glyph-name="tcommaaccent" unicode="&#x163;" horiz-adv-x="264" 
d="M96 -236q7 23 13.5 46t14.5 46h-18v66h60v-68q-11 -23 -21 -45t-21 -45h-28zM194 0q-57 0 -79.5 31t-22.5 85v343h-68v37h68v131h45v-131h92v-37h-92v-339q0 -17 2.5 -32t10.5 -26t22.5 -17t37.5 -6h31v-39h-47z" />
    <glyph glyph-name="Tcaron" unicode="&#x164;" horiz-adv-x="478" 
d="M264 655v-655h-46v655h-210v41h463v-41h-207zM367 861l18 -21l-126 -109h-37l-131 110l17 21l130 -84z" />
    <glyph glyph-name="tcaron" unicode="&#x165;" horiz-adv-x="303" 
d="M194 0q-57 0 -79.5 31t-22.5 85v343h-68v37h68v131h45v-131h92v-37h-92v-339q0 -17 2.5 -32t10.5 -26t22.5 -17t37.5 -6h31v-39h-47zM206 572l29 92h-19v66h61v-68q-11 -23 -21 -45t-21 -45h-29z" />
    <glyph glyph-name="Tbar" unicode="&#x166;" horiz-adv-x="478" 
d="M264 655v-265h154v-37h-154v-353h-46v353h-156v37h156v265h-210v41h463v-41h-207z" />
    <glyph glyph-name="tbar" unicode="&#x167;" horiz-adv-x="264" 
d="M21 298h71v161h-68v37h68v131h45v-131h92v-37h-92v-161h88v-35h-88v-143q0 -16 3 -30.5t11.5 -26t22.5 -18t36 -6.5h31v-39h-45q-54 0 -79 29t-25 73v161h-71v35z" />
    <glyph glyph-name="Umacron" unicode="&#x16a;" horiz-adv-x="606" 
d="M542 696v-464q0 -54 -18 -98t-49.5 -75t-75.5 -48t-96 -17q-54 0 -97.5 18t-75 50.5t-48.5 77.5t-17 99v457h46v-446q0 -44 13.5 -83t38.5 -67.5t60.5 -45t79.5 -16.5q42 0 77 14t60.5 40t39.5 64t14 86v454h48zM165 769v41h255v-41h-255z" />
    <glyph glyph-name="umacron" unicode="&#x16b;" horiz-adv-x="517" 
d="M402 0v80h-2q-12 -24 -30 -40t-38.5 -26t-42.5 -14.5t-43 -4.5q-38 0 -71 11.5t-57.5 33t-38.5 52.5t-14 70v334h44v-317q0 -70 41 -107t105 -37q32 0 59 11.5t47 32.5t31 50t11 64v303h42v-496h-43zM129 593v41h255v-41h-255z" />
    <glyph glyph-name="Ubreve" unicode="&#x16c;" horiz-adv-x="606" 
d="M542 696v-464q0 -54 -18 -98t-49.5 -75t-75.5 -48t-96 -17q-54 0 -97.5 18t-75 50.5t-48.5 77.5t-17 99v457h46v-446q0 -44 13.5 -83t38.5 -67.5t60.5 -45t79.5 -16.5q42 0 77 14t60.5 40t39.5 64t14 86v454h48zM210 824q5 -33 30.5 -53t57.5 -20q33 0 57 17.5t32 55.5
h38q-3 -19 -11 -38.5t-23 -35.5t-38 -26t-55 -10t-55 10t-38.5 26t-23.5 35.5t-10 38.5h39z" />
    <glyph glyph-name="ubreve" unicode="&#x16d;" horiz-adv-x="517" 
d="M402 0v80h-2q-12 -24 -30 -40t-38.5 -26t-42.5 -14.5t-43 -4.5q-38 0 -71 11.5t-57.5 33t-38.5 52.5t-14 70v334h44v-317q0 -70 41 -107t105 -37q32 0 59 11.5t47 32.5t31 50t11 64v303h42v-496h-43zM168 674q5 -33 30.5 -53t57.5 -20q33 0 57 17.5t32 55.5h38
q-3 -19 -11 -38.5t-23 -35.5t-38 -26t-55 -10t-55 10t-38.5 26t-23.5 35.5t-10 38.5h39z" />
    <glyph glyph-name="Uring" unicode="&#x16e;" horiz-adv-x="606" 
d="M542 696v-464q0 -54 -18 -98t-49.5 -75t-75.5 -48t-96 -17q-54 0 -97.5 18t-75 50.5t-48.5 77.5t-17 99v457h46v-446q0 -44 13.5 -83t38.5 -67.5t60.5 -45t79.5 -16.5q42 0 77 14t60.5 40t39.5 64t14 86v454h48zM304 715q-38 0 -64.5 26.5t-26.5 63.5q0 38 26.5 64
t64.5 26t64 -26t26 -64q0 -37 -26 -63.5t-64 -26.5zM304 868q-26 0 -44.5 -18.5t-18.5 -44.5t18.5 -44.5t44.5 -18.5t44.5 18.5t18.5 44.5t-18.5 44.5t-44.5 18.5z" />
    <glyph glyph-name="uring" unicode="&#x16f;" horiz-adv-x="517" 
d="M402 0v80h-2q-12 -24 -30 -40t-38.5 -26t-42.5 -14.5t-43 -4.5q-38 0 -71 11.5t-57.5 33t-38.5 52.5t-14 70v334h44v-317q0 -70 41 -107t105 -37q32 0 59 11.5t47 32.5t31 50t11 64v303h42v-496h-43zM252 553q-38 0 -64.5 26.5t-26.5 63.5q0 38 26.5 64t64.5 26t64 -26
t26 -64q0 -37 -26 -63.5t-64 -26.5zM252 706q-26 0 -44.5 -18.5t-18.5 -44.5t18.5 -44.5t44.5 -18.5t44.5 18.5t18.5 44.5t-18.5 44.5t-44.5 18.5z" />
    <glyph glyph-name="Uhungarumlaut" unicode="&#x170;" horiz-adv-x="606" 
d="M542 696v-464q0 -54 -18 -98t-49.5 -75t-75.5 -48t-96 -17q-54 0 -97.5 18t-75 50.5t-48.5 77.5t-17 99v457h46v-446q0 -44 13.5 -83t38.5 -67.5t60.5 -45t79.5 -16.5q42 0 77 14t60.5 40t39.5 64t14 86v454h48zM319 751l136 108l35 -37l-151 -93zM202 751l135 108
l36 -37l-152 -93z" />
    <glyph glyph-name="uhungarumlaut" unicode="&#x171;" horiz-adv-x="517" 
d="M402 0v80h-2q-12 -24 -30 -40t-38.5 -26t-42.5 -14.5t-43 -4.5q-38 0 -71 11.5t-57.5 33t-38.5 52.5t-14 70v334h44v-317q0 -70 41 -107t105 -37q32 0 59 11.5t47 32.5t31 50t11 64v303h42v-496h-43zM177 575l79 154l48 -19l-99 -147zM278 575l79 154l48 -19l-99 -147z
" />
    <glyph glyph-name="Uogonek" unicode="&#x172;" horiz-adv-x="606" 
d="M255 -91q0 18 7.5 40t26.5 45q-51 3 -92 22t-70.5 51t-45.5 76t-16 96v457h46v-446q0 -44 13.5 -83t38.5 -67.5t60.5 -45t79.5 -16.5q42 0 77 14t60.5 40t39.5 64t14 86v454h48v-464q0 -51 -16 -93t-44.5 -72.5t-68 -49t-86.5 -21.5q-16 -21 -24.5 -42t-8.5 -38
q0 -27 15.5 -39.5t39.5 -12.5q25 0 57 16l13 -30q-14 -8 -34.5 -14.5t-43.5 -6.5q-40 0 -63 24t-23 56z" />
    </font>
</defs>
</svg>
